<svg width="70" height="70" viewBox="0 0 70 70" fill="none" xmlns="http://www.w3.org/2000/svg">
<g clip-path="url(#clip0_1030_749)">
<path d="M43.5372 22.2588C43.4025 22.259 43.2692 22.2327 43.1448 22.1813C43.0204 22.1299 42.9074 22.0545 42.8122 21.9593C42.717 21.8641 42.6416 21.751 42.5902 21.6266C42.5388 21.5022 42.5125 21.3689 42.5127 21.2343V19.5937C42.5125 19.459 42.5388 19.3256 42.5901 19.2011C42.6415 19.0766 42.7169 18.9634 42.8121 18.8681C42.9072 18.7728 43.0203 18.6971 43.1447 18.6455C43.2691 18.5939 43.4025 18.5674 43.5372 18.5674C43.8093 18.5674 44.0704 18.6755 44.2628 18.868C44.4553 19.0604 44.5635 19.3215 44.5635 19.5937V21.2343C44.5635 21.369 44.5369 21.5024 44.4853 21.6268C44.4337 21.7512 44.3581 21.8642 44.2628 21.9594C44.1674 22.0545 44.0543 22.1299 43.9298 22.1813C43.8053 22.2327 43.6718 22.259 43.5372 22.2588Z" fill="#2D5DA5"/>
<path d="M26.4614 22.2588C26.3267 22.259 26.1933 22.2327 26.0688 22.1813C25.9443 22.1299 25.8311 22.0545 25.7358 21.9594C25.6405 21.8642 25.5648 21.7512 25.5132 21.6268C25.4616 21.5024 25.4351 21.369 25.4351 21.2343V19.5937C25.4351 19.3215 25.5432 19.0604 25.7357 18.868C25.9282 18.6755 26.1892 18.5674 26.4614 18.5674C26.7333 18.5679 26.9938 18.6762 27.1859 18.8686C27.378 19.0611 27.4858 19.3218 27.4858 19.5937V21.2343C27.4858 21.506 27.3779 21.7666 27.1858 21.9587C26.9937 22.1509 26.7331 22.2588 26.4614 22.2588Z" fill="#2D5DA5"/>
<path d="M34.998 23.2366C34.4249 23.2366 33.8584 23.1138 33.3367 22.8763C32.815 22.6389 32.3503 22.2925 31.9739 21.8603C31.7958 21.6548 31.7063 21.3871 31.7251 21.1159C31.7439 20.8446 31.8694 20.5918 32.0741 20.4129C32.2792 20.2341 32.5468 20.1441 32.8182 20.1625C33.0896 20.181 33.3426 20.3064 33.5215 20.5113C33.7051 20.7227 33.932 20.8923 34.1867 21.0086C34.4414 21.125 34.718 21.1854 34.998 21.1858C35.2784 21.1858 35.5555 21.1255 35.8105 21.0092C36.0656 20.8928 36.2927 20.723 36.4764 20.5113C36.6554 20.3064 36.9084 20.181 37.1798 20.1625C37.4512 20.1441 37.7188 20.2341 37.9238 20.4129C38.1287 20.5918 38.2542 20.8448 38.2726 21.1162C38.2911 21.3876 38.201 21.6552 38.0223 21.8603C37.6458 22.2925 37.1811 22.6389 36.6594 22.8763C36.1377 23.1138 35.5712 23.2366 34.998 23.2366Z" fill="#2D5DA5"/>
<path d="M69.2435 23.1473C70.1114 20.1966 70.2351 17.0769 69.6034 14.0667C68.9716 11.0566 67.6041 8.24982 65.6231 5.89704C63.1103 2.87023 59.5874 0.854597 55.7046 0.222281C51.9483 -0.39675 48.093 0.274745 44.7671 2.12726C41.808 3.75257 38.4817 4.59229 35.1057 4.56631H34.8815C31.5054 4.59253 28.1791 3.7528 25.22 2.12726C19.8533 -0.882371 13.0903 -0.674577 7.9898 2.65589C7.76218 2.80488 7.603 3.03814 7.54729 3.30442C7.49157 3.57069 7.54389 3.84821 7.69268 4.07595C7.76628 4.1886 7.86133 4.28564 7.97244 4.36154C8.08355 4.43744 8.20853 4.49069 8.34023 4.51828C8.47193 4.54588 8.60778 4.54725 8.74002 4.52233C8.87225 4.49742 8.99825 4.44669 9.11087 4.37307C13.5807 1.4564 19.5015 1.27411 24.2174 3.91551C27.482 5.7154 31.1536 6.64808 34.8815 6.62439H35.1148C38.8407 6.64904 42.5108 5.71895 45.7752 3.92281C48.6946 2.29786 52.0781 1.70932 55.3747 2.25303C58.7702 2.80652 61.8509 4.56959 64.0481 7.21683C65.6653 9.13442 66.826 11.3941 67.4427 13.8256C68.0594 16.257 68.116 18.7968 67.6083 21.2533C67.4752 21.1585 67.3385 21.071 67.1963 20.989C66.3208 20.4864 65.3188 20.2472 64.3106 20.2999C64.6688 18.3869 64.5963 16.4181 64.0984 14.5365C63.6005 12.655 62.6897 10.9081 61.4322 9.42258L61.4086 9.39521L61.2955 9.27126C58.851 6.55876 55.4622 6.88326 53.3312 8.33066C52.175 9.10935 51.3151 10.255 50.8903 11.5827C50.4428 13.068 50.598 14.6698 51.3223 16.0416C52.0354 17.4239 52.4144 18.9542 52.4289 20.5095C52.4289 24.8244 50.9286 30.5119 48.1997 36.5257C45.901 41.5898 42.8403 46.5991 40.208 49.5996C39.2785 50.6714 38.7174 52.0133 38.6075 53.4278L37.5922 66.3869C37.5587 66.7914 37.3831 67.1709 37.0964 67.4582C36.8098 67.7455 36.4307 67.922 36.0263 67.9564V48.9981C36.4074 48.818 36.7343 48.5408 36.9742 48.1942C37.1811 47.8976 37.4044 47.6127 37.6432 47.3411C40.002 44.6486 42.7036 40.2536 44.8692 35.5833C44.9835 35.3366 44.9953 35.0548 44.902 34.7995C44.8087 34.5442 44.6179 34.3363 44.3716 34.2215C44.2494 34.1647 44.1172 34.1326 43.9826 34.127C43.848 34.1214 43.7136 34.1424 43.5871 34.1888C43.4606 34.2352 43.3445 34.3061 43.2455 34.3974C43.1464 34.4887 43.0664 34.5987 43.0099 34.721C40.9518 39.1561 38.3049 43.471 36.101 45.9884C35.8115 46.3177 35.5412 46.6634 35.2916 47.0239C35.2596 47.0718 35.2162 47.1111 35.1653 47.1381C35.1144 47.1652 35.0576 47.1791 34.9999 47.1788C34.9424 47.179 34.8857 47.1647 34.8351 47.1373C34.7845 47.1099 34.7415 47.0703 34.7101 47.0221C34.4601 46.6625 34.1898 46.3174 33.9008 45.9884C31.6148 43.3817 28.8968 38.9064 26.8041 34.309C24.376 28.9679 23.038 24.066 23.038 20.5059C23.0532 19.801 23.2343 19.1097 23.5666 18.4879C24.8023 16.099 25.1504 13.3493 24.5492 10.7278C24.5303 10.6628 24.5307 10.5937 24.5504 10.5289C24.5702 10.4642 24.6084 10.4066 24.6604 10.3632C24.7033 10.3217 24.7576 10.2939 24.8163 10.2832C24.875 10.2725 24.9355 10.2794 24.9903 10.303C31.2575 12.6728 38.7424 12.6728 45.0096 10.303C45.0648 10.2797 45.1255 10.273 45.1844 10.2837C45.2433 10.2944 45.2979 10.322 45.3413 10.3632C45.3928 10.407 45.4306 10.4646 45.4503 10.5292C45.47 10.5938 45.4708 10.6627 45.4526 10.7278C44.8455 13.3108 45.1864 15.9924 46.4333 18.4861C46.7674 19.1073 46.9492 19.7989 46.9638 20.5041C46.9638 23.1509 46.2218 26.5653 44.8164 30.3788C44.7698 30.5051 44.7485 30.6393 44.7538 30.7738C44.759 30.9083 44.7908 31.0405 44.8472 31.1627C44.9035 31.2849 44.9835 31.3948 45.0823 31.4861C45.1812 31.5775 45.2971 31.6484 45.4234 31.695C45.5497 31.7416 45.6839 31.7629 45.8184 31.7576C45.9529 31.7523 46.085 31.7205 46.2073 31.6642C46.3295 31.6078 46.4394 31.5279 46.5307 31.429C46.6221 31.3301 46.693 31.2142 46.7396 31.0879C48.2289 27.052 49.0146 23.3916 49.0146 20.5041C49.0023 19.4803 48.746 18.4742 48.2671 17.5692C47.2474 15.6065 46.9573 13.3455 47.4486 11.189C47.5502 10.7627 47.5336 10.3167 47.4006 9.89918C47.2677 9.48162 47.0234 9.10824 46.694 8.81918C46.3699 8.53367 45.9738 8.34215 45.5488 8.26537C45.1237 8.18858 44.6858 8.22942 44.2823 8.38348C38.4708 10.5892 31.5309 10.5892 25.7158 8.38348C25.3128 8.23013 24.8756 8.18966 24.4512 8.26643C24.0269 8.34321 23.6315 8.53434 23.3078 8.81918C22.9779 9.10787 22.7333 9.48123 22.6002 9.89892C22.4672 10.3166 22.4509 10.7627 22.5531 11.189C23.0437 13.3458 22.753 15.6067 21.7328 17.5692C21.2561 18.4749 21.0006 19.4806 20.9872 20.5041C20.9872 24.3504 22.389 29.5549 24.9375 35.1567C27.1067 39.9236 29.9505 44.5921 32.3604 47.3392C32.598 47.6114 32.8207 47.8962 33.0276 48.1924C33.2674 48.5389 33.5944 48.8162 33.9755 48.9963V67.9546C33.5706 67.9207 33.1908 67.7444 32.9035 67.4571C32.6161 67.1698 32.4399 66.79 32.4059 66.3851L31.3906 53.4259C31.2805 52.0112 30.7188 50.6692 29.7883 49.5978C27.1596 46.5991 24.0971 41.5898 21.8002 36.5257C19.0658 30.5101 17.5692 24.8244 17.5692 20.5095C17.5844 18.9546 17.964 17.425 18.6776 16.0434C19.4013 14.6714 19.5558 13.0696 19.1078 11.5845C18.683 10.2569 17.8231 9.11118 16.6669 8.33248C14.545 6.88326 11.1489 6.56059 8.70072 9.27309L8.59137 9.39521L8.56765 9.42258C7.31005 10.9081 6.39912 12.655 5.90092 14.5364C5.40272 16.4179 5.32981 18.3867 5.68747 20.2999C4.6794 20.248 3.67765 20.4872 2.80178 20.989C2.6596 21.0716 2.52288 21.1591 2.39163 21.2515C1.89405 18.8333 1.94287 16.3345 2.53453 13.9376C3.12619 11.5407 4.24574 9.30619 5.81142 7.3973C5.98301 7.1863 6.06399 6.91589 6.03666 6.6453C6.00933 6.37471 5.8759 6.12599 5.66558 5.95356C5.45499 5.7813 5.18462 5.69967 4.91389 5.72668C4.64317 5.75368 4.39425 5.88711 4.22184 6.09758C2.29937 8.44565 0.979049 11.2274 0.37547 14.2015C-0.228108 17.1755 -0.0966979 20.252 0.758301 23.1637C0.373802 23.9291 0.134579 24.7592 0.0528103 25.6119C-0.153179 27.5715 0.344466 29.7116 1.45462 31.6275C2.56478 33.5434 4.17077 35.0546 5.97182 35.8567C6.833 36.2524 7.76765 36.4629 8.71531 36.4746C9.63997 36.4807 10.5496 36.241 11.3512 35.7801C12.4698 35.1144 13.3111 34.068 13.721 32.8325C13.8123 32.5762 13.798 32.2942 13.6815 32.0485C13.5649 31.8027 13.3556 31.6133 13.0994 31.5218C12.8432 31.4312 12.5615 31.446 12.3161 31.5629C12.0707 31.6798 11.8817 31.8892 11.7906 32.1452C11.5376 32.9216 11.0143 33.5814 10.3158 34.0046C9.3424 34.566 8.0937 34.5515 6.7976 33.9827C5.38849 33.3557 4.11976 32.1598 3.22289 30.603C1.43278 27.5041 1.70258 23.9822 3.82263 22.7645C5.94269 21.5468 9.12731 23.0653 10.9174 26.166C11.2564 26.7502 11.5297 27.3702 11.7323 28.0145C11.8121 28.2732 11.9913 28.4896 12.2305 28.6164C12.4697 28.7432 12.7494 28.7699 13.0083 28.6908C13.2664 28.6101 13.4822 28.4308 13.6089 28.1919C13.7355 27.9529 13.7627 27.6737 13.6846 27.4148C13.4371 26.6246 13.1033 25.8641 12.6893 25.1471C11.5773 23.2221 9.97313 21.7218 8.17209 20.9215C8.0773 20.8802 7.9825 20.8401 7.8877 20.8012C7.86583 20.7119 7.84216 20.6189 7.8221 20.5332C7.40873 18.8385 7.40131 17.0701 7.80043 15.3719C8.19955 13.6737 8.99392 12.0938 10.119 10.7606L10.2156 10.6512C11.8471 8.84471 14.0437 9.03974 15.502 10.0332C16.8382 10.9447 17.9903 12.8278 16.8364 15.1374C15.9788 16.8037 15.5248 18.6483 15.5112 20.5223C15.5112 30.778 23.038 45.0314 28.2388 50.965C28.8762 51.7039 29.2596 52.6279 29.3325 53.6009L30.3479 66.5601C30.4263 67.5015 30.8546 68.3794 31.5484 69.0205C32.2422 69.6617 33.1511 70.0196 34.0958 70.0236H35.8731C36.8179 70.02 37.7271 69.6622 38.4209 69.021C39.1148 68.3798 39.5431 67.5017 39.6211 66.5601L40.6364 53.5991C40.7094 52.626 41.0928 51.7021 41.7302 50.9632C46.9328 45.0314 54.4596 30.778 54.4596 20.5205C54.4453 18.646 53.9914 16.8009 53.1343 15.1337C51.9804 12.8296 53.1343 10.941 54.4669 10.0296C55.9252 9.03427 58.1218 8.84106 59.7533 10.6476L59.8518 10.7569C60.9762 12.0904 61.7701 13.6705 62.1689 15.3686C62.5677 17.0667 62.5602 18.835 62.1469 20.5296C62.125 20.6189 62.1031 20.7119 62.0794 20.7976C61.9864 20.834 61.8971 20.8741 61.7968 20.916C59.9958 21.7181 58.3916 23.2184 57.2815 25.1452C56.1713 27.0721 55.67 29.2103 55.8778 31.1718C56.0966 33.2517 57.0755 34.8924 58.6323 35.7911C59.4338 36.2522 60.3435 36.4919 61.2682 36.4856C62.2158 36.4735 63.1504 36.2629 64.0117 35.8676C65.8127 35.0655 67.4151 33.5634 68.5289 31.6384C69.6427 29.7134 70.1385 27.5733 69.9307 25.6228C69.8508 24.7698 69.6115 23.9394 69.2252 23.1747L69.2435 23.1473ZM66.7697 30.5957C64.9796 33.6947 61.7987 35.2223 59.6768 33.9991C58.7034 33.4358 58.0854 32.3494 57.9359 30.9366C57.7737 29.4054 58.1783 27.7064 59.0752 26.1515C59.9721 24.5965 61.2409 23.3989 62.6482 22.7718C63.2464 22.4949 63.8958 22.3459 64.5549 22.3343C65.1206 22.3277 65.6778 22.4711 66.17 22.7499C68.2919 23.9749 68.5617 27.4895 66.7697 30.5884V30.5957Z" fill="url(#paint0_linear_1030_749)"/>
</g>
<defs>
<linearGradient id="paint0_linear_1030_749" x1="-3.0833e-05" y1="34.9981" x2="69.9981" y2="34.9981" gradientUnits="userSpaceOnUse">
<stop stop-color="#2D5DA5"/>
<stop offset="1" stop-color="#104099"/>
</linearGradient>
<clipPath id="clip0_1030_749">
<rect width="70" height="70" fill="white"/>
</clipPath>
</defs>
</svg>
