<svg width="60" height="73" viewBox="0 0 60 73" fill="none" xmlns="http://www.w3.org/2000/svg">
<g clip-path="url(#clip0_1030_639)">
<path d="M59.9087 19.5342C59.9087 19.5342 59.9087 19.5299 59.9087 19.5277C59.685 17.9835 52.3571 11.7285 45.6895 11.7285C38.4333 11.7285 31.7113 20.6636 29.8283 20.8504C28.1082 20.8569 28.1147 23.4566 29.8349 23.4566C35.1277 23.4566 41.3219 7.29139 55.1827 18.2941C53.543 18.7046 52.3897 19.7514 51.7903 21.3716C47.6463 17.7989 40.9787 19.8187 39.1609 24.2732C38.5245 25.8543 40.9114 26.836 41.5738 25.2549C43.0594 21.8646 48.9907 20.403 51.6534 25.3114C53.8427 29.3445 60.8752 26.1367 59.9109 19.5342H59.9087ZM53.9469 24.0756C53.9882 21.6279 54.9482 20.4725 57.3633 20.7352C57.2807 24.0083 54.5724 25.2006 53.9469 24.0756Z" fill="#415DA1"/>
<path d="M44.2713 25.83C44.3104 25.8756 48.1894 30.4192 48.1894 36.4874C48.1894 49.4686 37.7405 70.3685 31.2488 70.3685C26.6336 70.3685 4.93231 52.6917 2.79302 38.6505C27.9867 49.3687 18.5695 6.76319 42.0256 6.52646C42.953 6.52429 45.5788 6.5156 46.9927 6.5156C48.0069 6.5156 49.7075 7.02382 49.7075 10.425C49.7075 12.1494 52.3138 12.1494 52.3138 10.425C52.3138 5.61645 49.4469 3.90936 46.9927 3.90936C45.4333 3.90936 43.142 3.91805 41.6781 3.92022V3.93759C35.8011 4.08963 31.7006 6.63071 28.6404 10.2273V6.53949C28.6752 4.67386 27.0354 2.60624 23.4279 2.60624C21.9207 2.60624 20.7218 2.97111 19.8248 3.66394C19.0038 2.18273 16.8298 0 14.8903 0C10.6139 0 6.45045 5.03873 8.97633 8.42684C10.9375 11.0613 11.4848 13.7067 11.639 14.9338C8.94809 16.6365 0 23.2824 0 36.4874C0 52.1096 24.7463 72.9747 31.2488 72.9747C40.4402 72.9747 50.7956 49.1711 50.7956 36.4874C50.7956 29.4592 46.428 24.3379 46.2434 24.1229C45.1097 22.8198 43.1463 24.5291 44.2735 25.83H44.2713ZM21.5058 23.5018C20.2657 20.0398 17.9309 15.3334 14.2105 14.4733C14.0476 13.2484 13.5937 11.1851 12.371 8.9242C14.8621 8.37689 16.4432 6.77623 17.2251 4.42192C18.4283 6.01173 18.2567 7.94035 18.2155 13.0312C18.2155 14.7557 20.8217 14.7557 20.8217 13.0312V9.14139C22.6765 9.6344 24.4226 9.49106 26.0342 8.80909V13.8609C24.1837 16.9188 22.7785 20.3156 21.5058 23.5039V23.5018ZM25.8192 5.98567C23.8058 7.20843 21.9055 6.81532 20.8999 6.43959C21.4928 4.74119 25.0395 4.96054 25.8192 5.98567ZM15.0076 2.62362C14.6101 4.97575 13.3092 6.39398 10.8767 6.50257C10.4402 5.22551 12.6772 2.39123 15.0076 2.62362ZM13.3157 16.9579C16.7451 17.3662 19.2058 24.3575 19.9551 27.3503C16.0566 36.7654 12.7228 40.6878 2.64316 35.7142C3.00586 23.7581 11.55 18.0135 13.3179 16.9601L13.3157 16.9579Z" fill="#415DA1"/>
<path d="M32.5518 27.3654V34.8388L27.6803 43.3634L22.1638 46.6733L18.9407 44.5253C18.6062 44.3016 18.1871 44.2473 17.8048 44.3733L13.8955 45.6764C12.2557 46.2237 13.0919 48.6975 14.7208 48.148L18.0242 47.0469L20.6391 48.7909L19.5575 53.1129C19.1405 54.7809 21.6664 55.4216 22.0877 53.7449L23.2606 49.0558L27.3393 46.6081V59.9434C27.3393 61.6679 29.9456 61.6679 29.9456 59.9434V52.6633L34.2372 56.9549C35.4426 58.1755 37.3017 56.3359 36.0767 55.1132L29.9434 48.9798V44.6535L34.3718 36.9021L37.5905 38.5114L36.4829 44.0518C36.1462 45.7481 38.6982 46.2693 39.037 44.5644L39.8623 40.4357L42.0494 42.6228C43.2721 43.8412 45.1095 41.9973 43.8933 40.7788L39.9839 36.8695C39.4279 36.4568 37.2539 35.4599 35.1537 34.3805V27.3676C35.1537 25.6431 32.5475 25.6431 32.5475 27.3676L32.5518 27.3654Z" fill="#415DA1"/>
</g>
<defs>
<clipPath id="clip0_1030_639">
<rect width="60" height="72.9747" fill="white"/>
</clipPath>
</defs>
</svg>
