<svg width="60" height="74" viewBox="0 0 60 74" fill="none" xmlns="http://www.w3.org/2000/svg">
<path d="M59.484 60.8283C52.5902 56.0348 46.493 51.2315 41.3202 46.5457C44.9785 41.8989 47.7911 37.3304 49.6793 32.8794C49.9055 32.3315 49.6596 31.6957 49.1089 31.4707C48.5582 31.2457 47.919 31.4902 47.6928 32.0381C41.3989 46.7609 25.9001 60.3685 12.919 69.9457L12.8206 63.5674C12.8206 63.0489 12.4371 62.6185 11.9355 62.5207L4.23535 61.112C18.2491 51.1337 36.0392 36.0391 41.4382 19.7413C43.1592 14.5076 43.1592 10.4478 42.7363 7.7087L45.2637 10.1446C48.5582 13.3239 50.2595 17.3641 50.3775 20.612C50.3382 22.7641 49.9743 25.0631 49.3056 27.45C49.1482 28.0174 49.4826 28.6141 50.053 28.7609C50.6234 28.9174 51.2233 28.5848 51.3708 28.0174C52.423 24.2707 52.5607 21.1304 52.5214 20.5141C52.5214 19.7511 52.2558 13.9304 46.7388 8.61848C46.6995 8.57935 41.2317 3.30652 41.1924 3.26739C41.035 3.14022 37.3472 0 30.2665 0C23.0285 0 19.1637 3.27718 19.1637 3.27718C19.144 3.29674 19.1244 3.31631 19.1047 3.31631L13.5975 8.62826C9.1918 12.8739 7.77567 18.0098 7.81501 20.6022C7.91335 26.0707 9.9392 34.9533 19.0457 46.5359C14.1679 50.9674 8.17887 55.7413 0.88188 60.8283C0.0951427 61.3565 0.360666 62.5794 1.30475 62.7555L10.6473 64.4674L10.7653 72.0489C10.7849 72.9294 11.7782 73.3989 12.4666 72.9098C19.203 68.0381 25.0937 63.2348 30.1682 58.5C35.223 63.2446 41.1727 68.0772 47.8501 72.9098C48.5582 73.4283 49.5514 72.9294 49.5514 72.0489L49.6694 64.4674L59.012 62.7555C59.4348 62.6772 59.779 62.3544 59.8774 61.9337C60.0052 61.5131 59.8282 61.0728 59.484 60.8283ZM20.7273 4.79348C25.7035 1.25217 34.987 1.2913 39.6582 4.77391C40.0024 5.47826 41.2809 8.57935 40.6318 13.7641C39.078 12.8152 36.4031 11.475 32.8628 11.0054C32.2727 10.9272 31.7318 11.3478 31.6532 11.9152C31.5745 12.4826 31.9974 13.0402 32.5677 13.1185C36.4129 13.637 39.1665 15.3098 40.2188 16.0533C38.724 22.8717 34.5936 29.4554 30.1682 34.9239C23.8743 27.1174 21.2092 20.7391 20.157 16.0533C21.2485 15.3098 24.0218 13.6565 27.808 13.1185C28.398 13.0402 28.8012 12.4924 28.7226 11.8957C28.6439 11.3087 28.0932 10.9076 27.4933 10.9859C23.9923 11.4848 21.2781 12.8152 19.7242 13.7446C19.1047 8.64783 20.3831 5.51739 20.7273 4.79348ZM10.0179 20.5826C10.0179 20.5239 10.0572 15.0652 15.1317 10.1641L17.6787 7.7087C16.0856 17.7946 22.291 28.6533 28.8012 36.6065C26.5394 39.2576 23.8645 42.075 20.688 45.0587C15.3874 38.3381 10.0474 29.1424 10.0179 20.5826ZM48.4402 62.5207C47.9386 62.6185 47.5551 63.0489 47.5551 63.5674L47.4567 69.9457C41.566 65.6022 36.2949 61.2685 31.7417 57.0228C34.8001 54.0685 37.5439 51.1435 39.9336 48.2478C44.6245 52.4935 50.053 56.8174 56.1207 61.1315L48.4402 62.5207Z" fill="#425DA1"/>
</svg>
