<svg width="66" height="75" viewBox="0 0 66 75" fill="none" xmlns="http://www.w3.org/2000/svg">
<g clip-path="url(#clip0_1030_727)">
<path d="M66 42.1541C66 38.1787 63.7258 34.597 60.3515 32.9239C61.8155 31.1981 62.6011 29.1331 62.6011 26.8571C62.6011 21.3404 58.1037 16.8413 52.5852 16.8413C51.5659 16.8413 50.5712 16.9977 49.6046 17.3123C49.0808 12.8413 45.29 9.36328 40.6608 9.36328C37.4183 9.36328 34.594 11.0891 33 13.6515C31.4042 11.0891 28.58 9.36328 25.3392 9.36328C20.7364 9.36328 16.9192 12.8413 16.3954 17.3123C15.4271 16.9977 14.4341 16.8413 13.4148 16.8413C7.89807 16.8413 3.39895 21.3387 3.39895 26.8571C3.39895 29.1313 4.15641 31.1981 5.64851 32.9239C2.27416 34.597 0 38.1787 0 42.1541C0 46.1295 2.27417 49.5285 5.67487 51.1489C4.2109 52.9274 3.4007 55.1243 3.4007 57.4512C3.4007 62.9679 7.89807 67.467 13.4165 67.467C14.4359 67.467 15.4306 67.3106 16.3972 66.996C16.9209 71.467 20.7118 74.945 25.3409 74.945C28.5835 74.945 31.4077 73.2192 33.0018 70.6568C34.5975 73.2192 37.4218 74.945 40.6626 74.945C45.2654 74.945 49.0826 71.467 49.6063 66.996C50.5747 67.3106 51.5677 67.467 52.587 67.467C58.1037 67.467 62.6028 62.9696 62.6028 57.4512C62.6028 55.1243 61.7926 52.9274 60.3286 51.1489C63.7276 49.5285 66.0035 46.0241 66.0035 42.1541H66ZM25.3902 72.2772C21.9121 72.2772 19.0879 69.4529 19.0879 65.9749C19.0879 65.7657 19.1142 65.5302 19.167 65.2684L19.1933 65.112C19.2724 64.6146 19.0369 64.0926 18.6186 63.8044C18.2004 63.5162 17.6503 63.5162 17.2074 63.7517C16.0299 64.4318 14.8014 64.771 13.5202 64.771C9.46749 64.771 6.19859 61.4758 6.19859 57.4494C6.19859 55.1752 7.24429 53.0821 9.07557 51.6708C9.49385 51.3563 9.67663 50.8343 9.57294 50.3106C9.46749 49.8132 9.04921 49.3949 8.5536 49.2912C5.20738 48.5584 2.80141 45.5513 2.80141 42.1524C2.80141 38.7534 5.23374 35.5636 8.44991 34.778H11.9016C13.4974 34.778 14.8049 36.3211 14.8049 38.2034C14.8049 40.0856 13.4974 41.6287 11.9016 41.6287H11.0123C10.2794 41.6287 9.67838 42.2297 9.67838 42.9626C9.67838 43.6954 10.2794 44.2965 11.0123 44.2965H11.8752C14.9613 44.2965 17.471 41.5513 17.471 38.177C17.471 34.8026 14.9613 32.0575 11.8752 32.0575H8.71177C7.0123 30.6199 6.17575 28.8677 6.17575 26.8009C6.17575 22.7482 9.471 19.4793 13.4974 19.4793C14.7786 19.4793 16.007 19.8185 17.1845 20.4986C17.6292 20.7605 18.1775 20.7341 18.5958 20.4459C19.0141 20.1577 19.2496 19.6621 19.1705 19.1383L19.1441 18.9819C19.1178 18.72 19.065 18.4845 19.065 18.2754C19.065 14.7974 21.8893 11.9731 25.3673 11.9731C28.8453 11.9731 31.6696 14.7974 31.6696 18.2754V38.7499H31.4341C27.7469 38.7499 24.7399 41.757 24.7399 45.4441C24.7399 46.177 25.3409 46.778 26.0738 46.778C26.8067 46.778 27.4077 46.177 27.4077 45.4441C27.4077 43.2209 29.2127 41.4178 31.4341 41.4178H31.6696V65.894C31.696 69.4494 28.8717 72.2737 25.3937 72.2737L25.3902 72.2772ZM57.58 49.3176C57.0826 49.423 56.6643 49.815 56.5606 50.3369C56.4552 50.8343 56.6397 51.3826 57.058 51.6972C58.8893 53.1084 59.935 55.228 59.935 57.4758C59.935 61.5285 56.6397 64.7974 52.6134 64.7974C51.3322 64.7974 50.1037 64.4582 48.9262 63.778C48.4815 63.5162 47.9332 63.5425 47.5149 63.8308C47.0967 64.119 46.8612 64.6146 46.9402 65.1383L46.9666 65.2947C46.993 65.5566 47.0457 65.7921 47.0457 66.0012C47.0457 69.4793 44.2214 72.3035 40.7434 72.3035C37.2654 72.3035 34.4411 69.4793 34.4411 66.0012V49.5267H35.8278C38.051 49.5267 39.8541 51.3316 39.8541 53.5531C39.8541 54.286 40.4552 54.887 41.188 54.887C41.9209 54.887 42.522 54.286 42.522 53.5531C42.522 49.8659 39.5149 46.8589 35.8278 46.8589H34.4411V18.358C34.4411 14.88 37.2654 12.0557 40.7434 12.0557C44.2214 12.0557 47.0457 14.88 47.0457 18.358C47.0457 18.5671 47.0193 18.8026 46.9666 19.0645L46.9402 19.2209C46.8612 19.7183 47.0967 20.2403 47.5149 20.5285C47.9332 20.8167 48.4833 20.8431 48.9262 20.5812C50.1037 19.9011 51.3322 19.5619 52.6134 19.5619C56.6661 19.5619 59.935 22.8571 59.935 26.8835C59.935 28.9485 59.0721 30.7271 57.3989 32.1401H54.3128C51.2267 32.1401 48.717 34.8853 48.717 38.2596C48.717 41.6339 51.2267 44.3791 54.3128 44.3791H55.1757C55.9086 44.3791 56.5097 43.778 56.5097 43.0452C56.5097 42.3123 55.9086 41.7113 55.1757 41.7113H54.3128C52.717 41.7113 51.4095 40.1682 51.4095 38.286C51.4095 36.4037 52.717 34.8606 54.3128 34.8606H57.7118C60.9279 35.6181 63.3603 38.757 63.3603 42.235C63.3339 45.583 60.9016 48.59 57.5817 49.3211L57.58 49.3176Z" fill="#415DA1"/>
<path d="M44.9509 30.7506C48.5081 30.7506 51.3833 27.8473 51.3833 24.3183C51.3833 23.5854 50.7822 22.9844 50.0494 22.9844C49.3165 22.9844 48.7154 23.5854 48.7154 24.3183C48.7154 26.3833 47.016 28.0846 44.9492 28.0846H43.2497C39.6926 28.0846 36.8174 30.9615 36.8174 34.5169C36.8174 35.2498 37.4184 35.8508 38.1513 35.8508C38.8842 35.8508 39.4852 35.2498 39.4852 34.5169C39.4852 32.4519 41.1847 30.7506 43.2515 30.7506H44.9509Z" fill="#415DA1"/>
<path d="M46.0491 43.9566C45.6308 43.3291 44.8206 43.1727 44.1932 43.591C43.5658 44.0093 43.4094 44.8458 43.8277 45.4469L46.0245 48.7685C46.6519 49.7105 46.9929 50.8335 46.9929 51.9847C46.9929 53.5277 46.3918 54.9653 45.2934 56.0638L42.2863 59.0708C41.7626 59.5945 41.7626 60.4311 42.2863 60.953C42.5482 61.2149 42.8874 61.345 43.2284 61.345C43.5693 61.345 43.9085 61.2149 44.1704 60.953L47.1774 57.946C48.7732 56.3502 49.6607 54.2325 49.6607 51.9583C49.6607 50.2852 49.1633 48.6631 48.2494 47.2782L46.0526 43.9566H46.0491Z" fill="#415DA1"/>
<path d="M22.9067 30.7506C24.9717 30.7506 26.673 32.4501 26.673 34.5169C26.673 35.2498 27.274 35.8508 28.0069 35.8508C28.7398 35.8508 29.3408 35.2498 29.3408 34.5169C29.3408 30.9598 26.4375 28.0846 22.9085 28.0846H21.209C19.144 28.0846 17.4427 26.3851 17.4427 24.3183C17.4427 23.5854 16.8417 22.9844 16.1088 22.9844C15.376 22.9844 14.7749 23.5854 14.7749 24.3183C14.7749 27.8754 17.6782 30.7506 21.2072 30.7506H22.9067Z" fill="#415DA1"/>
<path d="M29.1829 56.0895L24.9738 56.796C23.4571 57.0578 21.914 56.6905 20.6592 55.803C19.7172 55.1229 19.0124 54.2072 18.6188 53.1352L17.2075 49.4216C16.9457 48.7415 16.1618 48.3759 15.4817 48.6378C14.8015 48.8997 14.436 49.6835 14.6979 50.3636L16.1091 54.0772C16.7102 55.6466 17.7295 56.9805 19.0898 57.9735C20.5537 59.0192 22.2532 59.5693 24.0054 59.5693C24.4764 59.5693 24.9474 59.5429 25.3921 59.4638L29.6012 58.7573C30.3341 58.6272 30.8297 57.9471 30.6996 57.2142C30.5942 56.4814 29.9158 55.9858 29.1829 56.0895Z" fill="#415DA1"/>
<path d="M55.8277 10.6943C56.1669 10.6943 56.5078 10.5642 56.7697 10.3024L60.796 6.27602C61.3198 5.75229 61.3198 4.91574 60.796 4.39377C60.2723 3.87005 59.4358 3.87005 58.9138 4.39377L54.8874 8.42013C54.3637 8.94386 54.3637 9.78042 54.8874 10.3024C55.1493 10.5642 55.4885 10.6943 55.8294 10.6943H55.8277Z" fill="#415DA1"/>
<path d="M57.1621 13.3632C57.1621 14.0961 57.7632 14.6971 58.496 14.6971H63.8563C64.5892 14.6971 65.1902 14.0961 65.1902 13.3632C65.1902 12.6304 64.5892 12.0293 63.8563 12.0293H58.496C57.7632 12.0293 57.1621 12.6304 57.1621 13.3632Z" fill="#415DA1"/>
<path d="M51.8279 8.02812C52.5608 8.02812 53.1618 7.42707 53.1618 6.6942V1.33392C53.1618 0.601055 52.5608 0 51.8279 0C51.0951 0 50.494 0.601055 50.494 1.33392V6.6942C50.4676 7.42707 51.0687 8.02812 51.8279 8.02812Z" fill="#415DA1"/>
</g>
<defs>
<clipPath id="clip0_1030_727">
<rect width="66" height="74.9438" fill="white"/>
</clipPath>
</defs>
</svg>
