<svg width="269" height="185" viewBox="0 0 269 185" fill="none" xmlns="http://www.w3.org/2000/svg">
<path d="M265.171 83.6608L185.171 3.66075C180.29 -1.22025 172.374 -1.22025 167.493 3.66075C162.611 8.54275 162.611 16.4568 167.493 21.3388L226.154 79.9997H12.5C5.597 79.9997 0 85.5967 0 92.4997C0 99.4017 5.597 105 12.5 105H226.154L167.495 163.661C162.613 168.543 162.613 176.457 167.495 181.339C169.935 183.778 173.135 185 176.334 185C179.533 185 182.732 183.778 185.173 181.339L265.171 101.339C270.053 96.4568 270.053 88.5428 265.171 83.6608Z" fill="#434DE1"/>
</svg>
