<svg width="251" height="449" viewBox="0 0 251 449" fill="none" xmlns="http://www.w3.org/2000/svg">
<path fill-rule="evenodd" clip-rule="evenodd" d="M185.047 171.267L186.543 171.118C187.28 158.868 185.21 146.833 182.792 134.995L181.288 135.084C180.758 141.906 177.27 148.368 178.867 155.389C180.394 160.934 183.63 165.713 185.047 171.267ZM14.3529 109.573L15.2289 109.76C13.5969 106.668 15.1188 105.651 16.9654 103.095L17.1665 103.559L17.877 102.006C18.0181 101.612 18.1622 101.277 18.5518 101.13C18.9324 99.1976 20.0654 97.4283 21.5742 96.4672L21.8632 96.7918C22.4612 96.2692 23.182 96.0702 23.8683 95.8281C22.3952 93.6043 21.4476 90.7192 20.4542 88.3348C19.6454 85.8306 18.3808 83.4003 18.1432 80.8609C18.3344 78.4205 20.641 80.0057 21.766 81.223C25.2025 84.2364 28.1621 89.009 30.3799 94.8049C34.1885 93.8142 36.3733 94.8596 37.4313 100.063C38.4052 103.598 39.4007 107.224 39.5322 110.889C40.0436 110.713 40.9506 110.053 41.4407 110.571C49.9053 119.832 59.8999 126.966 69.5657 134.774C76.8701 129.402 80.6713 118.772 84.6886 110.792C91.6968 97.0959 98.7051 77.0447 116.732 77.1153C119.121 76.8663 121.454 76.5807 123.709 75.887C124.582 75.6497 125.662 75.364 125.958 74.8336C126.492 73.1254 126.594 71.277 127.533 69.7103C130.11 65.5218 135.693 65.1926 140.068 66.102C147.496 67.4785 147.309 66.675 147.846 74.4869C148.006 76.3413 149.444 76.6069 150.979 76.9909C152.721 77.5403 154.496 77.9892 156.287 78.3508C156.101 78.2985 155.915 78.2469 155.729 78.1943C184.802 78.6548 204.105 112.375 207.934 136.23C212.382 160.636 206.629 187.798 197.534 208.297C197.925 215.762 196.46 223.261 195.533 230.618C194.951 232.459 192.936 232.638 192.36 230.506L191.649 227.699L190.889 230.493C190.407 232.222 189.633 232.427 188.936 232.439C188.071 232.439 187.597 232.013 187.569 229.765L186.136 229.421C185.585 230.472 185.037 231.402 184.17 232.048C182.426 244.722 181.332 257.9 177.1 270.163C175.412 274.714 172.82 278.846 170.917 283.311C179.891 303.564 181.395 326.007 183.55 347.692C183.377 347.705 182.486 347.783 182.296 347.8L182.787 349.106C183.459 349.389 183.853 349.987 184.056 350.65C184.509 350.612 186.397 350.626 186.292 351.059C186.074 353.606 185.359 355.424 184.006 356.751C183.987 357.159 183.962 357.576 183.93 357.963C186.616 367.333 188.584 377.322 189.78 387.622C191.3 389.085 191.681 393.896 189.413 395.179C183.154 399.489 174.746 401.535 166.829 400.758C158.261 399.947 148.043 396.534 152.143 386.764C152.196 386.461 152.612 386.446 152.941 386.512C153.667 385.808 154.454 385.275 155.306 384.975C156.998 380.749 158.52 376.318 159.848 371.894C160.495 369.862 161.164 367.761 161.109 365.533C160.788 360.062 160.225 357.8 156.422 353.49C154.068 354.622 149.582 346.427 148.554 344.706C146.391 339.617 146.474 347.668 146.474 347.668C145.574 350.812 145.219 356.063 142.968 358.403C141.743 366.549 150.122 370.281 144.723 379.315C146.55 379.44 146.721 380.171 146.689 382.39C146.695 383.983 146.736 385.655 146.436 387.144C146.072 388.974 144.383 389.464 141.847 390.004C139.793 390.458 137.815 390.977 135.776 391.468C133.714 392.153 131.541 392.097 130.693 390.012C120.482 393.472 91.0463 393.076 81.3105 388.491C78.6219 387.415 76.7256 386.807 79.1946 383.777C80.5539 375.132 105.096 384.876 108.23 375.393C108.678 374.162 114.581 366.451 116.182 365.533C115.528 364.593 116.208 357.026 116.182 356.751C115.764 352.348 108.262 332.407 107.428 323.609C106.571 308.657 107.375 296.052 102.818 280.857C96.4478 256.797 84.0732 234.218 83.9062 208.758C84.1188 204.538 82.9485 200.044 84.0095 195.902L82.6918 195.217C82.5021 195.435 82.1593 195.429 82.0909 195.132C81.2264 193.729 82.1954 192.048 82.3943 190.512C81.9419 190.028 82.1678 189.586 82.7137 189.322C88.5672 168.665 98.3579 165.648 95.6628 139.827C91.2652 149.142 81.5239 158.571 70.786 157.184C59.969 158.801 34.7359 132.459 29.8625 123.943C28.9693 124.013 28.9583 123.372 28.8224 122.769C24.3713 123.293 20.205 119.8 20.122 115.527C16.2162 117.948 12.042 114.491 14.1116 110.269C14.1929 110.041 14.2755 109.808 14.3529 109.573Z" fill="white"/>
<path fill-rule="evenodd" clip-rule="evenodd" d="M127.268 68.6256C127.245 68.5361 127.121 68.5618 127.114 68.6468C126.99 70.3763 126.575 72.2012 125.942 73.8972C125.716 73.9336 125.499 74.061 125.341 74.3085C125.128 74.6405 124.11 74.8724 123.579 75.0288L123.503 75.0516C121.298 75.7317 118.997 76.0065 116.71 76.249C105.954 76.8432 102.039 80.211 95.9712 88.7201C88.7684 98.3062 84.727 109.683 79.2972 120.263C77.961 122.836 76.5185 125.348 74.933 127.777L74.7058 128.123C73.3095 130.239 71.7602 132.368 69.6355 133.795C64.4004 129.41 58.8022 125.495 53.6237 121.042L53.1395 120.623C49.254 117.267 45.5435 113.711 42.0125 109.986C41.596 109.546 40.8147 109.43 40.237 109.688C40.0113 106.335 39.0632 103.045 38.1893 99.8049C37.2715 95.6311 35.6775 92.81 30.8687 93.843L30.7456 93.5356C28.8233 88.7739 26.2584 84.1463 22.4167 80.6659L22.1648 80.4393C21.3293 79.6813 20.2328 78.5944 19.0592 78.6925C17.9936 78.7805 17.4462 79.7439 17.4038 80.7238C17.355 81.8861 17.8623 83.0697 18.2256 84.1591L18.2564 84.2522C18.7247 85.6829 19.2294 87.1015 19.763 88.5091C20.2767 89.8638 20.827 91.2049 21.403 92.5338C21.9902 93.6452 22.4222 95.4861 23.4917 96.1579C24.0438 96.4859 24.6125 96.0449 24.6713 95.4814C24.7548 94.7426 24.3293 94.0934 24.0162 93.4501C23.7273 92.8584 23.4444 92.2638 23.1695 91.666C22.0636 89.2598 21.0714 86.8035 20.219 84.2979L20.1934 84.2163C19.9032 83.3209 18.9399 81.2385 19.2887 80.5038C19.6488 80.5069 20.3901 81.2669 20.6522 81.4929C24.7745 84.9042 27.4538 89.6179 30.5189 93.9188C28.5956 94.468 26.5076 94.7256 24.91 96.0152C21.6238 98.8798 24.2627 104.552 28.6676 103.496C27.4382 106.106 26.3808 110.322 28.5597 112.68C29.2147 113.293 30.487 113.097 30.6863 112.12C30.899 111.083 30.6437 110.193 30.4096 109.188C29.9855 107.14 29.7283 105.043 30.0175 102.959L30.1084 102.905C30.8549 102.452 31.3244 101.944 31.3019 101.008C31.3991 100.331 30.677 99.4195 29.9521 99.9732C29.7165 100.152 29.429 100.166 29.1814 100.346C28.7611 100.746 28.239 101.06 27.6432 101.055L27.5853 101.053C26.8192 101.047 26.2537 100.586 26.0196 99.8702C25.3781 97.9054 27.5988 97.2456 29.0429 96.8681L29.4159 96.7531C33.3577 95.5494 34.7864 95.5298 35.7769 100.157L35.8956 100.541C36.9209 103.872 37.8625 107.28 39.6092 110.318L39.3264 110.992C37.5118 115.299 35.2192 120.204 30.3669 121.521C30.1935 120.072 28.624 120.019 27.488 120.056C26.0218 119.977 24.5502 119.233 23.5144 118.165C22.6096 117.255 22.1546 115.987 21.1538 115.175C21.6068 114.147 20.5838 113.012 19.5152 113.604C18.7947 114.001 18.3598 114.568 17.4903 114.684C16.7197 114.787 16.0099 114.518 15.4246 114.025C13.8969 112.736 14.6235 110.841 14.2496 109.153C14.7419 110.004 15.5598 110.656 16.4355 111.107C22.282 114.447 22.2232 107.898 18.9921 108.974C15.4822 108.176 15.5415 106.909 16.8535 103.934L16.8895 103.828C17.1081 103.198 17.5583 102.123 17.1241 101.463C17.0997 101.43 17.0557 101.419 17.0238 101.449C16.6223 101.844 16.4642 102.505 16.1254 102.969L15.8031 103.353C14.5526 104.85 13.1931 106.638 14.0079 108.654C13.9228 108.635 13.8299 108.672 13.8011 108.775C13.424 110.145 12.6748 111.49 12.8298 112.956C13.1539 116.167 16.6395 117.931 19.5258 116.592C20.0808 120.721 24.1569 123.692 28.242 123.508C28.3712 124.074 28.7907 124.572 29.4398 124.623C35.4518 134.243 59.0841 158.991 70.6737 157.957C71.7819 158.459 73.1925 158.207 74.366 158.055C83.3668 156.883 90.8889 150.308 95.0847 142.515C96.6271 168.042 87.9112 167.732 82.0789 188.88C81.4952 189.245 81.1547 190.043 81.6076 190.718C81.3574 191.998 80.8449 193.309 81.0423 194.622C81.1395 194.996 81.3356 195.338 81.5135 195.68C81.8794 196.38 82.8445 196.296 83.2965 195.752C82.5301 198.521 82.8569 201.428 83.0533 204.252C83.1734 205.91 83.1643 207.545 83.1658 209.205C83.3946 234.469 95.7508 257.249 102.103 281.218C103.9 287.937 105.28 294.783 105.823 301.723C106.399 309.107 105.997 316.531 106.691 323.905C107.509 332.621 109.875 341.085 112.636 349.365C112.447 349.843 112.659 350.45 113.099 350.756C113.25 351.202 113.4 351.645 113.551 352.09C113.306 353.273 113.245 354.461 113.295 355.685C113.337 357.439 113.888 359.18 113.659 360.932C113.48 361.7 112.857 362.436 113.253 363.258L113.073 363.373C112.025 364.045 111.023 364.783 110.334 365.822C110.184 366.049 110.07 366.518 109.898 366.679C109.719 366.846 109.384 366.866 109.164 366.944C108.048 367.283 107.345 368.29 107.441 369.458C104.828 370.209 105.728 372.861 103.03 374.706C100.261 376.709 96.5105 376.929 93.2394 377.45L87.6653 378.337L87.328 378.378C83.6578 378.831 78.9018 379.714 78.4548 384.126C77.7686 384.599 77.534 385.565 77.3363 386.331C77.1838 386.936 77.1989 387.561 77.6438 388.039C78.1681 388.602 79.1006 388.833 79.7896 389.134C80.6904 389.489 81.4741 390.098 82.4505 390.268C83.6174 390.75 84.9057 391.033 85.9689 391.23C97.6831 393.396 109.703 393.918 121.56 392.778C123.497 392.591 125.432 392.364 127.358 392.087L127.587 392.054C128.546 391.911 129.536 391.716 130.412 391.306C131.636 393.364 133.993 393.105 135.978 392.521C137.536 392.136 139.094 391.757 140.653 391.378C143.065 390.729 146.606 390.595 147.201 387.603C147.502 386.094 147.482 384.414 147.467 382.881L147.47 382.422C147.475 381.126 147.387 379.337 145.906 379.061C147.941 375.296 147.497 370.667 145.602 366.935L145.501 366.752C144.107 364.198 143.236 362.065 143.699 359.048C144.627 358.175 145.061 356.92 145.404 355.687C146.37 352.208 147.177 348.681 147.798 345.125C149.232 347.823 150.963 350.359 152.907 352.716C153.68 353.817 154.314 354.172 155.566 354.6C155.761 354.682 155.958 354.684 156.144 354.631C157.303 356.2 158.71 357.443 159.319 359.317C159.983 361.389 160.237 363.668 160.368 365.834C160.438 368.656 159.261 371.321 158.521 374.002C157.363 377.701 156.07 381.359 154.634 384.962C153.696 385.182 152.274 385.073 151.932 386.196C151.712 386.329 151.531 386.542 151.436 386.852L151.355 387.116C150.669 389.389 150.087 392.014 150.978 394.29C153.44 399.806 161.353 401.181 166.766 401.842C174.782 402.602 183.19 400.689 189.862 396.127C190.805 395.467 191.448 394.716 191.604 393.547L191.629 393.328C191.837 391.387 191.869 389.105 190.527 387.608C189.364 377.686 187.46 367.768 184.718 358.158C184.74 357.886 184.756 357.615 184.77 357.342C186.301 355.75 186.9 353.509 187.071 351.357C187.046 350.098 185.438 350.209 184.537 349.995C182.261 327.555 180.954 304.414 171.766 283.48C173.597 279.252 176.073 275.221 177.716 270.887L177.832 270.577C178.513 268.798 178.927 266.983 179.466 265.168C179.817 264.298 180.107 263.417 180.248 262.484C182.409 252.607 183.63 242.561 184.905 232.543C185.764 231.834 186.331 230.812 186.828 229.873L186.832 230.111C186.87 231.635 187.119 233.343 189.028 233.298C190.601 233.26 191.29 232.087 191.642 230.79C192.328 233.503 195.372 233.651 196.265 230.98C196.663 229.903 196.646 228.674 196.765 227.544C197.401 221.341 198.729 215.143 198.347 208.897C198.749 208.76 199.098 208.454 199.269 207.943C206.869 184.94 213.633 160.322 208.699 136.049C203.766 112.268 190.405 85.6453 165.155 78.9018C160.043 77.6113 154.85 77.1734 149.61 76.8402C148.854 75.3787 148.365 73.7162 148.267 72.0616C148.236 71.5837 148.259 71.1106 148.261 70.6326C148.262 70.1911 148.074 69.6647 148.162 69.2522C148.183 69.152 148.046 69.1186 148.01 69.2111C147.899 69.5009 147.672 69.6465 147.519 69.8907C147.137 70.5811 147.036 71.4008 146.935 72.1723C146.552 75.2188 147.438 78.3544 149.305 80.7845L149.409 80.922C149.996 81.6923 151.011 82.8702 152.059 82.2529C153.053 81.666 152.375 80.4553 151.786 79.8439C151.003 79.0308 150.346 78.1615 149.813 77.2134C152.183 77.8446 154.535 78.5397 156.899 79.1977L157.068 79.2901C158.918 80.2886 161.61 81.37 161.37 83.8414C156.448 98.682 134.672 102.495 121.214 98.9523C118.568 98.2473 115.894 97.1021 114.093 94.9662L114.021 94.8791C110.91 91.1993 111.148 85.1197 115.044 82.0982C117.357 80.205 120.554 79.1992 123.44 78.544C122.601 79.9366 120.744 80.9201 120.406 82.57C120.32 83.1358 120.633 83.6744 121.258 83.6865C122.845 83.7169 124.015 82.0239 124.848 80.8861C126.587 78.5059 127.573 75.6284 127.783 72.6972C127.888 71.2712 127.625 69.9863 127.268 68.6256ZM152.996 389.694C152.955 390.593 153.396 391.6 154.467 391.56C155.247 392.569 156.415 393.231 157.498 393.881C164.659 397.799 173.665 397.971 181.247 395.158C183.294 394.383 185.269 393.417 187.092 392.199L187.262 392.085C188.18 391.479 189.237 390.855 189.889 389.978L189.866 390.697C189.833 391.716 189.776 392.656 189.451 393.608C189.252 394.019 188.856 394.245 188.484 394.483C187.652 395.013 186.795 395.503 185.918 395.955C176.778 400.583 165.03 401.3 155.848 396.432C153.212 394.954 152.097 392.616 152.996 389.694ZM144.467 379.872C144.473 379.985 144.585 380.077 144.701 380.044C145.617 379.778 145.067 381.778 145.011 382.101C144.827 383.157 144.71 384.219 144.593 385.285L144.59 385.488C144.561 387.608 144.35 387.623 142.225 388.032C140.457 388.487 138.704 389.006 136.944 389.493L136.241 389.686C135.49 389.9 132.046 391.102 132.08 389.659L132.083 389.613C132.15 388.668 130.922 388.279 130.29 388.84L130.266 388.862C129.047 390.02 127.308 390.117 125.718 390.318L125.639 390.328C123.605 390.59 121.562 390.803 119.517 390.967C108.761 391.824 97.8957 391.328 87.2689 389.459L86.5778 389.336C85.6506 389.169 84.3187 388.9 83.2491 388.387C82.84 388.353 80.7645 387.347 80.841 386.912C80.8045 386.848 80.7724 386.783 80.7448 386.717C80.3389 386.276 80.3518 385.349 80.8844 384.999C81.772 385.231 82.6588 385.458 83.5495 385.678L83.5505 385.681C84.4504 386.373 85.6797 386.372 86.7657 386.613C87.9392 386.822 89.1142 387.019 90.2906 387.206C97.0308 388.264 103.829 389.013 110.646 389.331C122.706 390.381 134.507 386.542 144.467 379.872ZM183.7 192.348C182.977 194.124 183.495 196.421 184.027 198.255C183.207 198.711 182.645 199.491 181.944 200.095C179.515 202.056 177.042 203.966 174.608 205.924L174.504 206.006C173.788 206.567 172.995 207.122 172.71 208.031C172.041 211.017 175.986 211.831 178.208 211.618C178.62 211.602 179.8 211.332 180.082 211.615C180.245 211.779 180.178 212.514 180.192 212.732C180.346 215.104 180.471 217.477 180.639 219.848L180.704 220.737C180.839 222.535 180.842 224.565 181.554 226.271C181.707 227.3 182.136 228.339 182.241 229.357C182.337 230.266 182.551 231.264 183.159 231.942L182.597 236.363C181.539 244.654 180.421 252.943 178.679 261.122C178.289 262.957 177.75 264.731 177.252 266.538C175.815 271.75 173.117 276.467 170.735 281.286L170.643 281.474C169.841 283.135 169.311 284.728 169.466 286.618C169.562 287.779 171.386 287.787 171.29 286.618C171.225 285.833 171.305 285.111 171.475 284.42C175.259 299.578 178.01 314.971 179.43 330.535C180.003 336.945 180.422 343.341 181.184 349.739C179.228 349.72 177.259 349.912 175.373 350.242C172.132 349.305 168.263 349.606 165.334 351.284C163.527 351.474 161.727 351.719 159.937 352.036L159.554 352.105C158.719 352.26 157.504 352.272 156.851 352.877C156.595 351.679 155.72 350.829 154.951 349.931C154.248 349.085 153.587 348.209 152.961 347.308C151.236 344.851 149.807 342.202 148.597 339.458C148.613 339.027 148.433 338.684 148.148 338.443C143.241 327.174 140.197 315.208 137.494 303.253C131.29 276.396 125.96 249.32 122.761 221.93C122.748 221.804 122.564 221.798 122.562 221.93C121.911 242.218 125.434 262.313 129.685 282.077C134.031 301.606 137.401 321.574 145.37 340.053C144.782 343.823 144.083 347.575 143.168 351.281C134.245 348.885 124.956 347.962 115.732 348.325C111.764 336.997 109.221 325.169 109.428 313.125C109.882 292.176 103.211 272.179 96.0515 252.757C91.1088 237.786 85.0924 222.764 84.4336 206.847C84.1278 203.161 83.0005 199.441 83.7528 195.74C85.1057 197.374 87.0421 198.565 88.9378 199.441C92.1194 200.913 95.5274 201.817 98.94 202.571C116.343 207.02 134.622 207.015 152.07 202.793L153.367 202.494C163.751 200.097 174.283 197.421 183.7 192.348ZM184.854 200.432C187.116 204.545 191.84 207.077 196.341 207.996C196.505 208.533 197.019 208.882 197.58 208.962C196.715 215.806 195.312 222.579 194.564 229.439L194.521 229.695C194.446 230.13 194.339 230.595 194.008 230.892C193.559 230.713 193.551 229.969 193.496 229.557C193.32 227.179 193.112 224.803 192.907 222.427C192.825 221.388 191.117 220.988 190.951 222.163L190.221 227.362L190.209 227.416C190.032 228.262 189.974 231.181 189.146 231.308L189.118 231.311C188.606 231.388 188.801 230.358 188.802 229.985L188.755 227.285L188.696 223.81C188.686 223.23 188.675 222.651 188.663 222.072C188.636 220.795 186.839 220.851 186.714 222.072L186.661 222.589C186.414 224.925 186.077 227.401 184.924 229.454C184.708 229.307 184.407 229.27 184.126 229.346C184.029 227.815 183.698 226.354 183.086 224.953C183.265 223.463 183.098 221.873 183.024 220.437L183.016 220.284C182.928 218.437 182.817 216.591 182.711 214.745L182.648 213.638C182.559 212.028 182.697 209.988 180.87 209.31C179.086 208.752 177.063 209.673 175.358 208.719C177.353 206.944 179.397 205.318 181.434 203.595C182.16 202.99 182.92 202.406 183.612 201.758C184.05 201.35 184.403 200.829 184.854 200.432ZM182.065 135.109L182.674 138.242C183.685 143.465 184.658 148.694 185.268 153.984C185.907 159.669 186.074 165.386 185.803 171.1C184.41 165.567 181.149 160.702 179.627 155.217C178.07 148.403 181.571 141.844 182.065 135.109ZM22.2628 95.3993C22.3469 95.3418 22.3006 95.1709 22.1868 95.2174C17.8728 97.0037 16.1118 103.401 19.3593 106.924C20.4372 108.06 22.0531 108.717 23.5245 108.121C25.3123 107.819 26.3652 106.032 26.6127 104.368L26.6209 104.31C26.6367 104.232 26.5487 104.196 26.4989 104.246L26.4901 104.256C25.8068 105.097 24.7296 105.661 23.7478 106.091C23.4728 105.943 23.1717 105.824 22.8694 105.755C22.4392 105.657 21.9984 105.994 22.0394 106.433C20.0087 106.062 19.1947 103.647 19.1329 101.816L19.1313 101.76C19.0494 99.2254 20.1971 96.8815 22.2628 95.3993Z" fill="black"/>
<path fill-rule="evenodd" clip-rule="evenodd" d="M146.842 9.00146L145.529 10.5597C146.256 11.0709 146.942 11.5847 147.588 12.1009L147.588 12.0993C144.598 10.1523 141.286 9.00146 137.709 9.00146C130.819 9.00146 116.823 14.9083 113.659 19.1689C112.089 21.2832 109.171 27.7742 107.658 34.8311C106.442 40.5011 104.633 56.5199 106.442 62.539C108.757 70.2425 116.372 77.3624 124.225 77.3624C132.078 77.3624 144.27 71.7046 152.947 59.3057C153.343 58.7388 157.9 58.0816 161.15 55.9536L160.297 65.3361L159.648 70.7939L159.791 71.1823C162.119 77.4654 163.964 80.7432 165.325 81.016C166.715 81.2943 169.544 79.0215 173.813 74.1975L174.359 71.9124C175.745 66.0832 176.438 62.9542 176.438 62.5255L176.437 62.4474C176.416 61.4608 176.076 55.8769 176.069 54.3742L176.068 31.8519C171.477 16.6183 167.095 9.00146 162.923 9.00146H146.842Z" fill="white"/>
<path fill-rule="evenodd" clip-rule="evenodd" d="M157.721 3.81352C156.371 3.29167 154.807 3.39027 153.526 4.17609C151.01 4.06838 148.508 5.53686 147.196 7.68041C147.169 7.71075 147.14 7.74109 147.114 7.77143L146.836 8.09478C146.573 8.40356 146.295 8.7439 146.075 9.09533C147.153 9.11991 148.05 9.55817 148.677 10.4434C149.124 11.075 148.1 11.6751 147.643 11.0778L147.627 11.0559C147.25 10.5245 146.683 10.3187 146.05 10.3079C145.869 10.3049 145.731 10.2355 145.634 10.1333C145.595 10.2742 145.56 10.4167 145.529 10.5597C142.345 9.3241 138.914 8.99688 135.496 9.28996C135.645 9.53208 135.771 9.79149 135.867 10.0641C135.976 10.3731 135.743 10.7279 135.442 10.8105C135.117 10.8997 134.823 10.7094 134.705 10.4154L134.695 10.3866C134.563 10.0153 134.349 9.69653 134.061 9.4494C132.452 9.6671 130.854 10.0133 129.296 10.4596C127.422 10.9965 125.567 11.6517 123.752 12.4018C124.06 12.5221 124.325 12.7254 124.511 13.0648C124.882 13.7421 123.862 14.3489 123.475 13.7013L123.461 13.6773C123.423 13.6079 123.389 13.5661 123.365 13.5424L123.356 13.5343L123.302 13.5097L123.203 13.4812L123.164 13.4718C123.131 13.4642 123.117 13.4647 123.028 13.4598C122.909 13.4531 122.791 13.4537 122.673 13.4536C122.394 13.4534 122.216 13.2985 122.136 13.1004C121.241 13.5038 120.356 13.9286 119.488 14.3735L119.282 14.4802C116.601 15.8779 114.062 17.7134 112.588 20.4143C112.491 20.5948 112.461 20.792 112.485 20.9801C112.17 21.3563 111.866 21.7447 111.574 22.1391C110.684 23.3467 110.032 24.7196 109.414 26.0803C108.172 28.817 107.336 31.6281 106.684 34.559C106.053 37.3837 105.544 40.2387 105.071 43.0937C104.547 46.2658 104.111 49.4652 104.019 52.6828C103.858 58.4187 104.982 64.1879 108.209 69.0166C111.088 73.3249 115.423 76.7458 120.564 77.8411C125.793 78.9546 131.326 77.8684 135.447 74.3914C136.112 73.8316 136.02 72.7014 135.447 72.128C134.798 71.4817 133.841 71.5712 133.179 72.128C129.299 75.4032 123.65 75.9084 118.974 74.2397C114.651 72.6953 111.264 69.1334 109.186 65.133C106.651 60.2543 106.224 54.6504 106.613 49.2528C106.826 46.2886 107.268 43.3486 107.724 40.4131L107.999 38.6462C108.3 36.7323 108.615 34.8211 109.027 32.9267L109.123 32.4853C109.626 30.2008 110.215 27.8578 111.126 25.7102C111.603 24.583 112.178 23.4969 112.766 22.4243C112.88 22.2165 112.997 22.0056 113.117 21.7932C113.278 21.8494 113.462 21.8585 113.655 21.7978C115.317 21.282 117.024 20.9361 118.761 20.8208C119.553 20.768 120.345 20.7598 121.137 20.7906C122.493 20.7119 123.886 20.8308 125.177 21.2456C125.304 21.1374 125.432 21.0315 125.56 20.9257C125.594 20.9229 125.629 20.9193 125.663 20.9125C125.993 20.8478 126.224 20.6142 126.364 20.3192C126.371 20.3035 126.378 20.2879 126.384 20.2723C126.549 20.1462 126.716 20.0221 126.884 19.8997C127.294 20.0057 127.653 19.6655 127.75 19.2926C127.841 19.2311 127.933 19.1717 128.026 19.1115C128.098 19.1291 128.17 19.1436 128.239 19.1488C128.541 19.1705 128.833 19.1244 129.1 18.9807C129.439 18.7988 129.655 18.5054 129.8 18.1721C130.311 18.2035 130.83 18.0377 131.287 17.7379C131.659 17.4948 131.943 17.1591 132.226 16.8239C135.673 15.2895 139.421 14.3835 143.177 14.1514C143.547 14.2224 143.914 14.3069 144.277 14.4052C144.363 14.4286 144.485 14.4744 144.625 14.5293C143.788 14.4283 142.94 14.4183 142.079 14.5419C137.997 15.1309 134.818 18.1811 132.082 21.0602C131.431 20.929 130.773 21.7702 131.375 22.3272L136.072 26.6706C135.957 27.1564 136.515 27.6351 137.004 27.5185C137.824 27.3219 138.645 27.1307 139.467 26.9428C140.324 27.3568 141.402 27.2859 142.18 26.6858C142.216 26.6579 142.295 26.6133 142.363 26.569C142.427 26.6216 142.513 26.6744 142.547 26.6969C142.824 26.8795 143.16 26.9332 143.483 26.8819C143.816 26.8293 144.116 26.6611 144.374 26.4516C144.539 26.3181 144.922 25.7613 145.136 25.7203L145.157 25.7179C145.014 25.722 145.472 26.1466 145.595 26.2345C145.882 26.4388 146.199 26.5462 146.556 26.5071C147.179 26.4387 147.714 25.8727 148.018 25.3501L148.041 25.31L148.05 25.2851L148.059 25.312C148.06 25.3168 148.062 25.3219 148.064 25.3276C148.109 25.4506 148.253 25.5905 148.35 25.6765C148.627 25.9212 148.97 26.0288 149.337 25.9649C149.647 25.911 149.908 25.7239 150.118 25.4975L150.151 25.4614C150.213 25.3915 150.622 24.8434 150.557 24.712L150.55 24.7009L150.57 24.6967C150.819 24.7577 151.027 24.6965 151.18 24.5686C152.034 24.382 152.876 24.1646 153.691 23.8882C153.755 24.0673 153.818 24.2463 153.878 24.4268C153.433 24.7014 153.021 25.0928 152.643 25.3719C151.925 25.8998 151.208 26.4277 150.492 26.9572L147.655 29.0455L147.331 28.9586C146.916 28.8475 146.56 29.0883 146.408 29.4565L146.396 29.4883C146.335 29.6496 146.263 29.7987 146.177 29.9415C145.468 29.9132 144.868 30.3477 144.674 30.9709C144.498 30.967 144.322 30.9736 144.141 30.9935C143.645 31.0478 143.311 31.4149 143.401 31.9191L143.408 31.9536L143.42 32.0098C143.133 32.1314 142.924 32.3664 142.878 32.7217C142.801 32.8371 142.739 32.9628 142.7 33.1026C142.492 33.8284 142.896 34.7255 143.11 35.4208L143.127 35.4752C143.265 35.9322 143.407 36.3869 143.551 36.8414L143.911 37.9699C144.907 41.115 145.879 44.431 145.073 47.7282C144.901 48.426 145.795 48.7416 146.182 48.1955C147.122 46.8732 148.137 45.6273 149.203 44.4313L149.255 44.4231C150.002 44.2734 150.291 43.7471 150.634 43.2107C150.836 43.27 151.053 43.284 151.263 43.2436C151.566 43.1852 151.839 43.0121 152.053 42.7935C152.235 42.6081 152.402 42.1327 152.617 42.0148C152.886 41.8675 153.427 42.0781 153.748 42.0307C154.01 41.9924 154.254 41.9029 154.49 41.7904C154.925 42.3822 155.214 43.0779 155.284 43.828C155.312 44.1132 155.397 44.3544 155.52 44.5546C155.067 44.5379 154.613 44.5698 154.164 44.6532C152.504 44.9612 151.314 45.9836 150.645 47.5067C150.616 47.5735 150.703 47.6281 150.743 47.5644C151.735 46.0398 153.895 45.9624 155.464 46.4994C157.13 47.0698 158.065 48.5338 158.398 50.204C158.762 52.035 158.294 54.0087 157.296 55.5682C156.832 56.2933 156.2 56.9547 155.359 57.2217C154.36 57.5388 153.438 56.9714 152.415 57.2642C151.718 57.4629 151.411 58.135 151.538 58.807C151.588 59.071 151.68 59.3016 151.805 59.5018C151.437 60.23 151.097 60.9794 150.664 61.6681C149.995 62.7315 149.186 63.6114 148.304 64.4989C147.394 65.4152 146.467 66.3132 145.492 67.1628C144.559 67.9774 143.489 68.5569 142.51 69.3033C141.823 69.8267 141.482 70.5609 141.821 71.4013C142.101 72.0961 143.043 72.6877 143.806 72.3737C145.267 71.773 146.546 70.7505 147.71 69.6977C148.789 68.7207 149.729 67.5526 150.439 66.2844C151.108 65.0888 151.602 63.7309 152.018 62.423L152.07 62.2598C152.266 61.6378 152.472 60.9384 152.606 60.233C153.407 60.6699 154.494 60.7336 155.351 60.6153C156.736 60.4257 157.999 59.7294 158.954 58.7145C159.399 58.2422 159.792 57.7035 160.132 57.1196C160.101 57.4751 160.083 57.819 160.063 58.1319C159.269 58.9994 158.951 60.2512 159.233 61.3934C158.569 62.0754 158.383 63.0993 158.729 63.971C158.002 64.6903 158.03 65.8351 158.344 66.8747C157.485 67.833 157.403 69.3259 158.074 70.4072L158.094 70.4849C157.417 71.616 157.57 73.0778 158.419 74.0766C157.839 75.1986 157.929 76.7077 159.377 77.1431C159.905 77.3016 160.417 77.1663 160.8 76.8711C160.45 78.6064 160.294 80.3681 160.76 82.1115C160.945 82.8032 161.623 83.3084 162.336 83.3084C162.932 83.3084 163.365 83.0096 163.665 82.5696C163.63 83.4449 163.683 84.3248 163.87 85.2123C163.983 85.7482 164.481 86.1662 165.01 86.2956C164.819 86.5102 164.743 86.8208 164.926 87.144C165.701 88.5139 167.575 87.9458 167.701 86.6334C168.23 86.2393 168.476 85.5921 168.578 84.8929C168.727 83.8732 168.78 82.8703 168.949 81.8636L169.013 81.9236L169.046 81.9522L169.057 82.025C169.153 82.5226 169.434 82.871 169.799 83.0789C169.72 83.9469 169.867 84.8309 170.418 85.49C170.786 85.9294 171.412 86.1023 171.949 86.007C171.983 86.0087 172.017 86.0086 172.053 86.0038C173.269 85.8426 173.972 84.6919 173.652 83.6358C174.141 83.0372 174.348 82.2776 174.203 81.527C175.15 80.9011 175.131 79.5263 174.803 78.4221C175.795 77.6401 176.169 76.1781 175.67 75.0162C176.565 73.9071 176.689 72.3616 176.081 71.0987C177.066 70.2915 177.06 68.733 176.084 67.9075C176.604 66.8773 176.917 65.6429 176.398 64.7C176.764 64.2962 176.966 63.7206 176.923 63.1645C176.861 62.3477 176.32 61.7834 175.648 61.4073L175.601 61.1519C175.443 61.1714 175.275 61.1274 175.127 60.9855C174.98 60.8448 174.829 60.7315 174.673 60.6381C174.497 60.6358 174.344 60.5572 174.237 60.4363C173.945 60.3371 173.63 60.2932 173.281 60.2893C172.526 60.2811 172.5 59.1556 173.202 59.0827C173.313 58.9712 173.465 58.9009 173.631 58.9009L173.76 58.9014C174.063 58.9043 174.369 58.923 174.651 59.0432C174.833 59.1212 174.974 59.2388 175.077 59.3826C175.097 59.6001 175.215 59.817 175.472 59.9962C175.769 60.2031 176.174 60.2272 176.491 60.04C176.936 59.7779 176.94 59.3688 176.889 58.924C176.777 57.951 177.338 57.0353 177.204 56.0398C177.145 55.5997 176.998 55.2197 176.759 54.9128C177.264 54.1587 177.353 53.1852 176.964 52.3574C177.774 51.488 177.914 50.1479 177.397 49.1016C177.39 49.0762 177.384 49.0503 177.376 49.0253C177.318 48.8475 177.237 48.6871 177.149 48.5338C177.602 47.7501 177.599 46.7884 177.138 46.0081C177.836 45.1962 177.858 43.9041 177.237 43.0294C177.234 42.9569 177.226 42.8844 177.22 42.8119C177.505 42.0738 177.436 41.2348 177.075 40.5485C177.204 40.2519 177.303 39.9326 177.367 39.5924C177.53 38.7156 177.446 37.863 177.203 37.0074C177.163 36.8724 177.119 36.7374 177.072 36.6024C177.064 36.0164 177.042 35.4329 177.012 34.8505C177.128 34.3575 177.146 33.8158 177.149 33.3128L177.15 32.9867C177.155 32.1567 177.213 30.9414 176.688 30.2359C177.025 29.4738 176.886 28.5135 176.323 27.9094C176.718 27.2305 176.801 26.3969 176.404 25.6437C176.34 25.5225 176.266 25.4097 176.185 25.3029C176.218 24.6131 176.072 23.9018 175.704 23.2162C175.465 22.7699 175.107 22.3835 174.682 22.0743C174.69 21.9829 174.694 21.8915 174.692 21.8016C174.685 21.4002 174.596 20.9971 174.446 20.621C174.715 20.162 174.84 19.6445 174.682 19.0869C174.506 18.4558 174.042 17.9127 173.463 17.6063C173.417 17.0113 173.323 16.4198 173.19 15.8362C173.546 15.0454 173.263 14.0017 172.459 13.5358C172.563 12.9038 172.469 12.2485 172.008 11.7548C171.833 11.5678 171.628 11.4259 171.406 11.3319C171.513 10.6964 171.392 10.0353 170.952 9.51782C170.592 9.09533 170.059 8.83865 169.517 8.80088C169.308 7.69558 168.25 6.8691 167.134 6.93494C166.994 6.44828 166.661 6.02397 166.144 5.80886C166.011 5.75379 165.877 5.71753 165.744 5.69736C164.836 4.7835 163.485 4.16411 162.315 3.8469C161.141 3.52998 159.952 3.49931 158.944 3.86777L158.87 3.89544L158.788 3.88482C158.433 3.84538 158.077 3.82262 157.721 3.81352ZM166.64 78.7142C166.953 78.6167 167.303 78.8297 167.388 79.1379C167.477 79.4638 167.278 79.7866 166.963 79.8845C166.571 80.0064 166.159 80.0369 165.751 80.0372C165.422 80.0375 165.143 79.7581 165.143 79.4304C165.143 79.1011 165.421 78.8239 165.751 78.8236C166.083 78.8233 166.328 78.8112 166.64 78.7142ZM169.428 72.2701C169.897 72.2705 170.299 72.3822 170.646 72.7099C170.878 72.9285 170.884 73.3507 170.646 73.5682C170.406 73.7878 170.058 73.8006 169.812 73.5915L169.765 73.549C169.759 73.5439 169.755 73.5398 169.751 73.5363C169.731 73.5236 169.711 73.5106 169.691 73.4996L169.73 73.5255C169.76 73.5473 169.69 73.5117 169.651 73.4949L169.639 73.4899L169.635 73.489L169.603 73.4866C169.545 73.4836 169.487 73.4837 169.428 73.4837C169.11 73.4834 168.806 73.2049 168.82 72.8769C168.835 72.5483 169.087 72.2698 169.428 72.2701ZM160.585 68.4202C159.926 68.0174 160.514 66.9872 161.174 67.3582L161.198 67.3722C161.537 67.5795 161.953 67.5514 162.336 67.5515C163.119 67.552 163.12 68.7656 162.336 68.7652L162.207 68.7647C161.645 68.7604 161.076 68.7212 160.585 68.4202ZM165.764 63.9907C166.261 63.8973 166.818 63.8139 167.342 63.8708L167.428 63.8816H167.589C167.729 63.8816 167.865 63.9377 167.973 64.026C168.146 64.0973 168.308 64.1929 168.457 64.3214C169.05 64.834 168.186 65.6893 167.597 65.1797C167.565 65.1513 167.527 65.128 167.484 65.1088L167.452 65.0952H166.801C166.742 65.0952 166.685 65.0829 166.629 65.0652C166.417 65.0941 166.221 65.1359 166.087 65.1609C165.323 65.3046 164.995 64.1351 165.764 63.9907ZM166.319 52.343C167.272 51.9018 168.328 51.905 169.209 52.5176C169.839 52.9557 169.254 53.9887 168.618 53.5807L168.595 53.5656C168.516 53.5106 168.435 53.4647 168.353 53.423C167.906 53.5521 167.455 53.5581 167.022 53.3994L166.966 53.3778L166.933 53.3908C166.227 53.7173 165.609 52.6716 166.319 52.343ZM155.941 50.4414C156.904 50.3337 156.912 48.8158 155.941 48.9244C153.892 49.1538 152.033 50.0629 150.671 51.6243C150.037 52.3504 151.08 53.4127 151.726 52.719L151.746 52.6969C152.828 51.4554 154.29 50.6262 155.941 50.4414ZM166.727 42.6481C166.941 42.6248 167.155 42.6131 167.365 42.6233C167.87 42.6475 168.485 42.9837 168.263 43.5911C168.085 44.0778 167.503 44.097 167.215 43.8375C167.096 43.8404 166.976 43.8483 166.857 43.8604C166.54 43.893 166.225 43.9534 165.912 44.015C165.148 44.165 164.82 42.9955 165.589 42.8446L165.929 42.7775C166.043 42.7551 166.159 42.7332 166.275 42.7132C166.344 42.6788 166.419 42.6556 166.498 42.6496L166.539 42.6481H166.727ZM172.769 33.2328L172.84 33.2231C173.867 33.092 175.515 33.2127 175.64 34.5171C175.709 35.2395 174.663 35.2849 174.456 34.6671C173.698 34.5308 172.934 34.5047 172.181 34.5875C171.893 34.2962 171.891 33.7363 172.369 33.5966C172.437 33.4155 172.578 33.2603 172.769 33.2328ZM149.298 31.0296C149.535 30.8122 149.924 30.7834 150.158 31.0296C150.292 31.1713 150.405 31.3288 150.493 31.502L150.553 31.619C150.563 31.6384 150.573 31.6577 150.584 31.6768C150.604 31.7121 150.626 31.7458 150.648 31.7801L150.662 31.7944C150.668 31.8003 150.675 31.8074 150.683 31.816C150.902 32.0468 150.93 32.4483 150.683 32.6742C150.446 32.8916 150.057 32.9204 149.823 32.6742C149.689 32.5325 149.576 32.3752 149.487 32.2018L149.428 32.0849C149.418 32.0655 149.408 32.0463 149.397 32.0272C149.377 31.9917 149.355 31.958 149.333 31.9237L149.309 31.8996C149.306 31.896 149.302 31.8921 149.298 31.8878C149.079 31.6572 149.051 31.2555 149.298 31.0296ZM161.766 29.4493C162.623 28.8434 163.642 28.8152 164.429 29.5441C164.998 30.0703 164.162 30.9132 163.589 30.4203L163.569 30.4023C163.548 30.3829 163.527 30.3659 163.506 30.3497C163.404 30.437 163.273 30.4924 163.124 30.4926C163.085 30.4927 163.046 30.4926 163.007 30.4934L162.948 30.4955L162.917 30.498L162.913 30.4988L162.886 30.5104C162.836 30.5329 162.767 30.5676 162.862 30.5085C162.84 30.5196 162.821 30.5326 162.801 30.5454L162.766 30.5771C162.536 30.7934 162.14 30.8219 161.912 30.5827C161.509 30.4468 161.295 29.782 161.766 29.4493ZM153.39 27.4613L153.374 27.4564C152.623 27.2424 152.943 26.0711 153.698 26.286C154.499 26.5144 154.882 27.2585 155.042 28.0206C155.109 28.3412 154.948 28.6766 154.617 28.7671C154.315 28.8498 153.937 28.6655 153.869 28.3433C153.821 28.1167 153.767 27.9245 153.68 27.7461L153.627 27.6442C153.603 27.5978 153.594 27.5901 153.511 27.5179C153.497 27.5057 153.434 27.4763 153.39 27.4613ZM166.115 21.3491L166.232 21.3223C166.964 21.1623 167.935 21.0788 168.377 21.8028C168.78 22.4624 167.764 23.0628 167.345 22.4393C167.339 22.4391 167.332 22.4392 167.323 22.4399L167.309 22.4415L167.122 22.4263C166.888 22.4246 166.665 22.4659 166.438 22.5194C165.677 22.6992 165.352 21.5293 166.115 21.3491ZM139.842 16.6836C139.288 16.1307 140.148 15.2722 140.702 15.8256C141.14 16.263 141.563 16.7034 141.848 17.259C141.997 17.5506 141.924 17.9174 141.63 18.0893C141.358 18.2478 140.948 18.1644 140.798 17.8716C140.551 17.39 140.239 17.0802 139.842 16.6836ZM146.834 15.2321C147.381 15.5556 147.735 16.0883 147.95 16.705C148.058 17.0145 147.828 17.3687 147.526 17.4514C147.202 17.5403 146.905 17.3507 146.789 17.0563L146.778 17.0275C146.72 16.8626 146.628 16.6678 146.514 16.5208C146.417 16.3954 146.266 16.2698 146.152 16.2281C145.878 16.1276 145.683 15.8797 145.709 15.5903C146.16 15.7458 146.578 15.5587 146.834 15.2321ZM163.219 12.5925C163.771 12.081 164.512 12.0132 165.182 12.3228C165.48 12.4605 165.554 12.8894 165.4 13.153C165.221 13.4581 164.867 13.5091 164.568 13.3707C164.645 13.4062 164.506 13.3594 164.446 13.3422C164.439 13.3458 164.338 13.3412 164.304 13.3417L164.262 13.3443C164.262 13.3446 164.272 13.3444 164.293 13.3437C164.263 13.3503 164.235 13.3582 164.206 13.3672L164.17 13.3797C164.188 13.3759 164.106 13.4294 164.083 13.4471L164.079 13.4505C163.506 13.9813 162.644 13.1251 163.219 12.5925Z" fill="black"/>
<path fill-rule="evenodd" clip-rule="evenodd" d="M123.8 64.7656C124.822 64.3496 125.733 63.6556 126.4 62.7691C126.632 62.461 126.692 62.1355 126.643 61.8379C126.589 61.5032 126.39 61.1999 126.12 60.9964C125.848 60.7923 125.509 60.6917 125.18 60.743C124.895 60.7876 124.611 60.9434 124.387 61.2666L124.34 61.3313C123.943 61.8663 123.427 62.3053 122.839 62.5883C122.271 62.861 121.637 62.9883 120.981 62.9143C119.731 62.7733 118.869 62.0986 117.953 61.1824C117.84 61.0667 117.726 60.9474 117.612 60.8262C117.54 60.7163 117.44 60.6457 117.329 60.6086C117.206 60.5675 117.066 60.5698 116.938 60.6143C116.815 60.6572 116.705 60.7386 116.631 60.8468C116.561 60.9497 116.521 61.0768 116.534 61.223C116.618 62.1725 117.115 63.0199 117.822 63.6853C118.606 64.4243 119.647 64.9356 120.626 65.1149C121.705 65.3124 122.804 65.1709 123.8 64.7656ZM120.116 50.1173C118.968 50.8136 117.219 52.4373 118.454 54.1636C119.908 55.6857 122.001 53.9405 123.032 53.1512C123.988 52.5395 125.063 54.1127 124.175 54.827C116.723 60.3331 113.699 50.2994 119.536 49.2986C120.178 49.1883 120.417 49.9019 120.116 50.1173ZM133.471 43.7124C133.344 42.1413 130.947 41.7845 130.708 43.3392C130.495 44.7318 130.746 46.0111 131.375 47.2649C131.975 48.4628 133.485 47.9039 133.599 46.8132C133.752 45.3511 133.55 44.6897 133.471 43.7124ZM115.219 43.0168C114.885 42.5799 114.403 42.2817 113.824 42.4502C112.018 42.9771 112.55 45.5367 113.185 46.7827C113.529 47.4593 114.644 47.6308 115.147 47.0351C115.968 46.0636 116.361 44.1235 115.318 43.1666C115.289 43.1171 115.258 43.0672 115.219 43.0168ZM131.4 36.8379L131.114 36.788C130.231 36.6356 129.134 36.4892 128.509 37.1976C128.178 37.5732 128.064 38.2713 128.509 38.6308C129.292 39.2634 130.158 39.0183 131.097 39.0718C131.87 39.1161 132.613 39.2439 133.358 39.4564C134.993 39.9226 136.325 40.7736 137.72 41.7081C137.904 41.8307 138.091 41.5969 138.003 41.4259C137.197 39.8508 135.636 38.557 134.072 37.7683C133.237 37.3473 132.323 36.9981 131.4 36.8379ZM116.867 36.1323L116.648 36.1769C114.271 36.6727 111.183 37.6633 110.058 39.9933C110.015 40.3228 110.06 40.3934 110.097 40.4395L110.109 40.4549C110.139 40.4943 110.164 40.5486 110.307 40.5934C110.347 40.584 110.387 40.574 110.427 40.5634C110.943 40.4285 111.351 40.2426 111.747 40.0497L112.175 39.839C112.672 39.5957 113.174 39.3613 113.705 39.1882C114.84 38.819 116.006 38.5589 117.191 38.42C117.448 38.3899 117.695 38.3034 117.89 38.1552C118.075 38.0145 118.217 37.8197 118.281 37.5607C118.365 37.2256 118.341 36.9719 118.161 36.6696C118.025 36.4425 117.832 36.2851 117.609 36.1948C117.382 36.1027 117.124 36.0809 116.867 36.1323Z" fill="black"/>
<path fill-rule="evenodd" clip-rule="evenodd" d="M103.961 46.1601C105.411 55.9432 115.528 57.0252 117.325 47.3129C117.037 47.1869 116.829 46.9387 116.872 46.4569C116.883 44.3403 116.224 42.1033 114.311 40.9263C112.334 39.7118 110.02 39.5913 107.732 39.6219C103.366 39.5182 103.458 43.1601 103.961 46.1601ZM118.908 41.9054C120.278 41.8478 122.012 41.896 123.239 42.7292C123.577 41.8223 124.453 40.854 125.339 40.3362C122.046 40.4324 118.657 40.109 115.34 39.8579C116.134 40.3981 116.872 41.2097 117.353 42.148C117.798 41.9109 118.436 41.933 118.908 41.9054ZM124.948 47.1975C128.748 60.2494 138.232 54.5605 139.266 52.8879C141.131 50.1199 141.481 43.3913 139.857 41.5923C137.531 39.9655 134.239 40.3842 131.492 40.3443C126.445 40.4122 122.861 41.9189 124.948 47.1975ZM99.4749 41.1944C100.507 41.0597 101.61 41.0326 102.57 41.4862C102.866 40.2326 103.793 39.1847 104.841 38.7235C104.968 38.5648 104.949 38.4796 105.382 38.5034C108.041 37.7057 111.017 38.1278 113.572 38.9458C117.609 39.285 121.843 39.5524 125.913 40.0198C129.726 38.311 141.232 38.0606 141.947 42.2723C142.846 42.138 144.378 41.4315 145.134 42.3898C150.678 41.4519 156.406 42.7554 161.974 43.336C163.376 43.5936 164.098 46.3694 162.507 46.3315C161.612 46.0892 162.534 44.603 161.33 44.4912C155.958 43.9056 150.703 43.0749 145.276 42.9777C145.465 43.9129 141.686 43.9738 141.631 43.4276C141.622 43.4317 141.614 43.4345 141.606 43.4381C142.539 46.9106 141.697 51.9079 140.009 54.0612C137.645 56.8807 131.71 57.6896 129.078 55.8755C125.684 54.2012 122.152 45.7966 123.144 43.0044C121.344 42.4349 119.564 42.6059 117.695 42.8959C118.123 44.1018 118.861 47.0703 117.799 47.3277C117.994 53.2213 112.62 56.8987 107.665 54.4811C103.377 52.4721 101.877 46.1131 102.402 42.2533C101.868 43.2828 97.3853 42.162 99.4749 41.1944Z" fill="black"/>
</svg>
