<svg width="302" height="59" viewBox="0 0 302 59" fill="none" xmlns="http://www.w3.org/2000/svg">
<path fill-rule="evenodd" clip-rule="evenodd" d="M299.23 42.6433C297.814 42.6606 296.671 43.804 296.654 45.2197C296.668 45.8889 296.947 46.525 297.43 46.9881C297.913 47.4512 298.561 47.7032 299.23 47.6889C300.608 47.6792 301.738 46.5957 301.806 45.2197C301.752 43.8202 300.63 42.6982 299.23 42.6433ZM299.23 43.7168C299.874 43.7168 300.304 44.0388 300.304 44.5756C300.304 45.0802 299.982 45.2197 299.552 45.3271L300.304 46.6153H299.659L299.015 45.4344H298.586V46.6153H298.157V43.7168H299.23ZM298.801 44.2536V45.1124H299.123C299.337 45.1124 299.767 45.005 299.767 44.683C299.767 44.3609 299.552 44.2536 299.23 44.2536H298.801ZM297.083 45.2197C297.083 46.4055 298.044 47.3668 299.23 47.3668C299.799 47.3668 300.346 47.1406 300.748 46.7379C301.151 46.3353 301.377 45.7892 301.377 45.2197C301.377 44.034 300.416 43.0727 299.23 43.0727C298.044 43.0727 297.083 44.034 297.083 45.2197Z" fill="black"/>
<path fill-rule="evenodd" clip-rule="evenodd" d="M274.861 25.5741H266.917L258.973 34.6991H258.865V13.3359H252.746V47.5815H258.865V36.7388H258.973L267.132 47.5815H275.183L265.629 35.558L274.861 25.5741ZM69.6022 24.93C72.3364 25.0498 74.9 26.2927 76.6875 28.3653V25.5741H82.5919V58.6388H76.4727V45.1124C74.5993 47.1003 72.0107 48.2594 69.2801 48.333C62.9463 48.333 58.5448 43.2874 58.5448 36.5241C58.5448 29.7609 63.3757 24.93 69.6022 24.93ZM129.935 36.7389C129.935 39.8521 131.759 43.18 135.517 43.18C137.179 43.1753 138.782 42.5646 140.026 41.4624L143.89 45.5418C142.065 47.5815 138.952 48.5477 135.624 48.5477C128.539 48.5477 123.601 43.7168 123.601 36.8462C123.601 29.9756 128.539 25.1447 135.41 25.1447C138.488 25.0496 141.473 26.2124 143.676 28.3653L139.811 32.23C138.704 30.9637 137.091 30.2555 135.41 30.2977C131.974 30.2977 129.935 33.6256 129.935 36.7389ZM119.629 47.7962H113.509V25.5741H119.629V47.7962ZM102.345 37.705C102.345 40.2815 100.627 43.18 97.5139 43.18C95.0448 43.18 93.7565 41.4624 93.7565 37.8124V25.5741H87.6374V39.3153C87.6374 43.9315 89.8918 48.333 96.0109 48.333C98.9095 48.333 101.271 46.0785 102.452 44.4683H102.559V47.7962H108.357V25.5741H102.237L102.345 37.705ZM70.6757 43.18C66.811 43.18 64.7713 39.8521 64.7713 36.6315C64.7713 33.4109 66.811 30.1903 70.6757 30.1903C74.3257 30.1903 76.5802 33.6256 76.5802 36.7389C76.5802 39.8521 74.4331 43.18 70.6757 43.18ZM197.996 36.5241C197.996 29.7609 203.042 24.93 210.02 24.93C216.998 24.93 222.043 29.8682 222.043 36.5241C222.043 43.3947 216.89 48.3329 210.02 48.3329C203.149 48.3329 197.996 43.5021 197.996 36.5241ZM210.02 43.18C206.048 43.18 204.223 39.7447 204.223 36.6315C204.223 33.5183 206.048 30.1903 210.02 30.1903C213.992 30.1903 215.817 33.5183 215.817 36.6315C215.817 39.7447 213.992 43.18 210.02 43.18ZM282.054 31.6932C282.054 32.8741 283.235 33.3035 286.348 34.055C289.568 34.8065 293.863 36.4168 293.755 40.8182C293.755 45.4344 290.213 48.333 284.201 48.333C280.826 48.3782 277.576 47.0626 275.183 44.683L278.94 40.9256C280.36 42.5407 282.375 43.5094 284.523 43.6094C285.382 43.6094 287.636 43.2874 287.636 41.2477C287.636 39.8521 286.348 39.208 282.913 38.4565C279.692 37.705 276.364 36.4168 276.364 32.1227C276.364 27.0771 280.98 24.93 285.382 24.93C288.817 24.93 292.145 26.1109 293.755 28.2579L290.105 31.6932C288.821 30.3965 287.097 29.6301 285.274 29.5462C284.201 29.5462 282.054 29.9756 282.054 31.6932ZM177.492 27.9359C179.271 26.0952 181.696 25.0175 184.255 24.93C190.374 24.93 195.205 29.7609 195.205 36.5241C195.205 43.2874 190.482 48.2256 184.148 48.2256C181.327 48.2691 178.686 46.8469 177.17 44.4683H177.062V47.5815H171.265V13.3359H177.385V27.9359H177.492ZM182.967 43.18C179.21 43.18 177.062 39.9594 177.062 36.7389C177.062 33.5183 179.317 30.1903 182.967 30.1903C186.832 30.1903 188.871 33.5183 188.871 36.6315C188.871 39.7447 186.832 43.18 182.967 43.18ZM160.852 25.5741H168.796L159.671 35.558L169.226 47.5815H161.174L153.015 36.7388H152.908V47.5815H146.789V13.3359H152.908V34.8065H153.015L160.852 25.5741ZM236.858 24.93C229.88 24.93 224.835 29.7609 224.835 36.5241C224.835 43.5021 229.987 48.3329 236.858 48.3329C243.729 48.3329 248.882 43.3947 248.882 36.5241C248.882 29.8682 243.836 24.93 236.858 24.93ZM231.061 36.6315C231.061 39.7447 232.886 43.18 236.858 43.18C240.83 43.18 242.655 39.7447 242.655 36.6315C242.655 33.5183 240.83 30.1903 236.858 30.1903C232.886 30.1903 231.061 33.5183 231.061 36.6315Z" fill="black"/>
<path d="M25.8772 52.0044C40.1066 52.0044 51.6419 40.4692 51.6419 26.2397C51.6419 12.0102 40.1066 0.474991 25.8772 0.474991C11.6477 0.474991 0.112488 12.0102 0.112488 26.2397C0.112488 40.4692 11.6477 52.0044 25.8772 52.0044Z" fill="#2CA01C"/>
<path fill-rule="evenodd" clip-rule="evenodd" d="M33.0696 16.2559H34.4652V16.3096C40.0384 16.3096 44.5563 20.8275 44.5563 26.4007C44.5563 31.9739 40.0384 36.4919 34.4652 36.4919H27.2725V9.49265C28.2761 9.46889 29.2457 9.85712 29.9555 10.567C30.6654 11.2768 31.0536 12.2464 31.0299 13.25V32.6809H34.4652C37.9632 32.6809 40.799 29.8451 40.799 26.3471C40.799 22.849 37.9632 20.0132 34.4652 20.0132H33.0696V16.2559ZM10.1155 33.3057C8.24191 31.4321 7.19188 28.8893 7.19759 26.2397C7.23894 20.7011 11.75 16.238 17.2888 16.2559H24.4814V42.9868C23.4778 43.0105 22.5082 42.6223 21.7984 41.9125C21.0885 41.2026 20.7003 40.233 20.7241 39.2294V19.7985H17.2888C13.7907 19.7985 10.9549 22.6343 10.9549 26.1324C10.9549 29.6304 13.7907 32.4662 17.2888 32.4662H18.6844V36.2235H17.1814C14.5318 36.2293 11.989 35.1792 10.1155 33.3057Z" fill="white"/>
<path fill-rule="evenodd" clip-rule="evenodd" d="M85.4581 4.71543C85.4581 5.66407 84.6891 6.43308 83.7405 6.43308C83.2832 6.43891 82.8429 6.25981 82.5195 5.93642C82.1961 5.61303 82.017 5.17274 82.0229 4.71543C82.0229 3.7668 82.7919 2.99779 83.7405 2.99779C84.6891 2.99779 85.4581 3.7668 85.4581 4.71543ZM69.9994 9.76102C70.7121 8.46409 72.0625 7.64571 73.542 7.61397V7.56029C76.4406 7.56029 77.761 9.70735 77.7288 12.1228V19.2081H74.9376V12.9816C74.9376 11.586 74.6156 9.97573 72.7906 9.97573C72.0249 9.98705 71.299 10.3185 70.789 10.8897C70.279 11.4609 70.0316 12.2196 70.1067 12.9816V19.2081H67.3156V7.93602H69.9994V9.76102ZM61.6258 19.2081H64.417V7.93603H61.658L61.6258 19.2081ZM114.551 4.71543C114.551 5.66407 113.782 6.43308 112.833 6.43308C112.376 6.43891 111.936 6.25981 111.612 5.93642C111.289 5.61303 111.11 5.17274 111.115 4.71543C111.115 3.7668 111.884 2.99779 112.833 2.99779C113.782 2.99779 114.551 3.7668 114.551 4.71543ZM108.217 7.93603V10.4051H111.33V19.2081H114.121V10.4051H117.235V7.93603H108.217ZM106.285 19.2081H103.493L103.526 7.93603H106.285V19.2081ZM79.1244 10.4051H82.2376V19.2081H85.0288V10.4051H88.142V7.93603H79.1244V10.4051ZM97.1214 16.2544C97.6314 15.6832 97.8789 14.9245 97.8037 14.1625V7.93602H100.595V19.3154H97.9111V17.4904C97.1983 18.7874 95.848 19.6058 94.3684 19.6375C91.4699 19.6375 90.1817 17.2757 90.1817 15.0213V7.82867H92.9728V14.1625C92.9728 15.5581 93.2949 17.1684 95.1199 17.1684C95.8855 17.1571 96.6115 16.8256 97.1214 16.2544Z" fill="black"/>
</svg>
