<svg width="225" height="80" viewBox="0 0 225 80" fill="none" xmlns="http://www.w3.org/2000/svg">
<path d="M48.6487 39.1585H41.3288V39.9439C41.5553 46.144 38.3647 51.9721 33.0103 55.1391C27.6558 58.3061 20.9928 58.3061 15.6384 55.1391C10.2839 51.9721 7.09332 46.144 7.31982 39.9439V39.1585H0V39.9439C0 53.3289 10.8904 64.1796 24.3243 64.1796C37.7583 64.1796 48.6487 53.3289 48.6487 39.9439V39.1585Z" fill="black"/>
<path d="M24.3246 9.31276L29.5048 16.2693H38.739C34.4061 10.4486 29.5839 5.0059 24.3246 0C19.0653 5.0059 14.2431 10.4486 9.91016 16.2693H19.1444L24.3246 9.31276Z" fill="black"/>
<path d="M29.1668 27.9383C29.1668 29.8897 27.987 31.649 26.1775 32.3957C24.368 33.1425 22.2853 32.7297 20.9004 31.3499C19.5155 29.97 19.1012 27.8948 19.8507 26.092C20.6002 24.2891 22.3659 23.1136 24.3244 23.1136C25.6114 23.1046 26.8484 23.61 27.7585 24.5167C28.6686 25.4235 29.1758 26.656 29.1668 27.9383Z" fill="black"/>
<path d="M43.8064 27.9383C43.8064 29.8897 42.6266 31.649 40.8172 32.3957C39.0077 33.1425 36.9249 32.7297 35.54 31.3499C34.1551 29.97 33.7408 27.8948 34.4903 26.092C35.2398 24.2891 37.0055 23.1136 38.9641 23.1136C40.2511 23.1046 41.4881 23.61 42.3981 24.5167C43.3082 25.4235 43.8155 26.656 43.8064 27.9383Z" fill="black"/>
<path d="M14.6398 27.9383C14.6398 30.6029 12.4718 32.763 9.79742 32.763C7.12307 32.763 4.95508 30.6029 4.95508 27.9383C4.95508 25.2737 7.12307 23.1136 9.79742 23.1136C11.0845 23.1046 12.3214 23.61 13.2315 24.5167C14.1416 25.4235 14.6488 26.656 14.6398 27.9383Z" fill="black"/>
<path fill-rule="evenodd" clip-rule="evenodd" d="M101.577 63.3941H110.135V0.336609H101.577V23.7868C96.7346 18.1767 91.2166 15.7083 83.5589 15.7083C76.8745 15.5646 70.388 17.9731 65.4283 22.4404C61.0364 26.7041 58.4463 32.8752 58.4463 40.1683C58.4463 47.4614 61.0364 53.6325 65.4283 57.8962C70.3027 62.441 76.7724 64.8985 83.4463 64.7405C90.4386 64.9641 97.1381 61.9375 101.577 56.5498V63.3941ZM67.23 40.2805C67.23 29.7335 73.7615 23.5624 84.3471 23.5624C94.9327 23.5624 101.464 29.8457 101.464 40.2805C101.464 50.7153 94.9327 56.9986 84.3471 56.9986C73.7615 56.9986 67.23 50.8275 67.23 40.2805Z" fill="black"/>
<path d="M148.649 24.2356H127.703V63.3941H119.257V16.7181H148.649V24.2356Z" fill="black"/>
<path fill-rule="evenodd" clip-rule="evenodd" d="M160.773 0.449117C157.958 0.438785 155.662 2.69319 155.631 5.49786C155.609 6.87317 156.148 8.19845 157.124 9.17106C158.1 10.1437 159.43 10.6806 160.811 10.6591C163.626 10.6282 165.888 8.34029 165.878 5.53547C165.868 2.73064 163.588 0.459448 160.773 0.449117ZM164.865 16.7181H156.419V63.3941H164.865V16.7181Z" fill="black"/>
<path fill-rule="evenodd" clip-rule="evenodd" d="M181.756 16.7181H173.311V80H181.756V56.5498C186.599 62.1599 192.117 64.6283 199.775 64.6283C206.516 64.7856 213.055 62.3321 218.018 57.784C222.41 53.6325 225 47.4614 225 40.1683C225 32.8752 222.522 26.7041 218.018 22.4404C213.088 17.9113 206.591 15.4586 199.887 15.5961C191.779 15.5961 186.261 18.4011 181.756 23.6746V16.7181ZM215.991 40.1683C215.991 50.7153 209.459 56.8864 198.874 56.8864C188.288 56.8864 181.756 50.6031 181.756 40.1683C181.756 29.7335 188.288 23.4502 198.874 23.4502C209.459 23.4502 215.991 29.6213 215.991 40.1683Z" fill="black"/>
</svg>
