<svg width="601" height="150" viewBox="0 0 601 150" fill="none" xmlns="http://www.w3.org/2000/svg">
<path d="M131.6 0.800049H19.0999C8.6999 0.800049 0.399902 9.10003 0.399902 19.3V130.6C0.399902 140.8 8.7999 149.1 19.0999 149.1H131.5C141.9 149.1 150.2 140.8 150.2 130.6V19.4C150.3 9.10004 141.9 0.800049 131.6 0.800049ZM95.2999 28C95.2999 25.3 97.4999 23.1001 100.3 23.1001C103.1 23.1001 105.3 25.3 105.3 28V94.1001C105.3 96.8001 103.1 99 100.3 99C97.4999 99 95.2999 96.8001 95.2999 94.1001V28ZM70.3999 25.5C70.3999 22.8 72.5999 20.6001 75.3999 20.6001C78.1999 20.6001 80.3999 22.8 80.3999 25.5V97.2001C80.3999 99.9001 78.1999 102.1 75.3999 102.1C72.5999 102.1 70.3999 99.9001 70.3999 97.2001V25.5ZM45.3999 28C45.3999 25.3 47.5999 23.1001 50.3999 23.1001C53.1999 23.1001 55.3999 25.3 55.3999 28V94.1001C55.3999 96.8001 53.1999 99 50.3999 99C47.5999 99 45.3999 96.8001 45.3999 94.1001V28ZM20.3999 37.9C20.3999 35.2 22.5999 33 25.3999 33C28.1999 33 30.3999 35.2 30.3999 37.9V82.4C30.3999 85.1 28.1999 87.3 25.3999 87.3C22.5999 87.3 20.3999 85.1 20.3999 82.4V37.9ZM128.6 113.3C127.8 114 109.3 129.3 75.3999 129.3C41.4999 129.3 22.9999 113.9 22.1999 113.3C20.0999 111.5 19.8999 108.4 21.6999 106.3C23.4999 104.2 26.5999 104 28.6999 105.8C28.9999 106 45.4999 119.5 75.3999 119.5C105.7 119.5 122 106 122.1 105.9C124.2 104.1 127.3 104.4 129.1 106.4C130.9 108.4 130.7 111.6 128.6 113.3ZM130.3 82.4C130.3 85.1 128.1 87.3 125.3 87.3C122.5 87.3 120.3 85.1 120.3 82.4V37.9C120.3 35.2 122.5 33 125.3 33C128.1 33 130.3 35.2 130.3 37.9V82.4Z" fill="#286EFA"/>
<path d="M208.4 96.4C208.4 98.9 206.5 100.9 203.8 100.9C201.2 100.9 199.3 98.9 199.3 96.4V53.4C199.3 50.9 201.2 48.9 203.9 48.9C206.5 48.9 208.4 50.9 208.4 53.4V96.4Z" fill="black"/>
<path d="M267.2 53.4001V92.7001C267.2 98.0001 264.4 101 259.8 101H259.4C255.1 101 253.1 98.5001 251.2 94.9001L242 77.1001L233.9 58.7001L234.1 76.5001L234.2 96.4001C234.2 98.9001 232.3 100.9 229.6 100.9C227 100.9 225.1 98.9001 225.1 96.4001V57.1001C225.1 52.2001 227.9 48.8 232.9 48.8H233.3C237.9 48.8 239.8 51.3001 241.6 54.9001L250.6 72.6001L258.3 89.8L258.1 73.3L258 53.4001C258 50.9001 259.9 48.9001 262.6 48.9001C265.3 48.9001 267.2 51.0001 267.2 53.4001Z" fill="black"/>
<path d="M303.6 96.4C303.6 98.9 301.7 100.9 299 100.9C296.4 100.9 294.5 98.9 294.5 96.4V57.5H283.2C280.9 57.5 279 55.8 279 53.2C279 50.7 280.9 49 283.2 49H314.9C317.2 49 319.1 50.7 319.1 53.3C319.1 55.8 317.2 57.5 314.9 57.5H303.6V96.4V96.4Z" fill="black"/>
<path d="M331 94.8999V54.4999C331 50.6999 333.1 48.5999 337 48.6999H363.2C365.5 48.6999 367.4 50.4999 367.4 52.9999C367.4 55.4999 365.5 57.1999 363.2 57.1999H340V69.6999H360.4C362.7 69.6999 364.5 71.3999 364.5 73.7999C364.5 76.1999 362.7 77.8999 360.4 77.8999H340V92.2999H363.1C365.4 92.2999 367.3 94.0999 367.3 96.5999C367.3 99.0999 365.4 100.8 363.1 100.8H336.7C333 100.9 330.8 98.7999 331 94.8999Z" fill="black"/>
<path d="M419.1 95.0001C420.3 97.1001 419.5 99.8001 417 101.1C414.5 102.3 411.8 101.4 410.6 99.3L400.5 80.6001H390.9L391 96.5001C391 99.0001 389.1 101 386.4 101C383.8 101 381.9 99.0001 381.9 96.5001V54.6001C381.9 50.8001 384 48.7 387.9 48.8H405C416.9 48.8 421.8 56.5001 421.8 64.4001C421.8 71.9001 417.4 77.4001 409.9 78.9001L419.1 95.0001ZM390.8 72.4001H405.2C410.1 72.4001 412.6 69.3 412.6 64.8C412.6 60.4 409.9 57.3 405.1 57.3H390.8V72.4001Z" fill="black"/>
<path d="M440.6 97C435.1 92.1 432.7 84.5 432.7 74.9C432.7 65.2 435.1 57.7 440.5 52.9C443.8 50 448.4 48 454.9 48C460.7 48 465.1 49.3 468.4 52.1C471.3 54.4 473.4 57.7 474.7 62.3C475.4 64.7 473.7 67.1 470.9 67.6C468.3 68 466.2 66.4 465.4 64C464.5 61.7 463.4 60 462 58.8C460.1 57.1 457.8 56.4 454.7 56.4C451.4 56.4 448.6 57.3 446.5 59.5C443.4 62.6 442.1 68 442.1 74.9C442.1 81.7 443.3 87.2 446.5 90.3C448.6 92.4 451.4 93.4 454.6 93.4C457.9 93.4 460.5 92.5 462.6 90.6C463.7 89.6 464.6 88.3 465.3 86.7C466.2 84.4 468.2 82.8 470.8 83.4C473.3 84 474.9 86.5 474.1 88.9C472.8 92.9 470.5 96.1 467.5 98.3C464.2 100.7 460 101.9 454.8 101.9C448 101.8 443.8 99.8 440.6 97Z" fill="black"/>
<path d="M484.9 74.9C484.9 58.6 491.6 48 507.4 48C523 48 529.8 58.3 529.8 74.9C529.8 91.7 523 101.8 507.4 101.8C491.5 101.8 484.9 91.7 484.9 74.9ZM520.5 74.9C520.5 62.5 516 56.5 507.3 56.5C498.8 56.5 494.3 62.5 494.3 74.9C494.3 87.3 498.7 93.3 507.3 93.3C515.9 93.3 520.5 87.3 520.5 74.9Z" fill="black"/>
<path d="M600.4 96.4C600.4 98.9 598.5 100.9 595.8 100.9C593.2 100.9 591.3 98.9 591.3 96.4V76.9L591.5 57.9L585.2 77.2L578.8 96.2C577.7 99.5 575.5 100.9 572.6 100.9C569.6 100.9 567.4 99.5 566.3 96.2L559.7 77.3L553.7 58.3L553.9 77V96.5C553.9 99 552 101 549.3 101C546.7 101 544.8 99 544.8 96.5V57.6C544.8 52.2 547.7 49.1 552.8 49.1C557.6 49.1 560.3 51.6 561.8 56.3L568.5 76.2L572.6 89.7L576.7 76.2L583.4 56.3C584.9 51.6 587.5 49.1 592.4 49.1C597.5 49.1 600.3 52.2 600.3 57.6L600.4 96.4Z" fill="black"/>
</svg>
