<svg xmlns="http://www.w3.org/2000/svg" viewBox="0 0 1023.79 185.81"><defs><style>.cls-1{fill:#353535;}.cls-2{fill:#f52c55;}.cls-3{fill:#343434;}.cls-4{fill:#fecc02;}.cls-5{fill:#04ca74;}</style></defs><g id="Layer_2" data-name="Layer 2"><g id="Layer_1-2" data-name="Layer 1"><path class="cls-1" d="M650.87,0c.08,8.15.22,16.3.23,24.44,0,37.12-.05,74.24.1,111.36,0,3.95-.62,5.63-5,5.29a118.8,118.8,0,0,0-17,0c-4,.25-5.44-1.09-4.86-5a26.5,26.5,0,0,0,0-3.88c-.57-.18-1.08-.43-1.14-.34-10.73,14.32-38.28,15.65-55.47-1.09-19.53-19-18.44-55.33,2.41-72.88,10.73-9,23.16-12,36.9-9a27.91,27.91,0,0,1,16.19,9.86c1.29-.25,1.09-1.21,1.09-2q0-27.47,0-54.93A8.27,8.27,0,0,0,623.87,0Zm-69,94.74c-.12,12.86,8.35,22.11,20.4,22.3s21.49-9.24,21.54-21.87-8.9-21.82-21-21.79C590.84,73.4,582,82.47,581.86,94.74Z"/><path class="cls-1" d="M777.84,185.81c2.11-8.73,6.31-16.68,9.46-25,3.21-8.54,6.69-17,10.26-25.38a8.71,8.71,0,0,0-.1-7.51C787,103.68,776.67,79.4,766.29,55.14,764,49.83,764,49.82,770,49.82c6.16,0,12.34.26,18.48-.1,3.53-.21,4.88,1.19,6,4.26,5.61,14.91,11.44,29.73,17.21,44.58.21.55.49,1.07,1.21,2.62,4.21-10.79,8-20.59,11.87-30.39,2.3-5.87,4.76-11.68,6.82-17.64.93-2.7,2.29-3.48,5-3.4,6.82.21,13.66.26,20.47,0,4-.16,4.31.88,2.86,4.4q-22.39,54-44.54,108.18l-9.63,23.48Z"/><path class="cls-2" d="M0,119.88Q13.53,98.76,27.06,77.65c5.21-8.11,10.22-16.36,15.74-24.26s15.62-10.5,24.51-7.17A21,21,0,0,1,81,66.81,22.57,22.57,0,0,1,77,77.94c-12.35,19.33-24.58,38.73-37.05,58C29.81,151.6,10.07,150.36,1.5,133.66,1.14,133,1,132,0,131.86Z"/><path class="cls-1" d="M1023.79,144.85c-8,0-8,0-8-8,0-5.16.07-10.32,0-15.47-.15-7.14-3.49-11.16-9.25-11.37s-10.55,3.75-11.11,10.44c-.53,6.45-.32,13-.29,19.45,0,3,.31,5.23-4.17,5.13-4.14-.1-4-2-3.94-4.92q.16-9.48,0-19c-.13-7.07-3.29-11-8.77-11.15-6.45-.21-11.19,4.29-11.42,11.22-.22,6.48-.24,13,0,19.46.09,3.1-.58,4.38-4,4.29-3.11-.09-4.27-.7-4.2-4.09.23-11,0-22,.14-32.93,0-2.07-1.52-5.22,3-5.13,3.35.08,6,.17,4.9,5.31,4.49-4,8.88-6.47,14.38-5.88,5.26.57,9.61,2.63,12.3,8.07,3.79-5.47,8.6-8.46,15.12-8.33,8.65.17,12.9,5.46,15.42,12.88Z"/><path class="cls-3" d="M237,61.14c9.94-17.72,41.05-18.33,53,2.16,4.69-6.55,10.23-11.9,18.07-14.25,20.18-6,39.09,6,42.76,27.42a74.27,74.27,0,0,1,1.07,11.91c.13,16.14,0,32.29.13,48.43,0,3-.46,4.43-4,4.26-6.31-.31-12.66-.29-19,0-3.48.16-4.07-1.19-4-4.28.14-14,.07-28,.05-41.94a51.78,51.78,0,0,0-.22-6.48c-1.09-8.63-7.43-14.47-15.25-14.22-8.28.28-13.85,5.82-14.66,14.71-.2,2.31-.19,4.65-.2,7,0,13.81-.07,27.63,0,41.44,0,2.7-.56,3.87-3.55,3.78-6.65-.21-13.33-.2-20,0-2.88.09-3.62-.87-3.6-3.65.13-14.31.11-28.63,0-42.94a38.41,38.41,0,0,0-1-8.9,14.57,14.57,0,0,0-14.51-11.42c-7.35.14-12.38,4.21-14.4,11.48a29.39,29.39,0,0,0-.85,7.91c0,14.48-.11,29,.08,43.44,0,3.31-.92,4.22-4.15,4.09-6.49-.24-13-.15-19.49,0-2.41.05-3.52-.36-3.51-3.19q.16-42.45,0-84.89c0-2.85,1.13-3.22,3.52-3.17,6.66.12,13.33.17,20,0,2.79-.08,3.88.69,3.62,3.57C236.77,55.92,237,58.54,237,61.14Z"/><path class="cls-3" d="M731.59,131.38c-24,23.16-64.65,7.88-71.61-25.17-5.86-27.83,10.35-52.74,37.62-57.69,12.46-2.27,23.76.54,33,9.71.37-.23.85-.38.87-.57.73-7.84.72-7.84,8.88-7.84,4.83,0,9.66.1,14.48,0,2.39-.06,3.59.36,3.58,3.2q-.15,42.4,0,84.81c0,2.86-1.13,3.28-3.55,3.23-6.16-.12-12.34-.3-18.47.06-4,.23-5.38-1.09-4.8-4.93A39.75,39.75,0,0,0,731.59,131.38Zm-22-57.69c-12.67,0-22.75,9.5-22.79,21.52s10.1,21.72,22.65,21.72,22-9.28,22-21.57S722.14,73.72,709.64,73.69Z"/><path class="cls-1" d="M358.73,95.21C358.65,67.89,378.2,48,405.27,47.84c27.34-.17,47.52,19.74,47.62,47s-20,47.71-46.95,47.85S358.8,122.61,358.73,95.21ZM426.14,95c-.05-12-9-20.78-20.89-20.6A20.3,20.3,0,0,0,385.19,94.9c0,12.14,8.72,21.06,20.52,21C417.66,115.92,426.19,107.16,426.14,95Z"/><path class="cls-3" d="M487.58,60.73c9.31-10.66,20.36-14.7,33.6-12.28,15.36,2.82,24.67,13.88,25.41,31.87.8,19.28.24,38.61.41,57.92,0,2.86-1.5,2.72-3.45,2.71-6.66,0-13.33-.22-20,.07-3.39.15-3.71-1.27-3.69-4.06.1-15.31.2-30.63,0-45.94-.19-12.59-9-19.12-21.14-16.14C492,76.52,488,81.47,487.82,89.69c-.32,14.81-.18,29.63-.22,44.44,0,6.8,0,6.8-6.9,6.8-5.49,0-11-.13-16.49.06-2.73.09-3.7-.64-3.69-3.55q.15-42,0-83.89c0-3.24,1.05-3.89,4-3.79,6.32.2,12.66.26,19,0,3.36-.14,4.48.95,4.14,4.2A66.81,66.81,0,0,0,487.58,60.73Z"/><path class="cls-4" d="M65.77,125.59c-.26-3.66,1.16-7.51,3.44-11.09,12.7-19.88,25.35-39.8,38.15-59.61,5.21-8.07,14.14-11.59,22.87-9.48a20.8,20.8,0,0,1,16.25,18.05,19.37,19.37,0,0,1-3.18,13.28c-12.77,20-25.48,40.11-38.39,60.05-5.59,8.64-15,11.93-24.29,9.11C71.73,143.21,65.84,135.42,65.77,125.59Z"/><path class="cls-5" d="M151.16,108.92c10.72.1,19.63,8.9,19.54,19.3s-9,19.13-19.73,19.15c-10.89,0-20-9-19.78-19.59A19.64,19.64,0,0,1,151.16,108.92Z"/><path class="cls-1" d="M928.65,102a21.34,21.34,0,0,1,22,21.64A21.65,21.65,0,0,1,929,145.75c-12.35,0-21.76-9.29-21.94-21.76A21.23,21.23,0,0,1,928.65,102Zm0,8c-7.87.14-13.64,6.23-13.49,14.22a13.7,13.7,0,1,0,27.4-.43C942.4,115.81,936.43,109.89,928.6,110Z"/><path class="cls-1" d="M888.76,102a20.34,20.34,0,0,1,11.66,4.21c1,.76,3.49,1.62,2,3.2s-2.87,4.8-6.21,3.55c-1.23-.46-2.26-1.42-3.48-1.91a14.09,14.09,0,0,0-16.83,5,14.29,14.29,0,0,0,1.31,17.11c4.46,5,11.19,6,17.26,2.8,1.24-.65,2.23-3,4.18-1.13,1.43,1.34,4,2.12,4.08,4.07.11,2.11-2.42,2.91-4.07,3.89a22.4,22.4,0,0,1-25.26-1.95c-7-5.71-9.73-16.1-6.53-24.93C869.83,107.54,877.94,102.06,888.76,102Z"/><path class="cls-1" d="M845.34,142c-3.23-.21-5.33-1.78-5.52-5.12a5,5,0,0,1,5-5.61c3.42-.24,5.77,1.84,5.82,5.31C850.67,139.78,848.63,141.65,845.34,142Z"/></g></g></svg>