<svg xmlns="http://www.w3.org/2000/svg" viewBox="0 0 303.4 116.85"><defs><style>.cls-1{fill:#009c3d;}</style></defs><g id="Layer_2" data-name="Layer 2"><g id="Layer_1-2" data-name="Layer 1"><path class="cls-1" d="M241.44,36.81V0H249V31.63a46,46,0,0,0-7.55,5.18M228.33,47.89a61.08,61.08,0,0,1,7.55-8V0h-7.55ZM140.88,77.14a37.61,37.61,0,0,0,37.3,37.29A27.34,27.34,0,0,0,189.65,112V104.5a31.26,31.26,0,0,1-11.47,2.37,30.15,30.15,0,0,1-29.75-29.73V70.33a30.15,30.15,0,0,1,29.75-29.74,29.54,29.54,0,0,1,29.74,29.74v44.1h7.55V68.88a37.6,37.6,0,0,0-11.56-25.37,37.3,37.3,0,0,0-63,26.82Zm113-18.07a17.61,17.61,0,0,1,12.22-5.36,16.44,16.44,0,0,1,16.62,16.62v6.81a16.44,16.44,0,0,1-16.62,16.62c-4.51,0-8.87-2.47-12.29-7a27.18,27.18,0,0,1-5.29-14.15l-6.12,7.47a28.56,28.56,0,0,0,8.41,15,22.86,22.86,0,0,0,15.29,6.16,24.2,24.2,0,0,0,24.18-24.18V70.33a24.61,24.61,0,0,0-24.18-24.19c-4,0-10.34,1.44-17.91,8.24l0,0c-2,2-6.78,6.78-9.66,10.17-4.87,5.31-11.93,13.31-18,21.33v11.8c6.68-8.59,10.53-13.4,16.81-20.65,5.62-6.56,12.59-14.54,16.53-18M75.56,44.83V35.91c-6.82-3.67-14.29-5.31-24.18-5.31A39.63,39.63,0,0,0,24.44,41,33.77,33.77,0,0,0,13.12,66v2.44c0,19.49,15.64,35.35,34.86,35.35,15.64,0,22.06-5.12,23.7-6.73V74.33H46.15v7.55H64.61V93.24l-.07,0c-2.37.95-7.31,2.93-16.56,2.93a27,27,0,0,1-19.33-8.06,27.86,27.86,0,0,1-8-19.74V66c0-15.06,14.07-27.79,30.71-27.79,11.52,0,18.33,1.88,24.18,6.67m55,8.88a16.52,16.52,0,0,1,7.23,1.41,44.44,44.44,0,0,1,3.31-6.62c-2.05-1.48-6.94-2.36-10.54-2.36-13.78,0-24.18,10.4-24.18,24.19v44.1h7.55V70.33c0-9.79,6.84-16.62,16.63-16.62M0,66v2.44A48.46,48.46,0,0,0,14,102.8a47.53,47.53,0,0,0,34,14c10.38,0,19.57-2.34,27.34-7,6.39-3.81,9.23-7.67,9.48-8V61.21H46.15v7.55H77.24V99.52l0,0C73.57,103.2,64.93,109.3,48,109.3A40,40,0,0,1,19.19,97.43a41,41,0,0,1-11.63-29V66c0-10.48,4.72-20.94,13-28.67A45,45,0,0,1,51.38,25c10.72,0,18.19,1.63,24.18,5.26V21.82C69.32,19.16,61.86,18,51.38,18,23.53,18,0,40,0,66m202.36,48.48V70.33a24.18,24.18,0,0,0-48.36,0v6.81a24.52,24.52,0,0,0,24.18,24.18c3.59,0,8.48-.89,11.47-3.35V90a18.79,18.79,0,0,1-11.47,3.77,16.45,16.45,0,0,1-16.63-16.62V70.33a16.63,16.63,0,0,1,33.26,0v44.1ZM130.57,40.59A26.83,26.83,0,0,1,144.15,44a66.45,66.45,0,0,1,5.2-5.68C145.11,35,137.94,33,130.57,33c-10.49,0-20,3.78-26.82,10.66S93.28,60,93.28,70.33v44.1h7.54V70.33c0-17.51,12.24-29.74,29.75-29.74m161.82,3.46a37,37,0,0,0-26.28-11,35.87,35.87,0,0,0-18.4,5.33c-8.22,5.47-15,11.42-27.16,27.15v11.3c10.33-13.45,20.1-24.05,27.52-29.88a29.51,29.51,0,0,1,47.78,23.4v6.81a29.84,29.84,0,0,1-29.74,29.73A29.06,29.06,0,0,1,238,85.36l-5.33,6.46c3.88,13,17.92,22.61,33.4,22.61A37.59,37.59,0,0,0,303.4,77.14V70.33a37,37,0,0,0-11-26.28"/></g></g></svg>