<svg width="327" height="72" viewBox="0 0 327 72" fill="none" xmlns="http://www.w3.org/2000/svg">
<path d="M79.354 50.8996L81.316 50.4091C83.1554 49.9186 83.5232 49.796 83.5232 46.1173V17.9137C83.5232 14.3576 82.9101 13.9897 81.316 13.6218L79.354 13.1313V11.5372H111.727L112.34 23.4318H110.378C109.521 21.1869 108.41 19.0475 107.067 17.0553C105.105 14.2349 103.879 13.9897 99.8323 13.9897C97.9717 13.8898 96.1074 14.0969 94.3142 14.6028V29.8082H95.9083C100.078 29.8082 101.059 29.3177 101.794 27.9689C102.584 26.5345 103.202 25.0115 103.634 23.4318H105.473V38.7598H103.879C103.394 37.1192 102.779 35.52 102.039 33.9774C101.426 32.506 100.568 32.1381 96.1535 32.1381H94.5594V43.7874C94.5594 49.0602 94.8047 49.6734 100.445 49.6734C105.228 49.6734 106.209 49.0602 108.171 46.2399C109.653 43.7337 110.924 41.1086 111.972 38.3919H113.934L113.198 52.3711H79.354V50.8996Z" fill="black"/>
<path d="M118.716 28.4592C117.367 25.1484 116.754 24.29 115.283 23.7995L114.179 23.4316V21.8375H131.837V23.4316L130.243 23.9221C129.017 24.29 128.281 24.9031 128.281 26.252C128.409 27.3384 128.656 28.4076 129.017 29.4402L133.922 43.0515H134.29L139.072 29.4402C139.503 28.4292 139.752 27.3498 139.808 26.252C139.808 24.9031 139.195 24.29 137.846 24.0448L136.252 23.5543V21.9601H147.165V23.5543L146.062 23.9221C144.467 24.5353 143.854 25.3936 142.383 29.195L133.309 52.6162H128.404L118.716 28.4592Z" fill="black"/>
<path fill-rule="evenodd" clip-rule="evenodd" d="M161.39 20.9792C153.664 20.9792 146.062 26.6199 146.062 36.9204C146.062 47.0982 151.089 53.1068 161.267 53.2294C165.952 53.164 170.414 51.2201 173.652 47.8339V45.872C171.027 47.3301 168.071 48.09 165.068 48.0792C159.06 48.0792 155.504 45.5041 155.258 35.8168H174.756C174.633 25.0258 169.483 20.9792 161.39 20.9792ZM165.436 32.9964L155.381 33.6095C155.504 26.1294 157.956 23.3091 160.899 23.3091C164.455 23.3091 165.436 25.8842 165.436 32.9964Z" fill="black"/>
<path d="M190.329 25.6389C192.046 23.7996 195.357 20.9792 199.281 20.9792C201.751 21.0618 203.735 23.0455 203.818 25.5163C203.812 27.6732 202.284 29.5262 200.168 29.9435C198.052 30.3608 195.935 29.2263 195.111 27.2331C194.763 26.637 194.066 26.3384 193.395 26.4973C192.199 26.624 191.078 27.1412 190.206 27.9688V47.0982C190.206 49.9186 190.452 50.1638 192.168 50.4091L194.13 50.8996V52.4937H177.086V50.8996L178.68 50.4091C180.642 49.7959 180.887 49.6733 180.887 47.0982V28.7046C180.887 26.2521 180.519 26.0068 178.925 24.9032L176.963 23.5543V22.3281L189.348 20.8566L189.961 21.3471L189.838 25.3937L190.329 25.6389Z" fill="black"/>
<path d="M205.78 50.8995L207.374 50.4091C209.336 49.7959 209.581 49.6733 209.581 47.0982V28.8272C209.581 26.3747 209.213 26.1294 207.619 25.0258L205.657 23.677V22.4507L218.042 20.9792L218.655 21.4697L218.533 25.2711H218.778C221.966 23.0638 225.767 21.1018 230.059 21.1018C235.087 21.1018 237.785 23.677 237.785 28.9498V47.0982C237.785 49.6733 238.03 50.0412 239.869 50.4091L241.463 50.8995V52.4937H225.154V50.8995L226.626 50.5317C228.465 50.0412 228.588 49.9186 228.588 47.2208V31.2797C228.588 27.7236 227.239 26.6199 224.541 26.6199C222.687 26.7363 220.843 26.9822 219.023 27.3557V47.0982C219.023 49.9186 219.268 50.0412 220.985 50.4091L222.457 50.7769V52.371H206.025V50.7769L205.78 50.8995Z" fill="black"/>
<path fill-rule="evenodd" clip-rule="evenodd" d="M258.508 20.9792C250.537 20.9792 242.567 25.8842 242.567 37.1656C242.567 48.0792 249.924 53.1068 258.508 52.9842C266.724 52.9842 274.572 48.0792 274.572 36.7978C274.572 26.1294 266.969 20.9792 258.508 20.9792ZM258.263 23.4317C262.432 23.4317 264.639 25.6389 264.639 37.5335C264.639 48.6923 262.187 50.8996 258.631 51.0222C254.339 51.0222 252.377 48.4471 252.377 36.3073C252.377 26.1294 254.584 23.4317 258.263 23.4317Z" fill="black"/>
<path d="M279.599 45.0135V25.271H275.921V23.7995C280.477 22.1106 284.033 18.4641 285.608 13.8669H288.919V21.7149H296.767L296.031 25.1484H288.919V44.2778C288.919 47.2208 289.777 48.447 292.72 48.447C294.171 48.4238 295.613 48.2178 297.012 47.8339V49.5506C294.474 51.8698 291.129 53.1023 287.693 52.9841C282.42 53.1067 279.599 50.8995 279.599 45.0135Z" fill="black"/>
<path fill-rule="evenodd" clip-rule="evenodd" d="M313.567 20.9792C305.841 20.9792 298.239 26.6199 298.239 36.9204C298.239 47.0982 303.266 53.1068 313.567 53.2294C318.251 53.164 322.714 51.2201 325.952 47.8339V45.872C323.326 47.3301 320.371 48.09 317.368 48.0792C311.359 48.0792 307.803 45.5041 307.558 35.8168H326.933C326.81 25.0258 321.66 20.9792 313.567 20.9792ZM317.613 32.9964L307.558 33.6095C307.803 26.1294 310.133 23.3091 313.076 23.3091C316.632 23.3091 317.613 25.8842 317.613 32.9964Z" fill="black"/>
<path fill-rule="evenodd" clip-rule="evenodd" d="M35.6998 69.7838C34.1155 68.8236 32.9048 67.3535 32.2663 65.6145C31.1881 62.8185 31.5069 59.676 33.1246 57.1535C34.7773 54.6461 37.6025 53.164 40.6047 53.2295C41.3093 53.3094 41.9833 53.5621 42.5667 53.9652C43.1072 54.4669 43.3798 55.1939 43.3025 55.9272C43.2928 56.8867 42.7808 57.7709 41.9536 58.2571C41.676 58.4843 41.3312 58.6136 40.9726 58.6249C40.2769 58.6581 39.6014 58.8692 39.0106 59.2381C38.3798 59.7446 38.0178 60.5137 38.0296 61.3227C38.0395 62.1977 38.3917 63.034 39.0106 63.6525C40.0805 64.7358 41.5348 65.3528 43.0572 65.3693C44.9851 65.3994 46.8428 64.6468 48.2062 63.2834C49.5696 61.9201 50.3222 60.0623 50.292 58.1344C50.1734 54.4649 47.9195 51.2039 44.5287 49.796C43.8934 49.5361 43.237 49.331 42.5667 49.1829C41.9651 49.0083 41.3498 48.8852 40.7274 48.815C38.2749 48.4471 32.021 46.6078 31.5305 40.967C31.5305 40.967 29.5685 49.4281 25.8898 51.6354C25.4615 51.8525 25.0087 52.0172 24.5409 52.1259C24.2957 52.1872 24.0811 52.2178 23.8665 52.2485C23.6519 52.2791 23.4373 52.3098 23.1921 52.3711C16.9949 52.8309 10.8924 50.6482 6.39255 46.3625C6.39255 46.3625 3.32694 43.91 1.85545 37.0431C1.77762 36.6799 1.68333 36.2618 1.57953 35.8016L1.57949 35.8014C1.19269 34.0864 0.673991 31.7866 0.383958 29.563C0.23435 28.9646 0.176007 28.4118 0.125417 27.9324C0.0930769 27.626 0.0639052 27.3496 0.0160848 27.1105C-0.188198 24.6001 1.57519 22.3557 4.06269 21.9603H16.2025C17.6522 22.0287 19.0812 21.5956 20.2491 20.734C21.1757 19.6479 21.6186 18.2305 21.4753 16.8101V4.05713C21.9081 1.59173 24.1278 -0.15232 26.6256 0.010524H28.097C28.7534 -0.00977888 29.4103 0.0312742 30.059 0.133148C30.6722 0.255773 31.1627 0.378397 31.6532 0.501021C33.852 1.07806 35.551 2.82432 36.0676 5.03812L46.3681 6.87749C46.677 6.93689 47.0331 6.99515 47.4258 7.05939C51.0863 7.65819 57.9266 8.77717 59.3662 16.1969C63.045 35.6942 60.8377 54.4557 60.5925 54.4557C58.3853 72.972 43.0572 71.991 43.0572 71.991C40.4357 72.0321 37.8657 71.2611 35.6998 69.7838ZM19.5133 16.0743C19.5921 17.032 19.3316 17.987 18.7775 18.772C17.9788 19.2968 17.0342 19.5544 16.0798 19.5078H8.47706C7.00557 19.5078 5.53408 19.5078 4.06259 19.6304C3.59488 19.7391 3.14199 19.9038 2.71372 20.1209H2.7137C2.6524 20.1209 2.62175 20.1209 2.60643 20.1056C2.5911 20.0903 2.5911 20.0596 2.5911 19.9983L20.0037 2.34039C20.1264 2.21777 20.1264 2.34039 20.1264 2.46301C19.9092 2.89128 19.7446 3.34418 19.6359 3.81188C19.5133 5.28337 19.5133 6.75487 19.5133 8.22636V16.0743ZM45.1418 32.7512C45.9402 31.1697 47.6969 30.3164 49.4336 30.6666C51.1839 30.704 52.6917 31.9102 53.1123 33.6096C53.2356 33.8824 53.2356 34.1951 53.1123 34.468C53.1123 34.5906 52.8671 34.7132 52.7445 34.7132C51.5219 34.9112 50.2724 34.8696 49.0657 34.5906C47.809 34.5355 46.5682 34.2873 45.387 33.8548C45.2235 33.7731 45.169 33.6913 45.1145 33.6096C45.0872 33.5687 45.06 33.5278 45.0191 33.487C44.8965 33.3643 45.0191 32.9965 45.1418 32.7512Z" fill="#00A82D"/>
</svg>
