<svg width="330" height="66" viewBox="0 0 330 66" fill="none" xmlns="http://www.w3.org/2000/svg">
<path fill-rule="evenodd" clip-rule="evenodd" d="M292.588 27.8238L302.544 19.8748C303.158 19.4007 303.509 18.6623 303.487 17.8875C303.517 17.2685 303.284 16.6655 302.845 16.2272C302.406 15.7889 301.802 15.5563 301.181 15.5865C300.565 15.5881 299.97 15.8108 299.505 16.2141L285.357 27.7192V2.51249C285.395 1.65304 284.97 0.838947 284.243 0.376863C283.516 -0.0852201 282.597 -0.12509 281.833 0.272271C281.068 0.669633 280.574 1.44386 280.537 2.3033V43.1988C280.479 44.5274 281.511 45.6513 282.842 45.709C284.173 45.7668 285.3 44.7366 285.357 43.408V33.4718L288.606 30.857L299.505 44.6631C299.992 45.2914 300.707 45.7043 301.496 45.8136C302.116 45.8439 302.72 45.6112 303.159 45.1729C303.599 44.7347 303.832 44.1317 303.801 43.5126C303.805 42.9782 303.619 42.4596 303.277 42.0483L292.588 27.8238ZM165.053 18.7243C167.031 16.4077 169.971 15.1336 173.017 15.2727C180.877 15.2727 184.859 19.2472 184.964 26.7779V43.5126C185.036 44.1613 184.825 44.8097 184.383 45.2909C183.941 45.7721 183.312 46.039 182.658 46.0228C181.983 46.0496 181.328 45.7938 180.85 45.3171C180.373 44.8404 180.116 44.1862 180.143 43.5126V27.7192C180.143 22.0712 178.362 19.7702 173.017 19.7702C167.672 19.7702 165.053 22.4896 165.053 28.1376V43.5126C165.079 44.1862 164.823 44.8404 164.345 45.3171C163.868 45.7938 163.212 46.0496 162.537 46.0228C161.895 46.0041 161.288 45.7268 160.853 45.2539C160.419 44.7811 160.195 44.153 160.232 43.5126V2.61708C160.159 1.96839 160.371 1.31995 160.813 0.838774C161.255 0.357596 161.884 0.0907143 162.537 0.106867C163.212 0.0800685 163.868 0.33592 164.345 0.81261C164.823 1.2893 165.079 1.94347 165.053 2.61708V18.7243ZM68.9554 12.8671C68.9554 7.42832 71.8896 1.67575 80.1685 1.67575C81.4796 1.6712 82.5743 2.67272 82.6835 3.97678C82.6678 4.56354 82.4129 5.11849 81.9777 5.51333C81.5425 5.90817 80.9648 6.10872 80.378 6.06862C75.1383 6.06862 73.9855 9.72934 73.9855 12.6579V16.0049H79.2253C80.4986 16.0049 81.5308 17.0351 81.5308 18.3059C81.5308 19.5767 80.4986 20.6069 79.2253 20.6069H73.9855V43.5126C74.0291 44.1908 73.7782 44.8548 73.2967 45.3353C72.8153 45.8158 72.1499 46.0663 71.4704 46.0228C70.7955 46.0496 70.1401 45.7938 69.6625 45.3171C69.1849 44.8404 68.9285 44.1862 68.9554 43.5126V20.8161H67.2786C66.0053 20.8161 64.9731 19.7859 64.9731 18.5151C64.9731 17.2443 66.0053 16.2141 67.2786 16.2141H68.9554V12.8671ZM90.7528 19.2472C92.6503 16.5972 95.7727 15.0982 99.0316 15.2727C100.284 15.321 101.289 16.3235 101.337 17.5738C101.367 18.1928 101.134 18.7958 100.695 19.2341C100.256 19.6723 99.6518 19.905 99.0316 19.8748C93.8966 19.8748 90.7528 23.3263 90.7528 29.2881V43.3034C90.7963 43.9816 90.5454 44.6456 90.0639 45.1261C89.5825 45.6067 88.9171 45.8571 88.2377 45.8136C87.5628 45.8404 86.9073 45.5846 86.4297 45.1079C85.9521 44.6312 85.6957 43.977 85.7226 43.3034V17.8875C85.7141 17.2192 85.9763 16.5758 86.4498 16.1032C86.9234 15.6305 87.5681 15.3688 88.2377 15.3773C88.9126 15.3505 89.568 15.6064 90.0457 16.0831C90.5233 16.5598 90.7796 17.2139 90.7528 17.8875V19.2472ZM128.269 27.8238C128.263 25.0108 127.464 22.2562 125.964 19.8748C123.638 16.7023 119.83 14.9605 115.904 15.2727C107.52 15.2727 102.699 20.9207 102.699 30.5432C102.699 40.584 107.52 46.0228 116.532 46.0228C120.24 46.1859 123.86 44.8686 126.593 42.3621C127.146 41.9893 127.465 41.3545 127.431 40.6886C127.431 39.5333 126.493 38.5968 125.335 38.5968C124.835 38.6122 124.355 38.7965 123.973 39.1197C121.941 40.8047 119.384 41.7294 116.742 41.7345C111.293 41.7345 107.834 38.0738 107.625 32.3212H125.44C128.269 32.2167 128.269 29.6019 128.269 27.8238ZM123.554 27.9284C123.449 22.4896 120.934 19.6656 116.008 19.6656C111.083 19.6656 108.149 22.5942 107.52 27.9284H123.554ZM144.408 28.2422C144.221 28.1729 144.036 28.1047 143.853 28.0373C140.449 26.7822 137.806 25.8079 137.806 23.3263C137.806 20.3977 141.159 20.084 142.941 20.084C145.403 19.9192 147.815 20.8361 149.543 22.5942C150.422 23.4336 151.808 23.4336 152.687 22.5942C153.149 22.1662 153.382 21.5462 153.315 20.9207C153.284 20.3927 153.103 19.8846 152.792 19.4564C150.402 16.5943 146.766 15.0724 143.046 15.3773C136.967 15.3773 133.09 18.5151 133.09 23.3263C133.09 29.209 138.192 31.0182 142.858 32.6729L143.046 32.7396L143.416 32.8627C146.725 33.9599 149.648 34.929 149.648 37.5509C149.648 41.0024 145.665 41.6299 143.36 41.6299C140.535 41.8147 137.772 40.7426 135.815 38.7014C135.354 38.2588 134.769 37.9669 134.138 37.8646C132.98 37.8646 132.042 38.8012 132.042 39.9565C132.073 40.4845 132.255 40.9926 132.566 41.4208C135.281 44.6023 139.278 46.4056 143.465 46.3366C150.381 46.3366 154.573 43.0942 154.573 37.76C154.172 31.7593 149.46 30.062 145.016 28.4618L145.015 28.4615C144.812 28.3883 144.61 28.3153 144.408 28.2422ZM224.786 15.7957C223.738 15.8046 222.812 16.477 222.48 17.4692L215.564 36.9233L209.905 17.4692C209.424 16.2144 208.033 15.5664 206.761 16.0049C206.106 16.2925 205.582 16.815 205.294 17.4692L199.635 36.9233L193.033 17.3646C192.765 16.3506 191.761 15.7128 190.727 15.9003C190.107 15.87 189.503 16.1027 189.064 16.541C188.625 16.9792 188.392 17.5823 188.422 18.2013C188.39 18.5293 188.464 18.8589 188.631 19.1426L197.853 44.3493C198.168 45.3537 199.105 46.0338 200.159 46.0228C201.207 46.0139 202.133 45.3415 202.464 44.3493L207.914 25.9411L213.363 44.3493C213.729 45.3156 214.635 45.9729 215.669 46.0228C216.716 46.0139 217.643 45.3415 217.974 44.3493L227.196 19.1426C227.364 18.8589 227.437 18.5293 227.406 18.2013C227.264 16.8556 226.141 15.8251 224.786 15.7957ZM228.768 30.5432C228.768 20.7115 233.589 15.2727 242.287 15.2727C251.089 15.2727 255.805 20.5023 255.805 30.5432C255.805 40.584 250.985 46.0228 242.287 46.0228C233.589 46.0228 228.768 40.3748 228.768 30.5432ZM242.287 41.6299C236.523 41.6299 233.589 37.9692 233.589 30.5432C233.589 23.1171 236.523 19.4564 242.287 19.4564C248.05 19.4564 250.88 23.2217 250.88 30.5432C250.88 37.8646 248.05 41.7345 242.287 41.6299ZM266.075 19.2472C267.973 16.5972 271.095 15.0982 274.354 15.2727C275.622 15.2841 276.648 16.3077 276.659 17.5738C276.69 18.1928 276.457 18.7958 276.017 19.2341C275.578 19.6723 274.974 19.905 274.354 19.8748C269.219 19.8748 266.075 23.3263 266.075 29.2881V43.3034C266.017 44.632 264.891 45.6622 263.56 45.6044C262.229 45.5467 261.197 44.4228 261.255 43.0942V17.6783C261.292 16.8189 261.786 16.0447 262.55 15.6473C263.315 15.25 264.234 15.2898 264.961 15.7519C265.688 16.214 266.113 17.0281 266.075 17.8875V19.2472ZM319.176 28.0373C319.358 28.1047 319.543 28.1729 319.73 28.2421C319.943 28.3195 320.157 28.3966 320.372 28.4739C324.806 30.07 329.5 31.76 330 37.4463C330 42.6759 325.808 46.0228 318.892 46.0228C314.68 46.255 310.592 44.5613 307.784 41.4208C307.472 40.9926 307.291 40.4845 307.26 39.9565C307.26 38.8012 308.198 37.8646 309.355 37.8646C309.987 37.9669 310.572 38.2588 311.032 38.7014C312.99 40.7425 315.752 41.8147 318.577 41.6299C320.883 41.6299 324.865 41.0024 324.865 37.5508C324.865 34.929 321.943 33.9599 318.634 32.8627C318.511 32.8219 318.387 32.7809 318.263 32.7396L318.075 32.6729C313.409 31.0182 308.308 29.209 308.308 23.3263C308.308 18.5151 312.185 15.3773 318.263 15.3773C321.983 15.0724 325.619 16.5943 328.009 19.4564C328.32 19.8846 328.502 20.3927 328.533 20.9207C328.521 22.0701 327.68 23.043 326.542 23.2217C325.915 23.2877 325.294 23.0551 324.865 22.5942C323.137 20.8361 320.725 19.9192 318.263 20.084C316.377 20.084 313.128 20.3977 313.128 23.3263C313.128 25.8079 315.771 26.7822 319.176 28.0373Z" fill="#4D4D4D"/>
<path d="M0.314453 42.1529C1.18422 48.1094 3.98107 53.6188 8.27889 57.8417L17.8152 48.2192C17.7856 38.1722 23.142 28.8765 31.8578 23.8493L0.314453 42.1529Z" fill="#9B65C3"/>
<path d="M17.8152 48.2192C12.8885 48.1855 8.05306 46.889 3.77269 44.4539C2.57271 43.7601 1.41768 42.9916 0.314453 42.1529C1.18422 48.1094 3.98107 53.6188 8.27889 57.8417L17.8152 48.2192Z" fill="#9B65C3"/>
<path d="M17.8152 48.2193L8.27881 57.7372C12.51 62.0266 18.0301 64.8181 23.9981 65.6862L42.1277 34.2039C37.0812 42.8423 27.8339 48.173 17.8152 48.2193Z" fill="#BE63C5"/>
<path d="M21.5878 62.13C19.148 57.8579 17.849 53.0319 17.8152 48.1147L8.27881 57.6325C12.51 61.922 18.0301 64.7135 23.9981 65.5815C23.1009 64.4991 22.2948 63.3447 21.5878 62.13Z" fill="#BF63C6"/>
<path d="M53.6551 11.2982L31.8577 23.8493C23.144 28.7655 12.4864 28.7655 3.77263 23.8493C1.3321 28.159 0.0336071 33.0189 0 37.9692C0 39.3289 0.20959 40.7932 0.314386 42.0483C1.41761 42.887 2.57264 43.6555 3.77263 44.3493C8.02523 46.863 12.8728 48.1989 17.8152 48.2192L54.1791 11.9258C53.9264 11.7961 53.7373 11.5696 53.6551 11.2982Z" fill="#3278B1"/>
<path d="M3.77269 44.3493C8.05306 46.7844 12.8885 48.0809 17.8152 48.1147C17.7856 38.0676 23.142 28.7719 31.8578 23.7447L0.314453 41.8391C1.3358 42.8428 2.50136 43.6888 3.77269 44.3493Z" fill="#3278B2"/>
<path d="M3.77263 23.8493C1.3321 28.159 0.0336071 33.0189 0 37.9692C0 39.3289 0.20959 40.7932 0.314386 42.0483L31.8577 23.7447C23.2049 28.8499 12.4634 28.8899 3.77263 23.8493Z" fill="#45A4EC"/>
<path d="M54.1789 11.9258C52.9603 10.5524 51.1959 9.78668 49.3584 9.83394H28.0849C18.0662 9.88018 8.8189 15.2109 3.77246 23.8493C12.4862 28.7655 23.1438 28.7655 31.8576 23.8493C23.0654 28.8001 17.6807 38.1448 17.815 48.2193C27.8816 48.2488 37.1953 42.9028 42.2323 34.2039L54.8077 12.4487C54.5358 12.3667 54.3088 12.178 54.1789 11.9258Z" fill="#19BB7D"/>
<path d="M31.8576 23.8493L53.655 11.2982C53.3406 11.0891 53.131 10.7753 52.8166 10.6707L3.77246 23.8493C12.4585 28.8695 23.1715 28.8695 31.8576 23.8493Z" fill="#08C7FB"/>
<path d="M49.1488 9.83393H28.0849C18.0662 9.88016 8.8189 15.2109 3.77246 23.8493L52.8166 10.6707C51.6887 10.0755 50.4238 9.78692 49.1488 9.83393Z" fill="#59F2F6"/>
<path d="M42.2326 34.0993L54.808 12.3441C54.6081 12.1573 54.4321 11.9465 54.284 11.7166L18.0249 47.9055C18.0587 52.8227 19.3578 57.6487 21.7975 61.9208C22.4927 63.1185 23.2627 64.2713 24.103 65.3723C25.4202 65.5807 26.7517 65.6856 28.0852 65.6861C33.012 65.6524 37.8474 64.3558 42.1278 61.9208C37.0767 53.3218 37.1169 42.6601 42.2326 34.0993Z" fill="#DA3757"/>
<path d="M17.8149 48.2193C17.8487 53.1365 19.1478 57.9625 21.5876 62.2346C22.2827 63.4323 23.0528 64.5851 23.8931 65.6862L42.0226 34.2039C37.0452 42.8602 27.8148 48.2043 17.8149 48.2193Z" fill="#D33C4E"/>
<path d="M42.2326 34.0993L24.103 65.6861C25.4549 65.8986 26.8215 66.0035 28.19 65.9999C33.1168 65.9662 37.9522 64.6696 42.2326 62.2346C37.0976 53.5563 37.0976 42.7776 42.2326 34.0993Z" fill="#EE5A24"/>
<path d="M55.3318 13.1809C54.9179 12.409 54.3467 11.7321 53.6551 11.1936L31.8577 23.7447C23.0785 28.7598 17.7057 38.1239 17.8151 48.2193C27.8817 48.2488 37.1954 42.9028 42.2324 34.2039C37.3066 42.9008 37.3066 53.5377 42.2324 62.2346C50.8794 57.2918 56.2312 48.1238 56.2749 38.1784V16.9462C56.2737 15.633 55.9498 14.3402 55.3318 13.1809Z" fill="#8BDF55"/>
<path d="M53.6549 11.2982L31.8575 23.8493C23.0653 28.8 17.6807 38.1447 17.815 48.2192L54.1789 11.9258C53.9507 11.7676 53.7697 11.5507 53.6549 11.2982Z" fill="#25C16F"/>
<path d="M17.8149 48.2193C27.8815 48.2488 37.1952 42.9028 42.2322 34.2039L54.8076 12.4488C54.6077 12.2619 54.4317 12.0511 54.2837 11.8212L17.8149 48.2193Z" fill="#8BDF55"/>
<path d="M54.8079 12.4487L42.2324 34.2039C37.3066 42.9008 37.3066 53.5377 42.2324 62.2346L55.4366 13.2855C55.1854 13.0403 54.9734 12.7581 54.8079 12.4487V12.4487Z" fill="#FFBB00"/>
<path d="M42.2324 62.13C50.9653 57.171 56.335 47.8924 56.275 37.8646V16.8416C56.287 15.56 55.9618 14.2977 55.3318 13.1809L42.2324 62.13Z" fill="#FFA800"/>
</svg>
