<svg xmlns="http://www.w3.org/2000/svg" xmlns:xlink="http://www.w3.org/1999/xlink" viewBox="0 0 94 122">
  <g id="container">
    <path fill="#fff" d="M8.1 89.9L47.6 110l38-20.1V11.3H8.1z"/>
    <path fill="#f2f3f2" d="M86.4 11.6L7.3 91.3l41 20.3 38.1-19.5z"/>
    <path d="M5.5 37.5v54.1l1.4.7 39.5 20.1 1.2.6 1.2-.6 38.1-20.1 1.4-.7V8.7H5.5v28.8zm2.6 52.6V11.3h77.6v78.8l-38.1 20.1L8.1 90.1z" fill="#dcdedc"/>
    <path id="logo" d="M46.9 12.6c.4 0 .8 0 1.2.1L46.9 15c-1.8-.1-3.4 1.3-3.5 3.1-.1 1.8 1.3 3.4 3.1 3.5h.4c.8 0 1.6-.3 2.2-.8l1.3 2.2c-1 .7-2.2 1.1-3.5 1.1-3.2.1-5.9-2.3-6-5.5-.1-3.2 2.3-5.9 5.5-6h.5zm4.1 4.9l1.5 2.5-1.5 2.4-1.4-2.4h-2.9l1.5-2.5H51zm-2.4-.9c0-.4.1-.8.3-1.1.2-.3.6-.6.9-.8l.2-.1c.4-.2.5-.3.5-.5s-.3-.4-.5-.4c-.4 0-.7.2-.9.6l-.5-.5c.1-.2.3-.4.5-.6.3-.2.6-.2.9-.2.3 0 .7.1.9.3.2.2.4.5.4.8 0 .5-.3.9-.9 1.1l-.3.2c-.3.2-.5.3-.6.6h1.8v.7l-2.7-.1zm-1.7 12.5l9.5-5.4v-15H37.3v14.9l9.6 5.5z" fill="#ff492c"/>
    <path id="banner" d="M90.2 64.5H3.6l-3.2 7 3.2 7h86.6l3.1-7z" fill="#23cca2"/>
  <path fill="#252530" transform="translate(19.74, 60)" d="M4.51 0.12L4.51 0.12Q3.31 0.12 2.42-0.26L2.42-0.26L2.42-0.26Q1.51-0.65 1.03-1.36L1.03-1.36L1.03-1.36Q0.54-2.07 0.54-3.01L0.54-3.01L0.54-3.34L0.54-3.34Q0.54-3.42 0.59-3.47L0.59-3.47L0.59-3.47Q0.65-3.52 0.72-3.52L0.72-3.52L2.43-3.52L2.43-3.52Q2.50-3.52 2.56-3.47L2.56-3.47L2.56-3.47Q2.61-3.42 2.61-3.34L2.61-3.34L2.61-3.12L2.61-3.12Q2.61-2.52 3.17-2.11L3.17-2.11L3.17-2.11Q3.72-1.69 4.67-1.69L4.67-1.69L4.67-1.69Q5.46-1.69 5.85-2.03L5.85-2.03L5.85-2.03Q6.24-2.37 6.24-2.86L6.24-2.86L6.24-2.86Q6.24-3.23 6-3.47L6-3.47L6-3.47Q5.76-3.72 5.35-3.91L5.35-3.91L5.35-3.91Q4.93-4.09 4.04-4.42L4.04-4.42L4.04-4.42Q3.03-4.77 2.33-5.13L2.33-5.13L2.33-5.13Q1.64-5.49 1.16-6.11L1.16-6.11L1.16-6.11Q0.69-6.73 0.69-7.65L0.69-7.65L0.69-7.65Q0.69-8.55 1.16-9.22L1.16-9.22L1.16-9.22Q1.62-9.90 2.44-10.26L2.44-10.26L2.44-10.26Q3.27-10.62 4.35-10.62L4.35-10.62L4.35-10.62Q5.49-10.62 6.38-10.21L6.38-10.21L6.38-10.21Q7.27-9.81 7.78-9.08L7.78-9.08L7.78-9.08Q8.28-8.36 8.28-7.39L8.28-7.39L8.28-7.17L8.28-7.17Q8.28-7.09 8.23-7.04L8.23-7.04L8.23-7.04Q8.17-6.99 8.10-6.99L8.10-6.99L6.38-6.99L6.38-6.99Q6.30-6.99 6.25-7.04L6.25-7.04L6.25-7.04Q6.19-7.09 6.19-7.17L6.19-7.17L6.19-7.29L6.19-7.29Q6.19-7.92 5.68-8.36L5.68-8.36L5.68-8.36Q5.16-8.80 4.26-8.80L4.26-8.80L4.26-8.80Q3.55-8.80 3.16-8.50L3.16-8.50L3.16-8.50Q2.76-8.21 2.76-7.68L2.76-7.68L2.76-7.68Q2.76-7.30 2.99-7.05L2.99-7.05L2.99-7.05Q3.23-6.79 3.68-6.59L3.68-6.59L3.68-6.59Q4.14-6.39 5.10-6.04L5.10-6.04L5.10-6.04Q6.17-5.65 6.77-5.35L6.77-5.35L6.77-5.35Q7.38-5.05 7.87-4.46L7.87-4.46L7.87-4.46Q8.36-3.87 8.36-2.92L8.36-2.92L8.36-2.92Q8.36-1.51 7.32-0.70L7.32-0.70L7.32-0.70Q6.29 0.12 4.51 0.12L4.51 0.12ZM14.20-7.53L14.20-7.53Q14.20-7.60 14.26-7.66L14.26-7.66L14.26-7.66Q14.31-7.71 14.38-7.71L14.38-7.71L16.14-7.71L16.14-7.71Q16.21-7.71 16.27-7.66L16.27-7.66L16.27-7.66Q16.32-7.60 16.32-7.53L16.32-7.53L16.32-0.18L16.32-0.18Q16.32-0.10 16.27-0.05L16.27-0.05L16.27-0.05Q16.21 0 16.14 0L16.14 0L14.38 0L14.38 0Q14.31 0 14.26-0.05L14.26-0.05L14.26-0.05Q14.20-0.10 14.20-0.18L14.20-0.18L14.20-0.69L14.20-0.69Q14.20-0.73 14.17-0.74L14.17-0.74L14.17-0.74Q14.14-0.75 14.11-0.70L14.11-0.70L14.11-0.70Q13.51 0.10 12.25 0.10L12.25 0.10L12.25 0.10Q11.11 0.10 10.38-0.58L10.38-0.58L10.38-0.58Q9.64-1.27 9.64-2.52L9.64-2.52L9.64-7.53L9.64-7.53Q9.64-7.60 9.70-7.66L9.70-7.66L9.70-7.66Q9.75-7.71 9.82-7.71L9.82-7.71L11.56-7.71L11.56-7.71Q11.64-7.71 11.69-7.66L11.69-7.66L11.69-7.66Q11.74-7.60 11.74-7.53L11.74-7.53L11.74-3.04L11.74-3.04Q11.74-2.44 12.07-2.07L12.07-2.07L12.07-2.07Q12.39-1.69 12.96-1.69L12.96-1.69L12.96-1.69Q13.47-1.69 13.80-2.00L13.80-2.00L13.80-2.00Q14.13-2.31 14.20-2.80L14.20-2.80L14.20-7.53ZM24.76-5.64L24.76-5.64Q25.03-4.88 25.03-3.84L25.03-3.84L25.03-3.84Q25.03-2.80 24.75-1.96L24.75-1.96L24.75-1.96Q24.40-1.00 23.66-0.44L23.66-0.44L23.66-0.44Q22.92 0.12 21.82 0.12L21.82 0.12L21.82 0.12Q20.74 0.12 20.14-0.63L20.14-0.63L20.14-0.63Q20.11-0.67 20.08-0.66L20.08-0.66L20.08-0.66Q20.05-0.65 20.05-0.60L20.05-0.60L20.05 2.61L20.05 2.61Q20.05 2.69 20.00 2.74L20.00 2.74L20.00 2.74Q19.95 2.79 19.87 2.79L19.87 2.79L18.12 2.79L18.12 2.79Q18.04 2.79 17.99 2.74L17.99 2.74L17.99 2.74Q17.94 2.69 17.94 2.61L17.94 2.61L17.94-7.53L17.94-7.53Q17.94-7.60 17.99-7.66L17.99-7.66L17.99-7.66Q18.04-7.71 18.12-7.71L18.12-7.71L19.87-7.71L19.87-7.71Q19.95-7.71 20.00-7.66L20.00-7.66L20.00-7.66Q20.05-7.60 20.05-7.53L20.05-7.53L20.05-7.04L20.05-7.04Q20.05-6.99 20.08-6.98L20.08-6.98L20.08-6.98Q20.11-6.97 20.14-7.00L20.14-7.00L20.14-7.00Q20.77-7.83 21.88-7.83L21.88-7.83L21.88-7.83Q22.92-7.83 23.68-7.25L23.68-7.25L23.68-7.25Q24.43-6.67 24.76-5.64L24.76-5.64ZM22.47-2.28L22.47-2.28Q22.84-2.86 22.84-3.87L22.84-3.87L22.84-3.87Q22.84-4.81 22.53-5.37L22.53-5.37L22.53-5.37Q22.18-6.01 21.42-6.01L21.42-6.01L21.42-6.01Q20.73-6.01 20.38-5.37L20.38-5.37L20.38-5.37Q20.07-4.83 20.07-3.85L20.07-3.85L20.07-3.85Q20.07-2.85 20.40-2.29L20.40-2.29L20.40-2.29Q20.74-1.69 21.42-1.69L21.42-1.69L21.42-1.69Q22.09-1.69 22.47-2.28L22.47-2.28ZM33.28-5.64L33.28-5.64Q33.55-4.88 33.55-3.84L33.55-3.84L33.55-3.84Q33.55-2.80 33.27-1.96L33.27-1.96L33.27-1.96Q32.92-1.00 32.18-0.44L32.18-0.44L32.18-0.44Q31.44 0.12 30.34 0.12L30.34 0.12L30.34 0.12Q29.26 0.12 28.66-0.63L28.66-0.63L28.66-0.63Q28.63-0.67 28.60-0.66L28.60-0.66L28.60-0.66Q28.57-0.65 28.57-0.60L28.57-0.60L28.57 2.61L28.57 2.61Q28.57 2.69 28.52 2.74L28.52 2.74L28.52 2.74Q28.47 2.79 28.39 2.79L28.39 2.79L26.64 2.79L26.64 2.79Q26.56 2.79 26.51 2.74L26.51 2.74L26.51 2.74Q26.46 2.69 26.46 2.61L26.46 2.61L26.46-7.53L26.46-7.53Q26.46-7.60 26.51-7.66L26.51-7.66L26.51-7.66Q26.56-7.71 26.64-7.71L26.64-7.71L28.39-7.71L28.39-7.71Q28.47-7.71 28.52-7.66L28.52-7.66L28.52-7.66Q28.57-7.60 28.57-7.53L28.57-7.53L28.57-7.04L28.57-7.04Q28.57-6.99 28.60-6.98L28.60-6.98L28.60-6.98Q28.63-6.97 28.66-7.00L28.66-7.00L28.66-7.00Q29.29-7.83 30.40-7.83L30.40-7.83L30.40-7.83Q31.44-7.83 32.20-7.25L32.20-7.25L32.20-7.25Q32.95-6.67 33.28-5.64L33.28-5.64ZM30.99-2.28L30.99-2.28Q31.36-2.86 31.36-3.87L31.36-3.87L31.36-3.87Q31.36-4.81 31.05-5.37L31.05-5.37L31.05-5.37Q30.70-6.01 29.94-6.01L29.94-6.01L29.94-6.01Q29.25-6.01 28.90-5.37L28.90-5.37L28.90-5.37Q28.59-4.83 28.59-3.85L28.59-3.85L28.59-3.85Q28.59-2.85 28.92-2.29L28.92-2.29L28.92-2.29Q29.26-1.69 29.94-1.69L29.94-1.69L29.94-1.69Q30.61-1.69 30.99-2.28L30.99-2.28ZM38.33 0.12L38.33 0.12Q37.06 0.12 36.16-0.54L36.16-0.54L36.16-0.54Q35.27-1.20 34.94-2.34L34.94-2.34L34.94-2.34Q34.73-3.04 34.73-3.87L34.73-3.87L34.73-3.87Q34.73-4.75 34.94-5.46L34.94-5.46L34.94-5.46Q35.28-6.57 36.18-7.20L36.18-7.20L36.18-7.20Q37.08-7.83 38.34-7.83L38.34-7.83L38.34-7.83Q39.57-7.83 40.44-7.21L40.44-7.21L40.44-7.21Q41.31-6.58 41.67-5.47L41.67-5.47L41.67-5.47Q41.91-4.72 41.91-3.90L41.91-3.90L41.91-3.90Q41.91-3.09 41.70-2.38L41.70-2.38L41.70-2.38Q41.37-1.21 40.48-0.55L40.48-0.55L40.48-0.55Q39.59 0.12 38.33 0.12L38.33 0.12ZM38.33-1.69L38.33-1.69Q38.82-1.69 39.16-1.99L39.16-1.99L39.16-1.99Q39.51-2.29 39.66-2.82L39.66-2.82L39.66-2.82Q39.78-3.30 39.78-3.87L39.78-3.87L39.78-3.87Q39.78-4.50 39.66-4.93L39.66-4.93L39.66-4.93Q39.49-5.44 39.15-5.73L39.15-5.73L39.15-5.73Q38.80-6.01 38.31-6.01L38.31-6.01L38.31-6.01Q37.80-6.01 37.46-5.73L37.46-5.73L37.46-5.73Q37.13-5.44 36.98-4.93L36.98-4.93L36.98-4.93Q36.86-4.58 36.86-3.87L36.86-3.87L36.86-3.87Q36.86-3.19 36.96-2.82L36.96-2.82L36.96-2.82Q37.11-2.29 37.46-1.99L37.46-1.99L37.46-1.99Q37.81-1.69 38.33-1.69L38.33-1.69ZM47.12-7.81L47.12-7.81Q47.66-7.81 47.97-7.60L47.97-7.60L47.97-7.60Q48.09-7.54 48.06-7.38L48.06-7.38L47.75-5.67L47.75-5.67Q47.73-5.49 47.54-5.56L47.54-5.56L47.54-5.56Q47.31-5.64 47.01-5.64L47.01-5.64L47.01-5.64Q46.89-5.64 46.68-5.61L46.68-5.61L46.68-5.61Q46.14-5.56 45.77-5.21L45.77-5.21L45.77-5.21Q45.39-4.86 45.39-4.27L45.39-4.27L45.39-0.18L45.39-0.18Q45.39-0.10 45.34-0.05L45.34-0.05L45.34-0.05Q45.29 0 45.21 0L45.21 0L43.46 0L43.46 0Q43.38 0 43.33-0.05L43.33-0.05L43.33-0.05Q43.28-0.10 43.28-0.18L43.28-0.18L43.28-7.53L43.28-7.53Q43.28-7.60 43.33-7.66L43.33-7.66L43.33-7.66Q43.38-7.71 43.46-7.71L43.46-7.71L45.21-7.71L45.21-7.71Q45.29-7.71 45.34-7.66L45.34-7.66L45.34-7.66Q45.39-7.60 45.39-7.53L45.39-7.53L45.39-6.96L45.39-6.96Q45.39-6.92 45.42-6.90L45.42-6.90L45.42-6.90Q45.45-6.88 45.47-6.92L45.47-6.92L45.47-6.92Q46.08-7.81 47.12-7.81L47.12-7.81ZM53.45-6.19L53.45-6.19Q53.45-6.12 53.39-6.07L53.39-6.07L53.39-6.07Q53.34-6.01 53.27-6.01L53.27-6.01L51.83-6.01L51.83-6.01Q51.75-6.01 51.75-5.94L51.75-5.94L51.75-2.76L51.75-2.76Q51.75-2.27 51.95-2.02L51.95-2.02L51.95-2.02Q52.16-1.78 52.61-1.78L52.61-1.78L53.10-1.78L53.10-1.78Q53.18-1.78 53.23-1.73L53.23-1.73L53.23-1.73Q53.28-1.68 53.28-1.60L53.28-1.60L53.28-0.18L53.28-0.18Q53.28-0.01 53.10 0.01L53.10 0.01L53.10 0.01Q52.47 0.04 52.20 0.04L52.20 0.04L52.20 0.04Q50.95 0.04 50.34-0.37L50.34-0.37L50.34-0.37Q49.73-0.78 49.71-1.92L49.71-1.92L49.71-5.94L49.71-5.94Q49.71-6.01 49.64-6.01L49.64-6.01L48.78-6.01L48.78-6.01Q48.71-6.01 48.65-6.07L48.65-6.07L48.65-6.07Q48.60-6.12 48.60-6.19L48.60-6.19L48.60-7.53L48.60-7.53Q48.60-7.60 48.65-7.66L48.65-7.66L48.65-7.66Q48.71-7.71 48.78-7.71L48.78-7.71L49.64-7.71L49.64-7.71Q49.71-7.71 49.71-7.79L49.71-7.79L49.71-9.57L49.71-9.57Q49.71-9.64 49.76-9.70L49.76-9.70L49.76-9.70Q49.82-9.75 49.89-9.75L49.89-9.75L51.57-9.75L51.57-9.75Q51.65-9.75 51.70-9.70L51.70-9.70L51.70-9.70Q51.75-9.64 51.75-9.57L51.75-9.57L51.75-7.79L51.75-7.79Q51.75-7.71 51.83-7.71L51.83-7.71L53.27-7.71L53.27-7.71Q53.34-7.71 53.39-7.66L53.39-7.66L53.39-7.66Q53.45-7.60 53.45-7.53L53.45-7.53L53.45-6.19Z"/><path fill="#252530" transform="translate(30.97, 45)" d="M7.14-5.47L7.14-5.47Q7.05-5.43 7.14-5.38L7.14-5.38L7.14-5.38Q8.56-4.65 8.56-2.94L8.56-2.94L8.56-2.94Q8.56-1.48 7.57-0.74L7.57-0.74L7.57-0.74Q6.58 0 4.98 0L4.98 0L1.09 0L1.09 0Q1.02 0 0.97-0.05L0.97-0.05L0.97-0.05Q0.91-0.10 0.91-0.18L0.91-0.18L0.91-10.32L0.91-10.32Q0.91-10.39 0.97-10.45L0.97-10.45L0.97-10.45Q1.02-10.50 1.09-10.50L1.09-10.50L4.86-10.50L4.86-10.50Q8.41-10.50 8.41-7.62L8.41-7.62L8.41-7.62Q8.41-6.12 7.14-5.47L7.14-5.47ZM3.10-8.69L3.10-8.69Q3.03-8.69 3.03-8.61L3.03-8.61L3.03-6.27L3.03-6.27Q3.03-6.19 3.10-6.19L3.10-6.19L4.86-6.19L4.86-6.19Q5.56-6.19 5.96-6.52L5.96-6.52L5.96-6.52Q6.34-6.85 6.34-7.42L6.34-7.42L6.34-7.42Q6.34-8.01 5.96-8.35L5.96-8.35L5.96-8.35Q5.56-8.69 4.86-8.69L4.86-8.69L3.10-8.69ZM4.98-1.83L4.98-1.83Q5.67-1.83 6.06-2.18L6.06-2.18L6.06-2.18Q6.45-2.53 6.45-3.15L6.45-3.15L6.45-3.15Q6.45-3.76 6.06-4.12L6.06-4.12L6.06-4.12Q5.67-4.47 4.96-4.47L4.96-4.47L3.10-4.47L3.10-4.47Q3.03-4.47 3.03-4.39L3.03-4.39L3.03-1.91L3.03-1.91Q3.03-1.83 3.10-1.83L3.10-1.83L4.98-1.83ZM16.90-4.65L16.90-4.65Q16.99-4.08 16.96-3.38L16.96-3.38L16.96-3.38Q16.95-3.19 16.77-3.19L16.77-3.19L12.13-3.19L12.13-3.19Q12.04-3.19 12.07-3.12L12.07-3.12L12.07-3.12Q12.12-2.82 12.24-2.52L12.24-2.52L12.24-2.52Q12.63-1.68 13.83-1.68L13.83-1.68L13.83-1.68Q14.79-1.69 15.34-2.46L15.34-2.46L15.34-2.46Q15.40-2.55 15.48-2.55L15.48-2.55L15.48-2.55Q15.52-2.55 15.58-2.49L15.58-2.49L16.66-1.43L16.66-1.43Q16.74-1.35 16.74-1.29L16.74-1.29L16.74-1.29Q16.74-1.26 16.68-1.17L16.68-1.17L16.68-1.17Q16.18-0.55 15.40-0.22L15.40-0.22L15.40-0.22Q14.63 0.12 13.69 0.12L13.69 0.12L13.69 0.12Q12.40 0.12 11.51-0.46L11.51-0.46L11.51-0.46Q10.62-1.05 10.23-2.10L10.23-2.10L10.23-2.10Q9.91-2.85 9.91-4.06L9.91-4.06L9.91-4.06Q9.91-4.89 10.14-5.52L10.14-5.52L10.14-5.52Q10.48-6.58 11.35-7.21L11.35-7.21L11.35-7.21Q12.21-7.84 13.39-7.84L13.39-7.84L13.39-7.84Q14.89-7.84 15.80-6.97L15.80-6.97L15.80-6.97Q16.71-6.10 16.90-4.65L16.90-4.65ZM13.41-6.01L13.41-6.01Q12.46-6.01 12.16-5.13L12.16-5.13L12.16-5.13Q12.10-4.93 12.06-4.65L12.06-4.65L12.06-4.65Q12.06-4.58 12.13-4.58L12.13-4.58L14.73-4.58L14.73-4.58Q14.82-4.58 14.79-4.65L14.79-4.65L14.79-4.65Q14.71-5.08 14.71-5.07L14.71-5.07L14.71-5.07Q14.58-5.52 14.24-5.77L14.24-5.77L14.24-5.77Q13.90-6.01 13.41-6.01L13.41-6.01ZM21.34 0.10L21.34 0.10Q20.34 0.10 19.59-0.18L19.59-0.18L19.59-0.18Q18.84-0.46 18.43-0.97L18.43-0.97L18.43-0.97Q18.01-1.48 18.01-2.13L18.01-2.13L18.01-2.28L18.01-2.28Q18.01-2.35 18.07-2.41L18.07-2.41L18.07-2.41Q18.12-2.46 18.19-2.46L18.19-2.46L19.86-2.46L19.86-2.46Q19.93-2.46 19.99-2.41L19.99-2.41L19.99-2.41Q20.04-2.35 20.04-2.28L20.04-2.28L20.04-2.27L20.04-2.27Q20.04-1.93 20.41-1.70L20.41-1.70L20.41-1.70Q20.77-1.47 21.33-1.47L21.33-1.47L21.33-1.47Q21.84-1.47 22.15-1.67L22.15-1.67L22.15-1.67Q22.47-1.88 22.47-2.17L22.47-2.17L22.47-2.17Q22.47-2.44 22.20-2.58L22.20-2.58L22.20-2.58Q21.93-2.71 21.31-2.86L21.31-2.86L21.31-2.86Q20.61-3.04 20.20-3.21L20.20-3.21L20.20-3.21Q19.24-3.54 18.67-4.02L18.67-4.02L18.67-4.02Q18.10-4.50 18.10-5.40L18.10-5.40L18.10-5.40Q18.10-6.51 18.97-7.16L18.97-7.16L18.97-7.16Q19.83-7.81 21.25-7.81L21.25-7.81L21.25-7.81Q22.21-7.81 22.93-7.51L22.93-7.51L22.93-7.51Q23.65-7.20 24.05-6.64L24.05-6.64L24.05-6.64Q24.45-6.09 24.45-5.38L24.45-5.38L24.45-5.38Q24.45-5.31 24.40-5.26L24.40-5.26L24.40-5.26Q24.34-5.21 24.27-5.21L24.27-5.21L22.66-5.21L22.66-5.21Q22.59-5.21 22.54-5.26L22.54-5.26L22.54-5.26Q22.48-5.31 22.48-5.38L22.48-5.38L22.48-5.38Q22.48-5.71 22.15-5.94L22.15-5.94L22.15-5.94Q21.81-6.17 21.25-6.17L21.25-6.17L21.25-6.17Q20.76-6.17 20.45-5.98L20.45-5.98L20.45-5.98Q20.13-5.80 20.13-5.49L20.13-5.49L20.13-5.49Q20.13-5.19 20.44-5.04L20.44-5.04L20.44-5.04Q20.74-4.89 21.46-4.72L21.46-4.72L21.46-4.72Q21.63-4.68 21.84-4.63L21.84-4.63L21.84-4.63Q22.05-4.58 22.29-4.50L22.29-4.50L22.29-4.50Q23.35-4.18 23.97-3.69L23.97-3.69L23.97-3.69Q24.58-3.19 24.58-2.25L24.58-2.25L24.58-2.25Q24.58-1.14 23.71-0.52L23.71-0.52L23.71-0.52Q22.83 0.10 21.34 0.10L21.34 0.10ZM30.22-6.19L30.22-6.19Q30.22-6.12 30.17-6.07L30.17-6.07L30.17-6.07Q30.12-6.01 30.04-6.01L30.04-6.01L28.60-6.01L28.60-6.01Q28.53-6.01 28.53-5.94L28.53-5.94L28.53-2.76L28.53-2.76Q28.53-2.27 28.73-2.02L28.73-2.02L28.73-2.02Q28.93-1.78 29.38-1.78L29.38-1.78L29.88-1.78L29.88-1.78Q29.95-1.78 30.01-1.73L30.01-1.73L30.01-1.73Q30.06-1.68 30.06-1.60L30.06-1.60L30.06-0.18L30.06-0.18Q30.06-0.01 29.88 0.01L29.88 0.01L29.88 0.01Q29.25 0.04 28.98 0.04L28.98 0.04L28.98 0.04Q27.73 0.04 27.12-0.37L27.12-0.37L27.12-0.37Q26.50-0.78 26.49-1.92L26.49-1.92L26.49-5.94L26.49-5.94Q26.49-6.01 26.41-6.01L26.41-6.01L25.56-6.01L25.56-6.01Q25.48-6.01 25.43-6.07L25.43-6.07L25.43-6.07Q25.38-6.12 25.38-6.19L25.38-6.19L25.38-7.53L25.38-7.53Q25.38-7.60 25.43-7.66L25.43-7.66L25.43-7.66Q25.48-7.71 25.56-7.71L25.56-7.71L26.41-7.71L26.41-7.71Q26.49-7.71 26.49-7.79L26.49-7.79L26.49-9.57L26.49-9.57Q26.49-9.64 26.54-9.70L26.54-9.70L26.54-9.70Q26.59-9.75 26.67-9.75L26.67-9.75L28.35-9.75L28.35-9.75Q28.42-9.75 28.48-9.70L28.48-9.70L28.48-9.70Q28.53-9.64 28.53-9.57L28.53-9.57L28.53-7.79L28.53-7.79Q28.53-7.71 28.60-7.71L28.60-7.71L30.04-7.71L30.04-7.71Q30.12-7.71 30.17-7.66L30.17-7.66L30.17-7.66Q30.22-7.60 30.22-7.53L30.22-7.53L30.22-6.19Z"/><path fill="#242530" transform="translate(21.56, 75.4)" d="M5.24-6.92L5.24-6.92Q5.29-7 5.38-7L5.38-7L6.30-7L6.30-7Q6.35-7 6.38-6.96L6.38-6.96L6.38-6.96Q6.42-6.93 6.42-6.88L6.42-6.88L6.42-0.12L6.42-0.12Q6.42-0.07 6.38-0.04L6.38-0.04L6.38-0.04Q6.35 0 6.30 0L6.30 0L5.38 0L5.38 0Q5.33 0 5.29-0.04L5.29-0.04L5.29-0.04Q5.26-0.07 5.26-0.12L5.26-0.12L5.26-4.89L5.26-4.89Q5.26-4.92 5.24-4.93L5.24-4.93L5.24-4.93Q5.21-4.94 5.20-4.91L5.20-4.91L3.95-2.99L3.95-2.99Q3.90-2.91 3.81-2.91L3.81-2.91L3.35-2.91L3.35-2.91Q3.26-2.91 3.21-2.99L3.21-2.99L1.95-4.90L1.95-4.90Q1.94-4.93 1.92-4.92L1.92-4.92L1.92-4.92Q1.89-4.91 1.89-4.88L1.89-4.88L1.89-0.12L1.89-0.12Q1.89-0.07 1.85-0.04L1.85-0.04L1.85-0.04Q1.82 0 1.77 0L1.77 0L0.85 0L0.85 0Q0.80 0 0.77-0.04L0.77-0.04L0.77-0.04Q0.73-0.07 0.73-0.12L0.73-0.12L0.73-6.88L0.73-6.88Q0.73-6.93 0.77-6.96L0.77-6.96L0.77-6.96Q0.80-7 0.85-7L0.85-7L1.77-7L1.77-7Q1.86-7 1.91-6.92L1.91-6.92L3.54-4.45L3.54-4.45Q3.56-4.43 3.58-4.43L3.58-4.43L3.58-4.43Q3.60-4.43 3.61-4.45L3.61-4.45L5.24-6.92ZM8.43-5.81L8.43-5.81Q8.12-5.81 7.92-6.01L7.92-6.01L7.92-6.01Q7.72-6.21 7.72-6.52L7.72-6.52L7.72-6.52Q7.72-6.83 7.92-7.03L7.92-7.03L7.92-7.03Q8.12-7.23 8.43-7.23L8.43-7.23L8.43-7.23Q8.74-7.23 8.94-7.03L8.94-7.03L8.94-7.03Q9.14-6.83 9.14-6.52L9.14-6.52L9.14-6.52Q9.14-6.21 8.94-6.01L8.94-6.01L8.94-6.01Q8.74-5.81 8.43-5.81L8.43-5.81ZM7.95 0L7.95 0Q7.90 0 7.87-0.04L7.87-0.04L7.87-0.04Q7.83-0.07 7.83-0.12L7.83-0.12L7.83-5L7.83-5Q7.83-5.05 7.87-5.08L7.87-5.08L7.87-5.08Q7.90-5.12 7.95-5.12L7.95-5.12L8.87-5.12L8.87-5.12Q8.92-5.12 8.96-5.08L8.96-5.08L8.96-5.08Q8.99-5.05 8.99-5L8.99-5L8.99-0.12L8.99-0.12Q8.99-0.07 8.96-0.04L8.96-0.04L8.96-0.04Q8.92 0 8.87 0L8.87 0L7.95 0ZM13.49-6.88L13.49-6.88Q13.49-6.93 13.53-6.96L13.53-6.96L13.53-6.96Q13.56-7 13.61-7L13.61-7L14.53-7L14.53-7Q14.58-7 14.62-6.96L14.62-6.96L14.62-6.96Q14.65-6.93 14.65-6.88L14.65-6.88L14.65-0.12L14.65-0.12Q14.65-0.07 14.62-0.04L14.62-0.04L14.62-0.04Q14.58 0 14.53 0L14.53 0L13.61 0L13.61 0Q13.56 0 13.53-0.04L13.53-0.04L13.53-0.04Q13.49-0.07 13.49-0.12L13.49-0.12L13.49-0.42L13.49-0.42Q13.49-0.45 13.47-0.46L13.47-0.46L13.47-0.46Q13.45-0.47 13.43-0.44L13.43-0.44L13.43-0.44Q12.99 0.08 12.28 0.08L12.28 0.08L12.28 0.08Q11.57 0.08 11.08-0.29L11.08-0.29L11.08-0.29Q10.59-0.66 10.37-1.32L10.37-1.32L10.37-1.32Q10.19-1.88 10.19-2.57L10.19-2.57L10.19-2.57Q10.19-3.28 10.36-3.79L10.36-3.79L10.36-3.79Q10.58-4.45 11.07-4.82L11.07-4.82L11.07-4.82Q11.56-5.19 12.30-5.19L12.30-5.19L12.30-5.19Q12.99-5.19 13.43-4.69L13.43-4.69L13.43-4.69Q13.45-4.67 13.47-4.67L13.47-4.67L13.47-4.67Q13.49-4.68 13.49-4.71L13.49-4.71L13.49-6.88ZM13.25-1.40L13.25-1.40Q13.48-1.81 13.48-2.56L13.48-2.56L13.48-2.56Q13.48-3.34 13.23-3.75L13.23-3.75L13.23-3.75Q12.96-4.19 12.47-4.19L12.47-4.19L12.47-4.19Q11.96-4.19 11.67-3.77L11.67-3.77L11.67-3.77Q11.37-3.33 11.37-2.55L11.37-2.55L11.37-2.55Q11.37-1.85 11.61-1.40L11.61-1.40L11.61-1.40Q11.89-0.92 12.46-0.92L12.46-0.92L12.46-0.92Q12.97-0.92 13.25-1.40L13.25-1.40ZM15.73-2.51L15.73-2.51Q15.68-2.51 15.65-2.54L15.65-2.54L15.65-2.54Q15.61-2.58 15.61-2.63L15.61-2.63L15.61-3.39L15.61-3.39Q15.61-3.44 15.65-3.48L15.65-3.48L15.65-3.48Q15.68-3.51 15.73-3.51L15.73-3.51L18.88-3.51L18.88-3.51Q18.93-3.51 18.96-3.48L18.96-3.48L18.96-3.48Q19-3.44 19-3.39L19-3.39L19-2.63L19-2.63Q19-2.58 18.96-2.54L18.96-2.54L18.96-2.54Q18.93-2.51 18.88-2.51L18.88-2.51L15.73-2.51ZM24.57-6.92L24.57-6.92Q24.62-7 24.71-7L24.71-7L25.63-7L25.63-7Q25.68-7 25.72-6.96L25.72-6.96L25.72-6.96Q25.75-6.93 25.75-6.88L25.75-6.88L25.75-0.12L25.75-0.12Q25.75-0.07 25.72-0.04L25.72-0.04L25.72-0.04Q25.68 0 25.63 0L25.63 0L24.71 0L24.71 0Q24.66 0 24.63-0.04L24.63-0.04L24.63-0.04Q24.59-0.07 24.59-0.12L24.59-0.12L24.59-4.89L24.59-4.89Q24.59-4.92 24.57-4.93L24.57-4.93L24.57-4.93Q24.54-4.94 24.53-4.91L24.53-4.91L23.28-2.99L23.28-2.99Q23.23-2.91 23.14-2.91L23.14-2.91L22.68-2.91L22.68-2.91Q22.59-2.91 22.54-2.99L22.54-2.99L21.28-4.90L21.28-4.90Q21.27-4.93 21.25-4.92L21.25-4.92L21.25-4.92Q21.22-4.91 21.22-4.88L21.22-4.88L21.22-0.12L21.22-0.12Q21.22-0.07 21.19-0.04L21.19-0.04L21.19-0.04Q21.15 0 21.10 0L21.10 0L20.18 0L20.18 0Q20.13 0 20.10-0.04L20.10-0.04L20.10-0.04Q20.06-0.07 20.06-0.12L20.06-0.12L20.06-6.88L20.06-6.88Q20.06-6.93 20.10-6.96L20.10-6.96L20.10-6.96Q20.13-7 20.18-7L20.18-7L21.10-7L21.10-7Q21.19-7 21.24-6.92L21.24-6.92L22.87-4.45L22.87-4.45Q22.89-4.43 22.91-4.43L22.91-4.43L22.91-4.43Q22.93-4.43 22.94-4.45L22.94-4.45L24.57-6.92ZM29.05-5.19L29.05-5.19Q29.68-5.19 30.16-4.97L30.16-4.97L30.16-4.97Q30.64-4.75 30.90-4.37L30.90-4.37L30.90-4.37Q31.16-3.98 31.16-3.49L31.16-3.49L31.16-0.12L31.16-0.12Q31.16-0.07 31.13-0.04L31.13-0.04L31.13-0.04Q31.09 0 31.04 0L31.04 0L30.12 0L30.12 0Q30.07 0 30.04-0.04L30.04-0.04L30.04-0.04Q30.00-0.07 30.00-0.12L30.00-0.12L30.00-0.44L30.00-0.44Q30.00-0.47 29.98-0.48L29.98-0.48L29.98-0.48Q29.96-0.48 29.94-0.46L29.94-0.46L29.94-0.46Q29.45 0.08 28.52 0.08L28.52 0.08L28.52 0.08Q27.77 0.08 27.29-0.30L27.29-0.30L27.29-0.30Q26.80-0.68 26.80-1.43L26.80-1.43L26.80-1.43Q26.80-2.21 27.35-2.65L27.35-2.65L27.35-2.65Q27.89-3.08 28.88-3.08L28.88-3.08L29.95-3.08L29.95-3.08Q30.00-3.08 30.00-3.13L30.00-3.13L30.00-3.37L30.00-3.37Q30.00-3.76 29.77-3.98L29.77-3.98L29.77-3.98Q29.54-4.19 29.08-4.19L29.08-4.19L29.08-4.19Q28.70-4.19 28.47-4.05L28.47-4.05L28.47-4.05Q28.23-3.92 28.17-3.68L28.17-3.68L28.17-3.68Q28.14-3.56 28.03-3.58L28.03-3.58L27.06-3.70L27.06-3.70Q27.01-3.71 26.98-3.73L26.98-3.73L26.98-3.73Q26.94-3.76 26.95-3.80L26.95-3.80L26.95-3.80Q27.03-4.41 27.61-4.80L27.61-4.80L27.61-4.80Q28.18-5.19 29.05-5.19L29.05-5.19ZM28.81-0.84L28.81-0.84Q29.30-0.84 29.65-1.10L29.65-1.10L29.65-1.10Q30.00-1.36 30.00-1.76L30.00-1.76L30.00-2.23L30.00-2.23Q30.00-2.28 29.95-2.28L29.95-2.28L29.11-2.28L29.11-2.28Q28.58-2.28 28.28-2.08L28.28-2.08L28.28-2.08Q27.97-1.88 27.97-1.51L27.97-1.51L27.97-1.51Q27.97-1.19 28.21-1.02L28.21-1.02L28.21-1.02Q28.44-0.84 28.81-0.84L28.81-0.84ZM34.70-5.17L34.70-5.17Q35.02-5.17 35.26-5.04L35.26-5.04L35.26-5.04Q35.34-5 35.32-4.89L35.32-4.89L35.15-3.99L35.15-3.99Q35.14-3.87 35.01-3.92L35.01-3.92L35.01-3.92Q34.86-3.97 34.66-3.97L34.66-3.97L34.66-3.97Q34.53-3.97 34.46-3.96L34.46-3.96L34.46-3.96Q34.04-3.94 33.76-3.67L33.76-3.67L33.76-3.67Q33.48-3.39 33.48-2.95L33.48-2.95L33.48-0.12L33.48-0.12Q33.48-0.07 33.45-0.04L33.45-0.04L33.45-0.04Q33.41 0 33.36 0L33.36 0L32.44 0L32.44 0Q32.39 0 32.36-0.04L32.36-0.04L32.36-0.04Q32.32-0.07 32.32-0.12L32.32-0.12L32.32-4.99L32.32-4.99Q32.32-5.04 32.36-5.08L32.36-5.08L32.36-5.08Q32.39-5.11 32.44-5.11L32.44-5.11L33.36-5.11L33.36-5.11Q33.41-5.11 33.45-5.08L33.45-5.08L33.45-5.08Q33.48-5.04 33.48-4.99L33.48-4.99L33.48-4.54L33.48-4.54Q33.48-4.50 33.50-4.50L33.50-4.50L33.50-4.50Q33.51-4.49 33.53-4.52L33.53-4.52L33.53-4.52Q33.95-5.17 34.70-5.17L34.70-5.17ZM36.20 0L36.20 0Q36.15 0 36.12-0.04L36.12-0.04L36.12-0.04Q36.08-0.07 36.08-0.12L36.08-0.12L36.08-6.88L36.08-6.88Q36.08-6.93 36.12-6.96L36.12-6.96L36.12-6.96Q36.15-7 36.20-7L36.20-7L37.12-7L37.12-7Q37.17-7 37.20-6.96L37.20-6.96L37.20-6.96Q37.24-6.93 37.24-6.88L37.24-6.88L37.24-3.27L37.24-3.27Q37.24-3.24 37.26-3.23L37.26-3.23L37.26-3.23Q37.28-3.22 37.30-3.25L37.30-3.25L38.92-5.04L38.92-5.04Q38.99-5.11 39.07-5.11L39.07-5.11L40.13-5.11L40.13-5.11Q40.23-5.11 40.23-5.04L40.23-5.04L40.23-5.04Q40.23-5.01 40.20-4.96L40.20-4.96L38.93-3.44L38.93-3.44Q38.90-3.41 38.92-3.37L38.92-3.37L40.42-0.14L40.42-0.14Q40.44-0.10 40.44-0.08L40.44-0.08L40.44-0.08Q40.44 0 40.33 0L40.33 0L39.36 0L39.36 0Q39.26 0 39.22-0.09L39.22-0.09L38.13-2.63L38.13-2.63Q38.12-2.65 38.09-2.66L38.09-2.66L38.09-2.66Q38.07-2.66 38.06-2.64L38.06-2.64L37.26-1.72L37.26-1.72Q37.24-1.68 37.24-1.65L37.24-1.65L37.24-0.12L37.24-0.12Q37.24-0.07 37.20-0.04L37.20-0.04L37.20-0.04Q37.17 0 37.12 0L37.12 0L36.20 0ZM45.61-3.13L45.61-3.13Q45.65-2.88 45.65-2.57L45.65-2.57L45.64-2.26L45.64-2.26Q45.64-2.14 45.52-2.14L45.52-2.14L42.39-2.14L42.39-2.14Q42.34-2.14 42.34-2.09L42.34-2.09L42.34-2.09Q42.37-1.76 42.43-1.64L42.43-1.64L42.43-1.64Q42.67-0.92 43.60-0.91L43.60-0.91L43.60-0.91Q44.28-0.91 44.68-1.47L44.68-1.47L44.68-1.47Q44.72-1.53 44.78-1.53L44.78-1.53L44.78-1.53Q44.82-1.53 44.85-1.50L44.85-1.50L45.47-0.99L45.47-0.99Q45.56-0.92 45.50-0.83L45.50-0.83L45.50-0.83Q45.19-0.39 44.67-0.15L44.67-0.15L44.67-0.15Q44.16 0.09 43.53 0.09L43.53 0.09L43.53 0.09Q42.75 0.09 42.20-0.26L42.20-0.26L42.20-0.26Q41.66-0.61 41.41-1.24L41.41-1.24L41.41-1.24Q41.18-1.78 41.18-2.74L41.18-2.74L41.18-2.74Q41.18-3.32 41.30-3.68L41.30-3.68L41.30-3.68Q41.50-4.38 42.05-4.79L42.05-4.79L42.05-4.79Q42.61-5.19 43.39-5.19L43.39-5.19L43.39-5.19Q45.36-5.19 45.61-3.13L45.61-3.13ZM43.39-4.19L43.39-4.19Q43.02-4.19 42.77-4.00L42.77-4.00L42.77-4.00Q42.53-3.82 42.43-3.49L42.43-3.49L42.43-3.49Q42.37-3.32 42.35-3.05L42.35-3.05L42.35-3.05Q42.33-3 42.39-3L42.39-3L44.42-3L44.42-3Q44.47-3 44.47-3.05L44.47-3.05L44.47-3.05Q44.45-3.30 44.41-3.43L44.41-3.43L44.41-3.43Q44.32-3.79 44.05-3.99L44.05-3.99L44.05-3.99Q43.79-4.19 43.39-4.19L43.39-4.19ZM49.42-4.29L49.42-4.29Q49.42-4.24 49.39-4.21L49.39-4.21L49.39-4.21Q49.35-4.17 49.30-4.17L49.30-4.17L48.28-4.17L48.28-4.17Q48.23-4.17 48.23-4.12L48.23-4.12L48.23-1.71L48.23-1.71Q48.23-1.33 48.40-1.16L48.40-1.16L48.40-1.16Q48.56-0.99 48.92-0.99L48.92-0.99L49.22-0.99L49.22-0.99Q49.27-0.99 49.31-0.96L49.31-0.96L49.31-0.96Q49.34-0.92 49.34-0.87L49.34-0.87L49.34-0.12L49.34-0.12Q49.34-0.01 49.22 0.01L49.22 0.01L48.70 0.02L48.70 0.02Q47.91 0.02 47.52-0.25L47.52-0.25L47.52-0.25Q47.13-0.52 47.12-1.27L47.12-1.27L47.12-4.12L47.12-4.12Q47.12-4.17 47.07-4.17L47.07-4.17L46.50-4.17L46.50-4.17Q46.45-4.17 46.42-4.21L46.42-4.21L46.42-4.21Q46.38-4.24 46.38-4.29L46.38-4.29L46.38-4.99L46.38-4.99Q46.38-5.04 46.42-5.08L46.42-5.08L46.42-5.08Q46.45-5.11 46.50-5.11L46.50-5.11L47.07-5.11L47.07-5.11Q47.12-5.11 47.12-5.16L47.12-5.16L47.12-6.33L47.12-6.33Q47.12-6.38 47.16-6.42L47.16-6.42L47.16-6.42Q47.19-6.45 47.24-6.45L47.24-6.45L48.11-6.45L48.11-6.45Q48.16-6.45 48.20-6.42L48.20-6.42L48.20-6.42Q48.23-6.38 48.23-6.33L48.23-6.33L48.23-5.16L48.23-5.16Q48.23-5.11 48.28-5.11L48.28-5.11L49.30-5.11L49.30-5.11Q49.35-5.11 49.39-5.08L49.39-5.08L49.39-5.08Q49.42-5.04 49.42-4.99L49.42-4.99L49.42-4.29Z"/><path fill="#252530" transform="translate(30.14, 89.5)" d="M3.01 0.08L3.01 0.08Q2.21 0.08 1.61-0.18L1.61-0.18L1.61-0.18Q1.01-0.43 0.69-0.91L0.69-0.91L0.69-0.91Q0.36-1.38 0.36-2.01L0.36-2.01L0.36-2.23L0.36-2.23Q0.36-2.28 0.40-2.31L0.40-2.31L0.40-2.31Q0.43-2.35 0.48-2.35L0.48-2.35L1.62-2.35L1.62-2.35Q1.67-2.35 1.71-2.31L1.71-2.31L1.71-2.31Q1.74-2.28 1.74-2.23L1.74-2.23L1.74-2.08L1.74-2.08Q1.74-1.68 2.11-1.41L2.11-1.41L2.11-1.41Q2.48-1.13 3.11-1.13L3.11-1.13L3.11-1.13Q3.64-1.13 3.90-1.35L3.90-1.35L3.90-1.35Q4.16-1.58 4.16-1.91L4.16-1.91L4.16-1.91Q4.16-2.15 4-2.31L4-2.31L4-2.31Q3.84-2.48 3.56-2.60L3.56-2.60L3.56-2.60Q3.29-2.73 2.69-2.95L2.69-2.95L2.69-2.95Q2.02-3.18 1.55-3.42L1.55-3.42L1.55-3.42Q1.09-3.66 0.78-4.08L0.78-4.08L0.78-4.08Q0.46-4.49 0.46-5.10L0.46-5.10L0.46-5.10Q0.46-5.70 0.77-6.15L0.77-6.15L0.77-6.15Q1.08-6.60 1.63-6.84L1.63-6.84L1.63-6.84Q2.18-7.08 2.90-7.08L2.90-7.08L2.90-7.08Q3.66-7.08 4.25-6.81L4.25-6.81L4.25-6.81Q4.85-6.54 5.19-6.05L5.19-6.05L5.19-6.05Q5.52-5.57 5.52-4.93L5.52-4.93L5.52-4.78L5.52-4.78Q5.52-4.73 5.49-4.70L5.49-4.70L5.49-4.70Q5.45-4.66 5.40-4.66L5.40-4.66L4.25-4.66L4.25-4.66Q4.20-4.66 4.17-4.70L4.17-4.70L4.17-4.70Q4.13-4.73 4.13-4.78L4.13-4.78L4.13-4.86L4.13-4.86Q4.13-5.28 3.79-5.58L3.79-5.58L3.79-5.58Q3.44-5.87 2.84-5.87L2.84-5.87L2.84-5.87Q2.37-5.87 2.10-5.67L2.10-5.67L2.10-5.67Q1.84-5.47 1.84-5.12L1.84-5.12L1.84-5.12Q1.84-4.87 2.00-4.70L2.00-4.70L2.00-4.70Q2.15-4.53 2.46-4.40L2.46-4.40L2.46-4.40Q2.76-4.26 3.40-4.03L3.40-4.03L3.40-4.03Q4.11-3.77 4.51-3.57L4.51-3.57L4.51-3.57Q4.92-3.37 5.25-2.98L5.25-2.98L5.25-2.98Q5.57-2.58 5.57-1.95L5.57-1.95L5.57-1.95Q5.57-1.01 4.88-0.47L4.88-0.47L4.88-0.47Q4.19 0.08 3.01 0.08L3.01 0.08ZM9.45-7.01L9.45-7.01Q10.11-7.01 10.61-6.74L10.61-6.74L10.61-6.74Q11.11-6.47 11.39-5.98L11.39-5.98L11.39-5.98Q11.66-5.48 11.66-4.84L11.66-4.84L11.66-4.84Q11.66-4.21 11.38-3.73L11.38-3.73L11.38-3.73Q11.09-3.25 10.57-2.98L10.57-2.98L10.57-2.98Q10.06-2.72 9.39-2.72L9.39-2.72L7.97-2.72L7.97-2.72Q7.92-2.72 7.92-2.67L7.92-2.67L7.92-0.12L7.92-0.12Q7.92-0.07 7.88-0.04L7.88-0.04L7.88-0.04Q7.85 0 7.80 0L7.80 0L6.63 0L6.63 0Q6.58 0 6.54-0.04L6.54-0.04L6.54-0.04Q6.51-0.07 6.51-0.12L6.51-0.12L6.51-6.89L6.51-6.89Q6.51-6.94 6.54-6.98L6.54-6.98L6.54-6.98Q6.58-7.01 6.63-7.01L6.63-7.01L9.45-7.01ZM9.24-3.85L9.24-3.85Q9.70-3.85 9.98-4.12L9.98-4.12L9.98-4.12Q10.26-4.38 10.26-4.81L10.26-4.81L10.26-4.81Q10.26-5.25 9.98-5.52L9.98-5.52L9.98-5.52Q9.70-5.79 9.24-5.79L9.24-5.79L7.97-5.79L7.97-5.79Q7.92-5.79 7.92-5.74L7.92-5.74L7.92-3.90L7.92-3.90Q7.92-3.85 7.97-3.85L7.97-3.85L9.24-3.85ZM16.37 0L16.37 0Q16.27 0 16.23-0.09L16.23-0.09L14.98-2.86L14.98-2.86Q14.96-2.90 14.92-2.90L14.92-2.90L13.99-2.90L13.99-2.90Q13.94-2.90 13.94-2.85L13.94-2.85L13.94-0.12L13.94-0.12Q13.94-0.07 13.90-0.04L13.90-0.04L13.90-0.04Q13.87 0 13.82 0L13.82 0L12.65 0L12.65 0Q12.60 0 12.56-0.04L12.56-0.04L12.56-0.04Q12.53-0.07 12.53-0.12L12.53-0.12L12.53-6.88L12.53-6.88Q12.53-6.93 12.56-6.96L12.56-6.96L12.56-6.96Q12.60-7 12.65-7L12.65-7L15.51-7L15.51-7Q16.15-7 16.63-6.74L16.63-6.74L16.63-6.74Q17.12-6.48 17.38-6L17.38-6L17.38-6Q17.65-5.52 17.65-4.89L17.65-4.89L17.65-4.89Q17.65-4.21 17.31-3.73L17.31-3.73L17.31-3.73Q16.97-3.24 16.36-3.04L16.36-3.04L16.36-3.04Q16.31-3.02 16.33-2.97L16.33-2.97L17.69-0.14L17.69-0.14Q17.71-0.10 17.71-0.08L17.71-0.08L17.71-0.08Q17.71 0 17.60 0L17.60 0L16.37 0ZM13.99-5.79L13.99-5.79Q13.94-5.79 13.94-5.74L13.94-5.74L13.94-4.03L13.94-4.03Q13.94-3.98 13.99-3.98L13.99-3.98L15.30-3.98L15.30-3.98Q15.72-3.98 15.98-4.23L15.98-4.23L15.98-4.23Q16.25-4.48 16.25-4.88L16.25-4.88L16.25-4.88Q16.25-5.28 15.98-5.54L15.98-5.54L15.98-5.54Q15.72-5.79 15.30-5.79L15.30-5.79L13.99-5.79ZM18.79 0L18.79 0Q18.74 0 18.71-0.04L18.71-0.04L18.71-0.04Q18.67-0.07 18.67-0.12L18.67-0.12L18.67-6.88L18.67-6.88Q18.67-6.93 18.71-6.96L18.71-6.96L18.71-6.96Q18.74-7 18.79-7L18.79-7L19.96-7L19.96-7Q20.01-7 20.05-6.96L20.05-6.96L20.05-6.96Q20.08-6.93 20.08-6.88L20.08-6.88L20.08-0.12L20.08-0.12Q20.08-0.07 20.05-0.04L20.05-0.04L20.05-0.04Q20.01 0 19.96 0L19.96 0L18.79 0ZM25.32-6.88L25.32-6.88Q25.32-6.93 25.36-6.96L25.36-6.96L25.36-6.96Q25.39-7 25.44-7L25.44-7L26.61-7L26.61-7Q26.66-7 26.70-6.96L26.70-6.96L26.70-6.96Q26.73-6.93 26.73-6.88L26.73-6.88L26.73-0.12L26.73-0.12Q26.73-0.07 26.70-0.04L26.70-0.04L26.70-0.04Q26.66 0 26.61 0L26.61 0L25.48 0L25.48 0Q25.38 0 25.34-0.08L25.34-0.08L22.75-4.36L22.75-4.36Q22.73-4.39 22.71-4.38L22.71-4.38L22.71-4.38Q22.69-4.38 22.69-4.34L22.69-4.34L22.71-0.12L22.71-0.12Q22.71-0.07 22.68-0.04L22.68-0.04L22.68-0.04Q22.64 0 22.59 0L22.59 0L21.42 0L21.42 0Q21.37 0 21.34-0.04L21.34-0.04L21.34-0.04Q21.30-0.07 21.30-0.12L21.30-0.12L21.30-6.88L21.30-6.88Q21.30-6.93 21.34-6.96L21.34-6.96L21.34-6.96Q21.37-7 21.42-7L21.42-7L22.55-7L22.55-7Q22.65-7 22.69-6.92L22.69-6.92L25.27-2.66L25.27-2.66Q25.29-2.63 25.31-2.64L25.31-2.64L25.31-2.64Q25.33-2.64 25.33-2.68L25.33-2.68L25.32-6.88ZM30.41 0.08L30.41 0.08Q29.64 0.08 29.05-0.23L29.05-0.23L29.05-0.23Q28.46-0.54 28.14-1.09L28.14-1.09L28.14-1.09Q27.81-1.65 27.81-2.38L27.81-2.38L27.81-4.62L27.81-4.62Q27.81-5.35 28.14-5.91L28.14-5.91L28.14-5.91Q28.46-6.47 29.05-6.78L29.05-6.78L29.05-6.78Q29.64-7.08 30.41-7.08L30.41-7.08L30.41-7.08Q31.17-7.08 31.76-6.78L31.76-6.78L31.76-6.78Q32.34-6.48 32.67-5.96L32.67-5.96L32.67-5.96Q32.99-5.45 32.99-4.82L32.99-4.82L32.99-4.75L32.99-4.75Q32.99-4.70 32.96-4.67L32.96-4.67L32.96-4.67Q32.92-4.63 32.87-4.63L32.87-4.63L31.70-4.63L31.70-4.63Q31.65-4.63 31.62-4.67L31.62-4.67L31.62-4.67Q31.58-4.70 31.58-4.75L31.58-4.75L31.58-4.78L31.58-4.78Q31.58-5.24 31.26-5.55L31.26-5.55L31.26-5.55Q30.94-5.87 30.41-5.87L30.41-5.87L30.41-5.87Q29.87-5.87 29.55-5.54L29.55-5.54L29.55-5.54Q29.22-5.20 29.22-4.66L29.22-4.66L29.22-2.34L29.22-2.34Q29.22-1.80 29.57-1.47L29.57-1.47L29.57-1.47Q29.92-1.13 30.46-1.13L30.46-1.13L30.46-1.13Q30.98-1.13 31.29-1.41L31.29-1.41L31.29-1.41Q31.60-1.68 31.60-2.17L31.60-2.17L31.60-2.62L31.60-2.62Q31.60-2.67 31.55-2.67L31.55-2.67L30.43-2.67L30.43-2.67Q30.38-2.67 30.35-2.71L30.35-2.71L30.35-2.71Q30.31-2.74 30.31-2.79L30.31-2.79L30.31-3.71L30.31-3.71Q30.31-3.76 30.35-3.79L30.35-3.79L30.35-3.79Q30.38-3.83 30.43-3.83L30.43-3.83L32.87-3.83L32.87-3.83Q32.92-3.83 32.96-3.79L32.96-3.79L32.96-3.79Q32.99-3.76 32.99-3.71L32.99-3.71L32.99-2.39L32.99-2.39Q32.99-1.63 32.67-1.07L32.67-1.07L32.67-1.07Q32.35-0.51 31.77-0.21L31.77-0.21L31.77-0.21Q31.18 0.08 30.41 0.08L30.41 0.08Z"/><path fill="#252530" transform="translate(36.68, 98.9)" d="M2.33-1.27L2.33-1.27Q2.31-1.25 2.32-1.23L2.32-1.23L2.32-1.23Q2.33-1.21 2.36-1.21L2.36-1.21L5.07-1.21L5.07-1.21Q5.12-1.21 5.16-1.18L5.16-1.18L5.16-1.18Q5.19-1.14 5.19-1.09L5.19-1.09L5.19-0.12L5.19-0.12Q5.19-0.07 5.16-0.04L5.16-0.04L5.16-0.04Q5.12 0 5.07 0L5.07 0L0.57 0L0.57 0Q0.52 0 0.48-0.04L0.48-0.04L0.48-0.04Q0.45-0.07 0.45-0.12L0.45-0.12L0.45-1.04L0.45-1.04Q0.45-1.13 0.51-1.19L0.51-1.19L0.51-1.19Q1-1.67 1.51-2.23L1.51-2.23L1.51-2.23Q2.02-2.80 2.15-2.94L2.15-2.94L2.15-2.94Q2.43-3.27 2.72-3.57L2.72-3.57L2.72-3.57Q3.63-4.58 3.63-5.07L3.63-5.07L3.63-5.07Q3.63-5.42 3.38-5.65L3.38-5.65L3.38-5.65Q3.13-5.87 2.73-5.87L2.73-5.87L2.73-5.87Q2.33-5.87 2.08-5.65L2.08-5.65L2.08-5.65Q1.83-5.42 1.83-5.05L1.83-5.05L1.83-4.80L1.83-4.80Q1.83-4.75 1.79-4.71L1.79-4.71L1.79-4.71Q1.76-4.68 1.71-4.68L1.71-4.68L0.53-4.68L0.53-4.68Q0.48-4.68 0.45-4.71L0.45-4.71L0.45-4.71Q0.41-4.75 0.41-4.80L0.41-4.80L0.41-5.27L0.41-5.27Q0.44-5.81 0.75-6.23L0.75-6.23L0.75-6.23Q1.06-6.64 1.57-6.86L1.57-6.86L1.57-6.86Q2.09-7.08 2.73-7.08L2.73-7.08L2.73-7.08Q3.44-7.08 3.97-6.82L3.97-6.82L3.97-6.82Q4.49-6.55 4.78-6.10L4.78-6.10L4.78-6.10Q5.06-5.65 5.06-5.10L5.06-5.10L5.06-5.10Q5.06-4.68 4.85-4.24L4.85-4.24L4.85-4.24Q4.64-3.80 4.22-3.29L4.22-3.29L4.22-3.29Q3.91-2.90 3.55-2.52L3.55-2.52L3.55-2.52Q3.19-2.14 2.48-1.42L2.48-1.42L2.33-1.27ZM8.44 0.11L8.44 0.11Q7.34 0.11 6.70-0.51L6.70-0.51L6.70-0.51Q6.06-1.12 6.06-2.18L6.06-2.18L6.06-4.82L6.06-4.82Q6.06-5.86 6.70-6.47L6.70-6.47L6.70-6.47Q7.34-7.08 8.44-7.08L8.44-7.08L8.44-7.08Q9.54-7.08 10.19-6.47L10.19-6.47L10.19-6.47Q10.83-5.86 10.83-4.82L10.83-4.82L10.83-2.18L10.83-2.18Q10.83-1.12 10.19-0.51L10.19-0.51L10.19-0.51Q9.54 0.11 8.44 0.11L8.44 0.11ZM8.44-1.10L8.44-1.10Q8.89-1.10 9.16-1.38L9.16-1.38L9.16-1.38Q9.42-1.65 9.42-2.11L9.42-2.11L9.42-4.86L9.42-4.86Q9.42-5.32 9.16-5.59L9.16-5.59L9.16-5.59Q8.89-5.87 8.44-5.87L8.44-5.87L8.44-5.87Q8-5.87 7.74-5.59L7.74-5.59L7.74-5.59Q7.47-5.32 7.47-4.86L7.47-4.86L7.47-2.11L7.47-2.11Q7.47-1.65 7.74-1.38L7.74-1.38L7.74-1.38Q8-1.10 8.44-1.10L8.44-1.10ZM13.63-1.27L13.63-1.27Q13.61-1.25 13.62-1.23L13.62-1.23L13.62-1.23Q13.63-1.21 13.66-1.21L13.66-1.21L16.37-1.21L16.37-1.21Q16.42-1.21 16.46-1.18L16.46-1.18L16.46-1.18Q16.49-1.14 16.49-1.09L16.49-1.09L16.49-0.12L16.49-0.12Q16.49-0.07 16.46-0.04L16.46-0.04L16.46-0.04Q16.42 0 16.37 0L16.37 0L11.87 0L11.87 0Q11.82 0 11.79-0.04L11.79-0.04L11.79-0.04Q11.75-0.07 11.75-0.12L11.75-0.12L11.75-1.04L11.75-1.04Q11.75-1.13 11.81-1.19L11.81-1.19L11.81-1.19Q12.30-1.67 12.81-2.23L12.81-2.23L12.81-2.23Q13.32-2.80 13.45-2.94L13.45-2.94L13.45-2.94Q13.73-3.27 14.02-3.57L14.02-3.57L14.02-3.57Q14.93-4.58 14.93-5.07L14.93-5.07L14.93-5.07Q14.93-5.42 14.68-5.65L14.68-5.65L14.68-5.65Q14.43-5.87 14.03-5.87L14.03-5.87L14.03-5.87Q13.63-5.87 13.38-5.65L13.38-5.65L13.38-5.65Q13.13-5.42 13.13-5.05L13.13-5.05L13.13-4.80L13.13-4.80Q13.13-4.75 13.10-4.71L13.10-4.71L13.10-4.71Q13.06-4.68 13.01-4.68L13.01-4.68L11.83-4.68L11.83-4.68Q11.78-4.68 11.75-4.71L11.75-4.71L11.75-4.71Q11.71-4.75 11.71-4.80L11.71-4.80L11.71-5.27L11.71-5.27Q11.74-5.81 12.05-6.23L12.05-6.23L12.05-6.23Q12.36-6.64 12.88-6.86L12.88-6.86L12.88-6.86Q13.39-7.08 14.03-7.08L14.03-7.08L14.03-7.08Q14.74-7.08 15.27-6.82L15.27-6.82L15.27-6.82Q15.79-6.55 16.08-6.10L16.08-6.10L16.08-6.10Q16.36-5.65 16.36-5.10L16.36-5.10L16.36-5.10Q16.36-4.68 16.15-4.24L16.15-4.24L16.15-4.24Q15.94-3.80 15.52-3.29L15.52-3.29L15.52-3.29Q15.21-2.90 14.85-2.52L14.85-2.52L14.85-2.52Q14.49-2.14 13.78-1.42L13.78-1.42L13.63-1.27ZM18.34-6.97L18.34-6.97Q18.39-7 18.49-7L18.49-7L19.70-7L19.70-7Q19.75-7 19.79-6.96L19.79-6.96L19.79-6.96Q19.82-6.93 19.82-6.88L19.82-6.88L19.82-0.12L19.82-0.12Q19.82-0.07 19.79-0.04L19.79-0.04L19.79-0.04Q19.75 0 19.70 0L19.70 0L18.53 0L18.53 0Q18.48 0 18.45-0.04L18.45-0.04L18.45-0.04Q18.41-0.07 18.41-0.12L18.41-0.12L18.41-5.60L18.41-5.60Q18.41-5.62 18.39-5.64L18.39-5.64L18.39-5.64Q18.37-5.66 18.35-5.65L18.35-5.65L17.36-5.38L17.32-5.37L17.32-5.37Q17.23-5.37 17.23-5.48L17.23-5.48L17.20-6.34L17.20-6.34Q17.20-6.44 17.29-6.48L17.29-6.48L18.34-6.97Z"/></g>
</svg>
