<svg id="White_Badges" data-name="White Badges" xmlns="http://www.w3.org/2000/svg" viewBox="0 0 704.36 800"><defs><style>.cls-1{fill:#f8f8f8;}.cls-2{fill:#fff;}.cls-3{fill:#dcdfdd;}.cls-4{fill:#ff492c;}.cls-5{fill:#252530;}</style></defs><polygon class="cls-1" points="667.54 638.25 352.18 800 36.82 638.25 36.82 0 667.54 0 667.54 638.25"/><polygon class="cls-2" points="37.56 0 37.56 638.24 668.28 0 37.56 0"/><path class="cls-3" d="M661.54,6V634.58L352.18,793.26,42.82,634.58V6H661.54m6-6H36.82V638.24L352.18,800,667.54,638.24V0Z"/><polygon class="cls-4" points="424.91 114.11 351.55 156.74 279.45 114.11 279.45 0 424.91 0 424.91 114.11"/><path class="cls-2" d="M387.21,56.45H373.54c.38-2.15,1.7-3.34,4.38-4.71l2.52-1.28c4.5-2.31,6.89-4.91,6.89-9.16A7.44,7.44,0,0,0,384.24,35a12,12,0,0,0-7.35-2.27,11.41,11.41,0,0,0-6.24,1.78,10.48,10.48,0,0,0-4.12,4.5l4,4c1.53-3.1,3.76-4.62,6.69-4.62,2.47,0,4,1.28,4,3.05,0,1.49-.74,2.73-3.59,4.17l-1.61.79c-3.51,1.77-6,3.79-7.35,6.11a16.43,16.43,0,0,0-2.1,8.71v1h20.68Z"/><polygon class="cls-2" points="385.38 68.64 362.75 68.64 351.44 88.23 374.07 88.23 385.38 107.83 396.69 88.23 385.38 68.64"/><path class="cls-2" d="M353.39,101.3a26.13,26.13,0,0,1,0-52.26l8.95-18.72a46.35,46.35,0,0,0-8.95-.87,45.72,45.72,0,1,0,26.93,82.67L370.41,95A26,26,0,0,1,353.39,101.3Z"/><polygon class="cls-4" points="681.96 501.65 22.4 501.65 0 445.65 22.4 389.65 681.96 389.65 704.36 445.65 681.96 501.65"/><path class="cls-2" d="M83,430.52H66.28a.28.28,0,0,0-.32.31v7.95a.29.29,0,0,0,.32.32H77.14A.78.78,0,0,1,78,440v4.52a.79.79,0,0,1-.89.89H66.28a.28.28,0,0,0-.32.31v14a.78.78,0,0,1-.88.88H59.52a.78.78,0,0,1-.89-.88V425.11a.79.79,0,0,1,.89-.89H83a.78.78,0,0,1,.88.89v4.52A.78.78,0,0,1,83,430.52Z"/><path class="cls-2" d="M101.48,434.65a9.9,9.9,0,0,1,4.13,3.2,7.47,7.47,0,0,1,1.49,4.52v17.37a.78.78,0,0,1-.89.88h-5.56a.78.78,0,0,1-.89-.88v-1.25c0-.14,0-.21-.1-.23s-.16,0-.26.13c-1.59,1.77-4,2.65-7.12,2.65a9.94,9.94,0,0,1-6.45-2,7,7,0,0,1-2.45-5.82A7.45,7.45,0,0,1,86.19,447c1.87-1.48,4.54-2.21,8-2.21h5.25a.28.28,0,0,0,.31-.32v-1.09a3.44,3.44,0,0,0-1.06-2.68,4.48,4.48,0,0,0-3.1-1,5.7,5.7,0,0,0-2.57.52,2.72,2.72,0,0,0-1.38,1.46,1,1,0,0,1-1,.67l-5.77-.72a1.38,1.38,0,0,1-.65-.24A.46.46,0,0,1,84,441a6.93,6.93,0,0,1,1.79-3.85,10.23,10.23,0,0,1,4.06-2.68,15.58,15.58,0,0,1,5.59-1A14.81,14.81,0,0,1,101.48,434.65ZM98.2,454.38a3.69,3.69,0,0,0,1.56-3.06V449.5a.28.28,0,0,0-.31-.32H95.76a6.67,6.67,0,0,0-3.69.89,2.81,2.81,0,0,0-1.35,2.49,2.64,2.64,0,0,0,1,2.21,4.18,4.18,0,0,0,2.68.81A6,6,0,0,0,98.2,454.38Z"/><path class="cls-2" d="M116.77,460a9.1,9.1,0,0,1-4-2.76,6.27,6.27,0,0,1-1.4-4V453a.78.78,0,0,1,.88-.88h5.26c.59,0,.88.1.88.31v.36a2.33,2.33,0,0,0,1.25,2,5.72,5.72,0,0,0,3.17.81,5.38,5.38,0,0,0,2.86-.68,2,2,0,0,0,1.09-1.77,1.5,1.5,0,0,0-.93-1.4,16.47,16.47,0,0,0-3.07-1,33.22,33.22,0,0,1-3.8-1.19,16.52,16.52,0,0,1-5.35-2.81,5.91,5.91,0,0,1-2-4.79,7.25,7.25,0,0,1,3-6.11,12.87,12.87,0,0,1,7.9-2.26,14.93,14.93,0,0,1,5.85,1.07,9,9,0,0,1,3.9,3,7.31,7.31,0,0,1,1.38,4.37.54.54,0,0,1-.24.44,1,1,0,0,1-.65.18h-5.09c-.59,0-.89-.1-.89-.31V442a2.28,2.28,0,0,0-1.14-1.93,5.37,5.37,0,0,0-3.07-.78,5.7,5.7,0,0,0-2.83.63,1.88,1.88,0,0,0-1.12,1.71,1.66,1.66,0,0,0,1.07,1.56,17.88,17.88,0,0,0,3.51,1.09,27,27,0,0,1,2.91.78,17,17,0,0,1,5.87,2.81,6,6,0,0,1,2.14,5,7,7,0,0,1-3.07,6,14,14,0,0,1-8.22,2.16A17,17,0,0,1,116.77,460Z"/><path class="cls-2" d="M152.75,439.77h-4.68a.28.28,0,0,0-.31.31v10.77a3.77,3.77,0,0,0,.7,2.52,2.84,2.84,0,0,0,2.26.81h1.46a.78.78,0,0,1,.88.88v4.47a.87.87,0,0,1-.88.94c-1.32.07-2.27.1-2.86.1q-4.32,0-6.45-1.45c-1.42-1-2.15-2.78-2.18-5.41V440.08a.28.28,0,0,0-.31-.31h-2.66a.78.78,0,0,1-.88-.88v-4.11a.78.78,0,0,1,.88-.88h2.66a.28.28,0,0,0,.31-.32v-5.87a.78.78,0,0,1,.88-.89h5.31a.78.78,0,0,1,.88.89v5.87a.28.28,0,0,0,.31.32h4.68a.78.78,0,0,1,.89.88v4.11A.78.78,0,0,1,152.75,439.77Z"/><path class="cls-2" d="M175.84,452.46a.89.89,0,0,1,.68-.36.79.79,0,0,1,.57.26l3,2.86a.86.86,0,0,1,.31.62,1,1,0,0,1-.2.62,11.86,11.86,0,0,1-4.4,3.36,14,14,0,0,1-5.85,1.22A12.54,12.54,0,0,1,162,458.6a12,12,0,0,1-4.24-6.71,18.61,18.61,0,0,1-.62-4.84,19.47,19.47,0,0,1,.57-5.09,11.12,11.12,0,0,1,4.19-6.19,12.15,12.15,0,0,1,7.46-2.34,10.89,10.89,0,0,1,8.09,3,15.14,15.14,0,0,1,3.87,8.48c.14,1.14.24,2.41.31,3.8a.78.78,0,0,1-.88.88h-16a.28.28,0,0,0-.31.31,7.6,7.6,0,0,0,.37,1.61,4.2,4.2,0,0,0,2.05,2.47,7.42,7.42,0,0,0,3.72.86A6.78,6.78,0,0,0,175.84,452.46Zm-9.39-11.88a4.11,4.11,0,0,0-1.53,2.26c-.17.66-.28,1.09-.31,1.3s0,.31.26.31h8.84c.17,0,.26-.07.26-.21a3.69,3.69,0,0,0-.21-1.19,4.89,4.89,0,0,0-7.31-2.47Z"/><path class="cls-2" d="M190.71,460a9.06,9.06,0,0,1-4-2.76,6.22,6.22,0,0,1-1.41-4V453a.78.78,0,0,1,.89-.88h5.25c.59,0,.88.1.88.31v.36a2.33,2.33,0,0,0,1.25,2,5.72,5.72,0,0,0,3.17.81,5.36,5.36,0,0,0,2.86-.68,2,2,0,0,0,1.1-1.77,1.51,1.51,0,0,0-.94-1.4,16.22,16.22,0,0,0-3.07-1,32.92,32.92,0,0,1-3.79-1.19,16.58,16.58,0,0,1-5.36-2.81,5.91,5.91,0,0,1-2-4.79,7.25,7.25,0,0,1,3-6.11,12.87,12.87,0,0,1,7.9-2.26,14.93,14.93,0,0,1,5.85,1.07,9,9,0,0,1,3.9,3,7.31,7.31,0,0,1,1.38,4.37.55.55,0,0,1-.23.44,1,1,0,0,1-.65.18h-5.1c-.59,0-.88-.1-.88-.31V442A2.27,2.27,0,0,0,199.6,440a5.34,5.34,0,0,0-3.06-.78,5.74,5.74,0,0,0-2.84.63,1.9,1.9,0,0,0-1.12,1.71,1.66,1.66,0,0,0,1.07,1.56,17.88,17.88,0,0,0,3.51,1.09,25.81,25.81,0,0,1,2.91.78,17,17,0,0,1,5.88,2.81,6,6,0,0,1,2.13,5,6.93,6.93,0,0,1-3.07,6A14,14,0,0,1,196.8,461,17.05,17.05,0,0,1,190.71,460Z"/><path class="cls-2" d="M226.7,439.77H222a.28.28,0,0,0-.32.31v10.77a3.77,3.77,0,0,0,.71,2.52,2.83,2.83,0,0,0,2.26.81h1.45a.78.78,0,0,1,.89.88v4.47a.87.87,0,0,1-.89.94c-1.31.07-2.27.1-2.86.1q-4.31,0-6.44-1.45c-1.43-1-2.15-2.78-2.19-5.41V440.08a.28.28,0,0,0-.31-.31h-2.65a.78.78,0,0,1-.89-.88v-4.11a.78.78,0,0,1,.89-.88h2.65a.28.28,0,0,0,.31-.32v-5.87a.79.79,0,0,1,.89-.89h5.3a.78.78,0,0,1,.88.89v5.87a.29.29,0,0,0,.32.32h4.68a.78.78,0,0,1,.88.88v4.11A.78.78,0,0,1,226.7,439.77Z"/><path class="cls-2" d="M248.59,459.43a11.68,11.68,0,0,1-4.76-4.5,12.93,12.93,0,0,1-1.69-6.68V436.6a13.09,13.09,0,0,1,1.69-6.71,11.43,11.43,0,0,1,4.76-4.5,16.52,16.52,0,0,1,14.06,0,11.84,11.84,0,0,1,4.74,4.24,11,11,0,0,1,1.68,5.95v.1a.78.78,0,0,1-.88.89h-5.56a1.41,1.41,0,0,1-.65-.13c-.16-.09-.24-.18-.24-.29v-.36a5.42,5.42,0,0,0-1.66-4,6.73,6.73,0,0,0-8.92.1,6.25,6.25,0,0,0-1.69,4.55v12.07a6,6,0,0,0,1.82,4.55,6.43,6.43,0,0,0,4.63,1.74,6.26,6.26,0,0,0,4.31-1.43,5,5,0,0,0,1.62-4v-2.29a.28.28,0,0,0-.32-.31H256a.78.78,0,0,1-.88-.88v-4.27a.78.78,0,0,1,.88-.88h12.17a.78.78,0,0,1,.88.88v6.61a13.59,13.59,0,0,1-1.66,6.86,11.06,11.06,0,0,1-4.71,4.45,15.43,15.43,0,0,1-7,1.53A15,15,0,0,1,248.59,459.43Z"/><path class="cls-2" d="M290,434.16a.89.89,0,0,1,.47,1.09l-1,5.46c0,.31-.13.5-.29.57a1.31,1.31,0,0,1-.75,0,6.21,6.21,0,0,0-1.51-.21,11.12,11.12,0,0,0-1.19.11,5.13,5.13,0,0,0-3.18,1.37,4.28,4.28,0,0,0-1.3,3.25v13.94a.78.78,0,0,1-.88.88h-5.56a.78.78,0,0,1-.89-.88v-25a.78.78,0,0,1,.89-.88h5.56a.78.78,0,0,1,.88.88v1.61c0,.14,0,.23.11.26s.15,0,.26-.1a6.49,6.49,0,0,1,5.61-3A5.47,5.47,0,0,1,290,434.16Z"/><path class="cls-2" d="M297.52,458.75a11.37,11.37,0,0,1-4.26-6.24,18.35,18.35,0,0,1-.73-5.3,17.44,17.44,0,0,1,.78-5.51,11.16,11.16,0,0,1,4.29-6,12.71,12.71,0,0,1,7.51-2.18,12.26,12.26,0,0,1,7.31,2.18,11.34,11.34,0,0,1,4.24,6,17.65,17.65,0,0,1,.77,5.46,20.45,20.45,0,0,1-.67,5.26,11.64,11.64,0,0,1-11.7,8.68A12.36,12.36,0,0,1,297.52,458.75Zm10.4-5a5.84,5.84,0,0,0,1.72-2.86,13.47,13.47,0,0,0,.41-3.64,14.35,14.35,0,0,0-.41-3.69,5.48,5.48,0,0,0-1.72-2.76,4.5,4.5,0,0,0-3-1,4.43,4.43,0,0,0-2.92,1,5.46,5.46,0,0,0-1.71,2.76,16.2,16.2,0,0,0,0,7.33,5.65,5.65,0,0,0,1.74,2.86,4.46,4.46,0,0,0,3,1A4.23,4.23,0,0,0,307.92,453.71Z"/><path class="cls-2" d="M326.64,459.9l-7.33-25a.64.64,0,0,1-.05-.31c0-.45.25-.67.78-.67h5.72a.89.89,0,0,1,1,.78l3.59,15.39c0,.14.1.21.21.21s.17-.07.21-.21l3.85-15.39a.89.89,0,0,1,1-.78h5.1a.91.91,0,0,1,1,.78l3.95,15.44q0,.21.21.21t.21-.21L350,434.68a.89.89,0,0,1,1-.78l5.73.05a.72.72,0,0,1,.65.28.89.89,0,0,1,.07.71l-7.43,25a1,1,0,0,1-1,.72h-5.82a1,1,0,0,1-1-.72l-3.9-13.63q-.1-.21-.24-.21t-.18.21l-3.43,13.57a.89.89,0,0,1-1,.78h-5.82A1,1,0,0,1,326.64,459.9Z"/><path class="cls-2" d="M362.26,430.13a4.59,4.59,0,0,1,0-6.3,4.93,4.93,0,0,1,6.47,0,4.7,4.7,0,0,1,0,6.34,4.93,4.93,0,0,1-6.47,0Zm-.42,29.61v-25a.78.78,0,0,1,.89-.88h5.56a.78.78,0,0,1,.89.88v25a.78.78,0,0,1-.89.88h-5.56A.78.78,0,0,1,361.84,459.74Z"/><path class="cls-2" d="M395.59,436a9.33,9.33,0,0,1,2.55,6.91v16.8a.78.78,0,0,1-.89.88h-5.56a.78.78,0,0,1-.88-.88V444.45a5,5,0,0,0-1.15-3.38,3.89,3.89,0,0,0-3.07-1.3,4.07,4.07,0,0,0-3.12,1.3,4.84,4.84,0,0,0-1.19,3.38v15.29a.78.78,0,0,1-.89.88h-5.56a.78.78,0,0,1-.88-.88v-25a.78.78,0,0,1,.88-.88h5.56a.78.78,0,0,1,.89.88v1.46c0,.13,0,.22.1.26s.14,0,.21-.11a7.3,7.3,0,0,1,6.29-2.91A9.06,9.06,0,0,1,395.59,436Z"/><path class="cls-2" d="M420.6,433.9h5.57a.78.78,0,0,1,.88.88v23.45q0,6.81-3.9,9.73a16.33,16.33,0,0,1-10,2.91,33.91,33.91,0,0,1-3.89-.26c-.53,0-.79-.35-.79-.94l.21-4.83a.79.79,0,0,1,.29-.65.74.74,0,0,1,.7-.13,25.15,25.15,0,0,0,3.17.26,8,8,0,0,0,5.13-1.46q1.79-1.46,1.79-4.68c0-.1,0-.16-.11-.18s-.15,0-.26.13a7.41,7.41,0,0,1-5.71,2.08,12.23,12.23,0,0,1-6.22-1.64,9.05,9.05,0,0,1-4-5.28,20.38,20.38,0,0,1-.78-6.19,19.32,19.32,0,0,1,.94-6.6,10.41,10.41,0,0,1,3.69-5.1,9.86,9.86,0,0,1,6-1.92,7.9,7.9,0,0,1,6.08,2.34c.11.1.2.14.26.1s.11-.12.11-.26v-.88A.78.78,0,0,1,420.6,433.9Zm-.88,13.15a22.28,22.28,0,0,0-.11-2.49,8,8,0,0,0-.36-1.67,4.67,4.67,0,0,0-1.56-2.26,4.26,4.26,0,0,0-2.7-.86,4.15,4.15,0,0,0-2.65.86,5.07,5.07,0,0,0-1.62,2.26,10.2,10.2,0,0,0-.73,4.21,9.89,9.89,0,0,0,.63,4.16,4.48,4.48,0,0,0,4.42,3.12,4.35,4.35,0,0,0,2.76-.85,4.48,4.48,0,0,0,1.5-2.21A17.17,17.17,0,0,0,419.72,447.05Z"/><path class="cls-2" d="M464.23,425.58a9.88,9.88,0,0,1,4,4,12,12,0,0,1,1.43,5.91,11.09,11.09,0,0,1-1.48,5.77,10.17,10.17,0,0,1-4.16,3.87,13.28,13.28,0,0,1-6.16,1.38h-7.34a.28.28,0,0,0-.31.31v12.95a.78.78,0,0,1-.88.88h-5.57a.78.78,0,0,1-.88-.88V425.06a.78.78,0,0,1,.88-.89H458.2A12.43,12.43,0,0,1,464.23,425.58ZM461,439.23a4.77,4.77,0,0,0,1.46-3.62,4.91,4.91,0,0,0-1.46-3.69,5.28,5.28,0,0,0-3.84-1.4h-6.56a.28.28,0,0,0-.31.31v9.46a.28.28,0,0,0,.31.31h6.56A5.39,5.39,0,0,0,461,439.23Z"/><path class="cls-2" d="M489.81,434.16a.88.88,0,0,1,.47,1.09l-1,5.46c0,.31-.13.5-.28.57a1.36,1.36,0,0,1-.76,0,6.13,6.13,0,0,0-1.5-.21,11,11,0,0,0-1.2.11,5.08,5.08,0,0,0-3.17,1.37,4.25,4.25,0,0,0-1.3,3.25v13.94a.78.78,0,0,1-.89.88h-5.56a.78.78,0,0,1-.88-.88v-25a.78.78,0,0,1,.88-.88h5.56a.78.78,0,0,1,.89.88v1.61c0,.14,0,.23.1.26s.16,0,.26-.1a6.5,6.5,0,0,1,5.62-3A5.41,5.41,0,0,1,489.81,434.16Z"/><path class="cls-2" d="M497.3,458.75a11.37,11.37,0,0,1-4.26-6.24,18.35,18.35,0,0,1-.73-5.3,17.44,17.44,0,0,1,.78-5.51,11.26,11.26,0,0,1,4.29-6,12.73,12.73,0,0,1,7.51-2.18,12.23,12.23,0,0,1,7.31,2.18,11.34,11.34,0,0,1,4.24,6,17.64,17.64,0,0,1,.78,5.46,20.45,20.45,0,0,1-.68,5.26,11.64,11.64,0,0,1-11.7,8.68A12.36,12.36,0,0,1,497.3,458.75Zm10.4-5a5.84,5.84,0,0,0,1.72-2.86,13.47,13.47,0,0,0,.41-3.64,14.35,14.35,0,0,0-.41-3.69,5.48,5.48,0,0,0-1.72-2.76,4.48,4.48,0,0,0-3-1,4.39,4.39,0,0,0-2.91,1,5.48,5.48,0,0,0-1.72,2.76,16.2,16.2,0,0,0,0,7.33,5.79,5.79,0,0,0,1.74,2.86,4.48,4.48,0,0,0,3,1A4.23,4.23,0,0,0,507.7,453.71Z"/><path class="cls-2" d="M539,424.22h5.57a.78.78,0,0,1,.88.89v34.63a.78.78,0,0,1-.88.88H539a.78.78,0,0,1-.88-.88v-1.4c0-.14,0-.22-.13-.24s-.16,0-.23.13a7,7,0,0,1-5.93,2.81,10,10,0,0,1-6.27-2.11,10.77,10.77,0,0,1-3.77-5.53,18.94,18.94,0,0,1-.88-6.24,18.22,18.22,0,0,1,1-6.45,10.89,10.89,0,0,1,3.77-5.31,10,10,0,0,1,6.16-2,7.23,7.23,0,0,1,5.93,2.55c.07.1.14.13.23.1s.13-.12.13-.26V425.11A.78.78,0,0,1,539,424.22Zm-.93,23a11.05,11.05,0,0,0-1.09-5.36,4,4,0,0,0-3.49-2,4,4,0,0,0-3.64,2,12.46,12.46,0,0,0-.15,10.56,4.06,4.06,0,0,0,3.79,2.23,3.87,3.87,0,0,0,3.54-2.23A10.89,10.89,0,0,0,538,447.26Z"/><path class="cls-2" d="M567.4,433.9H573a.78.78,0,0,1,.89.88v25a.78.78,0,0,1-.89.88H567.4a.78.78,0,0,1-.89-.88v-1.4c0-.14,0-.22-.13-.24s-.16,0-.23.13q-2,2.76-6.4,2.76a9.15,9.15,0,0,1-6.5-2.39,8.75,8.75,0,0,1-2.54-6.71V434.78a.78.78,0,0,1,.88-.88h5.51a.78.78,0,0,1,.89.88v15.29a5,5,0,0,0,1.11,3.38,3.9,3.9,0,0,0,3.1,1.3,4.1,4.1,0,0,0,2.91-1.07,4.61,4.61,0,0,0,1.4-2.78V434.78A.78.78,0,0,1,567.4,433.9Z"/><path class="cls-2" d="M583.8,459a11.36,11.36,0,0,1-4.34-5.72,19.09,19.09,0,0,1-.88-6.14,18.43,18.43,0,0,1,.88-6,10.74,10.74,0,0,1,4.32-5.56,13.87,13.87,0,0,1,14.53.05,10,10,0,0,1,4.19,5.25,5.76,5.76,0,0,1,.41,1.61v.11c0,.45-.26.73-.78.83l-5.46.83-.26.05a.67.67,0,0,1-.73-.62l-.15-.73a3.94,3.94,0,0,0-1.61-2.23,5,5,0,0,0-3-.89,4.7,4.7,0,0,0-2.81.83,4.49,4.49,0,0,0-1.61,2.29,12.82,12.82,0,0,0-.57,4.27,13.84,13.84,0,0,0,.52,4.26,4.61,4.61,0,0,0,1.64,2.44,4.55,4.55,0,0,0,2.83.89,4.84,4.84,0,0,0,2.84-.86,4.39,4.39,0,0,0,1.69-2.31l0-.26a1.07,1.07,0,0,1,.36-.5.8.8,0,0,1,.68-.23l5.46.83a1,1,0,0,1,.6.36.9.9,0,0,1,.13.63,5,5,0,0,1-.26,1.19,9.65,9.65,0,0,1-4.24,5.46,13.34,13.34,0,0,1-7.25,2A12.44,12.44,0,0,1,583.8,459Z"/><path class="cls-2" d="M621.63,439.77H617a.28.28,0,0,0-.31.31v10.77a3.83,3.83,0,0,0,.7,2.52,2.84,2.84,0,0,0,2.26.81h1.46a.78.78,0,0,1,.88.88v4.47a.87.87,0,0,1-.88.94c-1.32.07-2.27.1-2.86.1q-4.32,0-6.45-1.45c-1.42-1-2.15-2.78-2.18-5.41V440.08a.28.28,0,0,0-.31-.31H606.6a.78.78,0,0,1-.88-.88v-4.11a.78.78,0,0,1,.88-.88h2.66a.28.28,0,0,0,.31-.32v-5.87a.78.78,0,0,1,.88-.89h5.31a.78.78,0,0,1,.88.89v5.87a.28.28,0,0,0,.31.32h4.68a.78.78,0,0,1,.89.88v4.11A.78.78,0,0,1,621.63,439.77Z"/><path class="cls-2" d="M631.51,460a9.06,9.06,0,0,1-4-2.76,6.22,6.22,0,0,1-1.41-4V453a.78.78,0,0,1,.89-.88h5.25c.59,0,.88.1.88.31v.36a2.33,2.33,0,0,0,1.25,2,5.72,5.72,0,0,0,3.17.81,5.36,5.36,0,0,0,2.86-.68,2,2,0,0,0,1.1-1.77,1.51,1.51,0,0,0-.94-1.4,16.22,16.22,0,0,0-3.07-1,32.92,32.92,0,0,1-3.79-1.19,16.58,16.58,0,0,1-5.36-2.81,5.91,5.91,0,0,1-2-4.79,7.25,7.25,0,0,1,3-6.11,12.89,12.89,0,0,1,7.9-2.26,15,15,0,0,1,5.86,1.07,8.87,8.87,0,0,1,3.89,3,7.31,7.31,0,0,1,1.38,4.37.55.55,0,0,1-.23.44,1,1,0,0,1-.65.18h-5.1c-.59,0-.88-.1-.88-.31V442A2.27,2.27,0,0,0,640.4,440a5.34,5.34,0,0,0-3.06-.78,5.74,5.74,0,0,0-2.84.63,1.89,1.89,0,0,0-1.11,1.71,1.65,1.65,0,0,0,1.06,1.56,17.88,17.88,0,0,0,3.51,1.09,25.81,25.81,0,0,1,2.91.78,17,17,0,0,1,5.88,2.81,6,6,0,0,1,2.13,5,6.93,6.93,0,0,1-3.07,6A14,14,0,0,1,637.6,461,17.09,17.09,0,0,1,631.51,460Z"/><path class="cls-5" d="M139.18,567.43c0,.08.06.14.16.19a6.31,6.31,0,0,1,3.42,6.07,6.56,6.56,0,0,1-2.65,5.72,11.8,11.8,0,0,1-7,1.88h-10a.68.68,0,0,1-.5-.19.66.66,0,0,1-.19-.5V555.1a.65.65,0,0,1,.69-.69h9.68q4.68,0,7.08,1.77t2.4,5.72a5.53,5.53,0,0,1-3,5.34C139.24,567.29,139.18,567.35,139.18,567.43Zm-10.33-7.3v4.69a.24.24,0,0,0,.27.27h3.73a3.81,3.81,0,0,0,2.42-.68,2.28,2.28,0,0,0,.84-1.9,2.42,2.42,0,0,0-.84-2,3.75,3.75,0,0,0-2.42-.69h-3.73A.24.24,0,0,0,128.85,560.13Zm6.69,15a2.91,2.91,0,0,0,0-4.07,3.6,3.6,0,0,0-2.4-.71h-4a.24.24,0,0,0-.27.27v4.95a.24.24,0,0,0,.27.27h4A3.63,3.63,0,0,0,135.54,575.09Z"/><path class="cls-5" d="M166,559.67a.68.68,0,0,1-.5.19H153.78a.24.24,0,0,0-.27.27v4.57a.24.24,0,0,0,.27.27h7.41a.72.72,0,0,1,.5.19.68.68,0,0,1,.19.5v4a.65.65,0,0,1-.19.5.69.69,0,0,1-.5.2h-7.41a.24.24,0,0,0-.27.26v4.92a.24.24,0,0,0,.27.27h11.75a.65.65,0,0,1,.69.69v4.07a.66.66,0,0,1-.19.5.68.68,0,0,1-.5.19h-17.7a.65.65,0,0,1-.5-.19.67.67,0,0,1-.2-.5V555.1a.69.69,0,0,1,.2-.5.65.65,0,0,1,.5-.19h17.7a.65.65,0,0,1,.69.69v4.07A.66.66,0,0,1,166,559.67Z"/><path class="cls-5" d="M174.46,580.58a8,8,0,0,1-3.59-2.92,7.67,7.67,0,0,1-1.27-4.39v-.5a.65.65,0,0,1,.69-.69h4.88a.87.87,0,0,1,.5.13.41.41,0,0,1,.19.33V573a2.73,2.73,0,0,0,1.25,2.19,5.1,5.1,0,0,0,3.2,1,3.68,3.68,0,0,0,2.5-.73,2.21,2.21,0,0,0,.8-1.69,1.81,1.81,0,0,0-.94-1.65,16.09,16.09,0,0,0-3.36-1.35l-.84-.27a31.41,31.41,0,0,1-4.3-1.74A9.33,9.33,0,0,1,171,566.1a6.49,6.49,0,0,1-1.31-4.12,7.11,7.11,0,0,1,1.25-4.17,8,8,0,0,1,3.46-2.75,12.44,12.44,0,0,1,5-1,12.68,12.68,0,0,1,5.32,1.08,8.83,8.83,0,0,1,3.7,3,7.76,7.76,0,0,1,1.35,4.5v.3a.7.7,0,0,1-.19.5.68.68,0,0,1-.5.19h-4.88a1.18,1.18,0,0,1-.5-.09.31.31,0,0,1-.19-.29V563a3.11,3.11,0,0,0-1.19-2.38,4.71,4.71,0,0,0-3.19-1,3.9,3.9,0,0,0-2.34.61,2,2,0,0,0-.85,1.73,1.93,1.93,0,0,0,.54,1.4,5.17,5.17,0,0,0,1.67,1c.76.32,1.91.73,3.48,1.25,1.79.61,3.18,1.15,4.18,1.61a8.37,8.37,0,0,1,2.82,2.24,6.06,6.06,0,0,1,1.33,4.09,7.23,7.23,0,0,1-1.27,4.25,8.2,8.2,0,0,1-3.57,2.82,13.15,13.15,0,0,1-5.3,1A13.29,13.29,0,0,1,174.46,580.58Z"/><path class="cls-5" d="M213.61,554.6a.72.72,0,0,1,.19.5v4.11a.7.7,0,0,1-.19.5.68.68,0,0,1-.5.19h-6.42c-.18,0-.26.09-.26.27V580.6a.67.67,0,0,1-.2.5.66.66,0,0,1-.5.19h-5a.68.68,0,0,1-.5-.19.66.66,0,0,1-.19-.5V560.17a.24.24,0,0,0-.27-.27H193.6a.65.65,0,0,1-.69-.69V555.1a.68.68,0,0,1,.19-.5.66.66,0,0,1,.5-.19h19.51A.68.68,0,0,1,213.61,554.6Z"/><path class="cls-5" d="M230.37,580.58a8,8,0,0,1-3.59-2.92,7.67,7.67,0,0,1-1.27-4.39v-.5a.66.66,0,0,1,.19-.5.68.68,0,0,1,.5-.19h4.88a.87.87,0,0,1,.5.13.41.41,0,0,1,.19.33V573a2.73,2.73,0,0,0,1.25,2.19,5.1,5.1,0,0,0,3.2,1,3.68,3.68,0,0,0,2.5-.73,2.22,2.22,0,0,0,.81-1.69,1.83,1.83,0,0,0-.94-1.65,16.48,16.48,0,0,0-3.37-1.35l-.84-.27a31.41,31.41,0,0,1-4.3-1.74,9.33,9.33,0,0,1-3.15-2.62,6.49,6.49,0,0,1-1.31-4.12,7.11,7.11,0,0,1,1.25-4.17,8,8,0,0,1,3.46-2.75,12.44,12.44,0,0,1,5-1,12.68,12.68,0,0,1,5.32,1.08,8.83,8.83,0,0,1,3.7,3,7.76,7.76,0,0,1,1.35,4.5v.3a.7.7,0,0,1-.19.5.68.68,0,0,1-.5.19h-4.88a1.18,1.18,0,0,1-.5-.09.31.31,0,0,1-.19-.29V563a3.11,3.11,0,0,0-1.19-2.38,4.69,4.69,0,0,0-3.19-1,3.9,3.9,0,0,0-2.34.61,2,2,0,0,0-.85,1.73,1.93,1.93,0,0,0,.54,1.4,5.17,5.17,0,0,0,1.67,1c.76.32,1.92.73,3.48,1.25a44.54,44.54,0,0,1,4.18,1.61,8.5,8.5,0,0,1,2.83,2.24,6.11,6.11,0,0,1,1.32,4.09,7.23,7.23,0,0,1-1.27,4.25,8.2,8.2,0,0,1-3.57,2.82,13.12,13.12,0,0,1-5.3,1A13.29,13.29,0,0,1,230.37,580.58Z"/><path class="cls-5" d="M254.52,580.47a9.09,9.09,0,0,1-3.67-3.52,10.34,10.34,0,0,1-1.3-5.26V564a10.07,10.07,0,0,1,1.3-5.16,9,9,0,0,1,3.67-3.5,12.64,12.64,0,0,1,11,0,9,9,0,0,1,3.69,3.5,10.07,10.07,0,0,1,1.31,5.16v7.68a10.34,10.34,0,0,1-1.31,5.26,9,9,0,0,1-3.69,3.52,12.73,12.73,0,0,1-11,0Zm8.45-5.4a4.46,4.46,0,0,0,1.13-3.19v-8a4.45,4.45,0,0,0-1.13-3.16,3.89,3.89,0,0,0-3-1.21,3.81,3.81,0,0,0-2.93,1.21,4.41,4.41,0,0,0-1.14,3.16v8a4.42,4.42,0,0,0,1.14,3.19,3.87,3.87,0,0,0,2.93,1.19A4,4,0,0,0,263,575.07Z"/><path class="cls-5" d="M293.63,559.67a.66.66,0,0,1-.5.19H281.42a.24.24,0,0,0-.27.27v4.57a.24.24,0,0,0,.27.27h7.41a.7.7,0,0,1,.5.19.68.68,0,0,1,.19.5v4a.65.65,0,0,1-.19.5.67.67,0,0,1-.5.2h-7.41a.24.24,0,0,0-.27.26v10a.65.65,0,0,1-.69.69h-5a.65.65,0,0,1-.69-.69V555.1a.68.68,0,0,1,.19-.5.66.66,0,0,1,.5-.19h17.66a.66.66,0,0,1,.5.19.68.68,0,0,1,.19.5v4.07A.66.66,0,0,1,293.63,559.67Z"/><path class="cls-5" d="M316.83,554.6a.68.68,0,0,1,.19.5v4.11a.66.66,0,0,1-.19.5.68.68,0,0,1-.5.19h-6.41a.24.24,0,0,0-.27.27V580.6a.67.67,0,0,1-.2.5.64.64,0,0,1-.49.19h-5a.68.68,0,0,1-.5-.19.7.7,0,0,1-.19-.5V560.17a.24.24,0,0,0-.27-.27h-6.18a.68.68,0,0,1-.5-.19.66.66,0,0,1-.19-.5V555.1a.65.65,0,0,1,.69-.69h19.51A.68.68,0,0,1,316.83,554.6Z"/><path class="cls-5" d="M326,580.72l-7-25.54a.47.47,0,0,1,0-.23c0-.36.2-.54.61-.54H325a.83.83,0,0,1,.52.17.73.73,0,0,1,.25.45L329,568.58q.07.15.18.15c.06,0,.1-.05.13-.15L332.38,555a.7.7,0,0,1,.77-.62h4.57a.74.74,0,0,1,.77.62l3.37,13.55c.06.1.11.15.18.15s.11-.05.13-.15l3-13.55a.68.68,0,0,1,.25-.45.81.81,0,0,1,.52-.17h5.22a.56.56,0,0,1,.61.77l-6.37,25.5a.72.72,0,0,1-.77.61h-5.11a.83.83,0,0,1-.52-.17.7.7,0,0,1-.25-.44l-3.22-14.4c0-.13-.08-.2-.15-.2s-.13.07-.16.2l-2.92,14.4a.67.67,0,0,1-.73.61h-4.76A.72.72,0,0,1,326,580.72Z"/><path class="cls-5" d="M367.79,580.72l-.89-3.15c0-.16-.13-.23-.3-.23h-8.68a.29.29,0,0,0-.31.23l-.88,3.15a.72.72,0,0,1-.77.57h-5.42a.61.61,0,0,1-.53-.21.57.57,0,0,1,0-.56L358,555a.78.78,0,0,1,.81-.58h6.79a.74.74,0,0,1,.81.58l8.1,25.53a.61.61,0,0,1,0,.27c0,.34-.2.5-.61.5h-5.42A.71.71,0,0,1,367.79,580.72Zm-8.61-8.53a.21.21,0,0,0,.23.23h5.69a.22.22,0,0,0,.21-.1.25.25,0,0,0,0-.21l-2.92-10.21c0-.13-.07-.19-.14-.19s-.12.06-.17.19l-2.92,10.21Z"/><path class="cls-5" d="M392.21,580.75l-4.46-10a.29.29,0,0,0-.3-.19h-2.38a.24.24,0,0,0-.27.27v9.75a.67.67,0,0,1-.2.5.64.64,0,0,1-.49.19h-5a.68.68,0,0,1-.5-.19.7.7,0,0,1-.19-.5V555.1a.72.72,0,0,1,.19-.5.68.68,0,0,1,.5-.19h11.18a9.23,9.23,0,0,1,4.45,1,7.34,7.34,0,0,1,3,2.94,8.83,8.83,0,0,1,1,4.35,7.82,7.82,0,0,1-1.24,4.42,7.14,7.14,0,0,1-3.48,2.73.25.25,0,0,0-.15.38l4.91,10.22.08.3c0,.34-.21.5-.61.5H393A.81.81,0,0,1,392.21,580.75Zm-7.41-20.62v5.3a.24.24,0,0,0,.27.27h4.18a3.28,3.28,0,0,0,2.3-.79,2.66,2.66,0,0,0,.89-2.09,2.77,2.77,0,0,0-.89-2.15,3.25,3.25,0,0,0-2.3-.81h-4.18A.24.24,0,0,0,384.8,560.13Z"/><path class="cls-5" d="M421.85,559.67a.66.66,0,0,1-.5.19H409.6a.24.24,0,0,0-.27.27v4.57a.24.24,0,0,0,.27.27H417a.67.67,0,0,1,.7.69v4a.68.68,0,0,1-.7.7H409.6a.24.24,0,0,0-.27.26v4.92a.24.24,0,0,0,.27.27h11.75a.66.66,0,0,1,.5.19.69.69,0,0,1,.2.5v4.07a.67.67,0,0,1-.2.5.66.66,0,0,1-.5.19h-17.7a.68.68,0,0,1-.5-.19.66.66,0,0,1-.19-.5V555.1a.65.65,0,0,1,.69-.69h17.7a.66.66,0,0,1,.5.19.69.69,0,0,1,.2.5v4.07A.67.67,0,0,1,421.85,559.67Z"/><path class="cls-5" d="M451.69,580.72l-.88-3.15c0-.16-.13-.23-.31-.23h-8.68a.3.3,0,0,0-.31.23l-.88,3.15a.72.72,0,0,1-.77.57h-5.41a.53.53,0,0,1-.58-.77L441.94,555a.76.76,0,0,1,.8-.58h6.8a.75.75,0,0,1,.81.58l8.1,25.53a.81.81,0,0,1,0,.27c0,.34-.21.5-.62.5h-5.41A.72.72,0,0,1,451.69,580.72Zm-8.6-8.53a.21.21,0,0,0,.23.23H449a.21.21,0,0,0,.21-.1.22.22,0,0,0,0-.21l-2.92-10.21c0-.13-.07-.19-.13-.19s-.12.06-.17.19l-2.92,10.21Z"/><path class="cls-5" d="M462.67,580.72l-7-25.54a.47.47,0,0,1,0-.23c0-.36.2-.54.61-.54h5.38a.83.83,0,0,1,.52.17.73.73,0,0,1,.25.45l3.22,13.55c.05.1.11.15.17.15s.11-.05.14-.15L469,555a.7.7,0,0,1,.77-.62h4.57a.74.74,0,0,1,.77.62l3.37,13.55c.06.1.11.15.18.15s.11-.05.13-.15l3-13.55a.68.68,0,0,1,.25-.45.81.81,0,0,1,.52-.17h5.22a.56.56,0,0,1,.61.77L482,580.68a.72.72,0,0,1-.77.61h-5.11a.83.83,0,0,1-.52-.17.7.7,0,0,1-.25-.44l-3.22-14.4c0-.13-.08-.2-.15-.2s-.13.07-.16.2l-2.92,14.4a.67.67,0,0,1-.73.61h-4.76A.72.72,0,0,1,462.67,580.72Z"/><path class="cls-5" d="M504.42,580.72l-.89-3.15c0-.16-.13-.23-.31-.23h-8.67a.29.29,0,0,0-.31.23l-.88,3.15a.72.72,0,0,1-.77.57h-5.42a.61.61,0,0,1-.53-.21.57.57,0,0,1,0-.56L494.66,555a.78.78,0,0,1,.81-.58h6.79a.74.74,0,0,1,.81.58l8.1,25.53a.61.61,0,0,1,0,.27c0,.34-.2.5-.61.5h-5.42A.71.71,0,0,1,504.42,580.72Zm-8.61-8.53a.21.21,0,0,0,.23.23h5.69a.22.22,0,0,0,.21-.1.25.25,0,0,0,0-.21L499,561.9c0-.13-.07-.19-.14-.19s-.12.06-.17.19l-2.92,10.21Z"/><path class="cls-5" d="M528.84,580.75l-4.46-10a.29.29,0,0,0-.3-.19H521.7a.24.24,0,0,0-.27.27v9.75a.67.67,0,0,1-.2.5.64.64,0,0,1-.49.19h-5a.68.68,0,0,1-.5-.19.7.7,0,0,1-.19-.5V555.1a.72.72,0,0,1,.19-.5.68.68,0,0,1,.5-.19h11.18a9.23,9.23,0,0,1,4.45,1,7.34,7.34,0,0,1,3,2.94,8.83,8.83,0,0,1,1,4.35,7.82,7.82,0,0,1-1.24,4.42,7.14,7.14,0,0,1-3.48,2.73.25.25,0,0,0-.15.38l4.91,10.22.08.3c0,.34-.21.5-.61.5h-5.27A.81.81,0,0,1,528.84,580.75Zm-7.41-20.62v5.3a.24.24,0,0,0,.27.27h4.18a3.28,3.28,0,0,0,2.3-.79,2.66,2.66,0,0,0,.89-2.09,2.77,2.77,0,0,0-.89-2.15,3.25,3.25,0,0,0-2.3-.81H521.7A.24.24,0,0,0,521.43,560.13Z"/><path class="cls-5" d="M539.78,581.1a.66.66,0,0,1-.19-.5V555.1a.65.65,0,0,1,.69-.69h9.56a12.79,12.79,0,0,1,5.3,1,8.1,8.1,0,0,1,3.57,2.95,7.82,7.82,0,0,1,1.27,4.42v10.06a7.79,7.79,0,0,1-1.27,4.42,8.1,8.1,0,0,1-3.57,3,12.63,12.63,0,0,1-5.3,1h-9.56A.68.68,0,0,1,539.78,581.1Zm6.45-5.26h3.88a3.17,3.17,0,0,0,2.5-1.1,4.44,4.44,0,0,0,1-2.93V563.9a4.26,4.26,0,0,0-1-2.94,3.29,3.29,0,0,0-2.56-1.1h-3.84a.24.24,0,0,0-.27.27v15.44A.24.24,0,0,0,546.23,575.84Z"/><path class="cls-5" d="M568.49,580.58a8,8,0,0,1-3.59-2.92,7.67,7.67,0,0,1-1.27-4.39v-.5a.65.65,0,0,1,.69-.69h4.88a.87.87,0,0,1,.5.13.41.41,0,0,1,.19.33V573a2.73,2.73,0,0,0,1.25,2.19,5.1,5.1,0,0,0,3.2,1,3.68,3.68,0,0,0,2.5-.73,2.21,2.21,0,0,0,.8-1.69,1.81,1.81,0,0,0-.94-1.65,16.09,16.09,0,0,0-3.36-1.35l-.84-.27a31.41,31.41,0,0,1-4.3-1.74,9.33,9.33,0,0,1-3.15-2.62,6.49,6.49,0,0,1-1.31-4.12,7.11,7.11,0,0,1,1.25-4.17,8,8,0,0,1,3.46-2.75,12.44,12.44,0,0,1,5-1,12.68,12.68,0,0,1,5.32,1.08,8.83,8.83,0,0,1,3.7,3,7.76,7.76,0,0,1,1.35,4.5v.3a.7.7,0,0,1-.19.5.68.68,0,0,1-.5.19h-4.88a1.18,1.18,0,0,1-.5-.09.31.31,0,0,1-.19-.29V563a3.11,3.11,0,0,0-1.19-2.38,4.71,4.71,0,0,0-3.19-1,3.9,3.9,0,0,0-2.34.61,2,2,0,0,0-.85,1.73,1.93,1.93,0,0,0,.54,1.4,5.17,5.17,0,0,0,1.67,1c.76.32,1.91.73,3.48,1.25,1.79.61,3.18,1.15,4.18,1.61a8.37,8.37,0,0,1,2.82,2.24,6.06,6.06,0,0,1,1.33,4.09,7.23,7.23,0,0,1-1.27,4.25,8.2,8.2,0,0,1-3.57,2.82,13.15,13.15,0,0,1-5.3,1A13.29,13.29,0,0,1,568.49,580.58Z"/><path class="cls-5" d="M205.82,241.59a2.35,2.35,0,0,1,.67,1.74v14.39a2.3,2.3,0,0,1-2.42,2.41H181.63a.84.84,0,0,0-.95.95v71.5a2.3,2.3,0,0,1-2.41,2.42H160.79a2.34,2.34,0,0,1-1.74-.67,2.37,2.37,0,0,1-.68-1.75v-71.5a.84.84,0,0,0-.94-.95H135.79a2.31,2.31,0,0,1-2.42-2.41V243.33a2.33,2.33,0,0,1,2.42-2.42h68.28A2.37,2.37,0,0,1,205.82,241.59Z"/><path class="cls-5" d="M214.62,329.62a31.68,31.68,0,0,1-11.36-17.47,43.14,43.14,0,0,1-1.61-12.1,48.41,48.41,0,0,1,1.75-13,29.93,29.93,0,0,1,11.49-16.6q8.4-6,20.36-6t20,6a31,31,0,0,1,11.42,16.46,43,43,0,0,1,1.89,12.9,46.71,46.71,0,0,1-1.48,11.83,31.59,31.59,0,0,1-11.29,17.88q-8.48,6.58-20.7,6.58T214.62,329.62Zm27-15.12a13.59,13.59,0,0,0,3.69-6.79,33.91,33.91,0,0,0,.81-7.66,31.84,31.84,0,0,0-.94-7.79,12.63,12.63,0,0,0-3.63-6.45,10.33,10.33,0,0,0-13,0,12.85,12.85,0,0,0-3.56,6.45,26.29,26.29,0,0,0-.94,7.79,34.51,34.51,0,0,0,.8,7.66,14.93,14.93,0,0,0,3.77,6.79,8.85,8.85,0,0,0,6.45,2.49A9.1,9.1,0,0,0,241.64,314.5Z"/><path class="cls-5" d="M345.73,300.59a47.34,47.34,0,0,1-2.82,16.94,29.15,29.15,0,0,1-10,13.5,25.3,25.3,0,0,1-15.52,5.18q-10.23,0-15.33-6.19c-.27-.35-.51-.49-.74-.4s-.33.36-.33.81v26.74a2.4,2.4,0,0,1-.67,1.75,2.37,2.37,0,0,1-1.75.67H281.09a2.3,2.3,0,0,1-2.42-2.42V267.93a2.36,2.36,0,0,1,.67-1.75,2.4,2.4,0,0,1,1.75-.67h17.47a2.3,2.3,0,0,1,2.42,2.42v3.23c0,.45.11.71.33.8s.47,0,.74-.4q5.11-7.12,15.33-7.12a25.62,25.62,0,0,1,16.12,5.77,28.79,28.79,0,0,1,10.08,14.92A49.81,49.81,0,0,1,345.73,300.59Zm-23.92-.4q0-6.85-2.28-11.16a9,9,0,0,0-8.2-5q-5.11,0-7.93,5.11a23.29,23.29,0,0,0-2.29,11q0,7.4,2.42,11.82a8.73,8.73,0,0,0,7.8,4.57,8.89,8.89,0,0,0,8.06-4.7Q321.81,307.44,321.81,300.19Z"/><path class="cls-5" d="M394.12,240.91h18.41a2.31,2.31,0,0,1,2.42,2.42v89.25a2.3,2.3,0,0,1-2.42,2.42H395.06a2.3,2.3,0,0,1-2.42-2.42V262.29a.93.93,0,0,0-.27-.68.6.6,0,0,0-.67-.13l-11.29,1.34H380c-1.44,0-2.15-.76-2.15-2.28V248a2.78,2.78,0,0,1,2-2.69l11.29-3.9A7.42,7.42,0,0,1,394.12,240.91Z"/><path class="cls-5" d="M434.57,327.94q-8.86-8.67-8.87-23.59V271.56q0-14.79,8.87-23.25t24.33-8.47q15.45,0,24.46,8.53t9,23.19v32.79q0,14.92-9,23.59t-24.46,8.67Q443.45,336.61,434.57,327.94ZM467,314.23q3-3.15,3-8.67V270.75q0-5.5-3-8.67a10.73,10.73,0,0,0-8.13-3.15,10.36,10.36,0,0,0-7.93,3.15q-3,3.17-3,8.67v34.81c0,3.68,1,6.57,2.89,8.67a10.3,10.3,0,0,0,8,3.16A10.7,10.7,0,0,0,467,314.23Z"/><path class="cls-5" d="M511.32,327.94q-8.86-8.67-8.87-23.59V271.56q0-14.79,8.87-23.25t24.33-8.47q15.45,0,24.46,8.53t9,23.19v32.79q0,14.92-9,23.59t-24.46,8.67Q520.19,336.61,511.32,327.94Zm32.46-13.71q3-3.15,3-8.67V270.75q0-5.5-3-8.67a10.76,10.76,0,0,0-8.13-3.15,10.35,10.35,0,0,0-7.93,3.15c-2,2.11-3,5-3,8.67v34.81q0,5.52,2.89,8.67a10.29,10.29,0,0,0,8,3.16A10.73,10.73,0,0,0,543.78,314.23Z"/><path class="cls-5" d="M277.22,673.38a1.37,1.37,0,0,1-.38-1v-7.75a2.19,2.19,0,0,1,.77-1.69q2.83-2.61,5.91-5.84t5.84-6.15q5.07-5.3,4.76-5,7-7.22,7-10.52a4.73,4.73,0,0,0-1.65-3.69,6.21,6.21,0,0,0-4.26-1.46,6.09,6.09,0,0,0-4.23,1.46,5,5,0,0,0-1.61,3.84V637a1.31,1.31,0,0,1-1.38,1.38H277.84a1.38,1.38,0,0,1-1-.38,1.34,1.34,0,0,1-.38-1V633.6a13.4,13.4,0,0,1,2.84-7.53,16.26,16.26,0,0,1,6.68-5,23.63,23.63,0,0,1,9.22-1.73,22.08,22.08,0,0,1,9.94,2.11,15.79,15.79,0,0,1,6.53,5.72,14.62,14.62,0,0,1,.73,14.36,31.72,31.72,0,0,1-4.61,6.84,157.72,157.72,0,0,1-11.29,11.67l-2.15,2.08c-.2.2-.28.37-.23.5s.21.19.46.19h18.74a1.38,1.38,0,0,1,1,.38,1.34,1.34,0,0,1,.38,1v8.14a1.33,1.33,0,0,1-.38,1,1.35,1.35,0,0,1-1,.39h-35.1A1.35,1.35,0,0,1,277.22,673.38Z"/><path class="cls-5" d="M325.38,669.73q-5.07-5-5.07-13.48V637.51q0-8.44,5.07-13.28t13.9-4.84q8.84,0,14,4.88t5.14,13.24v18.74q0,8.54-5.14,13.48t-14,5Q330.45,674.69,325.38,669.73Zm18.55-7.83a6.86,6.86,0,0,0,1.73-4.95v-19.9a6.86,6.86,0,0,0-1.73-4.95,6.16,6.16,0,0,0-4.65-1.81,5.93,5.93,0,0,0-4.53,1.81,6.93,6.93,0,0,0-1.69,4.95V657a7,7,0,0,0,1.65,4.95,5.88,5.88,0,0,0,4.57,1.8A6.15,6.15,0,0,0,343.93,661.9Z"/><path class="cls-5" d="M364.7,673.38a1.37,1.37,0,0,1-.38-1v-7.75a2.16,2.16,0,0,1,.77-1.69q2.84-2.61,5.91-5.84l5.84-6.15c3.38-3.53,5-5.19,4.76-5q7-7.22,7-10.52a4.73,4.73,0,0,0-1.65-3.69,6.23,6.23,0,0,0-4.27-1.46,6.07,6.07,0,0,0-4.22,1.46,5,5,0,0,0-1.61,3.84V637a1.35,1.35,0,0,1-.39,1,1.37,1.37,0,0,1-1,.38H365.32a1.37,1.37,0,0,1-1-.38,1.35,1.35,0,0,1-.39-1V633.6a13.49,13.49,0,0,1,2.85-7.53,16.19,16.19,0,0,1,6.68-5,23.58,23.58,0,0,1,9.21-1.73,22.12,22.12,0,0,1,9.95,2.11,15.79,15.79,0,0,1,6.53,5.72,14.69,14.69,0,0,1,.73,14.36,32.09,32.09,0,0,1-4.61,6.84A159.86,159.86,0,0,1,384,660.09l-2.15,2.08c-.21.2-.28.37-.23.5s.2.19.46.19H400.8a1.31,1.31,0,0,1,1.38,1.38v8.14a1.37,1.37,0,0,1-.38,1,1.35,1.35,0,0,1-1,.39H365.7A1.35,1.35,0,0,1,364.7,673.38Z"/><path class="cls-5" d="M415.47,620H426a1.35,1.35,0,0,1,1,.39,1.33,1.33,0,0,1,.38,1v51a1.33,1.33,0,0,1-.38,1,1.35,1.35,0,0,1-1,.39H416a1.34,1.34,0,0,1-1.39-1.39V632.21a.52.52,0,0,0-.15-.38.35.35,0,0,0-.38-.08l-6.45.77h-.24c-.81,0-1.22-.43-1.22-1.3v-7.15a1.58,1.58,0,0,1,1.15-1.53l6.45-2.23A4.22,4.22,0,0,1,415.47,620Z"/></svg>