<svg xmlns="http://www.w3.org/2000/svg" xmlns:xlink="http://www.w3.org/1999/xlink" viewBox="0 0 94 122">
  <g id="container">
    <path fill="#fff" d="M8.1 89.9L47.6 110l38-20.1V11.3H8.1z"/>
    <path fill="#f2f3f2" d="M86.4 11.6L7.3 91.3l41 20.3 38.1-19.5z"/>
    <path d="M5.5 37.5v54.1l1.4.7 39.5 20.1 1.2.6 1.2-.6 38.1-20.1 1.4-.7V8.7H5.5v28.8zm2.6 52.6V11.3h77.6v78.8l-38.1 20.1L8.1 90.1z" fill="#dcdedc"/>
    <path id="logo" d="M46.9 12.6c.4 0 .8 0 1.2.1L46.9 15c-1.8-.1-3.4 1.3-3.5 3.1-.1 1.8 1.3 3.4 3.1 3.5h.4c.8 0 1.6-.3 2.2-.8l1.3 2.2c-1 .7-2.2 1.1-3.5 1.1-3.2.1-5.9-2.3-6-5.5-.1-3.2 2.3-5.9 5.5-6h.5zm4.1 4.9l1.5 2.5-1.5 2.4-1.4-2.4h-2.9l1.5-2.5H51zm-2.4-.9c0-.4.1-.8.3-1.1.2-.3.6-.6.9-.8l.2-.1c.4-.2.5-.3.5-.5s-.3-.4-.5-.4c-.4 0-.7.2-.9.6l-.5-.5c.1-.2.3-.4.5-.6.3-.2.6-.2.9-.2.3 0 .7.1.9.3.2.2.4.5.4.8 0 .5-.3.9-.9 1.1l-.3.2c-.3.2-.5.3-.6.6h1.8v.7l-2.7-.1zm-1.7 12.5l9.5-5.4v-15H37.3v14.9l9.6 5.5z" fill="#ff492c"/>
    <path id="banner" d="M90.2 64.5H3.6l-3.2 7 3.2 7h86.6l3.1-7z" fill="#ffd200"/>
  <path fill="#252530" transform="translate(17.32, 60)" d="M4.72 0.12L4.72 0.12Q3.57 0.12 2.69-0.33L2.69-0.33L2.69-0.33Q1.81-0.78 1.33-1.60L1.33-1.60L1.33-1.60Q0.84-2.42 0.84-3.48L0.84-3.48L0.84-10.32L0.84-10.32Q0.84-10.39 0.89-10.45L0.89-10.45L0.89-10.45Q0.94-10.50 1.02-10.50L1.02-10.50L2.77-10.50L2.77-10.50Q2.85-10.50 2.90-10.45L2.90-10.45L2.90-10.45Q2.96-10.39 2.96-10.32L2.96-10.32L2.96-3.46L2.96-3.46Q2.96-2.67 3.44-2.18L3.44-2.18L3.44-2.18Q3.93-1.69 4.72-1.69L4.72-1.69L4.72-1.69Q5.52-1.69 6.01-2.18L6.01-2.18L6.01-2.18Q6.50-2.67 6.50-3.46L6.50-3.46L6.50-10.32L6.50-10.32Q6.50-10.39 6.55-10.45L6.55-10.45L6.55-10.45Q6.60-10.50 6.67-10.50L6.67-10.50L8.43-10.50L8.43-10.50Q8.50-10.50 8.56-10.45L8.56-10.45L8.56-10.45Q8.61-10.39 8.61-10.32L8.61-10.32L8.61-3.48L8.61-3.48Q8.61-2.42 8.12-1.60L8.12-1.60L8.12-1.60Q7.63-0.78 6.76-0.33L6.76-0.33L6.76-0.33Q5.88 0.12 4.72 0.12L4.72 0.12ZM13.29 0.10L13.29 0.10Q12.29 0.10 11.54-0.18L11.54-0.18L11.54-0.18Q10.79-0.46 10.37-0.97L10.37-0.97L10.37-0.97Q9.96-1.48 9.96-2.13L9.96-2.13L9.96-2.28L9.96-2.28Q9.96-2.35 10.01-2.41L10.01-2.41L10.01-2.41Q10.07-2.46 10.14-2.46L10.14-2.46L11.80-2.46L11.80-2.46Q11.88-2.46 11.93-2.41L11.93-2.41L11.93-2.41Q11.98-2.35 11.98-2.28L11.98-2.28L11.98-2.27L11.98-2.27Q11.98-1.93 12.35-1.70L12.35-1.70L12.35-1.70Q12.72-1.47 13.28-1.47L13.28-1.47L13.28-1.47Q13.79-1.47 14.10-1.67L14.10-1.67L14.10-1.67Q14.41-1.88 14.41-2.17L14.41-2.17L14.41-2.17Q14.41-2.44 14.14-2.58L14.14-2.58L14.14-2.58Q13.88-2.71 13.26-2.86L13.26-2.86L13.26-2.86Q12.55-3.04 12.15-3.21L12.15-3.21L12.15-3.21Q11.19-3.54 10.62-4.02L10.62-4.02L10.62-4.02Q10.05-4.50 10.05-5.40L10.05-5.40L10.05-5.40Q10.05-6.51 10.91-7.16L10.91-7.16L10.91-7.16Q11.78-7.81 13.20-7.81L13.20-7.81L13.20-7.81Q14.16-7.81 14.88-7.51L14.88-7.51L14.88-7.51Q15.60-7.20 16.00-6.64L16.00-6.64L16.00-6.64Q16.39-6.09 16.39-5.38L16.39-5.38L16.39-5.38Q16.39-5.31 16.34-5.26L16.34-5.26L16.34-5.26Q16.29-5.21 16.21-5.21L16.21-5.21L14.61-5.21L14.61-5.21Q14.54-5.21 14.48-5.26L14.48-5.26L14.48-5.26Q14.43-5.31 14.43-5.38L14.43-5.38L14.43-5.38Q14.43-5.71 14.09-5.94L14.09-5.94L14.09-5.94Q13.76-6.17 13.20-6.17L13.20-6.17L13.20-6.17Q12.71-6.17 12.39-5.98L12.39-5.98L12.39-5.98Q12.07-5.80 12.07-5.49L12.07-5.49L12.07-5.49Q12.07-5.19 12.38-5.04L12.38-5.04L12.38-5.04Q12.69-4.89 13.41-4.72L13.41-4.72L13.41-4.72Q13.57-4.68 13.79-4.63L13.79-4.63L13.79-4.63Q14.00-4.58 14.23-4.50L14.23-4.50L14.23-4.50Q15.30-4.18 15.91-3.69L15.91-3.69L15.91-3.69Q16.53-3.19 16.53-2.25L16.53-2.25L16.53-2.25Q16.53-1.14 15.65-0.52L15.65-0.52L15.65-0.52Q14.78 0.10 13.29 0.10L13.29 0.10ZM20.82-7.83L20.82-7.83Q21.80-7.83 22.56-7.49L22.56-7.49L22.56-7.49Q23.32-7.15 23.75-6.57L23.75-6.57L23.75-6.57Q24.18-5.98 24.18-5.26L24.18-5.26L24.18-0.18L24.18-0.18Q24.18-0.10 24.13-0.05L24.13-0.05L24.13-0.05Q24.07 0 24 0L24 0L22.24 0L22.24 0Q22.17 0 22.12-0.05L22.12-0.05L22.12-0.05Q22.06-0.10 22.06-0.18L22.06-0.18L22.06-0.67L22.06-0.67Q22.06-0.72 22.04-0.73L22.04-0.73L22.04-0.73Q22.00-0.75 21.98-0.70L21.98-0.70L21.98-0.70Q21.34 0.12 19.95 0.12L19.95 0.12L19.95 0.12Q18.78 0.12 18.06-0.45L18.06-0.45L18.06-0.45Q17.34-1.02 17.34-2.13L17.34-2.13L17.34-2.13Q17.34-3.28 18.15-3.92L18.15-3.92L18.15-3.92Q18.96-4.56 20.46-4.56L20.46-4.56L21.99-4.56L21.99-4.56Q22.06-4.56 22.06-4.63L22.06-4.63L22.06-4.96L22.06-4.96Q22.06-5.46 21.77-5.74L21.77-5.74L21.77-5.74Q21.46-6.01 20.86-6.01L20.86-6.01L20.86-6.01Q20.40-6.01 20.09-5.85L20.09-5.85L20.09-5.85Q19.79-5.68 19.70-5.38L19.70-5.38L19.70-5.38Q19.65-5.22 19.50-5.23L19.50-5.23L17.68-5.47L17.68-5.47Q17.50-5.50 17.52-5.61L17.52-5.61L17.52-5.61Q17.58-6.24 18.02-6.75L18.02-6.75L18.02-6.75Q18.46-7.26 19.19-7.54L19.19-7.54L19.19-7.54Q19.92-7.83 20.82-7.83L20.82-7.83ZM20.52-1.45L20.52-1.45Q21.16-1.45 21.61-1.80L21.61-1.80L21.61-1.80Q22.06-2.15 22.06-2.69L22.06-2.69L22.06-3.23L22.06-3.23Q22.06-3.30 21.99-3.30L21.99-3.30L20.91-3.30L20.91-3.30Q20.23-3.30 19.85-3.04L19.85-3.04L19.85-3.04Q19.47-2.79 19.47-2.32L19.47-2.32L19.47-2.32Q19.47-1.92 19.75-1.69L19.75-1.69L19.75-1.69Q20.04-1.45 20.52-1.45L20.52-1.45ZM32.49-5.75L32.49-5.75Q32.77-4.96 32.77-3.88L32.77-3.88L32.77-3.88Q32.77-2.85 32.52-2.07L32.52-2.07L32.52-2.07Q32.17-1.05 31.42-0.46L31.42-0.46L31.42-0.46Q30.66 0.12 29.63 0.12L29.63 0.12L29.63 0.12Q28.53 0.12 27.90-0.70L27.90-0.70L27.90-0.70Q27.87-0.73 27.84-0.73L27.84-0.73L27.84-0.73Q27.81-0.72 27.81-0.67L27.81-0.67L27.81-0.18L27.81-0.18Q27.81-0.10 27.76-0.05L27.76-0.05L27.76-0.05Q27.70 0 27.63 0L27.63 0L25.87 0L25.87 0Q25.80 0 25.75-0.05L25.75-0.05L25.75-0.05Q25.69-0.10 25.69-0.18L25.69-0.18L25.69-10.32L25.69-10.32Q25.69-10.39 25.75-10.45L25.75-10.45L25.75-10.45Q25.80-10.50 25.87-10.50L25.87-10.50L27.63-10.50L27.63-10.50Q27.70-10.50 27.76-10.45L27.76-10.45L27.76-10.45Q27.81-10.39 27.81-10.32L27.81-10.32L27.81-7.11L27.81-7.11Q27.81-7.06 27.84-7.05L27.84-7.05L27.84-7.05Q27.87-7.04 27.90-7.08L27.90-7.08L27.90-7.08Q28.48-7.83 29.56-7.83L29.56-7.83L29.56-7.83Q30.66-7.83 31.40-7.27L31.40-7.27L31.40-7.27Q32.14-6.71 32.49-5.75L32.49-5.75ZM30.27-2.34L30.27-2.34Q30.58-2.91 30.58-3.84L30.58-3.84L30.58-3.84Q30.58-4.88 30.22-5.43L30.22-5.43L30.22-5.43Q29.86-6.01 29.16-6.01L29.16-6.01L29.16-6.01Q28.50-6.01 28.15-5.43L28.15-5.43L28.15-5.43Q27.82-4.86 27.82-3.85L27.82-3.85L27.82-3.85Q27.82-2.85 28.12-2.34L28.12-2.34L28.12-2.34Q28.48-1.69 29.17-1.69L29.17-1.69L29.17-1.69Q29.91-1.69 30.27-2.34L30.27-2.34ZM35.30-8.58L35.30-8.58Q34.78-8.58 34.45-8.92L34.45-8.92L34.45-8.92Q34.11-9.25 34.11-9.76L34.11-9.76L34.11-9.76Q34.11-10.29 34.44-10.62L34.44-10.62L34.44-10.62Q34.77-10.95 35.30-10.95L35.30-10.95L35.30-10.95Q35.82-10.95 36.15-10.62L36.15-10.62L36.15-10.62Q36.48-10.29 36.48-9.76L36.48-9.76L36.48-9.76Q36.48-9.25 36.14-8.92L36.14-8.92L36.14-8.92Q35.80-8.58 35.30-8.58L35.30-8.58ZM34.40 0L34.40 0Q34.32 0 34.27-0.05L34.27-0.05L34.27-0.05Q34.22-0.10 34.22-0.18L34.22-0.18L34.22-7.54L34.22-7.54Q34.22-7.62 34.27-7.67L34.27-7.67L34.27-7.67Q34.32-7.72 34.40-7.72L34.40-7.72L36.15-7.72L36.15-7.72Q36.23-7.72 36.28-7.67L36.28-7.67L36.28-7.67Q36.33-7.62 36.33-7.54L36.33-7.54L36.33-0.18L36.33-0.18Q36.33-0.10 36.28-0.05L36.28-0.05L36.28-0.05Q36.23 0 36.15 0L36.15 0L34.40 0ZM38.16 0L38.16 0Q38.09 0 38.03-0.05L38.03-0.05L38.03-0.05Q37.98-0.10 37.98-0.18L37.98-0.18L37.98-10.32L37.98-10.32Q37.98-10.39 38.03-10.45L38.03-10.45L38.03-10.45Q38.09-10.50 38.16-10.50L38.16-10.50L39.92-10.50L39.92-10.50Q39.99-10.50 40.04-10.45L40.04-10.45L40.04-10.45Q40.10-10.39 40.10-10.32L40.10-10.32L40.10-0.18L40.10-0.18Q40.10-0.10 40.04-0.05L40.04-0.05L40.04-0.05Q39.99 0 39.92 0L39.92 0L38.16 0ZM42.78-8.58L42.78-8.58Q42.27-8.58 41.93-8.92L41.93-8.92L41.93-8.92Q41.59-9.25 41.59-9.76L41.59-9.76L41.59-9.76Q41.59-10.29 41.92-10.62L41.92-10.62L41.92-10.62Q42.26-10.95 42.78-10.95L42.78-10.95L42.78-10.95Q43.30-10.95 43.63-10.62L43.63-10.62L43.63-10.62Q43.96-10.29 43.96-9.76L43.96-9.76L43.96-9.76Q43.96-9.25 43.63-8.92L43.63-8.92L43.63-8.92Q43.29-8.58 42.78-8.58L42.78-8.58ZM41.88 0L41.88 0Q41.80 0 41.75-0.05L41.75-0.05L41.75-0.05Q41.70-0.10 41.70-0.18L41.70-0.18L41.70-7.54L41.70-7.54Q41.70-7.62 41.75-7.67L41.75-7.67L41.75-7.67Q41.80-7.72 41.88-7.72L41.88-7.72L43.63-7.72L43.63-7.72Q43.71-7.72 43.76-7.67L43.76-7.67L43.76-7.67Q43.81-7.62 43.81-7.54L43.81-7.54L43.81-0.18L43.81-0.18Q43.81-0.10 43.76-0.05L43.76-0.05L43.76-0.05Q43.71 0 43.63 0L43.63 0L41.88 0ZM49.89-6.19L49.89-6.19Q49.89-6.12 49.84-6.07L49.84-6.07L49.84-6.07Q49.79-6.01 49.71-6.01L49.71-6.01L48.27-6.01L48.27-6.01Q48.20-6.01 48.20-5.94L48.20-5.94L48.20-2.76L48.20-2.76Q48.20-2.27 48.40-2.02L48.40-2.02L48.40-2.02Q48.60-1.78 49.05-1.78L49.05-1.78L49.55-1.78L49.55-1.78Q49.62-1.78 49.67-1.73L49.67-1.73L49.67-1.73Q49.73-1.68 49.73-1.60L49.73-1.60L49.73-0.18L49.73-0.18Q49.73-0.01 49.55 0.01L49.55 0.01L49.55 0.01Q48.91 0.04 48.65 0.04L48.65 0.04L48.65 0.04Q47.40 0.04 46.79-0.37L46.79-0.37L46.79-0.37Q46.17-0.78 46.16-1.92L46.16-1.92L46.16-5.94L46.16-5.94Q46.16-6.01 46.08-6.01L46.08-6.01L45.23-6.01L45.23-6.01Q45.15-6.01 45.10-6.07L45.10-6.07L45.10-6.07Q45.05-6.12 45.05-6.19L45.05-6.19L45.05-7.53L45.05-7.53Q45.05-7.60 45.10-7.66L45.10-7.66L45.10-7.66Q45.15-7.71 45.23-7.71L45.23-7.71L46.08-7.71L46.08-7.71Q46.16-7.71 46.16-7.79L46.16-7.79L46.16-9.57L46.16-9.57Q46.16-9.64 46.21-9.70L46.21-9.70L46.21-9.70Q46.26-9.75 46.34-9.75L46.34-9.75L48.02-9.75L48.02-9.75Q48.09-9.75 48.14-9.70L48.14-9.70L48.14-9.70Q48.20-9.64 48.20-9.57L48.20-9.57L48.20-7.79L48.20-7.79Q48.20-7.71 48.27-7.71L48.27-7.71L49.71-7.71L49.71-7.71Q49.79-7.71 49.84-7.66L49.84-7.66L49.84-7.66Q49.89-7.60 49.89-7.53L49.89-7.53L49.89-6.19ZM51.12 2.98L51.12 2.98Q51.08 2.98 51.05 2.93L51.05 2.93L51.05 2.93Q51.02 2.88 51.02 2.80L51.02 2.80L51.02 1.43L51.02 1.43Q51.02 1.35 51.07 1.30L51.07 1.30L51.07 1.30Q51.12 1.24 51.20 1.24L51.20 1.24L51.20 1.24Q51.83 1.23 52.19 1.14L52.19 1.14L52.19 1.14Q52.56 1.05 52.78 0.79L52.78 0.79L52.78 0.79Q53.00 0.54 53.12 0.04L53.12 0.04L53.12 0.04Q53.13 0.01 53.12-0.04L53.12-0.04L50.66-7.51L50.66-7.51Q50.64-7.54 50.64-7.59L50.64-7.59L50.64-7.59Q50.64-7.72 50.81-7.72L50.81-7.72L52.68-7.72L52.68-7.72Q52.85-7.72 52.89-7.57L52.89-7.57L54.15-2.71L54.15-2.71Q54.17-2.67 54.20-2.67L54.20-2.67L54.20-2.67Q54.23-2.67 54.24-2.71L54.24-2.71L55.50-7.57L55.50-7.57Q55.55-7.72 55.71-7.72L55.71-7.72L57.54-7.72L57.54-7.72Q57.63-7.72 57.67-7.67L57.67-7.67L57.67-7.67Q57.71-7.62 57.68-7.51L57.68-7.51L55.08 0.28L55.08 0.28Q54.71 1.38 54.32 1.93L54.32 1.93L54.32 1.93Q53.93 2.48 53.22 2.73L53.22 2.73L53.22 2.73Q52.52 2.98 51.23 2.98L51.23 2.98L51.12 2.98Z"/><path fill="#252530" transform="translate(30.97, 45)" d="M7.14-5.47L7.14-5.47Q7.05-5.43 7.14-5.38L7.14-5.38L7.14-5.38Q8.56-4.65 8.56-2.94L8.56-2.94L8.56-2.94Q8.56-1.48 7.57-0.74L7.57-0.74L7.57-0.74Q6.58 0 4.98 0L4.98 0L1.09 0L1.09 0Q1.02 0 0.97-0.05L0.97-0.05L0.97-0.05Q0.91-0.10 0.91-0.18L0.91-0.18L0.91-10.32L0.91-10.32Q0.91-10.39 0.97-10.45L0.97-10.45L0.97-10.45Q1.02-10.50 1.09-10.50L1.09-10.50L4.86-10.50L4.86-10.50Q8.41-10.50 8.41-7.62L8.41-7.62L8.41-7.62Q8.41-6.12 7.14-5.47L7.14-5.47ZM3.10-8.69L3.10-8.69Q3.03-8.69 3.03-8.61L3.03-8.61L3.03-6.27L3.03-6.27Q3.03-6.19 3.10-6.19L3.10-6.19L4.86-6.19L4.86-6.19Q5.56-6.19 5.96-6.52L5.96-6.52L5.96-6.52Q6.34-6.85 6.34-7.42L6.34-7.42L6.34-7.42Q6.34-8.01 5.96-8.35L5.96-8.35L5.96-8.35Q5.56-8.69 4.86-8.69L4.86-8.69L3.10-8.69ZM4.98-1.83L4.98-1.83Q5.67-1.83 6.06-2.18L6.06-2.18L6.06-2.18Q6.45-2.53 6.45-3.15L6.45-3.15L6.45-3.15Q6.45-3.76 6.06-4.12L6.06-4.12L6.06-4.12Q5.67-4.47 4.96-4.47L4.96-4.47L3.10-4.47L3.10-4.47Q3.03-4.47 3.03-4.39L3.03-4.39L3.03-1.91L3.03-1.91Q3.03-1.83 3.10-1.83L3.10-1.83L4.98-1.83ZM16.90-4.65L16.90-4.65Q16.99-4.08 16.96-3.38L16.96-3.38L16.96-3.38Q16.95-3.19 16.77-3.19L16.77-3.19L12.13-3.19L12.13-3.19Q12.04-3.19 12.07-3.12L12.07-3.12L12.07-3.12Q12.12-2.82 12.24-2.52L12.24-2.52L12.24-2.52Q12.63-1.68 13.83-1.68L13.83-1.68L13.83-1.68Q14.79-1.69 15.34-2.46L15.34-2.46L15.34-2.46Q15.40-2.55 15.48-2.55L15.48-2.55L15.48-2.55Q15.52-2.55 15.58-2.49L15.58-2.49L16.66-1.43L16.66-1.43Q16.74-1.35 16.74-1.29L16.74-1.29L16.74-1.29Q16.74-1.26 16.68-1.17L16.68-1.17L16.68-1.17Q16.18-0.55 15.40-0.22L15.40-0.22L15.40-0.22Q14.63 0.12 13.69 0.12L13.69 0.12L13.69 0.12Q12.40 0.12 11.51-0.46L11.51-0.46L11.51-0.46Q10.62-1.05 10.23-2.10L10.23-2.10L10.23-2.10Q9.91-2.85 9.91-4.06L9.91-4.06L9.91-4.06Q9.91-4.89 10.14-5.52L10.14-5.52L10.14-5.52Q10.48-6.58 11.35-7.21L11.35-7.21L11.35-7.21Q12.21-7.84 13.39-7.84L13.39-7.84L13.39-7.84Q14.89-7.84 15.80-6.97L15.80-6.97L15.80-6.97Q16.71-6.10 16.90-4.65L16.90-4.65ZM13.41-6.01L13.41-6.01Q12.46-6.01 12.16-5.13L12.16-5.13L12.16-5.13Q12.10-4.93 12.06-4.65L12.06-4.65L12.06-4.65Q12.06-4.58 12.13-4.58L12.13-4.58L14.73-4.58L14.73-4.58Q14.82-4.58 14.79-4.65L14.79-4.65L14.79-4.65Q14.71-5.08 14.71-5.07L14.71-5.07L14.71-5.07Q14.58-5.52 14.24-5.77L14.24-5.77L14.24-5.77Q13.90-6.01 13.41-6.01L13.41-6.01ZM21.34 0.10L21.34 0.10Q20.34 0.10 19.59-0.18L19.59-0.18L19.59-0.18Q18.84-0.46 18.43-0.97L18.43-0.97L18.43-0.97Q18.01-1.48 18.01-2.13L18.01-2.13L18.01-2.28L18.01-2.28Q18.01-2.35 18.07-2.41L18.07-2.41L18.07-2.41Q18.12-2.46 18.19-2.46L18.19-2.46L19.86-2.46L19.86-2.46Q19.93-2.46 19.99-2.41L19.99-2.41L19.99-2.41Q20.04-2.35 20.04-2.28L20.04-2.28L20.04-2.27L20.04-2.27Q20.04-1.93 20.41-1.70L20.41-1.70L20.41-1.70Q20.77-1.47 21.33-1.47L21.33-1.47L21.33-1.47Q21.84-1.47 22.15-1.67L22.15-1.67L22.15-1.67Q22.47-1.88 22.47-2.17L22.47-2.17L22.47-2.17Q22.47-2.44 22.20-2.58L22.20-2.58L22.20-2.58Q21.93-2.71 21.31-2.86L21.31-2.86L21.31-2.86Q20.61-3.04 20.20-3.21L20.20-3.21L20.20-3.21Q19.24-3.54 18.67-4.02L18.67-4.02L18.67-4.02Q18.10-4.50 18.10-5.40L18.10-5.40L18.10-5.40Q18.10-6.51 18.97-7.16L18.97-7.16L18.97-7.16Q19.83-7.81 21.25-7.81L21.25-7.81L21.25-7.81Q22.21-7.81 22.93-7.51L22.93-7.51L22.93-7.51Q23.65-7.20 24.05-6.64L24.05-6.64L24.05-6.64Q24.45-6.09 24.45-5.38L24.45-5.38L24.45-5.38Q24.45-5.31 24.40-5.26L24.40-5.26L24.40-5.26Q24.34-5.21 24.27-5.21L24.27-5.21L22.66-5.21L22.66-5.21Q22.59-5.21 22.54-5.26L22.54-5.26L22.54-5.26Q22.48-5.31 22.48-5.38L22.48-5.38L22.48-5.38Q22.48-5.71 22.15-5.94L22.15-5.94L22.15-5.94Q21.81-6.17 21.25-6.17L21.25-6.17L21.25-6.17Q20.76-6.17 20.45-5.98L20.45-5.98L20.45-5.98Q20.13-5.80 20.13-5.49L20.13-5.49L20.13-5.49Q20.13-5.19 20.44-5.04L20.44-5.04L20.44-5.04Q20.74-4.89 21.46-4.72L21.46-4.72L21.46-4.72Q21.63-4.68 21.84-4.63L21.84-4.63L21.84-4.63Q22.05-4.58 22.29-4.50L22.29-4.50L22.29-4.50Q23.35-4.18 23.97-3.69L23.97-3.69L23.97-3.69Q24.58-3.19 24.58-2.25L24.58-2.25L24.58-2.25Q24.58-1.14 23.71-0.52L23.71-0.52L23.71-0.52Q22.83 0.10 21.34 0.10L21.34 0.10ZM30.22-6.19L30.22-6.19Q30.22-6.12 30.17-6.07L30.17-6.07L30.17-6.07Q30.12-6.01 30.04-6.01L30.04-6.01L28.60-6.01L28.60-6.01Q28.53-6.01 28.53-5.94L28.53-5.94L28.53-2.76L28.53-2.76Q28.53-2.27 28.73-2.02L28.73-2.02L28.73-2.02Q28.93-1.78 29.38-1.78L29.38-1.78L29.88-1.78L29.88-1.78Q29.95-1.78 30.01-1.73L30.01-1.73L30.01-1.73Q30.06-1.68 30.06-1.60L30.06-1.60L30.06-0.18L30.06-0.18Q30.06-0.01 29.88 0.01L29.88 0.01L29.88 0.01Q29.25 0.04 28.98 0.04L28.98 0.04L28.98 0.04Q27.73 0.04 27.12-0.37L27.12-0.37L27.12-0.37Q26.50-0.78 26.49-1.92L26.49-1.92L26.49-5.94L26.49-5.94Q26.49-6.01 26.41-6.01L26.41-6.01L25.56-6.01L25.56-6.01Q25.48-6.01 25.43-6.07L25.43-6.07L25.43-6.07Q25.38-6.12 25.38-6.19L25.38-6.19L25.38-7.53L25.38-7.53Q25.38-7.60 25.43-7.66L25.43-7.66L25.43-7.66Q25.48-7.71 25.56-7.71L25.56-7.71L26.41-7.71L26.41-7.71Q26.49-7.71 26.49-7.79L26.49-7.79L26.49-9.57L26.49-9.57Q26.49-9.64 26.54-9.70L26.54-9.70L26.54-9.70Q26.59-9.75 26.67-9.75L26.67-9.75L28.35-9.75L28.35-9.75Q28.42-9.75 28.48-9.70L28.48-9.70L28.48-9.70Q28.53-9.64 28.53-9.57L28.53-9.57L28.53-7.79L28.53-7.79Q28.53-7.71 28.60-7.71L28.60-7.71L30.04-7.71L30.04-7.71Q30.12-7.71 30.17-7.66L30.17-7.66L30.17-7.66Q30.22-7.60 30.22-7.53L30.22-7.53L30.22-6.19Z"/><path fill="#242530" transform="translate(30.15, 75.4)" d="M2.99 0.08L2.99 0.08Q2.21 0.08 1.63-0.17L1.63-0.17L1.63-0.17Q1.05-0.42 0.73-0.87L0.73-0.87L0.73-0.87Q0.42-1.32 0.42-1.93L0.42-1.93L0.42-2.18L0.42-2.18Q0.42-2.23 0.46-2.27L0.46-2.27L0.46-2.27Q0.49-2.30 0.54-2.30L0.54-2.30L1.43-2.30L1.43-2.30Q1.48-2.30 1.52-2.27L1.52-2.27L1.52-2.27Q1.55-2.23 1.55-2.18L1.55-2.18L1.55-1.99L1.55-1.99Q1.55-1.53 1.96-1.23L1.96-1.23L1.96-1.23Q2.37-0.92 3.08-0.92L3.08-0.92L3.08-0.92Q3.69-0.92 4-1.18L4-1.18L4-1.18Q4.31-1.44 4.31-1.85L4.31-1.85L4.31-1.85Q4.31-2.13 4.14-2.33L4.14-2.33L4.14-2.33Q3.97-2.52 3.66-2.68L3.66-2.68L3.66-2.68Q3.34-2.84 2.71-3.08L2.71-3.08L2.71-3.08Q2-3.34 1.56-3.57L1.56-3.57L1.56-3.57Q1.12-3.80 0.83-4.20L0.83-4.20L0.83-4.20Q0.53-4.59 0.53-5.18L0.53-5.18L0.53-5.18Q0.53-6.06 1.17-6.57L1.17-6.57L1.17-6.57Q1.81-7.08 2.88-7.08L2.88-7.08L2.88-7.08Q3.63-7.08 4.21-6.82L4.21-6.82L4.21-6.82Q4.78-6.56 5.10-6.09L5.10-6.09L5.10-6.09Q5.42-5.63 5.42-5.02L5.42-5.02L5.42-4.85L5.42-4.85Q5.42-4.80 5.38-4.76L5.38-4.76L5.38-4.76Q5.35-4.73 5.30-4.73L5.30-4.73L4.40-4.73L4.40-4.73Q4.35-4.73 4.32-4.76L4.32-4.76L4.32-4.76Q4.28-4.80 4.28-4.85L4.28-4.85L4.28-4.96L4.28-4.96Q4.28-5.43 3.90-5.75L3.90-5.75L3.90-5.75Q3.51-6.08 2.83-6.08L2.83-6.08L2.83-6.08Q2.28-6.08 1.98-5.85L1.98-5.85L1.98-5.85Q1.67-5.62 1.67-5.20L1.67-5.20L1.67-5.20Q1.67-4.90 1.83-4.71L1.83-4.71L1.83-4.71Q1.99-4.52 2.31-4.37L2.31-4.37L2.31-4.37Q2.63-4.21 3.30-3.97L3.30-3.97L3.30-3.97Q4.01-3.70 4.44-3.48L4.44-3.48L4.44-3.48Q4.86-3.26 5.17-2.87L5.17-2.87L5.17-2.87Q5.47-2.47 5.47-1.88L5.47-1.88L5.47-1.88Q5.47-0.98 4.80-0.45L4.80-0.45L4.80-0.45Q4.14 0.08 2.99 0.08L2.99 0.08ZM9.45-7.01L9.45-7.01Q10.08-7.01 10.56-6.75L10.56-6.75L10.56-6.75Q11.04-6.49 11.30-6.02L11.30-6.02L11.30-6.02Q11.57-5.54 11.57-4.92L11.57-4.92L11.57-4.92Q11.57-4.31 11.30-3.84L11.30-3.84L11.30-3.84Q11.03-3.37 10.54-3.12L10.54-3.12L10.54-3.12Q10.04-2.86 9.39-2.86L9.39-2.86L7.79-2.86L7.79-2.86Q7.74-2.86 7.74-2.81L7.74-2.81L7.74-0.12L7.74-0.12Q7.74-0.07 7.71-0.04L7.71-0.04L7.71-0.04Q7.67 0 7.62 0L7.62 0L6.70 0L6.70 0Q6.65 0 6.62-0.04L6.62-0.04L6.62-0.04Q6.58-0.07 6.58-0.12L6.58-0.12L6.58-6.89L6.58-6.89Q6.58-6.94 6.62-6.98L6.62-6.98L6.62-6.98Q6.65-7.01 6.70-7.01L6.70-7.01L9.45-7.01ZM9.28-3.80L9.28-3.80Q9.79-3.80 10.10-4.10L10.10-4.10L10.10-4.10Q10.41-4.40 10.41-4.89L10.41-4.89L10.41-4.89Q10.41-5.39 10.10-5.70L10.10-5.70L10.10-5.70Q9.79-6.01 9.28-6.01L9.28-6.01L7.79-6.01L7.79-6.01Q7.74-6.01 7.74-5.96L7.74-5.96L7.74-3.85L7.74-3.85Q7.74-3.80 7.79-3.80L7.79-3.80L9.28-3.80ZM16.52 0L16.52 0Q16.42 0 16.38-0.09L16.38-0.09L15.06-2.97L15.06-2.97Q15.04-3.01 15-3.01L15-3.01L13.80-3.01L13.80-3.01Q13.75-3.01 13.75-2.96L13.75-2.96L13.75-0.12L13.75-0.12Q13.75-0.07 13.71-0.04L13.71-0.04L13.71-0.04Q13.68 0 13.63 0L13.63 0L12.71 0L12.71 0Q12.66 0 12.63-0.04L12.63-0.04L12.63-0.04Q12.59-0.07 12.59-0.12L12.59-0.12L12.59-6.88L12.59-6.88Q12.59-6.93 12.63-6.96L12.63-6.96L12.63-6.96Q12.66-7 12.71-7L12.71-7L15.46-7L15.46-7Q16.07-7 16.54-6.75L16.54-6.75L16.54-6.75Q17.01-6.49 17.27-6.03L17.27-6.03L17.27-6.03Q17.53-5.56 17.53-4.96L17.53-4.96L17.53-4.96Q17.53-4.27 17.18-3.79L17.18-3.79L17.18-3.79Q16.82-3.30 16.19-3.11L16.19-3.11L16.19-3.11Q16.17-3.11 16.16-3.09L16.16-3.09L16.16-3.09Q16.15-3.07 16.16-3.05L16.16-3.05L17.57-0.14L17.57-0.14Q17.59-0.10 17.59-0.08L17.59-0.08L17.59-0.08Q17.59 0 17.48 0L17.48 0L16.52 0ZM13.80-6L13.80-6Q13.75-6 13.75-5.95L13.75-5.95L13.75-3.96L13.75-3.96Q13.75-3.91 13.80-3.91L13.80-3.91L15.30-3.91L15.30-3.91Q15.78-3.91 16.07-4.20L16.07-4.20L16.07-4.20Q16.37-4.48 16.37-4.95L16.37-4.95L16.37-4.95Q16.37-5.42 16.07-5.71L16.07-5.71L16.07-5.71Q15.78-6 15.30-6L15.30-6L13.80-6ZM18.84 0L18.84 0Q18.79 0 18.75-0.04L18.75-0.04L18.75-0.04Q18.72-0.07 18.72-0.12L18.72-0.12L18.72-6.88L18.72-6.88Q18.72-6.93 18.75-6.96L18.75-6.96L18.75-6.96Q18.79-7 18.84-7L18.84-7L19.76-7L19.76-7Q19.81-7 19.84-6.96L19.84-6.96L19.84-6.96Q19.88-6.93 19.88-6.88L19.88-6.88L19.88-0.12L19.88-0.12Q19.88-0.07 19.84-0.04L19.84-0.04L19.84-0.04Q19.81 0 19.76 0L19.76 0L18.84 0ZM25.41-6.88L25.41-6.88Q25.41-6.93 25.45-6.96L25.45-6.96L25.45-6.96Q25.48-7 25.53-7L25.53-7L26.45-7L26.45-7Q26.50-7 26.54-6.96L26.54-6.96L26.54-6.96Q26.57-6.93 26.57-6.88L26.57-6.88L26.57-0.12L26.57-0.12Q26.57-0.07 26.54-0.04L26.54-0.04L26.54-0.04Q26.50 0 26.45 0L26.45 0L25.56 0L25.56 0Q25.46 0 25.42-0.08L25.42-0.08L22.54-4.80L22.54-4.80Q22.52-4.83 22.50-4.83L22.50-4.83L22.50-4.83Q22.48-4.82 22.48-4.78L22.48-4.78L22.50-0.12L22.50-0.12Q22.50-0.07 22.46-0.04L22.46-0.04L22.46-0.04Q22.43 0 22.38 0L22.38 0L21.46 0L21.46 0Q21.41 0 21.38-0.04L21.38-0.04L21.38-0.04Q21.34-0.07 21.34-0.12L21.34-0.12L21.34-6.88L21.34-6.88Q21.34-6.93 21.38-6.96L21.38-6.96L21.38-6.96Q21.41-7 21.46-7L21.46-7L22.35-7L22.35-7Q22.45-7 22.49-6.92L22.49-6.92L25.36-2.20L25.36-2.20Q25.38-2.17 25.40-2.18L25.40-2.18L25.40-2.18Q25.42-2.18 25.42-2.22L25.42-2.22L25.41-6.88ZM30.37 0.08L30.37 0.08Q29.62 0.08 29.05-0.21L29.05-0.21L29.05-0.21Q28.48-0.51 28.17-1.05L28.17-1.05L28.17-1.05Q27.86-1.59 27.86-2.29L27.86-2.29L27.86-4.71L27.86-4.71Q27.86-5.42 28.17-5.96L28.17-5.96L28.17-5.96Q28.48-6.49 29.05-6.79L29.05-6.79L29.05-6.79Q29.62-7.08 30.37-7.08L30.37-7.08L30.37-7.08Q31.11-7.08 31.68-6.79L31.68-6.79L31.68-6.79Q32.24-6.50 32.55-6L32.55-6L32.55-6Q32.86-5.50 32.86-4.87L32.86-4.87L32.86-4.79L32.86-4.79Q32.86-4.74 32.83-4.71L32.83-4.71L32.83-4.71Q32.79-4.67 32.74-4.67L32.74-4.67L31.83-4.67L31.83-4.67Q31.78-4.67 31.75-4.71L31.75-4.71L31.75-4.71Q31.71-4.74 31.71-4.79L31.71-4.79L31.71-4.84L31.71-4.84Q31.71-5.38 31.34-5.73L31.34-5.73L31.34-5.73Q30.98-6.08 30.37-6.08L30.37-6.08L30.37-6.08Q29.76-6.08 29.39-5.71L29.39-5.71L29.39-5.71Q29.02-5.35 29.02-4.75L29.02-4.75L29.02-2.25L29.02-2.25Q29.02-1.65 29.41-1.28L29.41-1.28L29.41-1.28Q29.80-0.92 30.42-0.92L30.42-0.92L30.42-0.92Q31.02-0.92 31.37-1.24L31.37-1.24L31.37-1.24Q31.71-1.55 31.71-2.10L31.71-2.10L31.71-2.72L31.71-2.72Q31.71-2.77 31.66-2.77L31.66-2.77L30.43-2.77L30.43-2.77Q30.38-2.77 30.34-2.81L30.34-2.81L30.34-2.81Q30.31-2.84 30.31-2.89L30.31-2.89L30.31-3.63L30.31-3.63Q30.31-3.68 30.34-3.71L30.34-3.71L30.34-3.71Q30.38-3.75 30.43-3.75L30.43-3.75L32.74-3.75L32.74-3.75Q32.79-3.75 32.83-3.71L32.83-3.71L32.83-3.71Q32.86-3.68 32.86-3.63L32.86-3.63L32.86-2.35L32.86-2.35Q32.86-1.20 32.19-0.56L32.19-0.56L32.19-0.56Q31.51 0.08 30.37 0.08L30.37 0.08Z"/><path fill="#252530" transform="translate(32.04, 95.3)" d="M3.38-1.84L3.38-1.84Q3.35-1.81 3.36-1.78L3.36-1.78L3.36-1.78Q3.38-1.75 3.42-1.75L3.42-1.75L7.35-1.75L7.35-1.75Q7.42-1.75 7.47-1.70L7.47-1.70L7.47-1.70Q7.53-1.65 7.53-1.58L7.53-1.58L7.53-0.17L7.53-0.17Q7.53-0.10 7.47-0.05L7.47-0.05L7.47-0.05Q7.42 0 7.35 0L7.35 0L0.83 0L0.83 0Q0.75 0 0.70-0.05L0.70-0.05L0.70-0.05Q0.65-0.10 0.65-0.17L0.65-0.17L0.65-1.51L0.65-1.51Q0.65-1.64 0.74-1.73L0.74-1.73L0.74-1.73Q1.45-2.42 2.19-3.24L2.19-3.24L2.19-3.24Q2.93-4.06 3.12-4.26L3.12-4.26L3.12-4.26Q3.52-4.74 3.94-5.18L3.94-5.18L3.94-5.18Q5.26-6.64 5.26-7.35L5.26-7.35L5.26-7.35Q5.26-7.86 4.90-8.19L4.90-8.19L4.90-8.19Q4.54-8.51 3.96-8.51L3.96-8.51L3.96-8.51Q3.38-8.51 3.02-8.19L3.02-8.19L3.02-8.19Q2.65-7.86 2.65-7.32L2.65-7.32L2.65-6.96L2.65-6.96Q2.65-6.89 2.60-6.84L2.60-6.84L2.60-6.84Q2.55-6.79 2.48-6.79L2.48-6.79L0.77-6.79L0.77-6.79Q0.70-6.79 0.65-6.84L0.65-6.84L0.65-6.84Q0.59-6.89 0.59-6.96L0.59-6.96L0.59-7.64L0.59-7.64Q0.64-8.42 1.09-9.03L1.09-9.03L1.09-9.03Q1.54-9.63 2.28-9.95L2.28-9.95L2.28-9.95Q3.03-10.27 3.96-10.27L3.96-10.27L3.96-10.27Q4.99-10.27 5.75-9.88L5.75-9.88L5.75-9.88Q6.51-9.50 6.92-8.85L6.92-8.85L6.92-8.85Q7.34-8.19 7.34-7.40L7.34-7.40L7.34-7.40Q7.34-6.79 7.03-6.15L7.03-6.15L7.03-6.15Q6.73-5.51 6.12-4.77L6.12-4.77L6.12-4.77Q5.67-4.21 5.15-3.65L5.15-3.65L5.15-3.65Q4.63-3.10 3.60-2.06L3.60-2.06L3.38-1.84ZM12.24 0.16L12.24 0.16Q10.64 0.16 9.72-0.73L9.72-0.73L9.72-0.73Q8.79-1.62 8.79-3.16L8.79-3.16L8.79-6.99L8.79-6.99Q8.79-8.50 9.72-9.38L9.72-9.38L9.72-9.38Q10.64-10.27 12.24-10.27L12.24-10.27L12.24-10.27Q13.83-10.27 14.77-9.38L14.77-9.38L14.77-9.38Q15.70-8.50 15.70-6.99L15.70-6.99L15.70-3.16L15.70-3.16Q15.70-1.62 14.77-0.73L14.77-0.73L14.77-0.73Q13.83 0.16 12.24 0.16L12.24 0.16ZM12.24-1.59L12.24-1.59Q12.89-1.59 13.27-1.99L13.27-1.99L13.27-1.99Q13.66-2.39 13.66-3.06L13.66-3.06L13.66-7.05L13.66-7.05Q13.66-7.71 13.27-8.11L13.27-8.11L13.27-8.11Q12.89-8.51 12.24-8.51L12.24-8.51L12.24-8.51Q11.60-8.51 11.22-8.11L11.22-8.11L11.22-8.11Q10.83-7.71 10.83-7.05L10.83-7.05L10.83-3.06L10.83-3.06Q10.83-2.39 11.22-1.99L11.22-1.99L11.22-1.99Q11.60-1.59 12.24-1.59L12.24-1.59ZM19.76-1.84L19.76-1.84Q19.73-1.81 19.75-1.78L19.75-1.78L19.75-1.78Q19.76-1.75 19.81-1.75L19.81-1.75L23.74-1.75L23.74-1.75Q23.81-1.75 23.86-1.70L23.86-1.70L23.86-1.70Q23.91-1.65 23.91-1.58L23.91-1.58L23.91-0.17L23.91-0.17Q23.91-0.10 23.86-0.05L23.86-0.05L23.86-0.05Q23.81 0 23.74 0L23.74 0L17.21 0L17.21 0Q17.14 0 17.09-0.05L17.09-0.05L17.09-0.05Q17.04-0.10 17.04-0.17L17.04-0.17L17.04-1.51L17.04-1.51Q17.04-1.64 17.12-1.73L17.12-1.73L17.12-1.73Q17.84-2.42 18.57-3.24L18.57-3.24L18.57-3.24Q19.31-4.06 19.50-4.26L19.50-4.26L19.50-4.26Q19.91-4.74 20.33-5.18L20.33-5.18L20.33-5.18Q21.65-6.64 21.65-7.35L21.65-7.35L21.65-7.35Q21.65-7.86 21.29-8.19L21.29-8.19L21.29-8.19Q20.92-8.51 20.34-8.51L20.34-8.51L20.34-8.51Q19.76-8.51 19.40-8.19L19.40-8.19L19.40-8.19Q19.04-7.86 19.04-7.32L19.04-7.32L19.04-6.96L19.04-6.96Q19.04-6.89 18.99-6.84L18.99-6.84L18.99-6.84Q18.94-6.79 18.86-6.79L18.86-6.79L17.15-6.79L17.15-6.79Q17.08-6.79 17.03-6.84L17.03-6.84L17.03-6.84Q16.98-6.89 16.98-6.96L16.98-6.96L16.98-7.64L16.98-7.64Q17.02-8.42 17.47-9.03L17.47-9.03L17.47-9.03Q17.92-9.63 18.67-9.95L18.67-9.95L18.67-9.95Q19.42-10.27 20.34-10.27L20.34-10.27L20.34-10.27Q21.37-10.27 22.13-9.88L22.13-9.88L22.13-9.88Q22.90-9.50 23.31-8.85L23.31-8.85L23.31-8.85Q23.72-8.19 23.72-7.40L23.72-7.40L23.72-7.40Q23.72-6.79 23.42-6.15L23.42-6.15L23.42-6.15Q23.11-5.51 22.50-4.77L22.50-4.77L22.50-4.77Q22.05-4.21 21.53-3.65L21.53-3.65L21.53-3.65Q21.01-3.10 19.98-2.06L19.98-2.06L19.76-1.84ZM26.59-10.11L26.59-10.11Q26.67-10.15 26.81-10.15L26.81-10.15L28.57-10.15L28.57-10.15Q28.64-10.15 28.69-10.10L28.69-10.10L28.69-10.10Q28.74-10.05 28.74-9.98L28.74-9.98L28.74-0.17L28.74-0.17Q28.74-0.10 28.69-0.05L28.69-0.05L28.69-0.05Q28.64 0 28.57 0L28.57 0L26.87 0L26.87 0Q26.80 0 26.75-0.05L26.75-0.05L26.75-0.05Q26.69-0.10 26.69-0.17L26.69-0.17L26.69-8.12L26.69-8.12Q26.69-8.15 26.67-8.18L26.67-8.18L26.67-8.18Q26.64-8.21 26.61-8.19L26.61-8.19L25.17-7.80L25.11-7.79L25.11-7.79Q24.98-7.79 24.98-7.95L24.98-7.95L24.94-9.19L24.94-9.19Q24.94-9.34 25.07-9.40L25.07-9.40L26.59-10.11Z"/></g>
</svg>
