<svg xmlns="http://www.w3.org/2000/svg" xmlns:xlink="http://www.w3.org/1999/xlink" viewBox="0 0 94 122">
  <g id="container">
    <path fill="#fff" d="M8.1 89.9L47.6 110l38-20.1V11.3H8.1z"/>
    <path fill="#f2f3f2" d="M86.4 11.6L7.3 91.3l41 20.3 38.1-19.5z"/>
    <path d="M5.5 37.5v54.1l1.4.7 39.5 20.1 1.2.6 1.2-.6 38.1-20.1 1.4-.7V8.7H5.5v28.8zm2.6 52.6V11.3h77.6v78.8l-38.1 20.1L8.1 90.1z" fill="#dcdedc"/>
    <path id="logo" d="M46.9 12.6c.4 0 .8 0 1.2.1L46.9 15c-1.8-.1-3.4 1.3-3.5 3.1-.1 1.8 1.3 3.4 3.1 3.5h.4c.8 0 1.6-.3 2.2-.8l1.3 2.2c-1 .7-2.2 1.1-3.5 1.1-3.2.1-5.9-2.3-6-5.5-.1-3.2 2.3-5.9 5.5-6h.5zm4.1 4.9l1.5 2.5-1.5 2.4-1.4-2.4h-2.9l1.5-2.5H51zm-2.4-.9c0-.4.1-.8.3-1.1.2-.3.6-.6.9-.8l.2-.1c.4-.2.5-.3.5-.5s-.3-.4-.5-.4c-.4 0-.7.2-.9.6l-.5-.5c.1-.2.3-.4.5-.6.3-.2.6-.2.9-.2.3 0 .7.1.9.3.2.2.4.5.4.8 0 .5-.3.9-.9 1.1l-.3.2c-.3.2-.5.3-.6.6h1.8v.7l-2.7-.1zm-1.7 12.5l9.5-5.4v-15H37.3v14.9l9.6 5.5z" fill="#ff492c"/>
    <path id="banner" d="M90.2 64.5H3.6l-3.2 7 3.2 7h86.6l3.1-7z" fill="#2690ce"/>
  <path fill="#252530" transform="translate(9.95, 60)" d="M0.80 0L0.80 0Q0.75 0 0.71-0.04L0.71-0.04L0.71-0.04Q0.67-0.08 0.67-0.13L0.67-0.13L0.67-7.57L0.67-7.57Q0.67-7.62 0.71-7.66L0.71-7.66L0.71-7.66Q0.75-7.70 0.80-7.70L0.80-7.70L2.09-7.70L2.09-7.70Q2.15-7.70 2.18-7.66L2.18-7.66L2.18-7.66Q2.22-7.62 2.22-7.57L2.22-7.57L2.22-0.13L2.22-0.13Q2.22-0.08 2.18-0.04L2.18-0.04L2.18-0.04Q2.15 0 2.09 0L2.09 0L0.80 0ZM9.73-5.74L9.73-5.74Q10.59-5.74 11.08-5.22L11.08-5.22L11.08-5.22Q11.56-4.71 11.56-3.77L11.56-3.77L11.56-0.13L11.56-0.13Q11.56-0.08 11.52-0.04L11.52-0.04L11.52-0.04Q11.48 0 11.43 0L11.43 0L10.14 0L10.14 0Q10.09 0 10.05-0.04L10.05-0.04L10.05-0.04Q10.01-0.08 10.01-0.13L10.01-0.13L10.01-3.43L10.01-3.43Q10.01-3.88 9.78-4.15L9.78-4.15L9.78-4.15Q9.55-4.41 9.16-4.41L9.16-4.41L9.16-4.41Q8.78-4.41 8.54-4.15L8.54-4.15L8.54-4.15Q8.29-3.88 8.29-3.44L8.29-3.44L8.29-0.13L8.29-0.13Q8.29-0.08 8.26-0.04L8.26-0.04L8.26-0.04Q8.22 0 8.16 0L8.16 0L6.89 0L6.89 0Q6.83 0 6.79-0.04L6.79-0.04L6.79-0.04Q6.75-0.08 6.75-0.13L6.75-0.13L6.75-3.43L6.75-3.43Q6.75-3.87 6.51-4.14L6.51-4.14L6.51-4.14Q6.27-4.41 5.88-4.41L5.88-4.41L5.88-4.41Q5.53-4.41 5.30-4.20L5.30-4.20L5.30-4.20Q5.06-3.99 5.02-3.62L5.02-3.62L5.02-0.13L5.02-0.13Q5.02-0.08 4.98-0.04L4.98-0.04L4.98-0.04Q4.94 0 4.88 0L4.88 0L3.60 0L3.60 0Q3.54 0 3.50-0.04L3.50-0.04L3.50-0.04Q3.46-0.08 3.46-0.13L3.46-0.13L3.46-5.52L3.46-5.52Q3.46-5.58 3.50-5.62L3.50-5.62L3.50-5.62Q3.54-5.65 3.60-5.65L3.60-5.65L4.88-5.65L4.88-5.65Q4.94-5.65 4.98-5.62L4.98-5.62L4.98-5.62Q5.02-5.58 5.02-5.52L5.02-5.52L5.02-5.09L5.02-5.09Q5.02-5.06 5.04-5.05L5.04-5.05L5.04-5.05Q5.06-5.04 5.08-5.07L5.08-5.07L5.08-5.07Q5.53-5.74 6.48-5.74L6.48-5.74L6.48-5.74Q7.03-5.74 7.44-5.51L7.44-5.51L7.44-5.51Q7.85-5.28 8.07-4.85L8.07-4.85L8.07-4.85Q8.11-4.79 8.15-4.85L8.15-4.85L8.15-4.85Q8.39-5.30 8.81-5.52L8.81-5.52L8.81-5.52Q9.22-5.74 9.73-5.74L9.73-5.74ZM17.70-4.14L17.70-4.14Q17.90-3.57 17.90-2.82L17.90-2.82L17.90-2.82Q17.90-2.06 17.69-1.44L17.69-1.44L17.69-1.44Q17.43-0.74 16.89-0.32L16.89-0.32L16.89-0.32Q16.35 0.09 15.54 0.09L15.54 0.09L15.54 0.09Q14.75 0.09 14.31-0.46L14.31-0.46L14.31-0.46Q14.29-0.49 14.27-0.48L14.27-0.48L14.27-0.48Q14.24-0.47 14.24-0.44L14.24-0.44L14.24 1.91L14.24 1.91Q14.24 1.97 14.21 2.01L14.21 2.01L14.21 2.01Q14.17 2.05 14.11 2.05L14.11 2.05L12.83 2.05L12.83 2.05Q12.77 2.05 12.73 2.01L12.73 2.01L12.73 2.01Q12.69 1.97 12.69 1.91L12.69 1.91L12.69-5.52L12.69-5.52Q12.69-5.58 12.73-5.62L12.73-5.62L12.73-5.62Q12.77-5.65 12.83-5.65L12.83-5.65L14.11-5.65L14.11-5.65Q14.17-5.65 14.21-5.62L14.21-5.62L14.21-5.62Q14.24-5.58 14.24-5.52L14.24-5.52L14.24-5.16L14.24-5.16Q14.24-5.13 14.27-5.12L14.27-5.12L14.27-5.12Q14.29-5.11 14.31-5.14L14.31-5.14L14.31-5.14Q14.77-5.74 15.59-5.74L15.59-5.74L15.59-5.74Q16.35-5.74 16.90-5.32L16.90-5.32L16.90-5.32Q17.46-4.89 17.70-4.14L17.70-4.14ZM16.02-1.67L16.02-1.67Q16.29-2.10 16.29-2.84L16.29-2.84L16.29-2.84Q16.29-3.53 16.06-3.94L16.06-3.94L16.06-3.94Q15.81-4.41 15.25-4.41L15.25-4.41L15.25-4.41Q14.74-4.41 14.49-3.94L14.49-3.94L14.49-3.94Q14.26-3.54 14.26-2.83L14.26-2.83L14.26-2.83Q14.26-2.09 14.50-1.68L14.50-1.68L14.50-1.68Q14.75-1.24 15.25-1.24L15.25-1.24L15.25-1.24Q15.74-1.24 16.02-1.67L16.02-1.67ZM19.03 0L19.03 0Q18.98 0 18.94-0.04L18.94-0.04L18.94-0.04Q18.90-0.08 18.90-0.13L18.90-0.13L18.90-7.57L18.90-7.57Q18.90-7.62 18.94-7.66L18.94-7.66L18.94-7.66Q18.98-7.70 19.03-7.70L19.03-7.70L20.32-7.70L20.32-7.70Q20.37-7.70 20.41-7.66L20.41-7.66L20.41-7.66Q20.45-7.62 20.45-7.57L20.45-7.57L20.45-0.13L20.45-0.13Q20.45-0.08 20.41-0.04L20.41-0.04L20.41-0.04Q20.37 0 20.32 0L20.32 0L19.03 0ZM26.59-3.41L26.59-3.41Q26.65-2.99 26.63-2.47L26.63-2.47L26.63-2.47Q26.62-2.34 26.49-2.34L26.49-2.34L23.09-2.34L23.09-2.34Q23.02-2.34 23.05-2.29L23.05-2.29L23.05-2.29Q23.08-2.07 23.17-1.85L23.17-1.85L23.17-1.85Q23.45-1.23 24.33-1.23L24.33-1.23L24.33-1.23Q25.04-1.24 25.44-1.80L25.44-1.80L25.44-1.80Q25.49-1.87 25.54-1.87L25.54-1.87L25.54-1.87Q25.58-1.87 25.62-1.83L25.62-1.83L26.41-1.04L26.41-1.04Q26.47-0.99 26.47-0.95L26.47-0.95L26.47-0.95Q26.47-0.92 26.42-0.86L26.42-0.86L26.42-0.86Q26.06-0.41 25.49-0.16L25.49-0.16L25.49-0.16Q24.92 0.09 24.23 0.09L24.23 0.09L24.23 0.09Q23.29 0.09 22.63-0.34L22.63-0.34L22.63-0.34Q21.98-0.77 21.69-1.54L21.69-1.54L21.69-1.54Q21.46-2.09 21.46-2.98L21.46-2.98L21.46-2.98Q21.46-3.59 21.63-4.05L21.63-4.05L21.63-4.05Q21.88-4.83 22.51-5.29L22.51-5.29L22.51-5.29Q23.14-5.75 24.01-5.75L24.01-5.75L24.01-5.75Q25.11-5.75 25.78-5.11L25.78-5.11L25.78-5.11Q26.44-4.48 26.59-3.41L26.59-3.41ZM24.02-4.41L24.02-4.41Q23.33-4.41 23.11-3.76L23.11-3.76L23.11-3.76Q23.07-3.62 23.03-3.41L23.03-3.41L23.03-3.41Q23.03-3.35 23.09-3.35L23.09-3.35L24.99-3.35L24.99-3.35Q25.06-3.35 25.04-3.41L25.04-3.41L25.04-3.41Q24.98-3.73 24.98-3.72L24.98-3.72L24.98-3.72Q24.88-4.05 24.63-4.23L24.63-4.23L24.63-4.23Q24.39-4.41 24.02-4.41L24.02-4.41ZM33.86-5.74L33.86-5.74Q34.72-5.74 35.20-5.22L35.20-5.22L35.20-5.22Q35.68-4.71 35.68-3.77L35.68-3.77L35.68-0.13L35.68-0.13Q35.68-0.08 35.65-0.04L35.65-0.04L35.65-0.04Q35.61 0 35.55 0L35.55 0L34.27 0L34.27 0Q34.21 0 34.17-0.04L34.17-0.04L34.17-0.04Q34.13-0.08 34.13-0.13L34.13-0.13L34.13-3.43L34.13-3.43Q34.13-3.88 33.90-4.15L33.90-4.15L33.90-4.15Q33.67-4.41 33.29-4.41L33.29-4.41L33.29-4.41Q32.90-4.41 32.66-4.15L32.66-4.15L32.66-4.15Q32.42-3.88 32.42-3.44L32.42-3.44L32.42-0.13L32.42-0.13Q32.42-0.08 32.38-0.04L32.38-0.04L32.38-0.04Q32.34 0 32.29 0L32.29 0L31.01 0L31.01 0Q30.95 0 30.92-0.04L30.92-0.04L30.92-0.04Q30.88-0.08 30.88-0.13L30.88-0.13L30.88-3.43L30.88-3.43Q30.88-3.87 30.64-4.14L30.64-4.14L30.64-4.14Q30.39-4.41 30.01-4.41L30.01-4.41L30.01-4.41Q29.66-4.41 29.42-4.20L29.42-4.20L29.42-4.20Q29.18-3.99 29.14-3.62L29.14-3.62L29.14-0.13L29.14-0.13Q29.14-0.08 29.10-0.04L29.10-0.04L29.10-0.04Q29.06 0 29.01 0L29.01 0L27.72 0L27.72 0Q27.67 0 27.63-0.04L27.63-0.04L27.63-0.04Q27.59-0.08 27.59-0.13L27.59-0.13L27.59-5.52L27.59-5.52Q27.59-5.58 27.63-5.62L27.63-5.62L27.63-5.62Q27.67-5.65 27.72-5.65L27.72-5.65L29.01-5.65L29.01-5.65Q29.06-5.65 29.10-5.62L29.10-5.62L29.10-5.62Q29.14-5.58 29.14-5.52L29.14-5.52L29.14-5.09L29.14-5.09Q29.14-5.06 29.16-5.05L29.16-5.05L29.16-5.05Q29.18-5.04 29.21-5.07L29.21-5.07L29.21-5.07Q29.66-5.74 30.60-5.74L30.60-5.74L30.60-5.74Q31.15-5.74 31.56-5.51L31.56-5.51L31.56-5.51Q31.98-5.28 32.20-4.85L32.20-4.85L32.20-4.85Q32.23-4.79 32.27-4.85L32.27-4.85L32.27-4.85Q32.52-5.30 32.93-5.52L32.93-5.52L32.93-5.52Q33.34-5.74 33.86-5.74L33.86-5.74ZM41.78-3.41L41.78-3.41Q41.84-2.99 41.82-2.47L41.82-2.47L41.82-2.47Q41.81-2.34 41.68-2.34L41.68-2.34L38.28-2.34L38.28-2.34Q38.21-2.34 38.24-2.29L38.24-2.29L38.24-2.29Q38.27-2.07 38.36-1.85L38.36-1.85L38.36-1.85Q38.64-1.23 39.52-1.23L39.52-1.23L39.52-1.23Q40.23-1.24 40.63-1.80L40.63-1.80L40.63-1.80Q40.68-1.87 40.73-1.87L40.73-1.87L40.73-1.87Q40.77-1.87 40.81-1.83L40.81-1.83L41.60-1.04L41.60-1.04Q41.66-0.99 41.66-0.95L41.66-0.95L41.66-0.95Q41.66-0.92 41.61-0.86L41.61-0.86L41.61-0.86Q41.25-0.41 40.68-0.16L40.68-0.16L40.68-0.16Q40.11 0.09 39.42 0.09L39.42 0.09L39.42 0.09Q38.48 0.09 37.82-0.34L37.82-0.34L37.82-0.34Q37.17-0.77 36.88-1.54L36.88-1.54L36.88-1.54Q36.65-2.09 36.65-2.98L36.65-2.98L36.65-2.98Q36.65-3.59 36.82-4.05L36.82-4.05L36.82-4.05Q37.07-4.83 37.70-5.29L37.70-5.29L37.70-5.29Q38.34-5.75 39.20-5.75L39.20-5.75L39.20-5.75Q40.30-5.75 40.97-5.11L40.97-5.11L40.97-5.11Q41.63-4.48 41.78-3.41L41.78-3.41ZM39.22-4.41L39.22-4.41Q38.52-4.41 38.30-3.76L38.30-3.76L38.30-3.76Q38.26-3.62 38.23-3.41L38.23-3.41L38.23-3.41Q38.23-3.35 38.28-3.35L38.28-3.35L40.18-3.35L40.18-3.35Q40.25-3.35 40.23-3.41L40.23-3.41L40.23-3.41Q40.17-3.73 40.17-3.72L40.17-3.72L40.17-3.72Q40.07-4.05 39.83-4.23L39.83-4.23L39.83-4.23Q39.58-4.41 39.22-4.41L39.22-4.41ZM45.73-5.74L45.73-5.74Q46.61-5.74 47.15-5.20L47.15-5.20L47.15-5.20Q47.69-4.66 47.69-3.74L47.69-3.74L47.69-0.13L47.69-0.13Q47.69-0.08 47.65-0.04L47.65-0.04L47.65-0.04Q47.61 0 47.55 0L47.55 0L46.27 0L46.27 0Q46.21 0 46.17-0.04L46.17-0.04L46.17-0.04Q46.13-0.08 46.13-0.13L46.13-0.13L46.13-3.42L46.13-3.42Q46.13-3.86 45.89-4.14L45.89-4.14L45.89-4.14Q45.64-4.41 45.23-4.41L45.23-4.41L45.23-4.41Q44.83-4.41 44.58-4.14L44.58-4.14L44.58-4.14Q44.33-3.86 44.33-3.42L44.33-3.42L44.33-0.13L44.33-0.13Q44.33-0.08 44.29-0.04L44.29-0.04L44.29-0.04Q44.25 0 44.20 0L44.20 0L42.91 0L42.91 0Q42.86 0 42.82-0.04L42.82-0.04L42.82-0.04Q42.78-0.08 42.78-0.13L42.78-0.13L42.78-5.52L42.78-5.52Q42.78-5.58 42.82-5.62L42.82-5.62L42.82-5.62Q42.86-5.65 42.91-5.65L42.91-5.65L44.20-5.65L44.20-5.65Q44.25-5.65 44.29-5.62L44.29-5.62L44.29-5.62Q44.33-5.58 44.33-5.52L44.33-5.52L44.33-5.14L44.33-5.14Q44.33-5.10 44.35-5.09L44.35-5.09L44.35-5.09Q44.37-5.08 44.38-5.10L44.38-5.10L44.38-5.10Q44.84-5.74 45.73-5.74L45.73-5.74ZM52.04-4.54L52.04-4.54Q52.04-4.49 52.00-4.45L52.00-4.45L52.00-4.45Q51.96-4.41 51.91-4.41L51.91-4.41L50.85-4.41L50.85-4.41Q50.80-4.41 50.80-4.36L50.80-4.36L50.80-2.02L50.80-2.02Q50.80-1.66 50.95-1.48L50.95-1.48L50.95-1.48Q51.10-1.31 51.43-1.31L51.43-1.31L51.79-1.31L51.79-1.31Q51.84-1.31 51.88-1.27L51.88-1.27L51.88-1.27Q51.92-1.23 51.92-1.18L51.92-1.18L51.92-0.13L51.92-0.13Q51.92-0.01 51.79 0.01L51.79 0.01L51.79 0.01Q51.33 0.03 51.13 0.03L51.13 0.03L51.13 0.03Q50.22 0.03 49.76-0.27L49.76-0.27L49.76-0.27Q49.31-0.57 49.30-1.41L49.30-1.41L49.30-4.36L49.30-4.36Q49.30-4.41 49.25-4.41L49.25-4.41L48.62-4.41L48.62-4.41Q48.57-4.41 48.53-4.45L48.53-4.45L48.53-4.45Q48.49-4.49 48.49-4.54L48.49-4.54L48.49-5.52L48.49-5.52Q48.49-5.58 48.53-5.62L48.53-5.62L48.53-5.62Q48.57-5.65 48.62-5.65L48.62-5.65L49.25-5.65L49.25-5.65Q49.30-5.65 49.30-5.71L49.30-5.71L49.30-7.02L49.30-7.02Q49.30-7.07 49.34-7.11L49.34-7.11L49.34-7.11Q49.38-7.15 49.43-7.15L49.43-7.15L50.67-7.15L50.67-7.15Q50.72-7.15 50.76-7.11L50.76-7.11L50.76-7.11Q50.80-7.07 50.80-7.02L50.80-7.02L50.80-5.71L50.80-5.71Q50.80-5.65 50.85-5.65L50.85-5.65L51.91-5.65L51.91-5.65Q51.96-5.65 52.00-5.62L52.00-5.62L52.00-5.62Q52.04-5.58 52.04-5.52L52.04-5.52L52.04-4.54ZM55.23-5.74L55.23-5.74Q55.95-5.74 56.51-5.49L56.51-5.49L56.51-5.49Q57.07-5.25 57.38-4.82L57.38-4.82L57.38-4.82Q57.70-4.39 57.70-3.86L57.70-3.86L57.70-0.13L57.70-0.13Q57.70-0.08 57.66-0.04L57.66-0.04L57.66-0.04Q57.62 0 57.56 0L57.56 0L56.28 0L56.28 0Q56.22 0 56.18-0.04L56.18-0.04L56.18-0.04Q56.14-0.08 56.14-0.13L56.14-0.13L56.14-0.49L56.14-0.49Q56.14-0.53 56.12-0.54L56.12-0.54L56.12-0.54Q56.10-0.55 56.08-0.52L56.08-0.52L56.08-0.52Q55.62 0.09 54.59 0.09L54.59 0.09L54.59 0.09Q53.74 0.09 53.21-0.33L53.21-0.33L53.21-0.33Q52.68-0.75 52.68-1.56L52.68-1.56L52.68-1.56Q52.68-2.41 53.27-2.88L53.27-2.88L53.27-2.88Q53.87-3.34 54.97-3.34L54.97-3.34L56.09-3.34L56.09-3.34Q56.14-3.34 56.14-3.40L56.14-3.40L56.14-3.64L56.14-3.64Q56.14-4.00 55.92-4.21L55.92-4.21L55.92-4.21Q55.70-4.41 55.26-4.41L55.26-4.41L55.26-4.41Q54.92-4.41 54.70-4.29L54.70-4.29L54.70-4.29Q54.47-4.17 54.41-3.95L54.41-3.95L54.41-3.95Q54.37-3.83 54.26-3.84L54.26-3.84L52.93-4.01L52.93-4.01Q52.80-4.04 52.81-4.11L52.81-4.11L52.81-4.11Q52.86-4.58 53.18-4.95L53.18-4.95L53.18-4.95Q53.50-5.32 54.04-5.53L54.04-5.53L54.04-5.53Q54.57-5.74 55.23-5.74L55.23-5.74ZM55.01-1.07L55.01-1.07Q55.48-1.07 55.81-1.32L55.81-1.32L55.81-1.32Q56.14-1.57 56.14-1.97L56.14-1.97L56.14-2.36L56.14-2.36Q56.14-2.42 56.09-2.42L56.09-2.42L55.30-2.42L55.30-2.42Q54.80-2.42 54.52-2.23L54.52-2.23L54.52-2.23Q54.24-2.05 54.24-1.70L54.24-1.70L54.24-1.70Q54.24-1.41 54.45-1.24L54.45-1.24L54.45-1.24Q54.66-1.07 55.01-1.07L55.01-1.07ZM63.79-4.21L63.79-4.21Q64.00-3.64 64.00-2.85L64.00-2.85L64.00-2.85Q64.00-2.09 63.81-1.52L63.81-1.52L63.81-1.52Q63.56-0.77 63.00-0.34L63.00-0.34L63.00-0.34Q62.45 0.09 61.69 0.09L61.69 0.09L61.69 0.09Q60.89 0.09 60.42-0.52L60.42-0.52L60.42-0.52Q60.40-0.54 60.38-0.53L60.38-0.53L60.38-0.53Q60.36-0.53 60.36-0.49L60.36-0.49L60.36-0.13L60.36-0.13Q60.36-0.08 60.32-0.04L60.32-0.04L60.32-0.04Q60.28 0 60.23 0L60.23 0L58.94 0L58.94 0Q58.88 0 58.84-0.04L58.84-0.04L58.84-0.04Q58.81-0.08 58.81-0.13L58.81-0.13L58.81-7.57L58.81-7.57Q58.81-7.62 58.84-7.66L58.84-7.66L58.84-7.66Q58.88-7.70 58.94-7.70L58.94-7.70L60.23-7.70L60.23-7.70Q60.28-7.70 60.32-7.66L60.32-7.66L60.32-7.66Q60.36-7.62 60.36-7.57L60.36-7.57L60.36-5.21L60.36-5.21Q60.36-5.18 60.38-5.17L60.38-5.17L60.38-5.17Q60.40-5.16 60.42-5.19L60.42-5.19L60.42-5.19Q60.85-5.74 61.64-5.74L61.64-5.74L61.64-5.74Q62.45-5.74 62.99-5.33L62.99-5.33L62.99-5.33Q63.54-4.92 63.79-4.21L63.79-4.21ZM62.16-1.72L62.16-1.72Q62.39-2.13 62.39-2.82L62.39-2.82L62.39-2.82Q62.39-3.57 62.13-3.98L62.13-3.98L62.13-3.98Q61.86-4.41 61.35-4.41L61.35-4.41L61.35-4.41Q60.86-4.41 60.61-3.98L60.61-3.98L60.61-3.98Q60.37-3.56 60.37-2.83L60.37-2.83L60.37-2.83Q60.37-2.09 60.59-1.72L60.59-1.72L60.59-1.72Q60.85-1.24 61.36-1.24L61.36-1.24L61.36-1.24Q61.90-1.24 62.16-1.72L62.16-1.72ZM65.14 0L65.14 0Q65.09 0 65.05-0.04L65.05-0.04L65.05-0.04Q65.01-0.08 65.01-0.13L65.01-0.13L65.01-7.57L65.01-7.57Q65.01-7.62 65.05-7.66L65.05-7.66L65.05-7.66Q65.09-7.70 65.14-7.70L65.14-7.70L66.43-7.70L66.43-7.70Q66.48-7.70 66.52-7.66L66.52-7.66L66.52-7.66Q66.56-7.62 66.56-7.57L66.56-7.57L66.56-0.13L66.56-0.13Q66.56-0.08 66.52-0.04L66.52-0.04L66.52-0.04Q66.48 0 66.43 0L66.43 0L65.14 0ZM72.70-3.41L72.70-3.41Q72.77-2.99 72.74-2.47L72.74-2.47L72.74-2.47Q72.73-2.34 72.60-2.34L72.60-2.34L69.20-2.34L69.20-2.34Q69.14-2.34 69.16-2.29L69.16-2.29L69.16-2.29Q69.19-2.07 69.28-1.85L69.28-1.85L69.28-1.85Q69.56-1.23 70.44-1.23L70.44-1.23L70.44-1.23Q71.15-1.24 71.56-1.80L71.56-1.80L71.56-1.80Q71.60-1.87 71.65-1.87L71.65-1.87L71.65-1.87Q71.69-1.87 71.73-1.83L71.73-1.83L72.52-1.04L72.52-1.04Q72.58-0.99 72.58-0.95L72.58-0.95L72.58-0.95Q72.58-0.92 72.53-0.86L72.53-0.86L72.53-0.86Q72.17-0.41 71.60-0.16L71.60-0.16L71.60-0.16Q71.03 0.09 70.34 0.09L70.34 0.09L70.34 0.09Q69.40 0.09 68.74-0.34L68.74-0.34L68.74-0.34Q68.09-0.77 67.80-1.54L67.80-1.54L67.80-1.54Q67.57-2.09 67.57-2.98L67.57-2.98L67.57-2.98Q67.57-3.59 67.74-4.05L67.74-4.05L67.74-4.05Q67.99-4.83 68.62-5.29L68.62-5.29L68.62-5.29Q69.26-5.75 70.13-5.75L70.13-5.75L70.13-5.75Q71.22-5.75 71.89-5.11L71.89-5.11L71.89-5.11Q72.56-4.48 72.70-3.41L72.70-3.41ZM70.14-4.41L70.14-4.41Q69.44-4.41 69.22-3.76L69.22-3.76L69.22-3.76Q69.18-3.62 69.15-3.41L69.15-3.41L69.15-3.41Q69.15-3.35 69.20-3.35L69.20-3.35L71.10-3.35L71.10-3.35Q71.17-3.35 71.15-3.41L71.15-3.41L71.15-3.41Q71.09-3.73 71.09-3.72L71.09-3.72L71.09-3.72Q70.99-4.05 70.75-4.23L70.75-4.23L70.75-4.23Q70.50-4.41 70.14-4.41L70.14-4.41Z"/><path fill="#252530" transform="translate(34.66, 49)" d="M5.62-7.61L5.62-7.61Q5.68-7.70 5.77-7.70L5.77-7.70L7.06-7.70L7.06-7.70Q7.12-7.70 7.16-7.66L7.16-7.66L7.16-7.66Q7.19-7.62 7.19-7.57L7.19-7.57L7.19-0.13L7.19-0.13Q7.19-0.08 7.16-0.04L7.16-0.04L7.16-0.04Q7.12 0 7.06 0L7.06 0L5.77 0L5.77 0Q5.72 0 5.68-0.04L5.68-0.04L5.68-0.04Q5.64-0.08 5.64-0.13L5.64-0.13L5.64-4.98L5.64-4.98Q5.64-5.03 5.62-5.03L5.62-5.03L5.62-5.03Q5.60-5.03 5.58-4.99L5.58-4.99L4.41-3.17L4.41-3.17Q4.36-3.08 4.26-3.08L4.26-3.08L3.61-3.08L3.61-3.08Q3.51-3.08 3.45-3.17L3.45-3.17L2.29-4.99L2.29-4.99Q2.27-5.03 2.24-5.02L2.24-5.02L2.24-5.02Q2.22-5.02 2.22-4.97L2.22-4.97L2.22-0.13L2.22-0.13Q2.22-0.08 2.18-0.04L2.18-0.04L2.18-0.04Q2.15 0 2.09 0L2.09 0L0.80 0L0.80 0Q0.75 0 0.71-0.04L0.71-0.04L0.71-0.04Q0.67-0.08 0.67-0.13L0.67-0.13L0.67-7.57L0.67-7.57Q0.67-7.62 0.71-7.66L0.71-7.66L0.71-7.66Q0.75-7.70 0.80-7.70L0.80-7.70L2.09-7.70L2.09-7.70Q2.19-7.70 2.24-7.61L2.24-7.61L3.89-5.05L3.89-5.05Q3.93-4.98 3.96-5.05L3.96-5.05L5.62-7.61ZM10.93 0.09L10.93 0.09Q10.01 0.09 9.35-0.40L9.35-0.40L9.35-0.40Q8.69-0.88 8.45-1.72L8.45-1.72L8.45-1.72Q8.29-2.23 8.29-2.84L8.29-2.84L8.29-2.84Q8.29-3.49 8.45-4.00L8.45-4.00L8.45-4.00Q8.70-4.82 9.36-5.28L9.36-5.28L9.36-5.28Q10.02-5.74 10.94-5.74L10.94-5.74L10.94-5.74Q11.85-5.74 12.48-5.29L12.48-5.29L12.48-5.29Q13.12-4.83 13.39-4.01L13.39-4.01L13.39-4.01Q13.56-3.46 13.56-2.86L13.56-2.86L13.56-2.86Q13.56-2.27 13.41-1.75L13.41-1.75L13.41-1.75Q13.17-0.89 12.51-0.40L12.51-0.40L12.51-0.40Q11.86 0.09 10.93 0.09L10.93 0.09ZM10.93-1.24L10.93-1.24Q11.30-1.24 11.55-1.46L11.55-1.46L11.55-1.46Q11.80-1.68 11.91-2.07L11.91-2.07L11.91-2.07Q12.00-2.42 12.00-2.84L12.00-2.84L12.00-2.84Q12.00-3.30 11.91-3.62L11.91-3.62L11.91-3.62Q11.79-3.99 11.54-4.20L11.54-4.20L11.54-4.20Q11.29-4.41 10.92-4.41L10.92-4.41L10.92-4.41Q10.55-4.41 10.30-4.20L10.30-4.20L10.30-4.20Q10.05-3.99 9.94-3.62L9.94-3.62L9.94-3.62Q9.86-3.35 9.86-2.84L9.86-2.84L9.86-2.84Q9.86-2.34 9.93-2.07L9.93-2.07L9.93-2.07Q10.04-1.68 10.30-1.46L10.30-1.46L10.30-1.46Q10.56-1.24 10.93-1.24L10.93-1.24ZM16.82 0.08L16.82 0.08Q16.08 0.08 15.53-0.13L15.53-0.13L15.53-0.13Q14.98-0.34 14.68-0.71L14.68-0.71L14.68-0.71Q14.38-1.09 14.38-1.56L14.38-1.56L14.38-1.67L14.38-1.67Q14.38-1.73 14.42-1.77L14.42-1.77L14.42-1.77Q14.45-1.80 14.51-1.80L14.51-1.80L15.73-1.80L15.73-1.80Q15.78-1.80 15.82-1.77L15.82-1.77L15.82-1.77Q15.86-1.73 15.86-1.67L15.86-1.67L15.86-1.66L15.86-1.66Q15.86-1.42 16.13-1.25L16.13-1.25L16.13-1.25Q16.40-1.08 16.81-1.08L16.81-1.08L16.81-1.08Q17.18-1.08 17.41-1.23L17.41-1.23L17.41-1.23Q17.64-1.38 17.64-1.59L17.64-1.59L17.64-1.59Q17.64-1.79 17.45-1.89L17.45-1.89L17.45-1.89Q17.25-1.99 16.80-2.10L16.80-2.10L16.80-2.10Q16.28-2.23 15.98-2.35L15.98-2.35L15.98-2.35Q15.28-2.60 14.86-2.95L14.86-2.95L14.86-2.95Q14.44-3.30 14.44-3.96L14.44-3.96L14.44-3.96Q14.44-4.77 15.08-5.25L15.08-5.25L15.08-5.25Q15.71-5.73 16.75-5.73L16.75-5.73L16.75-5.73Q17.46-5.73 17.98-5.51L17.98-5.51L17.98-5.51Q18.51-5.28 18.80-4.87L18.80-4.87L18.80-4.87Q19.10-4.47 19.10-3.95L19.10-3.95L19.10-3.95Q19.10-3.89 19.06-3.86L19.06-3.86L19.06-3.86Q19.02-3.82 18.96-3.82L18.96-3.82L17.79-3.82L17.79-3.82Q17.73-3.82 17.69-3.86L17.69-3.86L17.69-3.86Q17.65-3.89 17.65-3.95L17.65-3.95L17.65-3.95Q17.65-4.19 17.41-4.36L17.41-4.36L17.41-4.36Q17.16-4.52 16.75-4.52L16.75-4.52L16.75-4.52Q16.39-4.52 16.16-4.39L16.16-4.39L16.16-4.39Q15.93-4.26 15.93-4.03L15.93-4.03L15.93-4.03Q15.93-3.81 16.15-3.70L16.15-3.70L16.15-3.70Q16.38-3.59 16.91-3.46L16.91-3.46L16.91-3.46Q17.03-3.43 17.18-3.39L17.18-3.39L17.18-3.39Q17.34-3.35 17.51-3.30L17.51-3.30L17.51-3.30Q18.29-3.07 18.74-2.71L18.74-2.71L18.74-2.71Q19.20-2.34 19.20-1.65L19.20-1.65L19.20-1.65Q19.20-0.84 18.55-0.38L18.55-0.38L18.55-0.38Q17.91 0.08 16.82 0.08L16.82 0.08ZM23.33-4.54L23.33-4.54Q23.33-4.49 23.29-4.45L23.29-4.45L23.29-4.45Q23.25-4.41 23.20-4.41L23.20-4.41L22.14-4.41L22.14-4.41Q22.09-4.41 22.09-4.36L22.09-4.36L22.09-2.02L22.09-2.02Q22.09-1.66 22.24-1.48L22.24-1.48L22.24-1.48Q22.38-1.31 22.71-1.31L22.71-1.31L23.08-1.31L23.08-1.31Q23.13-1.31 23.17-1.27L23.17-1.27L23.17-1.27Q23.21-1.23 23.21-1.18L23.21-1.18L23.21-0.13L23.21-0.13Q23.21-0.01 23.08 0.01L23.08 0.01L23.08 0.01Q22.62 0.03 22.42 0.03L22.42 0.03L22.42 0.03Q21.50 0.03 21.05-0.27L21.05-0.27L21.05-0.27Q20.60-0.57 20.59-1.41L20.59-1.41L20.59-4.36L20.59-4.36Q20.59-4.41 20.54-4.41L20.54-4.41L19.91-4.41L19.91-4.41Q19.86-4.41 19.82-4.45L19.82-4.45L19.82-4.45Q19.78-4.49 19.78-4.54L19.78-4.54L19.78-5.52L19.78-5.52Q19.78-5.58 19.82-5.62L19.82-5.62L19.82-5.62Q19.86-5.65 19.91-5.65L19.91-5.65L20.54-5.65L20.54-5.65Q20.59-5.65 20.59-5.71L20.59-5.71L20.59-7.02L20.59-7.02Q20.59-7.07 20.63-7.11L20.63-7.11L20.63-7.11Q20.67-7.15 20.72-7.15L20.72-7.15L21.96-7.15L21.96-7.15Q22.01-7.15 22.05-7.11L22.05-7.11L22.05-7.11Q22.09-7.07 22.09-7.02L22.09-7.02L22.09-5.71L22.09-5.71Q22.09-5.65 22.14-5.65L22.14-5.65L23.20-5.65L23.20-5.65Q23.25-5.65 23.29-5.62L23.29-5.62L23.29-5.62Q23.33-5.58 23.33-5.52L23.33-5.52L23.33-4.54Z"/><path fill="#fff" transform="translate(13.75, 75.4)" d="M2.99 0.08L2.99 0.08Q2.21 0.08 1.63-0.17L1.63-0.17L1.63-0.17Q1.05-0.42 0.73-0.87L0.73-0.87L0.73-0.87Q0.42-1.32 0.42-1.93L0.42-1.93L0.42-2.18L0.42-2.18Q0.42-2.23 0.46-2.27L0.46-2.27L0.46-2.27Q0.49-2.30 0.54-2.30L0.54-2.30L1.43-2.30L1.43-2.30Q1.48-2.30 1.52-2.27L1.52-2.27L1.52-2.27Q1.55-2.23 1.55-2.18L1.55-2.18L1.55-1.99L1.55-1.99Q1.55-1.53 1.96-1.23L1.96-1.23L1.96-1.23Q2.37-0.92 3.08-0.92L3.08-0.92L3.08-0.92Q3.69-0.92 4-1.18L4-1.18L4-1.18Q4.31-1.44 4.31-1.85L4.31-1.85L4.31-1.85Q4.31-2.13 4.14-2.33L4.14-2.33L4.14-2.33Q3.97-2.52 3.66-2.68L3.66-2.68L3.66-2.68Q3.34-2.84 2.71-3.08L2.71-3.08L2.71-3.08Q2-3.34 1.56-3.57L1.56-3.57L1.56-3.57Q1.12-3.80 0.83-4.20L0.83-4.20L0.83-4.20Q0.53-4.59 0.53-5.18L0.53-5.18L0.53-5.18Q0.53-6.06 1.17-6.57L1.17-6.57L1.17-6.57Q1.81-7.08 2.88-7.08L2.88-7.08L2.88-7.08Q3.63-7.08 4.21-6.82L4.21-6.82L4.21-6.82Q4.78-6.56 5.10-6.09L5.10-6.09L5.10-6.09Q5.42-5.63 5.42-5.02L5.42-5.02L5.42-4.85L5.42-4.85Q5.42-4.80 5.38-4.76L5.38-4.76L5.38-4.76Q5.35-4.73 5.30-4.73L5.30-4.73L4.40-4.73L4.40-4.73Q4.35-4.73 4.32-4.76L4.32-4.76L4.32-4.76Q4.28-4.80 4.28-4.85L4.28-4.85L4.28-4.96L4.28-4.96Q4.28-5.43 3.90-5.75L3.90-5.75L3.90-5.75Q3.51-6.08 2.83-6.08L2.83-6.08L2.83-6.08Q2.28-6.08 1.98-5.85L1.98-5.85L1.98-5.85Q1.67-5.62 1.67-5.20L1.67-5.20L1.67-5.20Q1.67-4.90 1.83-4.71L1.83-4.71L1.83-4.71Q1.99-4.52 2.31-4.37L2.31-4.37L2.31-4.37Q2.63-4.21 3.30-3.97L3.30-3.97L3.30-3.97Q4.01-3.70 4.44-3.48L4.44-3.48L4.44-3.48Q4.86-3.26 5.17-2.87L5.17-2.87L5.17-2.87Q5.47-2.47 5.47-1.88L5.47-1.88L5.47-1.88Q5.47-0.98 4.80-0.45L4.80-0.45L4.80-0.45Q4.14 0.08 2.99 0.08L2.99 0.08ZM12-5.19L12-5.19Q12.77-5.19 13.21-4.73L13.21-4.73L13.21-4.73Q13.64-4.26 13.64-3.43L13.64-3.43L13.64-0.12L13.64-0.12Q13.64-0.07 13.61-0.04L13.61-0.04L13.61-0.04Q13.57 0 13.52 0L13.52 0L12.61 0L12.61 0Q12.56 0 12.53-0.04L12.53-0.04L12.53-0.04Q12.49-0.07 12.49-0.12L12.49-0.12L12.49-3.19L12.49-3.19Q12.49-3.65 12.25-3.92L12.25-3.92L12.25-3.92Q12-4.19 11.59-4.19L11.59-4.19L11.59-4.19Q11.18-4.19 10.92-3.92L10.92-3.92L10.92-3.92Q10.66-3.65 10.66-3.20L10.66-3.20L10.66-0.12L10.66-0.12Q10.66-0.07 10.63-0.04L10.63-0.04L10.63-0.04Q10.59 0 10.54 0L10.54 0L9.63 0L9.63 0Q9.58 0 9.54-0.04L9.54-0.04L9.54-0.04Q9.51-0.07 9.51-0.12L9.51-0.12L9.51-3.19L9.51-3.19Q9.51-3.65 9.26-3.92L9.26-3.92L9.26-3.92Q9.01-4.19 8.60-4.19L8.60-4.19L8.60-4.19Q8.22-4.19 7.97-3.97L7.97-3.97L7.97-3.97Q7.73-3.75 7.69-3.37L7.69-3.37L7.69-0.12L7.69-0.12Q7.69-0.07 7.66-0.04L7.66-0.04L7.66-0.04Q7.62 0 7.57 0L7.57 0L6.65 0L6.65 0Q6.60 0 6.57-0.04L6.57-0.04L6.57-0.04Q6.53-0.07 6.53-0.12L6.53-0.12L6.53-4.99L6.53-4.99Q6.53-5.04 6.57-5.08L6.57-5.08L6.57-5.08Q6.60-5.11 6.65-5.11L6.65-5.11L7.57-5.11L7.57-5.11Q7.62-5.11 7.66-5.08L7.66-5.08L7.66-5.08Q7.69-5.04 7.69-4.99L7.69-4.99L7.69-4.66L7.69-4.66Q7.69-4.63 7.71-4.62L7.71-4.62L7.71-4.62Q7.73-4.61 7.75-4.64L7.75-4.64L7.75-4.64Q7.97-4.92 8.29-5.05L8.29-5.05L8.29-5.05Q8.62-5.19 9.02-5.19L9.02-5.19L9.02-5.19Q9.51-5.19 9.88-4.99L9.88-4.99L9.88-4.99Q10.25-4.79 10.45-4.41L10.45-4.41L10.45-4.41Q10.48-4.37 10.52-4.41L10.52-4.41L10.52-4.41Q10.74-4.81 11.13-5L11.13-5L11.13-5Q11.52-5.19 12-5.19L12-5.19ZM16.77-5.19L16.77-5.19Q17.40-5.19 17.88-4.97L17.88-4.97L17.88-4.97Q18.36-4.75 18.62-4.37L18.62-4.37L18.62-4.37Q18.88-3.98 18.88-3.49L18.88-3.49L18.88-0.12L18.88-0.12Q18.88-0.07 18.85-0.04L18.85-0.04L18.85-0.04Q18.81 0 18.76 0L18.76 0L17.84 0L17.84 0Q17.79 0 17.76-0.04L17.76-0.04L17.76-0.04Q17.72-0.07 17.72-0.12L17.72-0.12L17.72-0.44L17.72-0.44Q17.72-0.47 17.70-0.48L17.70-0.48L17.70-0.48Q17.68-0.48 17.66-0.46L17.66-0.46L17.66-0.46Q17.17 0.08 16.24 0.08L16.24 0.08L16.24 0.08Q15.49 0.08 15.01-0.30L15.01-0.30L15.01-0.30Q14.52-0.68 14.52-1.43L14.52-1.43L14.52-1.43Q14.52-2.21 15.07-2.65L15.07-2.65L15.07-2.65Q15.61-3.08 16.60-3.08L16.60-3.08L17.67-3.08L17.67-3.08Q17.72-3.08 17.72-3.13L17.72-3.13L17.72-3.37L17.72-3.37Q17.72-3.76 17.49-3.98L17.49-3.98L17.49-3.98Q17.26-4.19 16.80-4.19L16.80-4.19L16.80-4.19Q16.42-4.19 16.19-4.05L16.19-4.05L16.19-4.05Q15.95-3.92 15.89-3.68L15.89-3.68L15.89-3.68Q15.86-3.56 15.75-3.58L15.75-3.58L14.78-3.70L14.78-3.70Q14.73-3.71 14.70-3.73L14.70-3.73L14.70-3.73Q14.66-3.76 14.67-3.80L14.67-3.80L14.67-3.80Q14.75-4.41 15.33-4.80L15.33-4.80L15.33-4.80Q15.90-5.19 16.77-5.19L16.77-5.19ZM16.53-0.84L16.53-0.84Q17.02-0.84 17.37-1.10L17.37-1.10L17.37-1.10Q17.72-1.36 17.72-1.76L17.72-1.76L17.72-2.23L17.72-2.23Q17.72-2.28 17.67-2.28L17.67-2.28L16.83-2.28L16.83-2.28Q16.30-2.28 16.00-2.08L16.00-2.08L16.00-2.08Q15.69-1.88 15.69-1.51L15.69-1.51L15.69-1.51Q15.69-1.19 15.93-1.02L15.93-1.02L15.93-1.02Q16.16-0.84 16.53-0.84L16.53-0.84ZM20.16 0L20.16 0Q20.11 0 20.08-0.04L20.08-0.04L20.08-0.04Q20.04-0.07 20.04-0.12L20.04-0.12L20.04-6.88L20.04-6.88Q20.04-6.93 20.08-6.96L20.08-6.96L20.08-6.96Q20.11-7 20.16-7L20.16-7L21.08-7L21.08-7Q21.13-7 21.17-6.96L21.17-6.96L21.17-6.96Q21.20-6.93 21.20-6.88L21.20-6.88L21.20-0.12L21.20-0.12Q21.20-0.07 21.17-0.04L21.17-0.04L21.17-0.04Q21.13 0 21.08 0L21.08 0L20.16 0ZM22.55 0L22.55 0Q22.50 0 22.47-0.04L22.47-0.04L22.47-0.04Q22.43-0.07 22.43-0.12L22.43-0.12L22.43-6.88L22.43-6.88Q22.43-6.93 22.47-6.96L22.47-6.96L22.47-6.96Q22.50-7 22.55-7L22.55-7L23.47-7L23.47-7Q23.52-7 23.56-6.96L23.56-6.96L23.56-6.96Q23.59-6.93 23.59-6.88L23.59-6.88L23.59-0.12L23.59-0.12Q23.59-0.07 23.56-0.04L23.56-0.04L23.56-0.04Q23.52 0 23.47 0L23.47 0L22.55 0ZM30.84-3.65L30.84-3.65Q30.78-3.62 30.84-3.59L30.84-3.59L30.84-3.59Q31.86-3.11 31.86-1.94L31.86-1.94L31.86-1.94Q31.86-0.99 31.23-0.49L31.23-0.49L31.23-0.49Q30.59 0 29.57 0L29.57 0L27.05 0L27.05 0Q27.00 0 26.97-0.04L26.97-0.04L26.97-0.04Q26.93-0.07 26.93-0.12L26.93-0.12L26.93-6.88L26.93-6.88Q26.93-6.93 26.97-6.96L26.97-6.96L26.97-6.96Q27.00-7 27.05-7L27.05-7L29.49-7L29.49-7Q30.58-7 31.17-6.53L31.17-6.53L31.17-6.53Q31.76-6.06 31.76-5.11L31.76-5.11L31.76-5.11Q31.76-4.06 30.84-3.65L30.84-3.65ZM28.14-6L28.14-6Q28.09-6 28.09-5.95L28.09-5.95L28.09-4.10L28.09-4.10Q28.09-4.05 28.14-4.05L28.14-4.05L29.49-4.05L29.49-4.05Q30.02-4.05 30.33-4.30L30.33-4.30L30.33-4.30Q30.63-4.56 30.63-5.01L30.63-5.01L30.63-5.01Q30.63-5.47 30.33-5.74L30.33-5.74L30.33-5.74Q30.02-6 29.49-6L29.49-6L28.14-6ZM29.57-1.01L29.57-1.01Q30.09-1.01 30.40-1.29L30.40-1.29L30.40-1.29Q30.70-1.57 30.70-2.05L30.70-2.05L30.70-2.05Q30.70-2.54 30.39-2.81L30.39-2.81L30.39-2.81Q30.08-3.09 29.55-3.09L29.55-3.09L28.14-3.09L28.14-3.09Q28.09-3.09 28.09-3.04L28.09-3.04L28.09-1.06L28.09-1.06Q28.09-1.01 28.14-1.01L28.14-1.01L29.57-1.01ZM36.06-4.99L36.06-4.99Q36.06-5.04 36.09-5.08L36.09-5.08L36.09-5.08Q36.13-5.11 36.18-5.11L36.18-5.11L37.09-5.11L37.09-5.11Q37.14-5.11 37.18-5.08L37.18-5.08L37.18-5.08Q37.21-5.04 37.21-4.99L37.21-4.99L37.21-0.12L37.21-0.12Q37.21-0.07 37.18-0.04L37.18-0.04L37.18-0.04Q37.14 0 37.09 0L37.09 0L36.18 0L36.18 0Q36.13 0 36.09-0.04L36.09-0.04L36.09-0.04Q36.06-0.07 36.06-0.12L36.06-0.12L36.06-0.44L36.06-0.44Q36.06-0.47 36.04-0.48L36.04-0.48L36.04-0.48Q36.02-0.49 36-0.46L36-0.46L36-0.46Q35.59 0.07 34.77 0.07L34.77 0.07L34.77 0.07Q34.01 0.07 33.50-0.37L33.50-0.37L33.50-0.37Q32.98-0.81 32.98-1.62L32.98-1.62L32.98-4.99L32.98-4.99Q32.98-5.04 33.02-5.08L33.02-5.08L33.02-5.08Q33.05-5.11 33.10-5.11L33.10-5.11L34.02-5.11L34.02-5.11Q34.07-5.11 34.11-5.08L34.11-5.08L34.11-5.08Q34.14-5.04 34.14-4.99L34.14-4.99L34.14-1.95L34.14-1.95Q34.14-1.48 34.39-1.20L34.39-1.20L34.39-1.20Q34.63-0.92 35.07-0.92L35.07-0.92L35.07-0.92Q35.52-0.92 35.79-1.20L35.79-1.20L35.79-1.20Q36.06-1.48 36.06-1.95L36.06-1.95L36.06-4.99ZM40.35 0.06L40.35 0.06Q39.72 0.06 39.24-0.13L39.24-0.13L39.24-0.13Q38.77-0.31 38.51-0.64L38.51-0.64L38.51-0.64Q38.25-0.96 38.25-1.36L38.25-1.36L38.25-1.45L38.25-1.45Q38.25-1.50 38.28-1.54L38.28-1.54L38.28-1.54Q38.32-1.57 38.37-1.57L38.37-1.57L39.25-1.57L39.25-1.57Q39.30-1.57 39.34-1.54L39.34-1.54L39.34-1.54Q39.37-1.50 39.37-1.45L39.37-1.45L39.37-1.43L39.37-1.43Q39.37-1.18 39.64-0.99L39.64-0.99L39.64-0.99Q39.92-0.81 40.34-0.81L40.34-0.81L40.34-0.81Q40.74-0.81 40.99-0.97L40.99-0.97L40.99-0.97Q41.24-1.14 41.24-1.39L41.24-1.39L41.24-1.39Q41.24-1.62 41.03-1.74L41.03-1.74L41.03-1.74Q40.83-1.85 40.37-1.98L40.37-1.98L39.99-2.10L39.99-2.10Q39.48-2.25 39.13-2.42L39.13-2.42L39.13-2.42Q38.78-2.59 38.54-2.89L38.54-2.89L38.54-2.89Q38.30-3.18 38.30-3.64L38.30-3.64L38.30-3.64Q38.30-4.34 38.85-4.75L38.85-4.75L38.85-4.75Q39.40-5.17 40.30-5.17L40.30-5.17L40.30-5.17Q40.91-5.17 41.37-4.98L41.37-4.98L41.37-4.98Q41.83-4.78 42.08-4.44L42.08-4.44L42.08-4.44Q42.33-4.09 42.33-3.65L42.33-3.65L42.33-3.65Q42.33-3.60 42.30-3.56L42.30-3.56L42.30-3.56Q42.26-3.53 42.21-3.53L42.21-3.53L41.36-3.53L41.36-3.53Q41.31-3.53 41.27-3.56L41.27-3.56L41.27-3.56Q41.24-3.60 41.24-3.65L41.24-3.65L41.24-3.65Q41.24-3.91 40.98-4.08L40.98-4.08L40.98-4.08Q40.73-4.26 40.29-4.26L40.29-4.26L40.29-4.26Q39.90-4.26 39.66-4.12L39.66-4.12L39.66-4.12Q39.41-3.97 39.41-3.71L39.41-3.71L39.41-3.71Q39.41-3.47 39.64-3.35L39.64-3.35L39.64-3.35Q39.88-3.22 40.43-3.07L40.43-3.07L40.65-3.01L40.65-3.01Q41.18-2.85 41.54-2.69L41.54-2.69L41.54-2.69Q41.90-2.52 42.15-2.23L42.15-2.23L42.15-2.23Q42.40-1.93 42.40-1.46L42.40-1.46L42.40-1.46Q42.40-0.75 41.84-0.35L41.84-0.35L41.84-0.35Q41.28 0.06 40.35 0.06L40.35 0.06ZM44.04-5.81L44.04-5.81Q43.73-5.81 43.53-6.01L43.53-6.01L43.53-6.01Q43.33-6.21 43.33-6.52L43.33-6.52L43.33-6.52Q43.33-6.83 43.53-7.03L43.53-7.03L43.53-7.03Q43.73-7.23 44.04-7.23L44.04-7.23L44.04-7.23Q44.35-7.23 44.55-7.03L44.55-7.03L44.55-7.03Q44.75-6.83 44.75-6.52L44.75-6.52L44.75-6.52Q44.75-6.21 44.55-6.01L44.55-6.01L44.55-6.01Q44.35-5.81 44.04-5.81L44.04-5.81ZM43.56 0L43.56 0Q43.51 0 43.48-0.04L43.48-0.04L43.48-0.04Q43.44-0.07 43.44-0.12L43.44-0.12L43.44-5L43.44-5Q43.44-5.05 43.48-5.08L43.48-5.08L43.48-5.08Q43.51-5.12 43.56-5.12L43.56-5.12L44.48-5.12L44.48-5.12Q44.53-5.12 44.56-5.08L44.56-5.08L44.56-5.08Q44.60-5.05 44.60-5L44.60-5L44.60-0.12L44.60-0.12Q44.60-0.07 44.56-0.04L44.56-0.04L44.56-0.04Q44.53 0 44.48 0L44.48 0L43.56 0ZM48.38-5.19L48.38-5.19Q49.19-5.19 49.67-4.71L49.67-4.71L49.67-4.71Q50.16-4.23 50.16-3.40L50.16-3.40L50.16-0.12L50.16-0.12Q50.16-0.07 50.12-0.04L50.12-0.04L50.12-0.04Q50.09 0 50.04 0L50.04 0L49.12 0L49.12 0Q49.07 0 49.03-0.04L49.03-0.04L49.03-0.04Q49.00-0.07 49.00-0.12L49.00-0.12L49.00-3.16L49.00-3.16Q49.00-3.62 48.74-3.91L48.74-3.91L48.74-3.91Q48.48-4.19 48.05-4.19L48.05-4.19L48.05-4.19Q47.62-4.19 47.35-3.91L47.35-3.91L47.35-3.91Q47.09-3.63 47.09-3.17L47.09-3.17L47.09-0.12L47.09-0.12Q47.09-0.07 47.05-0.04L47.05-0.04L47.05-0.04Q47.02 0 46.97 0L46.97 0L46.05 0L46.05 0Q46.00 0 45.96-0.04L45.96-0.04L45.96-0.04Q45.93-0.07 45.93-0.12L45.93-0.12L45.93-4.99L45.93-4.99Q45.93-5.04 45.96-5.08L45.96-5.08L45.96-5.08Q46.00-5.11 46.05-5.11L46.05-5.11L46.97-5.11L46.97-5.11Q47.02-5.11 47.05-5.08L47.05-5.08L47.05-5.08Q47.09-5.04 47.09-4.99L47.09-4.99L47.09-4.67L47.09-4.67Q47.09-4.64 47.11-4.63L47.11-4.63L47.11-4.63Q47.13-4.62 47.14-4.65L47.14-4.65L47.14-4.65Q47.55-5.19 48.38-5.19L48.38-5.19ZM55.68-3.13L55.68-3.13Q55.72-2.88 55.72-2.57L55.72-2.57L55.71-2.26L55.71-2.26Q55.71-2.14 55.59-2.14L55.59-2.14L52.46-2.14L52.46-2.14Q52.41-2.14 52.41-2.09L52.41-2.09L52.41-2.09Q52.44-1.76 52.50-1.64L52.50-1.64L52.50-1.64Q52.74-0.92 53.67-0.91L53.67-0.91L53.67-0.91Q54.35-0.91 54.75-1.47L54.75-1.47L54.75-1.47Q54.79-1.53 54.85-1.53L54.85-1.53L54.85-1.53Q54.89-1.53 54.92-1.50L54.92-1.50L55.54-0.99L55.54-0.99Q55.63-0.92 55.57-0.83L55.57-0.83L55.57-0.83Q55.26-0.39 54.74-0.15L54.74-0.15L54.74-0.15Q54.23 0.09 53.60 0.09L53.60 0.09L53.60 0.09Q52.82 0.09 52.27-0.26L52.27-0.26L52.27-0.26Q51.73-0.61 51.48-1.24L51.48-1.24L51.48-1.24Q51.25-1.78 51.25-2.74L51.25-2.74L51.25-2.74Q51.25-3.32 51.37-3.68L51.37-3.68L51.37-3.68Q51.57-4.38 52.12-4.79L52.12-4.79L52.12-4.79Q52.68-5.19 53.46-5.19L53.46-5.19L53.46-5.19Q55.43-5.19 55.68-3.13L55.68-3.13ZM53.46-4.19L53.46-4.19Q53.09-4.19 52.84-4.00L52.84-4.00L52.84-4.00Q52.60-3.82 52.50-3.49L52.50-3.49L52.50-3.49Q52.44-3.32 52.42-3.05L52.42-3.05L52.42-3.05Q52.40-3 52.46-3L52.46-3L54.49-3L54.49-3Q54.54-3 54.54-3.05L54.54-3.05L54.54-3.05Q54.52-3.30 54.48-3.43L54.48-3.43L54.48-3.43Q54.39-3.79 54.12-3.99L54.12-3.99L54.12-3.99Q53.86-4.19 53.46-4.19L53.46-4.19ZM58.68 0.06L58.68 0.06Q58.05 0.06 57.57-0.13L57.57-0.13L57.57-0.13Q57.10-0.31 56.84-0.64L56.84-0.64L56.84-0.64Q56.58-0.96 56.58-1.36L56.58-1.36L56.58-1.45L56.58-1.45Q56.58-1.50 56.61-1.54L56.61-1.54L56.61-1.54Q56.65-1.57 56.70-1.57L56.70-1.57L57.58-1.57L57.58-1.57Q57.63-1.57 57.66-1.54L57.66-1.54L57.66-1.54Q57.70-1.50 57.70-1.45L57.70-1.45L57.70-1.43L57.70-1.43Q57.70-1.18 57.97-0.99L57.97-0.99L57.97-0.99Q58.25-0.81 58.67-0.81L58.67-0.81L58.67-0.81Q59.07-0.81 59.32-0.97L59.32-0.97L59.32-0.97Q59.57-1.14 59.57-1.39L59.57-1.39L59.57-1.39Q59.57-1.62 59.36-1.74L59.36-1.74L59.36-1.74Q59.16-1.85 58.70-1.98L58.70-1.98L58.32-2.10L58.32-2.10Q57.81-2.25 57.46-2.42L57.46-2.42L57.46-2.42Q57.11-2.59 56.87-2.89L56.87-2.89L56.87-2.89Q56.63-3.18 56.63-3.64L56.63-3.64L56.63-3.64Q56.63-4.34 57.18-4.75L57.18-4.75L57.18-4.75Q57.73-5.17 58.63-5.17L58.63-5.17L58.63-5.17Q59.24-5.17 59.70-4.98L59.70-4.98L59.70-4.98Q60.16-4.78 60.41-4.44L60.41-4.44L60.41-4.44Q60.66-4.09 60.66-3.65L60.66-3.65L60.66-3.65Q60.66-3.60 60.63-3.56L60.63-3.56L60.63-3.56Q60.59-3.53 60.54-3.53L60.54-3.53L59.69-3.53L59.69-3.53Q59.64-3.53 59.60-3.56L59.60-3.56L59.60-3.56Q59.57-3.60 59.57-3.65L59.57-3.65L59.57-3.65Q59.57-3.91 59.31-4.08L59.31-4.08L59.31-4.08Q59.06-4.26 58.62-4.26L58.62-4.26L58.62-4.26Q58.23-4.26 57.98-4.12L57.98-4.12L57.98-4.12Q57.74-3.97 57.74-3.71L57.74-3.71L57.74-3.71Q57.74-3.47 57.97-3.35L57.97-3.35L57.97-3.35Q58.21-3.22 58.76-3.07L58.76-3.07L58.98-3.01L58.98-3.01Q59.51-2.85 59.87-2.69L59.87-2.69L59.87-2.69Q60.23-2.52 60.48-2.23L60.48-2.23L60.48-2.23Q60.73-1.93 60.73-1.46L60.73-1.46L60.73-1.46Q60.73-0.75 60.17-0.35L60.17-0.35L60.17-0.35Q59.61 0.06 58.68 0.06L58.68 0.06ZM63.61 0.06L63.61 0.06Q62.98 0.06 62.50-0.13L62.50-0.13L62.50-0.13Q62.03-0.31 61.77-0.64L61.77-0.64L61.77-0.64Q61.51-0.96 61.51-1.36L61.51-1.36L61.51-1.45L61.51-1.45Q61.51-1.50 61.54-1.54L61.54-1.54L61.54-1.54Q61.58-1.57 61.63-1.57L61.63-1.57L62.51-1.57L62.51-1.57Q62.56-1.57 62.59-1.54L62.59-1.54L62.59-1.54Q62.63-1.50 62.63-1.45L62.63-1.45L62.63-1.43L62.63-1.43Q62.63-1.18 62.90-0.99L62.90-0.99L62.90-0.99Q63.18-0.81 63.60-0.81L63.60-0.81L63.60-0.81Q64-0.81 64.25-0.97L64.25-0.97L64.25-0.97Q64.50-1.14 64.50-1.39L64.50-1.39L64.50-1.39Q64.50-1.62 64.30-1.74L64.30-1.74L64.30-1.74Q64.09-1.85 63.63-1.98L63.63-1.98L63.25-2.10L63.25-2.10Q62.74-2.25 62.39-2.42L62.39-2.42L62.39-2.42Q62.04-2.59 61.80-2.89L61.80-2.89L61.80-2.89Q61.56-3.18 61.56-3.64L61.56-3.64L61.56-3.64Q61.56-4.34 62.11-4.75L62.11-4.75L62.11-4.75Q62.66-5.17 63.56-5.17L63.56-5.17L63.56-5.17Q64.17-5.17 64.63-4.98L64.63-4.98L64.63-4.98Q65.09-4.78 65.34-4.44L65.34-4.44L65.34-4.44Q65.59-4.09 65.59-3.65L65.59-3.65L65.59-3.65Q65.59-3.60 65.55-3.56L65.55-3.56L65.55-3.56Q65.52-3.53 65.47-3.53L65.47-3.53L64.62-3.53L64.62-3.53Q64.57-3.53 64.53-3.56L64.53-3.56L64.53-3.56Q64.50-3.60 64.50-3.65L64.50-3.65L64.50-3.65Q64.50-3.91 64.24-4.08L64.24-4.08L64.24-4.08Q63.99-4.26 63.55-4.26L63.55-4.26L63.55-4.26Q63.16-4.26 62.91-4.12L62.91-4.12L62.91-4.12Q62.67-3.97 62.67-3.71L62.67-3.71L62.67-3.71Q62.67-3.47 62.90-3.35L62.90-3.35L62.90-3.35Q63.14-3.22 63.69-3.07L63.69-3.07L63.91-3.01L63.91-3.01Q64.44-2.85 64.80-2.69L64.80-2.69L64.80-2.69Q65.16-2.52 65.41-2.23L65.41-2.23L65.41-2.23Q65.66-1.93 65.66-1.46L65.66-1.46L65.66-1.46Q65.66-0.75 65.10-0.35L65.10-0.35L65.10-0.35Q64.54 0.06 63.61 0.06L63.61 0.06Z"/><path fill="#252530" transform="translate(30.14, 89.5)" d="M3.01 0.08L3.01 0.08Q2.21 0.08 1.61-0.18L1.61-0.18L1.61-0.18Q1.01-0.43 0.69-0.91L0.69-0.91L0.69-0.91Q0.36-1.38 0.36-2.01L0.36-2.01L0.36-2.23L0.36-2.23Q0.36-2.28 0.40-2.31L0.40-2.31L0.40-2.31Q0.43-2.35 0.48-2.35L0.48-2.35L1.62-2.35L1.62-2.35Q1.67-2.35 1.71-2.31L1.71-2.31L1.71-2.31Q1.74-2.28 1.74-2.23L1.74-2.23L1.74-2.08L1.74-2.08Q1.74-1.68 2.11-1.41L2.11-1.41L2.11-1.41Q2.48-1.13 3.11-1.13L3.11-1.13L3.11-1.13Q3.64-1.13 3.90-1.35L3.90-1.35L3.90-1.35Q4.16-1.58 4.16-1.91L4.16-1.91L4.16-1.91Q4.16-2.15 4-2.31L4-2.31L4-2.31Q3.84-2.48 3.56-2.60L3.56-2.60L3.56-2.60Q3.29-2.73 2.69-2.95L2.69-2.95L2.69-2.95Q2.02-3.18 1.55-3.42L1.55-3.42L1.55-3.42Q1.09-3.66 0.78-4.08L0.78-4.08L0.78-4.08Q0.46-4.49 0.46-5.10L0.46-5.10L0.46-5.10Q0.46-5.70 0.77-6.15L0.77-6.15L0.77-6.15Q1.08-6.60 1.63-6.84L1.63-6.84L1.63-6.84Q2.18-7.08 2.90-7.08L2.90-7.08L2.90-7.08Q3.66-7.08 4.25-6.81L4.25-6.81L4.25-6.81Q4.85-6.54 5.19-6.05L5.19-6.05L5.19-6.05Q5.52-5.57 5.52-4.93L5.52-4.93L5.52-4.78L5.52-4.78Q5.52-4.73 5.49-4.70L5.49-4.70L5.49-4.70Q5.45-4.66 5.40-4.66L5.40-4.66L4.25-4.66L4.25-4.66Q4.20-4.66 4.17-4.70L4.17-4.70L4.17-4.70Q4.13-4.73 4.13-4.78L4.13-4.78L4.13-4.86L4.13-4.86Q4.13-5.28 3.79-5.58L3.79-5.58L3.79-5.58Q3.44-5.87 2.84-5.87L2.84-5.87L2.84-5.87Q2.37-5.87 2.10-5.67L2.10-5.67L2.10-5.67Q1.84-5.47 1.84-5.12L1.84-5.12L1.84-5.12Q1.84-4.87 2.00-4.70L2.00-4.70L2.00-4.70Q2.15-4.53 2.46-4.40L2.46-4.40L2.46-4.40Q2.76-4.26 3.40-4.03L3.40-4.03L3.40-4.03Q4.11-3.77 4.51-3.57L4.51-3.57L4.51-3.57Q4.92-3.37 5.25-2.98L5.25-2.98L5.25-2.98Q5.57-2.58 5.57-1.95L5.57-1.95L5.57-1.95Q5.57-1.01 4.88-0.47L4.88-0.47L4.88-0.47Q4.19 0.08 3.01 0.08L3.01 0.08ZM9.45-7.01L9.45-7.01Q10.11-7.01 10.61-6.74L10.61-6.74L10.61-6.74Q11.11-6.47 11.39-5.98L11.39-5.98L11.39-5.98Q11.66-5.48 11.66-4.84L11.66-4.84L11.66-4.84Q11.66-4.21 11.38-3.73L11.38-3.73L11.38-3.73Q11.09-3.25 10.57-2.98L10.57-2.98L10.57-2.98Q10.06-2.72 9.39-2.72L9.39-2.72L7.97-2.72L7.97-2.72Q7.92-2.72 7.92-2.67L7.92-2.67L7.92-0.12L7.92-0.12Q7.92-0.07 7.88-0.04L7.88-0.04L7.88-0.04Q7.85 0 7.80 0L7.80 0L6.63 0L6.63 0Q6.58 0 6.54-0.04L6.54-0.04L6.54-0.04Q6.51-0.07 6.51-0.12L6.51-0.12L6.51-6.89L6.51-6.89Q6.51-6.94 6.54-6.98L6.54-6.98L6.54-6.98Q6.58-7.01 6.63-7.01L6.63-7.01L9.45-7.01ZM9.24-3.85L9.24-3.85Q9.70-3.85 9.98-4.12L9.98-4.12L9.98-4.12Q10.26-4.38 10.26-4.81L10.26-4.81L10.26-4.81Q10.26-5.25 9.98-5.52L9.98-5.52L9.98-5.52Q9.70-5.79 9.24-5.79L9.24-5.79L7.97-5.79L7.97-5.79Q7.92-5.79 7.92-5.74L7.92-5.74L7.92-3.90L7.92-3.90Q7.92-3.85 7.97-3.85L7.97-3.85L9.24-3.85ZM16.37 0L16.37 0Q16.27 0 16.23-0.09L16.23-0.09L14.98-2.86L14.98-2.86Q14.96-2.90 14.92-2.90L14.92-2.90L13.99-2.90L13.99-2.90Q13.94-2.90 13.94-2.85L13.94-2.85L13.94-0.12L13.94-0.12Q13.94-0.07 13.90-0.04L13.90-0.04L13.90-0.04Q13.87 0 13.82 0L13.82 0L12.65 0L12.65 0Q12.60 0 12.56-0.04L12.56-0.04L12.56-0.04Q12.53-0.07 12.53-0.12L12.53-0.12L12.53-6.88L12.53-6.88Q12.53-6.93 12.56-6.96L12.56-6.96L12.56-6.96Q12.60-7 12.65-7L12.65-7L15.51-7L15.51-7Q16.15-7 16.63-6.74L16.63-6.74L16.63-6.74Q17.12-6.48 17.38-6L17.38-6L17.38-6Q17.65-5.52 17.65-4.89L17.65-4.89L17.65-4.89Q17.65-4.21 17.31-3.73L17.31-3.73L17.31-3.73Q16.97-3.24 16.36-3.04L16.36-3.04L16.36-3.04Q16.31-3.02 16.33-2.97L16.33-2.97L17.69-0.14L17.69-0.14Q17.71-0.10 17.71-0.08L17.71-0.08L17.71-0.08Q17.71 0 17.60 0L17.60 0L16.37 0ZM13.99-5.79L13.99-5.79Q13.94-5.79 13.94-5.74L13.94-5.74L13.94-4.03L13.94-4.03Q13.94-3.98 13.99-3.98L13.99-3.98L15.30-3.98L15.30-3.98Q15.72-3.98 15.98-4.23L15.98-4.23L15.98-4.23Q16.25-4.48 16.25-4.88L16.25-4.88L16.25-4.88Q16.25-5.28 15.98-5.54L15.98-5.54L15.98-5.54Q15.72-5.79 15.30-5.79L15.30-5.79L13.99-5.79ZM18.79 0L18.79 0Q18.74 0 18.71-0.04L18.71-0.04L18.71-0.04Q18.67-0.07 18.67-0.12L18.67-0.12L18.67-6.88L18.67-6.88Q18.67-6.93 18.71-6.96L18.71-6.96L18.71-6.96Q18.74-7 18.79-7L18.79-7L19.96-7L19.96-7Q20.01-7 20.05-6.96L20.05-6.96L20.05-6.96Q20.08-6.93 20.08-6.88L20.08-6.88L20.08-0.12L20.08-0.12Q20.08-0.07 20.05-0.04L20.05-0.04L20.05-0.04Q20.01 0 19.96 0L19.96 0L18.79 0ZM25.32-6.88L25.32-6.88Q25.32-6.93 25.36-6.96L25.36-6.96L25.36-6.96Q25.39-7 25.44-7L25.44-7L26.61-7L26.61-7Q26.66-7 26.70-6.96L26.70-6.96L26.70-6.96Q26.73-6.93 26.73-6.88L26.73-6.88L26.73-0.12L26.73-0.12Q26.73-0.07 26.70-0.04L26.70-0.04L26.70-0.04Q26.66 0 26.61 0L26.61 0L25.48 0L25.48 0Q25.38 0 25.34-0.08L25.34-0.08L22.75-4.36L22.75-4.36Q22.73-4.39 22.71-4.38L22.71-4.38L22.71-4.38Q22.69-4.38 22.69-4.34L22.69-4.34L22.71-0.12L22.71-0.12Q22.71-0.07 22.68-0.04L22.68-0.04L22.68-0.04Q22.64 0 22.59 0L22.59 0L21.42 0L21.42 0Q21.37 0 21.34-0.04L21.34-0.04L21.34-0.04Q21.30-0.07 21.30-0.12L21.30-0.12L21.30-6.88L21.30-6.88Q21.30-6.93 21.34-6.96L21.34-6.96L21.34-6.96Q21.37-7 21.42-7L21.42-7L22.55-7L22.55-7Q22.65-7 22.69-6.92L22.69-6.92L25.27-2.66L25.27-2.66Q25.29-2.63 25.31-2.64L25.31-2.64L25.31-2.64Q25.33-2.64 25.33-2.68L25.33-2.68L25.32-6.88ZM30.41 0.08L30.41 0.08Q29.64 0.08 29.05-0.23L29.05-0.23L29.05-0.23Q28.46-0.54 28.14-1.09L28.14-1.09L28.14-1.09Q27.81-1.65 27.81-2.38L27.81-2.38L27.81-4.62L27.81-4.62Q27.81-5.35 28.14-5.91L28.14-5.91L28.14-5.91Q28.46-6.47 29.05-6.78L29.05-6.78L29.05-6.78Q29.64-7.08 30.41-7.08L30.41-7.08L30.41-7.08Q31.17-7.08 31.76-6.78L31.76-6.78L31.76-6.78Q32.34-6.48 32.67-5.96L32.67-5.96L32.67-5.96Q32.99-5.45 32.99-4.82L32.99-4.82L32.99-4.75L32.99-4.75Q32.99-4.70 32.96-4.67L32.96-4.67L32.96-4.67Q32.92-4.63 32.87-4.63L32.87-4.63L31.70-4.63L31.70-4.63Q31.65-4.63 31.62-4.67L31.62-4.67L31.62-4.67Q31.58-4.70 31.58-4.75L31.58-4.75L31.58-4.78L31.58-4.78Q31.58-5.24 31.26-5.55L31.26-5.55L31.26-5.55Q30.94-5.87 30.41-5.87L30.41-5.87L30.41-5.87Q29.87-5.87 29.55-5.54L29.55-5.54L29.55-5.54Q29.22-5.20 29.22-4.66L29.22-4.66L29.22-2.34L29.22-2.34Q29.22-1.80 29.57-1.47L29.57-1.47L29.57-1.47Q29.92-1.13 30.46-1.13L30.46-1.13L30.46-1.13Q30.98-1.13 31.29-1.41L31.29-1.41L31.29-1.41Q31.60-1.68 31.60-2.17L31.60-2.17L31.60-2.62L31.60-2.62Q31.60-2.67 31.55-2.67L31.55-2.67L30.43-2.67L30.43-2.67Q30.38-2.67 30.35-2.71L30.35-2.71L30.35-2.71Q30.31-2.74 30.31-2.79L30.31-2.79L30.31-3.71L30.31-3.71Q30.31-3.76 30.35-3.79L30.35-3.79L30.35-3.79Q30.38-3.83 30.43-3.83L30.43-3.83L32.87-3.83L32.87-3.83Q32.92-3.83 32.96-3.79L32.96-3.79L32.96-3.79Q32.99-3.76 32.99-3.71L32.99-3.71L32.99-2.39L32.99-2.39Q32.99-1.63 32.67-1.07L32.67-1.07L32.67-1.07Q32.35-0.51 31.77-0.21L31.77-0.21L31.77-0.21Q31.18 0.08 30.41 0.08L30.41 0.08Z"/><path fill="#252530" transform="translate(36.68, 98.9)" d="M2.33-1.27L2.33-1.27Q2.31-1.25 2.32-1.23L2.32-1.23L2.32-1.23Q2.33-1.21 2.36-1.21L2.36-1.21L5.07-1.21L5.07-1.21Q5.12-1.21 5.16-1.18L5.16-1.18L5.16-1.18Q5.19-1.14 5.19-1.09L5.19-1.09L5.19-0.12L5.19-0.12Q5.19-0.07 5.16-0.04L5.16-0.04L5.16-0.04Q5.12 0 5.07 0L5.07 0L0.57 0L0.57 0Q0.52 0 0.48-0.04L0.48-0.04L0.48-0.04Q0.45-0.07 0.45-0.12L0.45-0.12L0.45-1.04L0.45-1.04Q0.45-1.13 0.51-1.19L0.51-1.19L0.51-1.19Q1-1.67 1.51-2.23L1.51-2.23L1.51-2.23Q2.02-2.80 2.15-2.94L2.15-2.94L2.15-2.94Q2.43-3.27 2.72-3.57L2.72-3.57L2.72-3.57Q3.63-4.58 3.63-5.07L3.63-5.07L3.63-5.07Q3.63-5.42 3.38-5.65L3.38-5.65L3.38-5.65Q3.13-5.87 2.73-5.87L2.73-5.87L2.73-5.87Q2.33-5.87 2.08-5.65L2.08-5.65L2.08-5.65Q1.83-5.42 1.83-5.05L1.83-5.05L1.83-4.80L1.83-4.80Q1.83-4.75 1.79-4.71L1.79-4.71L1.79-4.71Q1.76-4.68 1.71-4.68L1.71-4.68L0.53-4.68L0.53-4.68Q0.48-4.68 0.45-4.71L0.45-4.71L0.45-4.71Q0.41-4.75 0.41-4.80L0.41-4.80L0.41-5.27L0.41-5.27Q0.44-5.81 0.75-6.23L0.75-6.23L0.75-6.23Q1.06-6.64 1.57-6.86L1.57-6.86L1.57-6.86Q2.09-7.08 2.73-7.08L2.73-7.08L2.73-7.08Q3.44-7.08 3.97-6.82L3.97-6.82L3.97-6.82Q4.49-6.55 4.78-6.10L4.78-6.10L4.78-6.10Q5.06-5.65 5.06-5.10L5.06-5.10L5.06-5.10Q5.06-4.68 4.85-4.24L4.85-4.24L4.85-4.24Q4.64-3.80 4.22-3.29L4.22-3.29L4.22-3.29Q3.91-2.90 3.55-2.52L3.55-2.52L3.55-2.52Q3.19-2.14 2.48-1.42L2.48-1.42L2.33-1.27ZM8.44 0.11L8.44 0.11Q7.34 0.11 6.70-0.51L6.70-0.51L6.70-0.51Q6.06-1.12 6.06-2.18L6.06-2.18L6.06-4.82L6.06-4.82Q6.06-5.86 6.70-6.47L6.70-6.47L6.70-6.47Q7.34-7.08 8.44-7.08L8.44-7.08L8.44-7.08Q9.54-7.08 10.19-6.47L10.19-6.47L10.19-6.47Q10.83-5.86 10.83-4.82L10.83-4.82L10.83-2.18L10.83-2.18Q10.83-1.12 10.19-0.51L10.19-0.51L10.19-0.51Q9.54 0.11 8.44 0.11L8.44 0.11ZM8.44-1.10L8.44-1.10Q8.89-1.10 9.16-1.38L9.16-1.38L9.16-1.38Q9.42-1.65 9.42-2.11L9.42-2.11L9.42-4.86L9.42-4.86Q9.42-5.32 9.16-5.59L9.16-5.59L9.16-5.59Q8.89-5.87 8.44-5.87L8.44-5.87L8.44-5.87Q8-5.87 7.74-5.59L7.74-5.59L7.74-5.59Q7.47-5.32 7.47-4.86L7.47-4.86L7.47-2.11L7.47-2.11Q7.47-1.65 7.74-1.38L7.74-1.38L7.74-1.38Q8-1.10 8.44-1.10L8.44-1.10ZM13.63-1.27L13.63-1.27Q13.61-1.25 13.62-1.23L13.62-1.23L13.62-1.23Q13.63-1.21 13.66-1.21L13.66-1.21L16.37-1.21L16.37-1.21Q16.42-1.21 16.46-1.18L16.46-1.18L16.46-1.18Q16.49-1.14 16.49-1.09L16.49-1.09L16.49-0.12L16.49-0.12Q16.49-0.07 16.46-0.04L16.46-0.04L16.46-0.04Q16.42 0 16.37 0L16.37 0L11.87 0L11.87 0Q11.82 0 11.79-0.04L11.79-0.04L11.79-0.04Q11.75-0.07 11.75-0.12L11.75-0.12L11.75-1.04L11.75-1.04Q11.75-1.13 11.81-1.19L11.81-1.19L11.81-1.19Q12.30-1.67 12.81-2.23L12.81-2.23L12.81-2.23Q13.32-2.80 13.45-2.94L13.45-2.94L13.45-2.94Q13.73-3.27 14.02-3.57L14.02-3.57L14.02-3.57Q14.93-4.58 14.93-5.07L14.93-5.07L14.93-5.07Q14.93-5.42 14.68-5.65L14.68-5.65L14.68-5.65Q14.43-5.87 14.03-5.87L14.03-5.87L14.03-5.87Q13.63-5.87 13.38-5.65L13.38-5.65L13.38-5.65Q13.13-5.42 13.13-5.05L13.13-5.05L13.13-4.80L13.13-4.80Q13.13-4.75 13.10-4.71L13.10-4.71L13.10-4.71Q13.06-4.68 13.01-4.68L13.01-4.68L11.83-4.68L11.83-4.68Q11.78-4.68 11.75-4.71L11.75-4.71L11.75-4.71Q11.71-4.75 11.71-4.80L11.71-4.80L11.71-5.27L11.71-5.27Q11.74-5.81 12.05-6.23L12.05-6.23L12.05-6.23Q12.36-6.64 12.88-6.86L12.88-6.86L12.88-6.86Q13.39-7.08 14.03-7.08L14.03-7.08L14.03-7.08Q14.74-7.08 15.27-6.82L15.27-6.82L15.27-6.82Q15.79-6.55 16.08-6.10L16.08-6.10L16.08-6.10Q16.36-5.65 16.36-5.10L16.36-5.10L16.36-5.10Q16.36-4.68 16.15-4.24L16.15-4.24L16.15-4.24Q15.94-3.80 15.52-3.29L15.52-3.29L15.52-3.29Q15.21-2.90 14.85-2.52L14.85-2.52L14.85-2.52Q14.49-2.14 13.78-1.42L13.78-1.42L13.63-1.27ZM18.34-6.97L18.34-6.97Q18.39-7 18.49-7L18.49-7L19.70-7L19.70-7Q19.75-7 19.79-6.96L19.79-6.96L19.79-6.96Q19.82-6.93 19.82-6.88L19.82-6.88L19.82-0.12L19.82-0.12Q19.82-0.07 19.79-0.04L19.79-0.04L19.79-0.04Q19.75 0 19.70 0L19.70 0L18.53 0L18.53 0Q18.48 0 18.45-0.04L18.45-0.04L18.45-0.04Q18.41-0.07 18.41-0.12L18.41-0.12L18.41-5.60L18.41-5.60Q18.41-5.62 18.39-5.64L18.39-5.64L18.39-5.64Q18.37-5.66 18.35-5.65L18.35-5.65L17.36-5.38L17.32-5.37L17.32-5.37Q17.23-5.37 17.23-5.48L17.23-5.48L17.20-6.34L17.20-6.34Q17.20-6.44 17.29-6.48L17.29-6.48L18.34-6.97Z"/></g>
</svg>
