<svg width="164" height="164" viewBox="0 0 164 164" fill="none" xmlns="http://www.w3.org/2000/svg">
<path d="M150.75 81.6799C150.75 72.2599 148.88 63.1598 145.19 54.5998L156.01 43.7805C160.82 38.9705 163.47 32.5805 163.47 25.7805C163.47 18.9805 160.82 12.57 156.01 7.76C146.08 -2.17 129.92 -2.17 119.99 7.76L109.17 18.5803C100.61 14.8903 91.51 13.0198 82.09 13.0198C44.2299 13.0198 13.4299 43.8199 13.4299 81.6799C13.4299 91.0999 15.2999 100.2 18.9899 108.76L8.16995 119.58C3.35995 124.39 0.709961 130.78 0.709961 137.58C0.709961 144.38 3.35995 150.79 8.16995 155.6C13.14 160.57 19.6599 163.05 26.1799 163.05C32.6999 163.05 39.22 160.57 44.19 155.6L55.01 144.781C63.54 148.471 72.65 150.34 82.09 150.34C119.95 150.34 150.75 119.54 150.75 81.6799ZM123.58 11.3606C127.43 7.51059 132.55 5.38988 137.99 5.38988C143.43 5.38988 148.55 7.51059 152.4 11.3606C156.25 15.2106 158.37 20.3303 158.37 25.7903C158.37 31.2503 156.25 36.3407 152.4 40.1907L132.62 59.97C132.62 59.97 132.59 60 132.58 60.01L132.14 60.4504C126.8 65.7904 119.09 67.6706 112.06 65.6106L114.81 62.8606C115.31 62.3606 115.75 61.8105 116.12 61.2405C116.66 61.3005 117.2 61.3303 117.74 61.3303C121.81 61.3303 125.65 59.7398 128.54 56.8498L148.8 36.5901C151.7 33.7101 153.29 29.8698 153.29 25.7698C153.29 21.6698 151.7 17.8302 148.81 14.9602C145.92 12.0702 142.08 10.4807 137.98 10.4807C133.88 10.4807 130.07 12.0702 127.18 14.9602L106.91 35.2307C104.02 38.1207 102.43 41.9605 102.43 46.0305C102.43 46.5705 102.46 47.1206 102.52 47.6506C101.95 48.0206 101.4 48.4602 100.9 48.9602L98.1499 51.7102C97.6199 49.8802 97.34 47.9605 97.34 46.0305C97.34 40.5905 99.46 35.4801 103.31 31.6301L103.73 31.2102C103.73 31.2102 103.78 31.1599 103.8 31.1399L123.58 11.3606ZM135.49 81.6799C135.49 111.13 111.54 135.08 82.09 135.08C76.83 135.08 71.66 134.31 66.67 132.8C70.07 128.38 71.91 123 71.91 117.33C71.91 114 71.25 110.69 70 107.66L108.07 69.5901C111.19 70.8801 114.48 71.51 117.74 71.51C123.25 71.51 128.7 69.7002 133.2 66.2502C134.72 71.2402 135.48 76.4102 135.48 81.6702L135.49 81.6799ZM53.67 124.531L33.3999 144.8C29.5299 148.68 22.81 148.65 18.97 144.8C17.04 142.87 15.98 140.301 15.98 137.571C15.98 134.841 17.04 132.3 18.97 130.37L39.2399 110.1C41.1799 108.16 43.85 107.11 46.51 107.12C46.42 109.75 47.38 112.401 49.38 114.401C51.3 116.321 53.8099 117.27 56.3299 117.27C56.4399 117.27 56.55 117.27 56.66 117.27C56.68 119.96 55.6299 122.6 53.6799 124.54L53.67 124.531ZM59.6799 110.8C59.2299 111.25 58.7099 111.591 58.1499 111.821C58.0099 111.861 57.88 111.9 57.76 111.96C56.12 112.48 54.26 112.09 52.97 110.8C51.66 109.49 51.28 107.61 51.82 105.96C51.87 105.85 51.91 105.74 51.94 105.62C52.17 105.06 52.5099 104.54 52.9599 104.09L58.35 98.7004C58.42 98.6404 58.4899 98.5702 58.5499 98.5002L98.88 58.1702C98.98 58.0802 99.08 57.9801 99.17 57.8801L104.5 52.55C104.96 52.1 105.48 51.7498 106.04 51.5198C106.15 51.4898 106.26 51.4506 106.37 51.4006C106.85 51.2406 107.35 51.1604 107.85 51.1604C109.07 51.1604 110.28 51.62 111.21 52.55C112.52 53.86 112.9 55.7401 112.36 57.3801C112.31 57.4901 112.27 57.6107 112.23 57.7307C112 58.2907 111.66 58.81 111.21 59.26L105.84 64.6301C105.76 64.7001 105.68 64.7806 105.61 64.8606L65.29 105.18C65.19 105.27 65.09 105.37 65 105.47L59.67 110.8H59.6799ZM30.97 97.0901C29.45 92.1101 28.69 86.9402 28.69 81.6702C28.69 52.2202 52.6399 28.2698 82.09 28.2698C87.35 28.2698 92.52 29.04 97.51 30.55C94.11 34.97 92.2699 40.35 92.2699 46.01C92.2699 49.35 92.9299 52.6499 94.1799 55.6799L56.1099 93.7502C47.7099 90.2802 38.15 91.5803 30.98 97.0803L30.97 97.0901ZM107.52 46.0198C107.52 43.2998 108.58 40.7505 110.51 38.8205L130.78 18.55C134.65 14.68 141.36 14.7 145.22 18.55C147.15 20.46 148.21 23.03 148.21 25.76C148.21 28.49 147.15 31.0507 145.22 32.9807L124.95 53.2502C123.01 55.1902 120.34 56.2405 117.68 56.2405C117.77 53.6105 116.81 50.9604 114.81 48.9504C112.81 46.9504 110.15 45.9903 107.52 46.0803C107.52 46.0603 107.52 46.0398 107.52 46.0198ZM18.5199 81.6702C18.5199 46.6202 47.04 18.0998 82.09 18.0998C90.13 18.0998 97.9099 19.57 105.27 22.47L101.29 26.4504C95.12 24.2904 88.6699 23.1907 82.0799 23.1907C49.8299 23.1907 23.59 49.4299 23.59 81.6799C23.59 88.2699 24.69 94.7199 26.85 100.89L22.8699 104.87C19.9699 97.5004 18.5 89.7207 18.5 81.6907L18.5199 81.6702ZM40.6 151.99C36.75 155.84 31.63 157.96 26.19 157.96C20.75 157.96 15.63 155.84 11.78 151.99C7.92995 148.14 5.80995 143.02 5.80995 137.56C5.80995 132.1 7.92995 127.01 11.78 123.16L31.56 103.38C31.56 103.38 31.59 103.35 31.6 103.34L32.04 102.901C37.38 97.5706 45.0899 95.6805 52.1199 97.7405L49.3699 100.49C48.8699 100.99 48.43 101.541 48.06 102.111C47.52 102.051 46.98 102.02 46.44 102.02C42.37 102.02 38.53 103.61 35.64 106.5L15.3699 126.77C12.4799 129.66 10.89 133.501 10.89 137.571C10.89 141.641 12.4799 145.511 15.3699 148.401C18.2599 151.291 22.1 152.88 26.2 152.88C30.3 152.88 34.11 151.29 37 148.39L57.26 128.13C60.55 124.87 62.1399 120.26 61.6499 115.71C62.2299 115.34 62.7699 114.901 63.2699 114.401L66.0199 111.651C66.5499 113.481 66.8299 115.4 66.8299 117.33C66.8299 122.77 64.7099 127.881 60.8599 131.731L60.4299 132.16C60.4299 132.16 60.3899 132.2 60.3699 132.22L52.7399 139.85C52.6699 139.91 52.6099 139.98 52.5499 140.04L40.59 152L40.6 151.99ZM62.88 136.901C69.05 139.061 75.5 140.16 82.09 140.16C114.34 140.16 140.58 113.92 140.58 81.6702C140.58 75.0902 139.48 68.6302 137.32 62.4602L141.29 58.4905C144.19 65.8605 145.66 73.6402 145.66 81.6702C145.66 116.72 117.14 145.24 82.09 145.24C74.03 145.24 66.2499 143.77 58.8999 140.87L62.88 136.89V136.901Z" fill="#0030E1"/>
<path d="M28.1599 30.29C28.8199 30.29 29.4799 30.0102 29.9399 29.5302C30.4199 29.0702 30.6999 28.4099 30.6999 27.7499C30.6999 27.0899 30.4199 26.4004 29.9399 25.9404C28.9999 25.0004 27.2999 25.0004 26.3499 25.9404C25.8699 26.4204 25.6099 27.0599 25.6099 27.7499C25.6099 28.4399 25.8599 29.0695 26.3499 29.5595C26.8299 30.0195 27.4699 30.2997 28.1599 30.2997V30.29Z" fill="#0030E1"/>
<path d="M20.9599 23.0898C21.6199 23.0898 22.2799 22.81 22.7699 22.33C23.2299 21.87 23.5099 21.2097 23.5099 20.5497C23.5099 19.8897 23.2299 19.2302 22.7699 18.7402C21.7999 17.8002 20.1299 17.8002 19.1599 18.7402C18.6799 19.2202 18.4199 19.8797 18.4199 20.5497C18.4199 21.2197 18.6699 21.8703 19.1599 22.3603C19.6399 22.8203 20.2999 23.0995 20.9699 23.0995L20.9599 23.0898Z" fill="#0030E1"/>
<path d="M13.77 15.9003C14.43 15.9003 15.09 15.6201 15.58 15.1601C16.04 14.6801 16.32 14.0195 16.32 13.3495C16.32 12.6795 16.04 12.03 15.58 11.54C14.61 10.6 12.94 10.6 11.97 11.54C11.51 12.02 11.23 12.6795 11.23 13.3495C11.23 14.0195 11.51 14.6701 11.97 15.1601C12.45 15.6201 13.11 15.9003 13.78 15.9003H13.77Z" fill="#0030E1"/>
<path d="M148.61 148.2C148.15 148.68 147.87 149.34 147.87 150.01C147.87 150.68 148.15 151.33 148.61 151.82C149.09 152.28 149.75 152.559 150.42 152.559C151.09 152.559 151.74 152.28 152.23 151.82C152.69 151.34 152.97 150.68 152.97 150.01C152.97 149.34 152.69 148.69 152.23 148.2C151.26 147.26 149.56 147.26 148.62 148.2H148.61Z" fill="#0030E1"/>
<path d="M141.42 141.01C140.96 141.49 140.68 142.15 140.68 142.82C140.68 143.49 140.96 144.14 141.42 144.63C141.9 145.11 142.56 145.37 143.23 145.37C143.9 145.37 144.55 145.12 145.04 144.63C145.5 144.15 145.78 143.49 145.78 142.82C145.78 142.15 145.5 141.5 145.04 141.01C144.07 140.07 142.4 140.07 141.43 141.01H141.42Z" fill="#0030E1"/>
<path d="M134.22 133.83C133.76 134.29 133.48 134.95 133.48 135.61C133.48 136.27 133.76 136.93 134.22 137.42C134.7 137.9 135.36 138.16 136.03 138.16C136.7 138.16 137.35 137.91 137.84 137.42C138.32 136.94 138.58 136.3 138.58 135.61C138.58 134.92 138.33 134.29 137.84 133.83C136.9 132.89 135.2 132.89 134.23 133.83H134.22Z" fill="#0030E1"/>
<path d="M40.54 20.2402C41.2 20.2402 41.86 19.9599 42.35 19.4999C42.81 19.0199 43.09 18.3604 43.09 17.6904C43.09 17.0204 42.81 16.3698 42.35 15.8798C41.41 14.9398 39.71 14.9398 38.74 15.8798C38.28 16.3598 38 17.0204 38 17.6904C38 18.3604 38.28 19.0099 38.74 19.4999C39.22 19.9599 39.88 20.2402 40.55 20.2402H40.54Z" fill="#0030E1"/>
<path d="M35 11.7309C35.69 11.7309 36.32 11.4502 36.81 10.9702C37.29 10.5102 37.55 9.85063 37.55 9.16063C37.55 8.47063 37.3 7.86036 36.81 7.38036C35.84 6.41036 34.14 6.44036 33.2 7.38036C32.74 7.84036 32.46 8.50063 32.46 9.16063C32.46 9.82063 32.74 10.5102 33.2 10.9702C33.68 11.4502 34.34 11.7309 35.01 11.7309H35Z" fill="#0030E1"/>
<path d="M127.38 152.4C126.9 152.86 126.64 153.52 126.64 154.21C126.64 154.9 126.89 155.53 127.38 155.99C127.86 156.47 128.5 156.73 129.19 156.73C129.88 156.73 130.51 156.48 130.97 155.99C131.45 155.53 131.73 154.87 131.73 154.21C131.73 153.55 131.45 152.86 130.97 152.4C130.03 151.46 128.33 151.46 127.38 152.4Z" fill="#0030E1"/>
<path d="M121.84 143.85C121.38 144.33 121.1 144.99 121.1 145.66C121.1 146.33 121.38 146.98 121.84 147.47C122.32 147.93 122.98 148.21 123.65 148.21C124.32 148.21 124.97 147.93 125.46 147.47C125.92 146.99 126.2 146.33 126.2 145.66C126.2 144.99 125.92 144.34 125.46 143.85C124.52 142.91 122.82 142.91 121.85 143.85H121.84Z" fill="#0030E1"/>
<path d="M15.5701 40.13C15.5701 40.79 15.8501 41.4505 16.3101 41.9405C16.7901 42.4005 17.4501 42.6798 18.1201 42.6798C18.7901 42.6798 19.4401 42.4005 19.9301 41.9405C20.3901 41.4605 20.6701 40.8 20.6701 40.13C20.6701 39.46 20.3901 38.8097 19.9301 38.3497C18.9901 37.4097 17.2601 37.3804 16.3201 38.3204C15.8601 38.8004 15.58 39.46 15.58 40.13H15.5701Z" fill="#0030E1"/>
<path d="M9.57005 37.1299C10.2601 37.1299 10.9201 36.8796 11.3801 36.3896C11.8601 35.9096 12.1401 35.2701 12.1401 34.5801C12.1401 33.8901 11.8601 33.2595 11.3801 32.7695C10.4401 31.8295 8.74004 31.8298 7.79004 32.7998C7.31004 33.2598 7.05005 33.9201 7.05005 34.5801C7.05005 35.2401 7.30004 35.8996 7.79004 36.3896C8.25004 36.8696 8.91005 37.1299 9.57005 37.1299Z" fill="#0030E1"/>
<path d="M152.81 126.97C152.33 127.45 152.05 128.09 152.05 128.78C152.05 129.47 152.33 130.099 152.81 130.559C153.27 131.039 153.93 131.32 154.59 131.32C155.25 131.32 155.94 131.039 156.4 130.559C156.88 130.099 157.16 129.44 157.16 128.78C157.16 128.12 156.88 127.46 156.4 126.97C155.46 126.03 153.76 126.03 152.81 126.97Z" fill="#0030E1"/>
<path d="M148.61 123.23C148.61 122.57 148.33 121.91 147.87 121.42C146.9 120.48 145.2 120.48 144.26 121.42C143.8 121.9 143.52 122.54 143.52 123.23C143.52 123.92 143.8 124.55 144.26 125.04C144.74 125.5 145.4 125.78 146.07 125.78C146.74 125.78 147.39 125.5 147.88 125.04C148.34 124.56 148.62 123.9 148.62 123.23H148.61Z" fill="#0030E1"/>
</svg>
