<svg width="137" height="159" viewBox="0 0 137 159" fill="none" xmlns="http://www.w3.org/2000/svg">
<path d="M137 38.79C137 31.87 131.37 26.2402 124.45 26.2402H119.43V18.0801C119.43 8.57008 111.69 0.819824 102.17 0.819824H35.03C25.52 0.819824 17.77 8.56008 17.77 18.0801V26.2402H12.75C5.83 26.2402 0.199951 31.87 0.199951 38.79V105.3C0.199951 112.22 5.83 117.85 12.75 117.85H17.77V141.07C17.77 150.58 25.51 158.33 35.03 158.33H102.17C111.68 158.33 119.43 150.59 119.43 141.07V117.85H124.45C131.37 117.85 137 112.22 137 105.3V38.79ZM24.0601 18.0801C24.0601 12.0301 28.99 7.1001 35.04 7.1001H102.18C108.23 7.1001 113.16 12.0301 113.16 18.0801V26.2402H24.0601V18.0801ZM113.16 141.06C113.16 147.11 108.23 152.04 102.18 152.04H35.04C28.99 152.04 24.0601 147.11 24.0601 141.06V117.84H49.22C51.05 117.84 52.79 118.64 53.98 120.03L66.22 134.31C66.82 135.01 67.68 135.4 68.6 135.4C69.52 135.4 70.39 135 70.98 134.31L83.22 120.03C84.41 118.64 86.15 117.84 87.98 117.84H113.14V141.06H113.16ZM130.73 105.29C130.73 108.75 127.92 111.56 124.46 111.56H88C84.33 111.56 80.86 113.16 78.47 115.94L68.61 127.44L58.75 115.94C56.36 113.15 52.89 111.56 49.22 111.56H12.76C9.30001 111.56 6.48999 108.75 6.48999 105.29V38.7798C6.48999 35.3198 9.30001 32.5098 12.76 32.5098H124.45C127.91 32.5098 130.72 35.3198 130.72 38.7798V105.29H130.73Z" fill="#0030E1"/>
<path d="M64.33 73.0898L63.05 72.2002L63.9399 70.9199C65.7599 68.2899 66.73 65.2098 66.73 62.0098C66.73 53.3598 59.69 46.3198 51.04 46.3198C42.39 46.3198 35.35 53.3598 35.35 62.0098C35.35 65.2098 36.31 68.2899 38.14 70.9199L39.03 72.2002L37.75 73.0996C31.53 77.4696 27.8199 84.5799 27.8199 92.1299V94.6396C27.8199 96.3696 29.23 97.7803 30.96 97.7803H71.12C72.85 97.7803 74.26 96.3696 74.26 94.6396V92.1299C74.26 84.5499 70.55 77.4396 64.34 73.0996L64.33 73.0898ZM51.04 52.5898C56.23 52.5898 60.45 56.81 60.45 62C60.45 67.19 56.23 71.4102 51.04 71.4102C45.85 71.4102 41.63 67.19 41.63 62C41.63 56.81 45.85 52.5898 51.04 52.5898ZM68.0699 91.4902H34.02L34.28 89.6904C35.11 83.9804 38.89 78.9796 44.15 76.6396L44.75 76.3701L45.36 76.6104C49.03 78.0404 53.07 78.0404 56.73 76.6104L57.34 76.3701L57.9399 76.6396C63.2999 79.0396 66.9999 83.9202 67.8199 89.7002L68.0699 91.4902Z" fill="#0030E1"/>
<path d="M98.72 53.8501H94.33V49.46C94.33 47.73 92.9199 46.3198 91.1899 46.3198C89.4599 46.3198 88.05 47.73 88.05 49.46V53.8501H83.66C81.93 53.8501 80.52 55.2602 80.52 56.9902C80.52 58.7202 81.93 60.1299 83.66 60.1299H88.05V64.5195C88.05 66.2495 89.4599 67.6602 91.1899 67.6602C92.9199 67.6602 94.33 66.2495 94.33 64.5195V60.1299H98.72C100.45 60.1299 101.86 58.7202 101.86 56.9902C101.86 55.2602 100.45 53.8501 98.72 53.8501Z" fill="#0030E1"/>
</svg>
