<svg width="202" height="136" viewBox="0 0 202 136" fill="none" xmlns="http://www.w3.org/2000/svg">
<path d="M135.83 20.0601C135.06 19.4001 134.77 18.3401 135.08 17.3701C135.39 16.4101 136.25 15.7201 137.26 15.6401L150.53 14.5298L155.69 2.25977C156.08 1.32977 157 0.720215 158.01 0.720215C159.02 0.720215 159.94 1.32977 160.33 2.25977L165.49 14.5298L178.76 15.6401C179.77 15.7301 180.63 16.4101 180.94 17.3701C181.25 18.3301 180.96 19.3901 180.19 20.0601L170.11 28.7598L173.15 41.7202C173.38 42.7102 173 43.7401 172.18 44.3301C171.36 44.9301 170.26 44.9702 169.39 44.4502L158 37.5498L146.61 44.4502C146.21 44.6902 145.76 44.8101 145.31 44.8101C144.79 44.8101 144.27 44.6501 143.83 44.3301C143.01 43.7301 142.63 42.7002 142.86 41.7202L145.9 28.7598L135.82 20.0601H135.83ZM143.66 20.1602L150.36 25.9399C151.07 26.5499 151.38 27.5099 151.17 28.4199L149.15 37.0298L156.72 32.4502C157.12 32.2102 157.57 32.0898 158.03 32.0898C158.49 32.0898 158.93 32.2102 159.33 32.4502L166.9 37.0298L164.88 28.4199C164.67 27.5099 164.98 26.5499 165.69 25.9399L172.39 20.1602L163.57 19.4199C162.64 19.3399 161.82 18.7501 161.46 17.8901L158.03 9.72998L154.6 17.8901C154.24 18.7501 153.42 19.3499 152.49 19.4199L143.67 20.1602H143.66ZM104.74 37.3301C104.23 36.8901 104.03 36.18 104.24 35.54C104.45 34.9 105.02 34.4399 105.7 34.3799L114.56 33.6401L118.01 25.4399C118.27 24.8199 118.88 24.4102 119.56 24.4102C120.24 24.4102 120.85 24.8199 121.11 25.4399L124.56 33.6401L133.42 34.3799C134.09 34.4399 134.67 34.89 134.88 35.54C135.09 36.19 134.89 36.8901 134.38 37.3301L127.65 43.1401L129.68 51.7998C129.83 52.4598 129.58 53.1498 129.03 53.5498C128.48 53.9498 127.75 53.9799 127.17 53.6299L119.56 49.02L111.95 53.6299C111.68 53.7899 111.38 53.8701 111.08 53.8701C110.73 53.8701 110.38 53.7598 110.09 53.5498C109.54 53.1498 109.29 52.4598 109.44 51.7998L111.47 43.1401L104.74 37.3301ZM109.97 37.3999L114.44 41.2598C114.91 41.6698 115.12 42.3099 114.98 42.9199L113.63 48.6699L118.69 45.6099C118.96 45.4499 119.26 45.3701 119.56 45.3701C119.86 45.3701 120.16 45.4499 120.43 45.6099L125.49 48.6699L124.14 42.9199C124 42.3099 124.2 41.6698 124.68 41.2598L129.15 37.3999L123.26 36.9102C122.64 36.8602 122.09 36.4601 121.85 35.8901L119.56 30.4399L117.27 35.8901C117.03 36.4701 116.48 36.8602 115.86 36.9102L109.97 37.3999ZM70.1299 37.3301C69.6199 36.8901 69.4199 36.18 69.6299 35.54C69.8399 34.9 70.4101 34.4399 71.0901 34.3799L79.95 33.6401L83.3999 25.4399C83.6599 24.8199 84.27 24.4102 84.95 24.4102C85.63 24.4102 86.24 24.8199 86.5 25.4399L89.95 33.6401L98.8101 34.3799C99.4801 34.4399 100.06 34.89 100.27 35.54C100.48 36.19 100.28 36.8901 99.7701 37.3301L93.0401 43.1401L95.0701 51.7998C95.2201 52.4598 94.97 53.1498 94.42 53.5498C93.87 53.9498 93.1401 53.9799 92.5601 53.6299L84.95 49.02L77.3401 53.6299C77.0701 53.7899 76.77 53.8701 76.47 53.8701C76.12 53.8701 75.77 53.7598 75.48 53.5498C74.93 53.1498 74.6801 52.4598 74.8301 51.7998L76.8601 43.1401L70.1299 37.3301ZM75.3601 37.3999L79.8301 41.2598C80.3001 41.6698 80.5102 42.3099 80.3702 42.9199L79.0201 48.6699L84.0801 45.6099C84.3501 45.4499 84.65 45.3701 84.95 45.3701C85.25 45.3701 85.5501 45.4499 85.8201 45.6099L90.8799 48.6699L89.5301 42.9199C89.3901 42.3099 89.5901 41.6698 90.0701 41.2598L94.5401 37.3999L88.6499 36.9102C88.0299 36.8602 87.48 36.4601 87.24 35.8901L84.95 30.4399L82.66 35.8901C82.42 36.4701 81.87 36.8602 81.25 36.9102L75.3601 37.3999ZM35.18 37.3301C34.67 36.8901 34.47 36.18 34.68 35.54C34.89 34.9 35.4599 34.4399 36.1399 34.3799L45 33.6401L48.45 25.4399C48.71 24.8199 49.32 24.4102 50 24.4102C50.68 24.4102 51.2901 24.8199 51.5501 25.4399L55 33.6401L63.8601 34.3799C64.5301 34.4399 65.1101 34.89 65.3201 35.54C65.5301 36.19 65.3301 36.8901 64.8201 37.3301L58.0901 43.1401L60.1202 51.7998C60.2702 52.4598 60.02 53.1498 59.47 53.5498C58.92 53.9498 58.1901 53.9799 57.6101 53.6299L50 49.02L42.3899 53.6299C42.1199 53.7899 41.8201 53.8701 41.5201 53.8701C41.1701 53.8701 40.8201 53.7598 40.5301 53.5498C39.9801 53.1498 39.7299 52.4598 39.8799 51.7998L41.91 43.1401L35.18 37.3301ZM40.41 37.3999L44.8799 41.2598C45.3499 41.6698 45.56 42.3099 45.42 42.9199L44.0701 48.6699L49.1299 45.6099C49.3999 45.4499 49.7 45.3701 50 45.3701C50.3 45.3701 50.6002 45.4499 50.8702 45.6099L55.93 48.6699L54.5801 42.9199C54.4401 42.3099 54.6402 41.6698 55.1202 41.2598L59.5901 37.3999L53.7 36.9102C53.08 36.8602 52.5301 36.4601 52.2901 35.8901L50 30.4399L47.71 35.8901C47.47 36.4701 46.9201 36.8602 46.3001 36.9102L40.41 37.3999ZM0.860022 37.3301C0.350022 36.8901 0.150022 36.18 0.360022 35.54C0.570022 34.9 1.13998 34.4399 1.81998 34.3799L10.68 33.6401L14.1299 25.4399C14.3899 24.8199 15 24.4102 15.68 24.4102C16.36 24.4102 16.97 24.8199 17.23 25.4399L20.68 33.6401L29.5401 34.3799C30.2101 34.4399 30.79 34.89 31 35.54C31.21 36.19 31.01 36.8901 30.5 37.3301L23.7701 43.1401L25.8001 51.7998C25.9501 52.4598 25.6999 53.1498 25.1499 53.5498C24.5999 53.9498 23.8701 53.9799 23.2901 53.6299L15.68 49.02L8.06998 53.6299C7.79998 53.7899 7.49999 53.8701 7.19999 53.8701C6.84999 53.8701 6.5 53.7598 6.21 53.5498C5.66 53.1498 5.4101 52.4598 5.5601 51.7998L7.59 43.1401L0.860022 37.3301ZM6.09 37.3999L10.5601 41.2598C11.0301 41.6698 11.2401 42.3099 11.1001 42.9199L9.75004 48.6699L14.8101 45.6099C15.0801 45.4499 15.38 45.3701 15.68 45.3701C15.98 45.3701 16.2801 45.4499 16.5501 45.6099L21.6101 48.6699L20.26 42.9199C20.12 42.3099 20.3201 41.6698 20.8001 41.2598L25.2701 37.3999L19.3799 36.9102C18.7599 36.8602 18.21 36.4601 17.97 35.8901L15.68 30.4399L13.3899 35.8901C13.1499 36.4701 12.6 36.8602 11.98 36.9102L6.09 37.3999ZM201.02 85.4302V94.3701C201.02 99.8701 200.36 113.53 194.39 123.54V132.69C194.39 134.08 193.26 135.21 191.87 135.21H151.34C149.95 135.21 148.82 134.08 148.82 132.69V125.08H148.81C148.59 116.73 146.28 113.51 141.22 106.44C138.39 102.49 134.87 97.5699 130.64 90.1899C126.31 82.6399 128.16 75.13 132.45 72.25C135.2 70.4 139.85 70.06 143.89 75.21L149.73 82.6699V53.52C149.73 48.94 153.45 45.2202 158.03 45.2202C162.61 45.2202 166.32 48.93 166.33 53.5V72.6299C167.33 72.1999 168.43 71.96 169.59 71.96C172.46 71.96 174.99 73.4201 176.48 75.6401C177.81 74.7301 179.42 74.2002 181.15 74.2002C184.23 74.2002 186.92 75.8799 188.35 78.3799C189.62 77.5899 191.11 77.1401 192.71 77.1401C197.29 77.1401 201.01 80.8599 201.01 85.4399L201.02 85.4302ZM195.98 85.4302C195.98 83.6302 194.52 82.1699 192.72 82.1699C190.92 82.1699 189.46 83.6302 189.46 85.4302C189.46 86.8202 188.33 87.9502 186.94 87.9502C185.55 87.9502 184.42 86.8202 184.42 85.4302V82.4902C184.42 80.6902 182.96 79.23 181.16 79.23C179.36 79.23 177.91 80.69 177.9 82.48C177.9 83.87 176.77 84.9902 175.38 84.9902C173.99 84.9902 172.87 83.8602 172.87 82.4702V80.2598C172.87 78.4598 171.41 77 169.61 77C167.81 77 166.35 78.4598 166.35 80.2598V83.8198C166.35 85.2098 165.22 86.3398 163.83 86.3398C162.44 86.3398 161.31 85.2098 161.31 83.8198V53.5098C161.31 51.7198 159.84 50.2598 158.05 50.2598C156.26 50.2598 154.79 51.72 154.79 53.52V89.9702C154.79 91.0402 154.11 92.0001 153.09 92.3501C152.07 92.7001 150.95 92.37 150.29 91.52L139.95 78.3198C139.17 77.3298 137.17 75.1702 135.29 76.4302C133.26 77.8002 132.04 82.4699 135.03 87.6899C139.13 94.8499 142.57 99.6498 145.33 103.51C149.61 109.49 152.48 113.5 153.48 120.35H190.43C195.43 111.47 195.99 99.3399 195.99 94.3799V85.4399L195.98 85.4302Z" fill="#0030E1"/>
</svg>
