<svg width="853" height="627" viewBox="0 0 853 627" fill="none" xmlns="http://www.w3.org/2000/svg">
<path d="M794.36 232.21V232.23C794.36 232.23 794.36 232.18 794.36 232.17C791.77 189.63 794.34 150.26 793.68 116.06C779.51 47.3801 732.74 -21.19 596.01 6.68999C343.71 58.15 1.98991 -47.9101 25.9499 139.57C67.3499 275.6 99.88 334.75 40.74 402.76C-18.4 470.78 -36.15 680.74 150.16 612.72C336.47 544.7 404.48 547.66 549.38 586.1C694.28 624.54 924.95 568.36 830.32 376.14C805.73 326.18 797.13 277.41 794.37 232.2L794.36 232.21Z" fill="url(#paint0_linear_1_8724)"/>
<defs>
<linearGradient id="paint0_linear_1_8724" x1="626.87" y1="572.16" x2="55.3697" y2="-36.0998" gradientUnits="userSpaceOnUse">
<stop stop-color="#FFC107"/>
<stop offset="1" stop-color="#FBE700"/>
</linearGradient>
</defs>
</svg>
