<svg width="165" height="165" viewBox="0 0 165 165" fill="none" xmlns="http://www.w3.org/2000/svg">
<path d="M52.14 65.3901H20.82C13.14 65.1001 9.11998 59.21 9.11998 53.54C9.11998 47.87 13.14 41.9799 20.82 41.6899H20.86H20.9H71.23C77.55 41.4399 82.82 39.14 86.48 35.04C89.74 31.38 91.54 26.4898 91.54 21.2798C91.54 16.0698 89.75 11.18 86.48 7.52002C82.83 3.42002 77.56 1.12012 71.23 0.870117H20.85C12.48 0.870117 5.29998 5.74986 2.08998 13.6099C-1.11002 21.4599 0.589983 29.9498 6.52998 35.7598L8.23997 37.4302L6.49998 39.0801C2.70998 42.6601 0.539993 47.93 0.539993 53.54C0.539993 59.14 2.70998 64.41 6.49998 68L8.23997 69.6499L6.52998 71.3198C0.589983 77.1298 -1.12003 85.6202 2.07997 93.4702C5.27997 101.33 12.47 106.21 20.84 106.21H20.89H52.12C55.28 106.08 56.4 103.82 56.4 101.93C56.4 100.04 55.28 97.7899 52.12 97.6499H20.8C13.12 97.3599 9.09999 91.4698 9.09999 85.7998C9.09999 80.1298 13.12 74.2402 20.8 73.9502H20.84H20.88H52.11C55.27 73.8202 56.39 71.5599 56.39 69.6699C56.39 67.7799 55.27 65.5301 52.11 65.3901H52.14ZM20.82 9.41992H20.86H20.9H71.36C79.04 9.70992 83.06 15.6 83.06 21.27C83.06 26.94 79.04 32.8301 71.36 33.1201H71.32H71.28H20.82C13.14 32.8301 9.11998 26.94 9.11998 21.27C9.11998 15.6 13.14 9.70992 20.82 9.41992Z" fill="white"/>
<path d="M144.09 59.4702H144.04H93.67H93.62C85.25 59.4702 78.07 64.35 74.86 72.21C71.66 80.06 73.36 88.5499 79.3 94.3599L81.01 96.0298L79.27 97.6802C75.48 101.26 73.31 106.53 73.31 112.14C73.31 117.74 75.48 123.01 79.27 126.6L81.01 128.25L79.3 129.92C73.36 135.73 71.65 144.22 74.85 152.07C78.05 159.93 85.24 164.81 93.61 164.81H93.66H144.03H144.08C152.45 164.81 159.63 159.93 162.84 152.07C166.04 144.22 164.34 135.73 158.4 129.92L156.69 128.25L158.43 126.6C162.22 123.02 164.39 117.75 164.39 112.14C164.39 106.54 162.22 101.27 158.43 97.6802L156.69 96.0298L158.4 94.3599C164.34 88.5499 166.05 80.06 162.84 72.21C159.64 64.35 152.45 59.4702 144.08 59.4702H144.09ZM144.13 156.26H144.09H144.05H93.59C85.91 155.97 81.89 150.08 81.89 144.41C81.89 138.74 85.91 132.85 93.59 132.56H93.63H93.67H144.13C151.81 132.85 155.83 138.74 155.83 144.41C155.83 150.08 151.81 155.97 144.13 156.26ZM144.13 124H144.09H144.05H93.59C85.91 123.71 81.89 117.82 81.89 112.15C81.89 106.48 85.91 100.59 93.59 100.3H93.63H93.67H144.13C151.81 100.59 155.83 106.48 155.83 112.15C155.83 117.82 151.81 123.71 144.13 124ZM144.13 91.7402H144.09H144.05H93.59C85.91 91.4502 81.89 85.5601 81.89 79.8901C81.89 74.2201 85.91 68.33 93.59 68.04H93.63H93.67H144.13C151.81 68.33 155.83 74.2201 155.83 79.8901C155.83 85.5601 151.81 91.4502 144.13 91.7402Z" fill="white"/>
<path d="M140.41 17.3301H120.57L124.62 13.3799L129.82 8.29987C131.47 6.68987 131.62 3.91028 130.04 2.22028C129.18 1.31028 128 0.820183 126.74 0.870183C125.65 0.920183 124.62 1.41024 123.84 2.18024L119.25 6.66999L103.09 22.1402C101.94 23.2402 102.06 25.1099 103.34 26.0499L124.23 41.46L124.17 41.3399C124.94 41.9899 125.91 42.3502 126.92 42.3502C128.04 42.3502 129.09 41.93 129.89 41.15C131.64 39.47 131.55 36.6102 129.82 34.9102L124.63 29.8301L120.58 25.8799H140.42C148.92 25.8799 155.84 32.7698 155.89 41.2598C155.9 43.5198 157.62 45.4702 159.88 45.6202C162.37 45.7902 164.45 43.8102 164.45 41.3502C164.45 28.1002 153.67 17.3199 140.42 17.3199L140.41 17.3301Z" fill="white"/>
<path d="M24.35 148.36H44.19L40.14 152.31L34.94 157.39C33.29 159 33.14 161.78 34.72 163.47C35.58 164.38 36.76 164.87 38.02 164.82C39.11 164.77 40.14 164.28 40.92 163.51L45.51 159.02L61.67 143.55C62.82 142.45 62.7 140.58 61.42 139.64L40.53 124.23L40.59 124.35C39.82 123.7 38.85 123.34 37.84 123.34C36.72 123.34 35.67 123.76 34.87 124.54C33.12 126.22 33.21 129.08 34.94 130.78L40.13 135.86L44.18 139.81H24.34C15.84 139.81 8.92 132.92 8.87 124.43C8.85999 122.17 7.14001 120.22 4.88 120.07C2.39 119.9 0.309998 121.88 0.309998 124.34C0.309998 137.59 11.09 148.37 24.34 148.37L24.35 148.36Z" fill="white"/>
</svg>
