<svg width="938" height="692" viewBox="0 0 938 692" fill="none" xmlns="http://www.w3.org/2000/svg">
<path d="M930.88 233.4C907.5 144.77 837.48 111.18 755.39 101.25C666.8 90.5401 600.53 88.9401 515.54 49.2501C512.98 48.0501 510.45 46.79 507.91 45.5499L507.93 45.59C507.93 45.59 507.77 45.5002 507.45 45.3302C504.71 43.9902 501.98 42.6399 499.26 41.2599C464.79 25.0499 328.92 -28.8697 135.86 21.9503C113.66 27.7903 92.6999 37.8902 74.5999 52.0202C74.5099 52.0902 74.4099 52.1704 74.3199 52.2404C24.2499 91.3904 5.97994 129.31 8.09994 192.15C9.62994 237.36 29.8 259.85 50.3 297.42C68.56 330.88 90.46 375.34 84.38 414.4C76.59 464.5 19.7599 478.4 4.93991 523.43C-38.3501 654.91 263.78 686.34 333.45 688.82C419.02 691.86 519.04 699.72 597.75 658.93C652.47 630.56 648.6 608.88 644.03 553.14C636.29 458.64 706.45 437.17 786.13 413.58C880.11 385.76 960.48 345.67 930.87 233.4H930.88Z" fill="url(#paint0_linear_1_8745)"/>
<defs>
<linearGradient id="paint0_linear_1_8745" x1="0.729906" y1="346.07" x2="937.12" y2="346.07" gradientUnits="userSpaceOnUse">
<stop stop-color="#00E9E1"/>
<stop offset="1" stop-color="#00E9E1"/>
</linearGradient>
</defs>
</svg>
