<svg width="181" height="181" viewBox="0 0 181 181" fill="none" xmlns="http://www.w3.org/2000/svg">
<path d="M45.46 72.5698C60.41 72.5698 72.5699 60.41 72.5699 45.46C72.5699 30.51 60.41 18.3501 45.46 18.3501C30.51 18.3501 18.35 30.51 18.35 45.46C18.35 60.41 30.51 72.5698 45.46 72.5698ZM45.46 24.3799C57.08 24.3799 66.54 33.84 66.54 45.46C66.54 57.08 57.08 66.54 45.46 66.54C33.84 66.54 24.38 57.08 24.38 45.46C24.38 33.84 33.84 24.3799 45.46 24.3799Z" fill="#0030E1"/>
<path d="M3.29004 33.4102C1.62004 33.4102 0.280029 34.7599 0.280029 36.4199V54.4902C0.280029 56.1602 1.63004 57.5 3.29004 57.5L8.26001 57.5801C8.88001 59.5001 9.66 61.39 10.62 63.25L7.12 66.75C5.94 67.93 5.94 69.8298 7.12 71.0098L19.9 83.79C21.08 84.97 22.98 84.97 24.16 83.79L27.74 80.3301C29.53 81.2501 31.41 82.0202 33.42 82.6602V87.6201C33.42 89.2901 34.7701 90.6299 36.4301 90.6299H54.5C56.17 90.6299 57.51 89.2801 57.51 87.6201L57.59 82.6499C59.51 82.0299 61.4 81.25 63.26 80.29L66.76 83.79C67.94 84.97 69.84 84.97 71.02 83.79L83.8 71.0098C84.98 69.8298 84.98 67.93 83.8 66.75L80.34 63.1699C81.26 61.3799 82.03 59.5002 82.67 57.4902H87.63C89.3 57.4902 90.64 56.14 90.64 54.48V36.4102C90.64 34.7402 89.29 33.3999 87.63 33.3999L82.66 33.3198C82.04 31.3998 81.26 29.5199 80.3 27.6499L83.8 24.1499C84.98 22.9699 84.98 21.0701 83.8 19.8901L71.02 7.10986C69.84 5.92986 67.94 5.92986 66.76 7.10986L63.1801 10.5601C61.3801 9.65006 59.5 8.86998 57.5 8.22998V3.27002C57.5 1.60002 56.15 0.259766 54.49 0.259766H36.42C34.75 0.259766 33.41 1.61002 33.41 3.27002L33.33 8.24023C31.41 8.86023 29.53 9.6401 27.66 10.6001L24.16 7.1001C22.98 5.9201 21.08 5.9201 19.9 7.1001L7.12 19.8799C5.94 21.0599 5.94 22.9601 7.12 24.1401L10.5699 27.7202C9.65995 29.5102 8.87999 31.4001 8.23999 33.3901H3.28003L3.29004 33.4102ZM13.99 35.1899C14.52 33.5699 15.1699 31.9802 15.9399 30.4702C17.1499 28.0902 16.73 25.2602 14.88 23.4102L13.51 22.04L22.03 13.52L23.4 14.8901C25.25 16.7401 28.08 17.16 30.46 15.96C31.98 15.19 33.5699 14.53 35.1899 14C37.7299 13.17 39.4301 10.86 39.4301 8.25V6.2998H51.48V8.25C51.48 10.86 53.18 13.1702 55.72 13.9902C57.34 14.5202 58.9299 15.1699 60.4399 15.9399C62.8199 17.1599 65.65 16.7199 67.5 14.8799L68.87 13.5098L77.39 22.0298L76.02 23.4102C74.17 25.2602 73.75 28.1002 74.95 30.4702C75.7199 31.9902 76.38 33.5802 76.91 35.2002C77.74 37.7402 80.05 39.4399 82.66 39.4399H84.61V51.4902H82.66C80.05 51.4902 77.74 53.19 76.92 55.73C76.39 57.35 75.74 58.9402 74.97 60.4502C73.76 62.8302 74.19 65.6598 76.04 67.5098L77.41 68.8799L68.89 77.3999L67.52 76.0298C65.67 74.1798 62.83 73.7602 60.45 74.9702C58.94 75.7402 57.35 76.3999 55.72 76.9199C53.18 77.7499 51.48 80.0599 51.48 82.6699V84.6201H39.4301V82.6699C39.4301 80.0599 37.7299 77.7502 35.1899 76.9302C33.5699 76.4002 31.98 75.75 30.47 74.98C28.09 73.77 25.25 74.1898 23.41 76.0498L22.04 77.4199L13.52 68.8999L14.89 67.5298C16.74 65.6798 17.16 62.84 15.95 60.46C15.18 58.95 14.52 57.36 14 55.73C13.17 53.19 10.86 51.4902 8.25 51.4902H6.30005V39.4399H8.25C10.86 39.4399 13.17 37.7402 14 35.2002L13.99 35.1899Z" fill="#0030E1"/>
<path d="M38.02 60.1602C38.47 60.4002 38.9499 60.5201 39.4399 60.5201C40.0199 60.5201 40.61 60.3498 41.11 60.0098L59.1801 47.96C60.0201 47.4 60.52 46.4603 60.52 45.4503C60.52 44.4403 60.0201 43.5 59.1801 42.94L41.11 30.8902C40.19 30.2802 38.99 30.2103 38.02 30.7403C37.04 31.2603 36.4301 32.29 36.4301 33.4V57.5001C36.4301 58.6101 37.04 59.6302 38.02 60.1602ZM42.45 39.0299L52.08 45.4503L42.45 51.8702V39.0299Z" fill="#0030E1"/>
<path d="M171.97 78.5898V72.5698C171.97 55.9598 158.46 42.4502 141.85 42.4502H96.67V48.4702H141.85C155.14 48.4702 165.95 59.2798 165.95 72.5698V78.5898C165.95 91.8798 155.14 102.69 141.85 102.69V108.71C158.46 108.71 171.97 95.1998 171.97 78.5898Z" fill="#0030E1"/>
<path d="M132.81 117.75C134.48 117.75 135.82 116.4 135.82 114.74V96.6699C135.82 94.9999 134.47 93.6602 132.81 93.6602H114.74C113.07 93.6602 111.73 95.0099 111.73 96.6699V114.74C111.73 116.41 113.08 117.75 114.74 117.75H132.81ZM117.75 99.6802H129.8V111.73H117.75V99.6802Z" fill="#0030E1"/>
<path d="M78.59 153.89H60.52C58.85 153.89 57.51 155.24 57.51 156.9V174.97C57.51 176.64 58.86 177.98 60.52 177.98H78.59C80.26 177.98 81.6 176.63 81.6 174.97V156.9C81.6 155.23 80.25 153.89 78.59 153.89ZM75.58 171.96H63.53V159.91H75.58V171.96Z" fill="#0030E1"/>
<path d="M6.30005 132.81V138.83C6.30005 155.44 19.81 168.95 36.42 168.95H51.48V162.93H36.42C23.13 162.93 12.3199 152.12 12.3199 138.83V132.81C12.3199 119.52 23.13 108.71 36.42 108.71H105.7V102.69H36.42C19.81 102.69 6.30005 116.2 6.30005 132.81Z" fill="#0030E1"/>
<path d="M87.63 168.95H123.77V174.97C123.77 176.05 124.35 177.05 125.3 177.59C125.76 177.85 126.27 177.98 126.78 177.98C127.29 177.98 127.85 177.84 128.33 177.55L143.39 168.51C144.29 167.97 144.85 166.99 144.85 165.93C144.85 164.87 144.29 163.89 143.39 163.35L128.33 154.31C127.4 153.75 126.24 153.74 125.29 154.27C124.34 154.81 123.76 155.81 123.76 156.89V162.91H87.62V168.93L87.63 168.95ZM129.8 162.22L136 165.93L129.8 169.64V162.21V162.22Z" fill="#0030E1"/>
<path d="M165.94 150.88C157.64 150.88 150.88 157.64 150.88 165.94C150.88 174.24 157.64 181 165.94 181C174.24 181 181 174.24 181 165.94C181 157.64 174.24 150.88 165.94 150.88ZM165.94 174.98C160.96 174.98 156.9 170.93 156.9 165.94C156.9 160.95 160.95 156.9 165.94 156.9C170.93 156.9 174.98 160.95 174.98 165.94C174.98 170.93 170.93 174.98 165.94 174.98Z" fill="#0030E1"/>
</svg>
