<svg width="845" height="707" viewBox="0 0 845 707" fill="none" xmlns="http://www.w3.org/2000/svg">
<path d="M421.06 86.4399C421.72 86.4399 422.38 86.29 423 85.96C426.72 84 430.45 82.0298 434.16 80.0498C436.2 78.9598 436.97 76.4199 435.88 74.3799C434.8 72.3399 432.26 71.5702 430.21 72.6602C426.51 74.6402 422.8 76.5998 419.1 78.5498C417.05 79.6298 416.27 82.16 417.34 84.21C418.09 85.64 419.54 86.4502 421.05 86.4502L421.06 86.4399Z" fill="url(#paint0_linear_1_13187)"/>
<path d="M459.73 66.1199C476.47 56.7999 491.76 47.8596 506.49 38.7996C550.26 11.8596 585.35 3.52963 613.74 13.3196C645.19 24.1596 667.21 56.6096 686.87 99.7796C690.08 99.8096 693.18 99.9297 696.21 100.11C675.27 53.1797 651.64 17.5197 616.48 5.39971C585.56 -5.26029 548.15 3.32973 502.11 31.6697C487.49 40.6697 472.3 49.5399 455.67 58.8099C453.65 59.9299 452.92 62.4796 454.05 64.5096C455.18 66.5296 457.73 67.2597 459.75 66.1297L459.73 66.1199Z" fill="url(#paint1_linear_1_13187)"/>
<path d="M813.83 363.46C805.38 351.33 797.61 338.59 790.33 325.49C790.11 330.68 789.89 335.92 789.67 341.19C795.14 350.44 800.86 359.5 806.95 368.25C843.66 420.96 846.13 477.31 814.09 531.23C781.76 585.64 716.87 632.09 631.37 662.01C538.19 694.62 428.69 705.22 314.7 692.67C188.53 678.77 99.6 637.35 50.37 569.56C-4.24001 494.36 10.36 411.52 11.32 406.46C59.64 266.99 194.65 200.05 337.57 129.18C355.66 120.21 374.36 110.94 392.89 101.52C394.95 100.47 395.77 97.9501 394.73 95.8901C393.68 93.8301 391.16 93.0098 389.1 94.0498C370.6 103.45 351.92 112.72 333.85 121.68C189.25 193.38 52.67 261.1 3.30999 404C3.24999 404.17 3.21001 404.34 3.17001 404.51C2.99001 405.4 -14.71 494.08 43.5 574.36C94.15 644.22 185.09 686.83 313.78 701C345.19 704.46 376.25 706.18 406.75 706.18C488.15 706.18 565.49 693.94 634.13 669.92C721.49 639.35 787.96 591.61 821.29 535.51C854.64 479.37 851.99 418.27 813.82 363.46H813.83Z" fill="url(#paint2_linear_1_13187)"/>
<defs>
<linearGradient id="paint0_linear_1_13187" x1="365.92" y1="21.3397" x2="872.633" y2="505.129" gradientUnits="userSpaceOnUse">
<stop stop-color="#1F3EFF"/>
<stop offset="1" stop-color="#FFC107"/>
</linearGradient>
<linearGradient id="paint1_linear_1_13187" x1="442.48" y1="-58.8503" x2="949.2" y2="424.94" gradientUnits="userSpaceOnUse">
<stop stop-color="#1F3EFF"/>
<stop offset="1" stop-color="#FFC107"/>
</linearGradient>
<linearGradient id="paint2_linear_1_13187" x1="174.86" y1="221.46" x2="681.58" y2="705.25" gradientUnits="userSpaceOnUse">
<stop stop-color="#1F3EFF"/>
<stop offset="1" stop-color="#FFC107"/>
</linearGradient>
</defs>
</svg>
