<svg width="388" height="329" viewBox="0 0 388 329" fill="none" xmlns="http://www.w3.org/2000/svg">
<path opacity="0.65" d="M64.62 308.059C49.86 306.729 35.98 297.809 28.65 284.929C21.32 272.049 20.72 255.56 27.11 242.19C34.72 226.27 50.75 215.89 59.51 200.58C67.61 186.41 68.75 169.279 67.47 153.009C66.19 136.729 62.71 120.65 62.33 104.33C61.96 88.0098 65.09 70.8397 75.43 58.2097C85.78 45.5797 104.69 39.0901 119.18 46.6101C131.2 52.8401 137.38 66.4892 147.9 75.0192C164.18 88.2392 187.95 87.0395 207.96 80.7995C227.97 74.5595 246.69 64.0198 267.33 60.3298C287.97 56.6398 312.49 62.0393 322.76 80.3093C331.14 95.2193 327.68 113.659 324.55 130.469C321.42 147.279 319.33 166.319 329.64 179.969C338.44 191.629 353.8 195.9 365.55 204.58C384.36 218.47 392.73 244.959 385.32 267.139C377.91 289.309 355.28 305.439 331.9 305.219L64.63 308.08L64.62 308.059Z" fill="#E6DEFF"/>
<path opacity="0.65" d="M196.49 328.19C289.34 328.19 364.61 319.8 364.61 309.45C364.61 299.1 289.34 290.71 196.49 290.71C103.64 290.71 28.37 299.1 28.37 309.45C28.37 319.8 103.64 328.19 196.49 328.19Z" fill="#D2CBF8"/>
<path d="M61.2301 223.88C59.4101 223.88 59.4101 226.71 61.2301 226.71C63.0501 226.71 63.0501 223.88 61.2301 223.88Z" fill="#5BD1D6"/>
<path d="M9.16004 121.86C7.34004 121.86 7.34004 124.69 9.16004 124.69C10.98 124.69 10.98 121.86 9.16004 121.86Z" fill="#5BD1D6"/>
<path d="M159.74 49.3799C157.92 49.3799 157.92 52.21 159.74 52.21C161.56 52.21 161.56 49.3799 159.74 49.3799Z" fill="#5BD1D6"/>
<path d="M268.8 0.830078C266.98 0.830078 266.98 3.66016 268.8 3.66016C270.62 3.66016 270.62 0.830078 268.8 0.830078Z" fill="#5BD1D6"/>
<path d="M372.23 136.63C370.41 136.63 370.41 139.46 372.23 139.46C374.05 139.46 374.05 136.63 372.23 136.63Z" fill="#5BD1D6"/>
<path d="M318.89 212.92C317.07 212.92 317.07 215.75 318.89 215.75C320.71 215.75 320.71 212.92 318.89 212.92Z" fill="#5BD1D6"/>
<path d="M305.49 166.88L201.34 68.7302C198.62 66.1602 194.37 66.1602 191.64 68.7302L87.49 166.88H305.49Z" fill="#7C6BEB"/>
<path d="M305.49 166.88H87.49V309.38H305.49V166.88Z" fill="#6159D7"/>
<path d="M150.29 193.9C149.6 184.92 149.54 175.87 150.21 166.88H87.49V309.38H196.42C169.74 275.24 153.44 235.02 150.29 193.9Z" fill="#B2122E"/>
<path d="M202.76 70.0701L201.34 68.7302C198.62 66.1602 194.37 66.1602 191.64 68.7302L87.49 166.88H150.21C151.47 150.12 155.32 133.55 162.58 118C171.21 99.5198 184.91 82.5501 202.77 70.0701H202.76Z" fill="#6159D7"/>
<path d="M271.25 301.72H121.73C118.61 301.72 116.07 299.19 116.07 296.06V135.39L159.77 91.3203H271.24C274.36 91.3203 276.9 93.8505 276.9 96.9805V296.07C276.9 299.19 274.37 301.73 271.24 301.73L271.25 301.72Z" fill="#F9F7FF"/>
<path d="M189.18 91.3203H159.78L116.08 135.39V296.06C116.08 299.18 118.61 301.72 121.74 301.72H205.67C198.48 296.28 192.09 289.65 186.71 282.43C175.44 267.33 168.07 249.71 161.57 232.02C152.81 208.2 145.32 183.01 148.19 157.8C151.23 131.06 167.11 106.55 189.19 91.3203H189.18Z" fill="#EBEAF9"/>
<path d="M252.41 217.93H140.57C138.19 217.93 136.26 216 136.26 213.62C136.26 211.24 138.19 209.31 140.57 209.31H252.41C254.79 209.31 256.72 211.24 256.72 213.62C256.72 216 254.79 217.93 252.41 217.93Z" fill="#E0C6F8"/>
<path d="M252.41 191.5H140.57C138.19 191.5 136.26 189.57 136.26 187.19C136.26 184.81 138.19 182.88 140.57 182.88H252.41C254.79 182.88 256.72 184.81 256.72 187.19C256.72 189.57 254.79 191.5 252.41 191.5Z" fill="#E0C6F8"/>
<path d="M252.41 165.07H140.57C138.19 165.07 136.26 163.14 136.26 160.76C136.26 158.38 138.19 156.45 140.57 156.45H252.41C254.79 156.45 256.72 158.38 256.72 160.76C256.72 163.14 254.79 165.07 252.41 165.07Z" fill="#E0C6F8"/>
<path d="M140.57 209.3C138.19 209.3 136.26 211.23 136.26 213.61C136.26 215.99 138.19 217.92 140.57 217.92H156.64C155.71 215.06 154.82 212.18 153.98 209.29H140.57V209.3Z" fill="#CBAFEF"/>
<path d="M140.57 182.87C138.19 182.87 136.26 184.8 136.26 187.18C136.26 189.56 138.19 191.49 140.57 191.49H149.73C149.2 188.62 148.76 185.74 148.41 182.86H140.56L140.57 182.87Z" fill="#CBAFEF"/>
<path d="M140.57 156.44C138.19 156.44 136.26 158.37 136.26 160.75C136.26 163.13 138.19 165.06 140.57 165.06H147.63C147.72 162.64 147.9 160.21 148.18 157.79C148.23 157.34 148.3 156.89 148.35 156.44H140.57Z" fill="#CBAFEF"/>
<path d="M183.24 131.66L178.28 134.269C177.57 134.649 176.73 134.04 176.87 133.24L177.82 127.72C177.87 127.4 177.77 127.08 177.54 126.86L173.53 122.95C172.95 122.39 173.27 121.4 174.07 121.29L179.61 120.48C179.93 120.43 180.2 120.23 180.34 119.95L182.82 114.93C183.18 114.21 184.21 114.21 184.57 114.93L187.05 119.95C187.19 120.24 187.47 120.44 187.78 120.48L193.32 121.29C194.12 121.41 194.44 122.39 193.86 122.95L189.85 126.86C189.62 127.08 189.52 127.41 189.57 127.72L190.52 133.24C190.66 134.04 189.82 134.639 189.11 134.269L184.15 131.66C183.87 131.51 183.53 131.51 183.24 131.66Z" fill="#5BD1D6"/>
<path d="M183.29 120.43C183.86 119.21 184.75 118.25 185.82 117.46L184.57 114.92C184.21 114.2 183.18 114.2 182.82 114.92L180.34 119.94C180.2 120.23 179.92 120.43 179.61 120.47L174.07 121.28C173.27 121.4 172.95 122.38 173.53 122.94L177.54 126.85C177.77 127.07 177.87 127.4 177.82 127.71L176.87 133.23C176.73 134.03 177.57 134.63 178.28 134.26L183.24 131.65C183.52 131.5 183.86 131.5 184.15 131.65L189.11 134.26C189.74 134.59 190.46 134.16 190.53 133.5C188.67 132.56 186.92 131.45 185.49 129.95C183.11 127.44 181.83 123.56 183.29 120.43Z" fill="#25BDBF"/>
<path d="M214.52 131.66L209.56 134.269C208.85 134.649 208.01 134.04 208.15 133.24L209.1 127.72C209.15 127.4 209.05 127.08 208.82 126.86L204.81 122.95C204.23 122.39 204.55 121.4 205.35 121.29L210.89 120.48C211.21 120.43 211.48 120.23 211.62 119.95L214.1 114.93C214.46 114.21 215.49 114.21 215.85 114.93L218.33 119.95C218.47 120.24 218.75 120.44 219.06 120.48L224.6 121.29C225.4 121.41 225.72 122.39 225.14 122.95L221.13 126.86C220.9 127.08 220.8 127.41 220.85 127.72L221.8 133.24C221.94 134.04 221.1 134.639 220.39 134.269L215.43 131.66C215.15 131.51 214.81 131.51 214.52 131.66Z" fill="#5BD1D6"/>
<path d="M214.57 120.43C215.14 119.21 216.03 118.25 217.1 117.46L215.85 114.92C215.49 114.2 214.46 114.2 214.1 114.92L211.62 119.94C211.48 120.23 211.2 120.43 210.89 120.47L205.35 121.28C204.55 121.4 204.23 122.38 204.81 122.94L208.82 126.85C209.05 127.07 209.15 127.4 209.1 127.71L208.15 133.23C208.01 134.03 208.85 134.63 209.56 134.26L214.52 131.65C214.8 131.5 215.14 131.5 215.43 131.65L220.39 134.26C221.02 134.59 221.74 134.16 221.81 133.5C219.95 132.56 218.2 131.45 216.77 129.95C214.39 127.44 213.11 123.56 214.57 120.43Z" fill="#25BDBF"/>
<path d="M245.8 131.66L240.84 134.269C240.12 134.649 239.29 134.04 239.43 133.24L240.38 127.72C240.43 127.4 240.33 127.08 240.1 126.86L236.09 122.95C235.51 122.39 235.83 121.4 236.63 121.29L242.17 120.48C242.49 120.43 242.76 120.23 242.9 119.95L245.38 114.93C245.74 114.21 246.77 114.21 247.13 114.93L249.61 119.95C249.75 120.24 250.03 120.44 250.34 120.48L255.88 121.29C256.68 121.41 257 122.39 256.42 122.95L252.41 126.86C252.18 127.08 252.08 127.41 252.13 127.72L253.08 133.24C253.22 134.04 252.38 134.639 251.67 134.269L246.71 131.66C246.43 131.51 246.09 131.51 245.8 131.66Z" fill="#5BD1D6"/>
<path d="M245.86 120.43C246.43 119.21 247.32 118.25 248.39 117.46L247.14 114.92C246.78 114.2 245.75 114.2 245.39 114.92L242.91 119.94C242.77 120.23 242.49 120.43 242.18 120.47L236.64 121.28C235.84 121.4 235.52 122.38 236.1 122.94L240.11 126.85C240.34 127.07 240.44 127.4 240.39 127.71L239.44 133.23C239.3 134.03 240.14 134.63 240.85 134.26L245.81 131.65C246.09 131.5 246.43 131.5 246.72 131.65L251.68 134.26C252.31 134.59 253.03 134.16 253.1 133.5C251.24 132.56 249.49 131.45 248.06 129.95C245.68 127.44 244.4 123.56 245.86 120.43Z" fill="#25BDBF"/>
<path d="M159.78 91.3203V129.74C159.78 132.86 157.25 135.4 154.12 135.4H116.07L159.77 91.3301L159.78 91.3203Z" fill="#EBEAF9"/>
<path d="M159.78 123.19V91.3203L137.93 113.36L116.08 135.4H153.86C155.53 131.2 157.52 127.12 159.78 123.2V123.19Z" fill="#D8D8EF"/>
<path d="M87.49 166.88L192.49 238.92C194.9 240.57 198.08 240.57 200.49 238.92L305.49 166.88V309.38H87.49V166.88Z" fill="#9780FA"/>
<path d="M152.45 211.45L87.49 166.88V309.38H196.42C173.55 280.12 158.32 246.39 152.45 211.45Z" fill="#7C6BEB"/>
<path d="M292.12 296.769C291.84 296.769 291.57 296.66 291.36 296.45L229.36 233.04C228.95 232.62 228.96 231.95 229.38 231.54C229.8 231.13 230.47 231.139 230.88 231.559L292.88 294.97C293.29 295.39 293.28 296.06 292.86 296.47C292.65 296.67 292.39 296.769 292.12 296.769Z" fill="#7C6BEB"/>
<path d="M100.86 296.769C100.59 296.769 100.32 296.67 100.12 296.47C99.7 296.06 99.69 295.39 100.1 294.97L162.1 231.559C162.51 231.139 163.18 231.13 163.6 231.54C164.02 231.95 164.03 232.62 163.62 233.04L101.62 296.45C101.41 296.66 101.14 296.769 100.86 296.769Z" fill="#7C6BEB"/>
<path d="M100.86 296.77C101.14 296.77 101.41 296.66 101.62 296.45L158.78 237.99C158.54 237.22 158.31 236.45 158.08 235.67L100.1 294.97C99.69 295.39 99.7 296.06 100.12 296.47C100.33 296.67 100.59 296.77 100.86 296.77Z" fill="#6159D7"/>
<path d="M75.74 282.51C87.3932 282.51 96.84 273.063 96.84 261.41C96.84 249.757 87.3932 240.31 75.74 240.31C64.0868 240.31 54.64 249.757 54.64 261.41C54.64 273.063 64.0868 282.51 75.74 282.51Z" fill="#CD72ED"/>
<path d="M83.58 280.99C80.65 278.63 78.3 275.52 76.54 272.17C73.78 266.91 72.36 260.8 73.49 254.97C74.55 249.47 78.03 244.58 82.67 241.47C80.5 240.72 78.17 240.3 75.75 240.3C64.1 240.3 54.65 249.75 54.65 261.4C54.65 273.05 64.1 282.5 75.75 282.5C78.52 282.5 81.16 281.96 83.59 280.99H83.58Z" fill="#B35ADF"/>
<path d="M75.74 278.48C85.1675 278.48 92.81 270.838 92.81 261.41C92.81 251.983 85.1675 244.34 75.74 244.34C66.3125 244.34 58.67 251.983 58.67 261.41C58.67 270.838 66.3125 278.48 75.74 278.48Z" fill="#F9F7FF"/>
<path d="M78.93 244.63C77.9 244.43 76.83 244.33 75.74 244.33C66.31 244.33 58.67 251.97 58.67 261.4C58.67 270.83 66.31 278.47 75.74 278.47C77.34 278.47 78.89 278.25 80.36 277.83C78.88 276.1 77.6 274.18 76.54 272.16C73.78 266.9 72.36 260.79 73.49 254.96C74.24 251.07 76.21 247.49 78.93 244.62V244.63Z" fill="#EBEAF9"/>
<path d="M80.59 253.21C77.15 253.21 75.74 256.02 75.74 256.02C75.74 256.02 74.33 253.21 70.89 253.21C67.45 253.21 65.66 256.56 65.66 259.2C65.66 263.39 70.22 266.95 75.74 270.99C81.26 266.95 85.82 263.39 85.82 259.2C85.82 256.56 84.03 253.21 80.59 253.21Z" fill="#5BD1D6"/>
<path d="M73.48 254.97C73.55 254.63 73.63 254.3 73.71 253.97C72.98 253.54 72.05 253.21 70.88 253.21C67.44 253.21 65.65 256.56 65.65 259.2C65.65 263.39 70.21 266.95 75.73 270.99C75.78 270.95 75.83 270.91 75.89 270.87C73.56 265.92 72.45 260.32 73.48 254.97Z" fill="#25BDBF"/>
<path d="M314.28 194.24C325.933 194.24 335.38 184.793 335.38 173.14C335.38 161.486 325.933 152.04 314.28 152.04C302.627 152.04 293.18 161.486 293.18 173.14C293.18 184.793 302.627 194.24 314.28 194.24Z" fill="#CD72ED"/>
<path d="M322.11 192.73C319.18 190.37 316.83 187.26 315.07 183.91C312.31 178.65 310.89 172.54 312.02 166.71C313.08 161.21 316.56 156.32 321.2 153.21C319.03 152.46 316.7 152.04 314.28 152.04C302.63 152.04 293.18 161.49 293.18 173.14C293.18 184.79 302.63 194.24 314.28 194.24C317.05 194.24 319.69 193.7 322.12 192.73H322.11Z" fill="#B35ADF"/>
<path d="M314.28 190.21C323.707 190.21 331.35 182.567 331.35 173.14C331.35 163.712 323.707 156.07 314.28 156.07C304.852 156.07 297.21 163.712 297.21 173.14C297.21 182.567 304.852 190.21 314.28 190.21Z" fill="#F9F7FF"/>
<path d="M317.46 156.37C316.43 156.17 315.36 156.07 314.27 156.07C304.84 156.07 297.2 163.71 297.2 173.14C297.2 182.57 304.84 190.21 314.27 190.21C315.87 190.21 317.42 189.99 318.89 189.57C317.41 187.84 316.13 185.92 315.07 183.9C312.31 178.64 310.89 172.53 312.02 166.7C312.77 162.81 314.74 159.23 317.46 156.36V156.37Z" fill="#EBEAF9"/>
<path d="M319.13 164.95C315.69 164.95 314.28 167.76 314.28 167.76C314.28 167.76 312.87 164.95 309.43 164.95C305.99 164.95 304.2 168.3 304.2 170.94C304.2 175.13 308.76 178.69 314.28 182.73C319.8 178.69 324.36 175.13 324.36 170.94C324.36 168.3 322.57 164.95 319.13 164.95Z" fill="#5BD1D6"/>
<path d="M312.02 166.71C312.09 166.37 312.17 166.04 312.25 165.71C311.52 165.28 310.59 164.95 309.42 164.95C305.98 164.95 304.19 168.3 304.19 170.94C304.19 175.13 308.75 178.69 314.27 182.73C314.32 182.69 314.37 182.65 314.43 182.61C312.1 177.66 310.99 172.06 312.02 166.71Z" fill="#25BDBF"/>
<path d="M116.08 102.31C127.733 102.31 137.18 92.8632 137.18 81.21C137.18 69.5568 127.733 60.1104 116.08 60.1104C104.427 60.1104 94.98 69.5568 94.98 81.21C94.98 92.8632 104.427 102.31 116.08 102.31Z" fill="#CD72ED"/>
<path d="M123.92 100.8C120.99 98.4398 118.64 95.3305 116.88 91.9805C114.12 86.7205 112.7 80.6103 113.83 74.7803C114.89 69.2803 118.37 64.3903 123.01 61.2803C120.84 60.5303 118.51 60.1104 116.09 60.1104C104.44 60.1104 94.99 69.56 94.99 81.21C94.99 92.86 104.44 102.31 116.09 102.31C118.86 102.31 121.5 101.77 123.93 100.8H123.92Z" fill="#B35ADF"/>
<path d="M116.08 98.2803C125.507 98.2803 133.15 90.6375 133.15 81.21C133.15 71.7825 125.507 64.1396 116.08 64.1396C106.652 64.1396 99.01 71.7825 99.01 81.21C99.01 90.6375 106.652 98.2803 116.08 98.2803Z" fill="#F9F7FF"/>
<path d="M119.27 64.4404C118.24 64.2404 117.17 64.1396 116.08 64.1396C106.65 64.1396 99.01 71.78 99.01 81.21C99.01 90.64 106.65 98.2803 116.08 98.2803C117.68 98.2803 119.23 98.0596 120.7 97.6396C119.22 95.9096 117.94 93.9897 116.88 91.9697C114.12 86.7097 112.7 80.5995 113.83 74.7695C114.58 70.8795 116.55 67.2997 119.27 64.4297V64.4404Z" fill="#EBEAF9"/>
<path d="M120.93 73.0195C117.49 73.0195 116.08 75.8301 116.08 75.8301C116.08 75.8301 114.67 73.0195 111.23 73.0195C107.79 73.0195 106 76.3698 106 79.0098C106 83.1998 110.56 86.7598 116.08 90.7998C121.6 86.7598 126.16 83.1998 126.16 79.0098C126.16 76.3698 124.37 73.0195 120.93 73.0195Z" fill="#5BD1D6"/>
<path d="M113.83 74.7803C113.9 74.4403 113.98 74.1103 114.06 73.7803C113.33 73.3503 112.4 73.0195 111.23 73.0195C107.79 73.0195 106 76.3698 106 79.0098C106 83.1998 110.56 86.7598 116.08 90.7998C116.13 90.7598 116.18 90.7197 116.24 90.6797C113.91 85.7297 112.8 80.1303 113.83 74.7803Z" fill="#25BDBF"/>
<path d="M109.85 159.34H22.02C9.85999 159.34 0.0100098 169.2 0.0100098 181.35C0.0100098 193.51 9.86999 203.36 22.02 203.36H61.84L103.51 223.65V203.36H109.85C122.01 203.36 131.86 193.5 131.86 181.35C131.86 169.19 122 159.34 109.85 159.34Z" fill="#E988FF"/>
<path d="M89.82 206.29C80.78 203.77 72.04 199.92 65.19 194.06C58.34 188.2 53.51 180.19 53.12 171.72C52.93 167.47 53.96 163.15 56.07 159.34H22.02C9.85999 159.34 0.0100098 169.2 0.0100098 181.35C0.0100098 193.51 9.86999 203.36 22.02 203.36H61.84L103.51 223.65V209.25C98.89 208.47 94.31 207.53 89.82 206.27V206.29Z" fill="#D269F7"/>
<path d="M114.85 181.35C114.85 185.4 111.57 188.69 107.51 188.69C103.45 188.69 100.17 185.41 100.17 181.35C100.17 177.29 103.45 174.01 107.51 174.01C111.57 174.01 114.85 177.29 114.85 181.35Z" fill="#F9F7FF"/>
<path d="M79.79 188.69C83.8438 188.69 87.13 185.403 87.13 181.35C87.13 177.296 83.8438 174.01 79.79 174.01C75.7362 174.01 72.45 177.296 72.45 181.35C72.45 185.403 75.7362 188.69 79.79 188.69Z" fill="#F9F7FF"/>
<path d="M59.41 181.35C59.41 185.4 56.13 188.69 52.07 188.69C48.01 188.69 44.73 185.41 44.73 181.35C44.73 177.29 48.01 174.01 52.07 174.01C56.13 174.01 59.41 177.29 59.41 181.35Z" fill="#F9F7FF"/>
<path d="M53.37 174.14C52.95 174.06 52.52 174.02 52.07 174.02C48.02 174.02 44.73 177.3 44.73 181.36C44.73 185.42 48.01 188.7 52.07 188.7C54.45 188.7 56.56 187.56 57.9 185.8C55.57 182.2 53.96 178.25 53.36 174.15L53.37 174.14Z" fill="#EBEAF9"/>
<path d="M24.35 188.69C28.4038 188.69 31.69 185.403 31.69 181.35C31.69 177.296 28.4038 174.01 24.35 174.01C20.2962 174.01 17.01 177.296 17.01 181.35C17.01 185.403 20.2962 188.69 24.35 188.69Z" fill="#EBEAF9"/>
<path d="M319.557 83.1359C322.983 61.843 308.499 41.8045 287.206 38.3787C265.913 34.9529 245.875 49.4371 242.449 70.73C239.023 92.0229 253.507 112.061 274.8 115.487C296.093 118.913 316.131 104.429 319.557 83.1359Z" fill="#C9BBFF"/>
<path d="M294.44 41.1602C290.22 39.6002 285.66 38.75 280.91 38.75C259.35 38.75 241.86 56.2298 241.86 77.7998C241.86 99.3698 259.34 116.85 280.91 116.85C287.21 116.85 293.15 115.35 298.41 112.7C287.93 110.35 278.44 104.45 272.68 96.3301C265.12 85.6701 264.22 71.5402 270.38 60.2002C275.16 51.3902 284.08 44.4899 294.44 41.1699V41.1602Z" fill="#ADA1F9"/>
<path d="M300.84 70.7002C300.45 70.7002 300.13 70.3802 300.13 69.9902C300.13 67.4402 298.05 65.3604 295.5 65.3604C292.95 65.3604 290.87 67.4402 290.87 69.9902C290.87 70.3802 290.55 70.7002 290.16 70.7002C289.77 70.7002 289.45 70.3802 289.45 69.9902C289.45 66.6602 292.16 63.9502 295.49 63.9502C298.82 63.9502 301.53 66.6602 301.53 69.9902C301.53 70.3802 301.21 70.7002 300.82 70.7002H300.84Z" fill="#624FBD"/>
<path d="M271.65 70.7002C271.26 70.7002 270.94 70.3802 270.94 69.9902C270.94 67.4402 268.86 65.3604 266.31 65.3604C263.76 65.3604 261.68 67.4402 261.68 69.9902C261.68 70.3802 261.36 70.7002 260.97 70.7002C260.58 70.7002 260.26 70.3802 260.26 69.9902C260.26 66.6602 262.97 63.9502 266.3 63.9502C269.63 63.9502 272.34 66.6602 272.34 69.9902C272.34 70.3802 272.02 70.7002 271.63 70.7002H271.65Z" fill="#4A40A3"/>
<path d="M260.98 70.7002C261.37 70.7002 261.69 70.3802 261.69 69.9902C261.69 67.4402 263.77 65.3604 266.32 65.3604C266.92 65.3604 267.49 65.4797 268.01 65.6797C268.16 65.2297 268.32 64.7896 268.48 64.3496C267.81 64.0896 267.08 63.9404 266.32 63.9404C262.99 63.9404 260.28 66.6505 260.28 69.9805C260.28 70.3705 260.6 70.6904 260.99 70.6904L260.98 70.7002Z" fill="#4949BE"/>
<path d="M262.46 85.9697C263.97 94.7897 271.65 101.51 280.91 101.51C290.17 101.51 297.84 94.7997 299.36 85.9697H262.47H262.46Z" fill="#624FBD"/>
<path d="M272.68 96.3203C270.41 93.1203 268.75 89.62 267.69 85.96H262.46C263.73 93.38 269.38 99.3002 276.65 100.99C275.19 99.5302 273.85 97.9703 272.68 96.3203Z" fill="#4A40A3"/>
<path d="M351.75 233.14H243.43C233.22 233.14 224.94 241.42 224.94 251.63C224.94 261.84 233.22 270.12 243.43 270.12H283.84L296.5 286.65L309.68 270.12H351.74C361.95 270.12 370.23 261.84 370.23 251.63C370.23 241.42 361.95 233.14 351.74 233.14H351.75Z" fill="#5BD1D6"/>
<path d="M243.43 233.14C233.22 233.14 224.94 241.42 224.94 251.63C224.94 261.84 233.22 270.12 243.43 270.12H283.84L296.5 286.65L304.9 276.12C299.53 274.14 294.33 271.84 289.51 268.91C280.37 263.35 272.63 255.16 270.4 245.36C269.49 241.35 269.69 237.09 270.9 233.13H243.42L243.43 233.14Z" fill="#25BDBF"/>
<path d="M247.08 257.161L243.11 259.25C242.54 259.55 241.87 259.06 241.98 258.43L242.74 254C242.78 253.75 242.7 253.49 242.52 253.31L239.3 250.18C238.84 249.73 239.09 248.94 239.73 248.85L244.17 248.201C244.42 248.161 244.64 248 244.76 247.77L246.75 243.741C247.04 243.161 247.86 243.161 248.15 243.741L250.14 247.77C250.25 248 250.47 248.161 250.73 248.201L255.17 248.85C255.81 248.94 256.07 249.73 255.6 250.18L252.38 253.31C252.2 253.49 252.11 253.75 252.16 254L252.92 258.43C253.03 259.07 252.36 259.55 251.79 259.25L247.82 257.161C247.59 257.041 247.32 257.041 247.09 257.161H247.08Z" fill="#6159D7"/>
<path d="M272.16 257.161L268.19 259.25C267.62 259.55 266.95 259.06 267.06 258.43L267.82 254C267.86 253.75 267.78 253.49 267.6 253.31L264.38 250.18C263.92 249.73 264.17 248.94 264.81 248.85L269.25 248.201C269.5 248.161 269.72 248 269.84 247.77L271.83 243.741C272.12 243.161 272.94 243.161 273.23 243.741L275.22 247.77C275.33 248 275.55 248.161 275.81 248.201L280.25 248.85C280.89 248.94 281.15 249.73 280.68 250.18L277.46 253.31C277.28 253.49 277.19 253.75 277.24 254L278 258.43C278.11 259.07 277.44 259.55 276.87 259.25L272.9 257.161C272.67 257.041 272.4 257.041 272.17 257.161H272.16Z" fill="#7C6BEB"/>
<path d="M267.58 253.31C267.76 253.49 267.85 253.75 267.8 254L267.04 258.43C266.93 259.07 267.6 259.55 268.17 259.25L272.14 257.16C272.37 257.04 272.64 257.04 272.87 257.16L276.84 259.25C277.15 259.41 277.48 259.34 277.71 259.15C274.37 255.3 271.84 250.94 270.6 246.18L269.81 247.77C269.7 248 269.48 248.16 269.22 248.2L264.78 248.85C264.14 248.94 263.88 249.73 264.35 250.18L267.57 253.31H267.58Z" fill="#6159D7"/>
<path d="M297.23 257.161L293.26 259.25C292.69 259.55 292.02 259.06 292.13 258.43L292.89 254C292.93 253.75 292.85 253.49 292.67 253.31L289.45 250.18C288.99 249.73 289.24 248.94 289.88 248.85L294.32 248.201C294.57 248.161 294.79 248 294.91 247.77L296.9 243.741C297.19 243.161 298.01 243.161 298.3 243.741L300.29 247.77C300.4 248 300.62 248.161 300.88 248.201L305.32 248.85C305.96 248.94 306.22 249.73 305.75 250.18L302.53 253.31C302.35 253.49 302.26 253.75 302.31 254L303.07 258.43C303.18 259.07 302.51 259.55 301.94 259.25L297.97 257.161C297.74 257.041 297.47 257.041 297.24 257.161H297.23Z" fill="#7C6BEB"/>
<path d="M322.3 257.161L318.33 259.25C317.76 259.55 317.09 259.06 317.2 258.43L317.96 254C318 253.75 317.92 253.49 317.74 253.31L314.52 250.18C314.06 249.73 314.31 248.94 314.95 248.85L319.39 248.201C319.64 248.161 319.86 248 319.98 247.77L321.97 243.741C322.26 243.161 323.08 243.161 323.37 243.741L325.36 247.77C325.47 248 325.69 248.161 325.95 248.201L330.39 248.85C331.03 248.94 331.29 249.73 330.82 250.18L327.6 253.31C327.42 253.49 327.33 253.75 327.38 254L328.14 258.43C328.25 259.07 327.58 259.55 327.01 259.25L323.04 257.161C322.81 257.041 322.54 257.041 322.31 257.161H322.3Z" fill="#7C6BEB"/>
<path d="M347.38 257.161L343.41 259.25C342.84 259.55 342.17 259.06 342.28 258.43L343.04 254C343.08 253.75 343 253.49 342.82 253.31L339.6 250.18C339.14 249.73 339.39 248.94 340.03 248.85L344.47 248.201C344.72 248.161 344.94 248 345.06 247.77L347.05 243.741C347.34 243.161 348.16 243.161 348.45 243.741L350.44 247.77C350.55 248 350.77 248.161 351.03 248.201L355.47 248.85C356.11 248.94 356.37 249.73 355.9 250.18L352.68 253.31C352.5 253.49 352.41 253.75 352.46 254L353.22 258.43C353.33 259.07 352.66 259.55 352.09 259.25L348.12 257.161C347.89 257.041 347.62 257.041 347.39 257.161H347.38Z" fill="#7C6BEB"/>
<path d="M30.59 274.79L28 276.15C27.63 276.35 27.19 276.03 27.26 275.61L27.75 272.73C27.78 272.56 27.72 272.4 27.6 272.28L25.51 270.24C25.21 269.95 25.37 269.43 25.79 269.37L28.68 268.95C28.85 268.93 28.99 268.82 29.06 268.67L30.35 266.05C30.54 265.67 31.08 265.67 31.26 266.05L32.55 268.67C32.62 268.82 32.77 268.92 32.93 268.95L35.82 269.37C36.24 269.43 36.4 269.94 36.1 270.24L34.01 272.28C33.89 272.4 33.84 272.57 33.86 272.73L34.35 275.61C34.42 276.03 33.99 276.34 33.61 276.15L31.02 274.79C30.87 274.71 30.69 274.71 30.55 274.79H30.59Z" fill="#9780FA"/>
<path d="M30.62 268.93C30.92 268.29 31.38 267.79 31.94 267.38L31.29 266.05C31.1 265.67 30.56 265.67 30.38 266.05L29.09 268.67C29.02 268.82 28.87 268.92 28.71 268.95L25.82 269.37C25.4 269.43 25.24 269.94 25.54 270.24L27.63 272.28C27.75 272.4 27.8 272.57 27.78 272.73L27.29 275.61C27.22 276.03 27.65 276.34 28.03 276.15L30.62 274.79C30.77 274.71 30.95 274.71 31.09 274.79L33.68 276.15C34.01 276.32 34.39 276.1 34.42 275.75C33.45 275.26 32.54 274.68 31.79 273.9C30.55 272.59 29.88 270.57 30.64 268.93H30.62Z" fill="#7C6BEB"/>
<path d="M224.7 28.2899L222.11 29.6502C221.74 29.8502 221.3 29.5302 221.37 29.1102L221.86 26.2303C221.89 26.0703 221.83 25.9001 221.71 25.7801L219.62 23.7401C219.32 23.4501 219.48 22.93 219.9 22.87L222.79 22.45C222.96 22.43 223.1 22.3198 223.17 22.1698L224.46 19.5496C224.65 19.1696 225.19 19.1696 225.37 19.5496L226.66 22.1698C226.73 22.3198 226.88 22.42 227.04 22.45L229.93 22.87C230.35 22.93 230.51 23.4401 230.21 23.7401L228.12 25.7801C228 25.9001 227.95 26.0703 227.97 26.2303L228.46 29.1102C228.53 29.5302 228.1 29.8402 227.72 29.6502L225.13 28.2899C224.98 28.2099 224.8 28.2099 224.66 28.2899H224.7Z" fill="#9780FA"/>
<path d="M224.73 22.4295C225.03 21.7895 225.49 21.2897 226.05 20.8797L225.4 19.5496C225.21 19.1696 224.67 19.1696 224.49 19.5496L223.2 22.1698C223.13 22.3198 222.98 22.42 222.82 22.45L219.93 22.87C219.51 22.93 219.35 23.4401 219.65 23.7401L221.74 25.7801C221.86 25.9001 221.91 26.0703 221.89 26.2303L221.4 29.1102C221.33 29.5302 221.76 29.8402 222.14 29.6502L224.73 28.2899C224.88 28.2099 225.06 28.2099 225.2 28.2899L227.79 29.6502C228.12 29.8202 228.5 29.5996 228.53 29.2596C227.56 28.7696 226.65 28.19 225.9 27.41C224.66 26.1 223.99 24.0803 224.75 22.4403L224.73 22.4295Z" fill="#7C6BEB"/>
<path d="M374.75 202.36L372.16 203.72C371.79 203.92 371.35 203.6 371.42 203.18L371.91 200.3C371.94 200.13 371.88 199.969 371.76 199.849L369.67 197.809C369.37 197.519 369.53 197 369.95 196.94L372.84 196.519C373.01 196.499 373.15 196.39 373.22 196.24L374.51 193.62C374.7 193.24 375.24 193.24 375.42 193.62L376.71 196.24C376.78 196.39 376.93 196.489 377.09 196.519L379.98 196.94C380.4 197 380.56 197.509 380.26 197.809L378.17 199.849C378.05 199.969 378 200.14 378.02 200.3L378.51 203.18C378.58 203.6 378.15 203.91 377.77 203.72L375.18 202.36C375.03 202.28 374.85 202.28 374.71 202.36H374.75Z" fill="#9780FA"/>
<path d="M374.78 196.5C375.08 195.86 375.54 195.36 376.1 194.95L375.45 193.62C375.26 193.24 374.72 193.24 374.54 193.62L373.25 196.24C373.18 196.39 373.03 196.489 372.87 196.519L369.98 196.94C369.56 197 369.4 197.509 369.7 197.809L371.79 199.849C371.91 199.969 371.96 200.14 371.94 200.3L371.45 203.18C371.38 203.6 371.81 203.91 372.19 203.72L374.78 202.36C374.93 202.28 375.11 202.28 375.25 202.36L377.84 203.72C378.17 203.89 378.55 203.67 378.58 203.32C377.61 202.83 376.7 202.25 375.95 201.47C374.71 200.16 374.04 198.14 374.8 196.5H374.78Z" fill="#7C6BEB"/>
<path d="M46.37 102.08L43.78 103.44C43.41 103.64 42.97 103.32 43.04 102.9L43.53 100.019C43.56 99.8594 43.5 99.6902 43.38 99.5702L41.29 97.5301C40.99 97.2401 41.15 96.72 41.57 96.66L44.46 96.2401C44.63 96.2201 44.77 96.1098 44.84 95.9598L46.13 93.3397C46.32 92.9597 46.86 92.9597 47.04 93.3397L48.33 95.9598C48.4 96.1098 48.55 96.2101 48.71 96.2401L51.6 96.66C52.02 96.72 52.18 97.2301 51.88 97.5301L49.79 99.5702C49.67 99.6902 49.62 99.8594 49.64 100.019L50.13 102.9C50.2 103.32 49.77 103.63 49.39 103.44L46.8 102.08C46.65 102 46.47 102 46.33 102.08H46.37Z" fill="#9780FA"/>
<path d="M46.4001 96.2303C46.7001 95.5903 47.1601 95.0895 47.7201 94.6795L47.0701 93.3495C46.8801 92.9695 46.3401 92.9695 46.1601 93.3495L44.8701 95.9696C44.8001 96.1196 44.65 96.2198 44.49 96.2498L41.6001 96.6698C41.1801 96.7298 41.0201 97.2399 41.3201 97.5399L43.4101 99.5799C43.5301 99.6999 43.5801 99.8601 43.5601 100.03L43.0701 102.91C43.0001 103.33 43.4301 103.64 43.8101 103.45L46.4001 102.09C46.5501 102.01 46.7301 102.01 46.8701 102.09L49.46 103.45C49.79 103.62 50.1701 103.399 50.2001 103.059C49.2301 102.569 48.3201 101.99 47.5701 101.21C46.3301 99.8998 45.6601 97.8801 46.4201 96.2401L46.4001 96.2303Z" fill="#7C6BEB"/>
</svg>
