<svg width="1255" height="697" viewBox="0 0 1255 697" fill="none" xmlns="http://www.w3.org/2000/svg">
<path d="M611.74 696.62C929.028 696.62 1186.24 665.58 1186.24 627.29C1186.24 589 929.028 557.96 611.74 557.96C294.452 557.96 37.24 589 37.24 627.29C37.24 665.58 294.452 696.62 611.74 696.62Z" fill="#EAEAEA"/>
<g opacity="0.6">
<path d="M876.42 371.849C911.77 278.729 967.71 162.52 1021.79 180.08C1086.96 201.23 995.73 303.439 933.38 394.559C911.01 427.249 853.9 431.189 876.43 371.849H876.42Z" fill="#EAEAEA"/>
</g>
<path d="M893.08 475.151C893.08 475.151 1063.26 201.66 1150.79 252.05C1238.32 302.44 987.91 409.27 941.41 490.5L893.09 475.151H893.08Z" fill="#D5D6DA"/>
<path d="M920.04 483.97C951.14 427.29 1004.15 376.87 1043.15 344.55C1085.43 309.52 1120.78 287.64 1121.13 287.43L1119.78 285.23C1119.43 285.45 1083.92 307.42 1041.51 342.56C1002.34 375.02 949.08 425.68 917.79 482.72L920.05 483.96L920.04 483.97Z" fill="white"/>
<path d="M1187.69 501.09C1147.23 510.32 1154.65 571.64 1108.31 560.76C1069.11 551.54 1065.78 547.97 1052.38 559.38C1047.78 563.29 1043.84 567.901 1040.52 572.941C1036.54 578.981 1028.82 587.901 1016.97 590.111C944.58 603.641 844.22 497.49 919.23 437.54C924.65 433.21 932.58 431.48 941.37 430C989.05 422.02 1004.18 443.781 1041.18 387.071C1078.19 330.351 1130.16 410.5 1162.16 407.3C1194.16 404.1 1222.28 394.18 1247.62 427.85C1272.96 461.54 1228.15 491.88 1187.69 501.09Z" fill="#EAEAEA"/>
<g opacity="0.5">
<path d="M943.2 515.32L941.65 513.07C942.64 512.39 1043.2 444.66 1253.48 437.42L1253.57 440.15C1044.08 447.36 944.18 514.64 943.2 515.31V515.32Z" fill="white"/>
<path d="M1073.16 432.65C1045.14 407.99 1040.04 388.22 1039.84 387.39L1042.49 386.74C1042.54 386.94 1047.66 406.57 1074.97 430.6L1073.16 432.65Z" fill="white"/>
<path d="M1078.29 462.05C1070.34 448.4 1070.86 428.59 1079.79 404.78C1086.47 386.94 1095.62 372.92 1095.71 372.78L1097.99 374.28C1097.63 374.83 1062.38 429.3 1080.65 460.69L1078.29 462.06V462.05Z" fill="white"/>
<path d="M1133.6 456.69C1130.27 453.96 1128.46 452.19 1128.38 452.11L1130.31 450.18C1130.69 450.56 1168.73 487.92 1224.24 485.64L1224.35 488.37C1179.62 490.21 1146.01 466.86 1133.6 456.7V456.69Z" fill="white"/>
<path d="M1161.57 519.5C1148.74 505.5 1144.97 491.41 1144.06 482.06C1143.07 471.88 1145.13 465.08 1145.22 464.8L1147.83 465.61C1147.75 465.87 1140.09 492.04 1163.58 517.67L1161.57 519.51V519.5Z" fill="white"/>
</g>
<path d="M897.77 220.42C896.73 209.77 901.06 206.15 906.79 205.59C912.52 205.03 917.47 207.74 918.51 218.39C920.41 237.79 910.95 248.17 910.95 248.17C910.95 248.17 899.69 240.09 897.77 220.41V220.42Z" fill="#EAEAEA"/>
<g opacity="0.6">
<path d="M1175.51 363.821C1185.31 362.211 1188.74 364.84 1189.37 368.68C1190 372.52 1187.6 376.111 1177.8 377.731C1159.95 380.671 1150.18 375.13 1150.18 375.13C1150.18 375.13 1157.4 366.801 1175.51 363.821Z" fill="#EAEAEA"/>
</g>
<g opacity="0.6">
<path d="M1153.51 342.52C1158.84 334.85 1162.86 334.26 1165.87 336.34C1168.88 338.43 1169.73 342.4 1164.41 350.08C1154.71 364.06 1144.57 367.04 1144.57 367.04C1144.57 367.04 1143.67 356.71 1153.52 342.52H1153.51Z" fill="#EAEAEA"/>
</g>
<path d="M391.81 172.95C384.08 179.65 379.65 179.19 377.02 176.15C374.39 173.12 374.57 168.67 382.3 161.97C396.39 149.77 407.95 149.36 407.95 149.36C407.95 149.36 406.1 160.57 391.81 172.95Z" fill="#EAEAEA"/>
<path d="M403.45 238.22C398.3 247.06 393.96 248.06 390.49 246.04C387.02 244.02 385.75 239.76 390.9 230.91C400.28 214.8 411.09 210.67 411.09 210.67C411.09 210.67 412.97 221.87 403.45 238.22Z" fill="#EAEAEA"/>
<path d="M399.22 314.52L396.69 313.85C383.42 288.68 363.96 259.17 335.75 229.77C335.26 229.26 334.76 228.74 334.26 228.23C324.89 218.57 314.58 208.94 303.23 199.49C300.78 197.44 298.28 195.41 295.74 193.38L296.94 191.86C299.45 193.85 301.9 195.85 304.31 197.86C326.97 216.72 345.52 236.28 360.67 255.33C361.14 255.91 361.6 256.5 362.06 257.08C378.02 277.38 390.12 297.02 399.22 314.51V314.52Z" fill="#EAEAEA"/>
<path d="M361.88 257.54L360.09 256.81C386.61 191.67 351.05 125.12 350.68 124.45L352.38 123.52C352.75 124.19 388.75 191.53 361.88 257.53V257.54Z" fill="#EAEAEA"/>
<path d="M327.48 231.95C308.14 235.53 291.73 228.55 291.54 228.47L292.31 226.69C292.52 226.78 313.54 235.69 335.72 227.73L336.38 229.55C333.38 230.63 330.4 231.41 327.49 231.95H327.48Z" fill="#EAEAEA"/>
<path d="M292.49 183C304.25 190.22 306.04 195.14 303.94 198.56C301.84 201.98 296.64 202.6 284.88 195.38C263.46 182.22 256.91 169.67 256.91 169.67C256.91 169.67 270.75 169.65 292.48 183H292.49Z" fill="#EAEAEA"/>
<path d="M295.51 221.36C308.9 224.7 312.09 228.85 311.12 232.74C310.15 236.63 305.38 238.79 291.99 235.45C267.6 229.36 257.57 219.37 257.57 219.37C257.57 219.37 270.76 215.18 295.5 221.36H295.51Z" fill="#EAEAEA"/>
<path d="M341.34 198.01C345.45 207.38 343.69 211.47 340.02 213.08C336.35 214.69 332.15 213.21 328.04 203.84C320.56 186.77 323.59 175.6 323.59 175.6C323.59 175.6 333.75 180.69 341.34 198.01Z" fill="#EAEAEA"/>
<path d="M354.96 115.07C360.56 127.68 359.26 132.75 355.6 134.38C351.94 136.01 347.3 133.58 341.69 120.97C331.48 97.9997 333.18 83.9502 333.18 83.9502C333.18 83.9502 344.6 91.7703 354.96 115.07Z" fill="#EAEAEA"/>
<path d="M336.79 416.38C336.79 416.38 266.59 206.09 210.24 227.29C153.89 248.48 288.5 357.779 307 419.639L336.79 416.38Z" fill="#D5D6DA"/>
<path d="M354.17 427.03C354.17 427.03 167.96 191.21 92.0601 247.03C16.1601 302.85 259.4 375.82 310.97 446.29L354.17 427.03Z" fill="#EAEAEA"/>
<path d="M330.1 438.01C295.37 388.7 240.99 347.48 201.47 321.58C158.63 293.51 123.59 276.9 123.24 276.74L124.27 274.56C124.62 274.72 159.82 291.4 202.79 319.56C242.48 345.57 297.12 386.99 332.07 436.62L330.1 438.01Z" fill="white"/>
<path d="M343.14 555.46C331.64 582.07 279.53 589.179 256.5 576.599C249.93 573.009 219.22 543.71 164.36 553.45C125.01 560.42 120.39 525.76 103.69 500.67C103.39 500.21 103.08 499.759 102.77 499.299C96.32 490.009 88.05 482.21 75.47 478.59C62.13 474.77 48.49 468.909 36.54 461.599C35.55 460.999 34.57 460.38 33.6 459.75C9.92997 444.43 -6.03006 423.35 2.56994 401.54C2.76994 401.02 2.98996 400.51 3.21996 399.99C4.82996 396.38 7.13005 392.75 10.18 389.13C41.96 351.43 74.18 364.84 111.37 370.65C131.93 373.86 161.26 347.689 190.08 335.259C190.49 335.079 190.91 334.91 191.32 334.73C214.2 325.17 236.66 324.67 254.05 354.82C254.05 354.82 254.05 354.82 254.05 354.83C254.4 355.44 254.76 356.049 255.1 356.639C293.95 423.049 416.16 306.71 343.15 555.44L343.14 555.46Z" fill="#D5D6DA"/>
<path d="M360.22 511.03L362.17 508.5C361.06 507.64 247.94 422 2.69995 399.95L2.41003 403.13C246.73 425.11 359.11 510.17 360.21 511.03H360.22Z" fill="white"/>
<path d="M141.53 430.2C145.6 427.23 147.82 425.27 147.92 425.18L145.79 422.8C145.33 423.22 98.46 464.42 33.74 458.16L33.4301 461.34C85.5801 466.39 126.36 441.27 141.52 430.2H141.53Z" fill="white"/>
<path d="M104.78 501.79C120.67 486.26 125.99 470.04 127.66 459.17C129.47 447.34 127.51 439.26 127.42 438.92L124.32 439.69C124.4 440 131.65 471.07 102.55 499.5L104.78 501.78V501.79Z" fill="white"/>
<path d="M62.38 347.35C52.94 343.4 51.39 339.22 52.94 335.52C54.49 331.82 58.55 330 67.99 333.95C85.18 341.15 90.6801 351.33 90.6801 351.33C90.6801 351.33 79.82 354.65 62.37 347.34L62.38 347.35Z" fill="#EAEAEA"/>
<path d="M710.27 22.8999C710.27 22.8999 723.15 -1.88001 755.73 1.22999C788.31 4.32999 784.43 29.1694 799.95 26.8394C815.47 24.5094 837.19 26.8399 841.84 42.3599C846.49 57.8799 867.44 49.3396 868.22 62.5396C869 75.7296 844.17 85.0497 815.47 73.4097C786.77 61.7697 772.8 82.4495 732.46 78.7095C692.12 74.9595 687.12 70.3092 663.24 72.6392C639.36 74.9692 639.93 58.6095 650.79 47.7495C661.65 36.8795 705.62 37.9197 710.27 22.9097V22.8999Z" fill="#EAEAEA"/>
<path d="M149.53 97.2308C149.53 97.2308 158.65 79.6803 181.74 81.8803C204.82 84.0803 202.08 101.671 213.07 100.031C224.06 98.3806 239.45 100.031 242.75 111.031C246.05 122.031 260.89 115.98 261.44 125.33C261.99 134.68 244.4 141.281 224.06 133.031C203.72 124.781 193.83 139.441 165.25 136.781C136.67 134.131 133.13 130.831 116.21 132.481C99.2899 134.131 99.69 122.54 107.39 114.84C115.09 107.14 146.23 107.871 149.53 97.2406V97.2308Z" fill="#EAEAEA"/>
<path d="M829.45 124.12C829.45 124.12 837.48 108.669 857.8 110.599C878.12 112.539 875.7 128.03 885.38 126.57C895.06 125.12 908.61 126.57 911.51 136.25C914.41 145.93 927.48 140.61 927.96 148.84C928.44 157.07 912.96 162.88 895.06 155.62C877.16 148.36 868.45 161.26 843.29 158.92C818.13 156.58 815.01 153.68 800.12 155.13C785.23 156.58 785.58 146.379 792.35 139.599C799.12 132.819 826.55 133.47 829.45 124.11V124.12Z" fill="#EAEAEA"/>
<path d="M401.75 62.3599C401.75 62.3599 408.45 49.4696 425.41 51.0796C442.37 52.6996 440.35 65.6197 448.43 64.4097C456.51 63.1997 467.81 64.4098 470.23 72.4898C472.65 80.5698 483.55 76.1298 483.96 82.9898C484.36 89.8598 471.44 94.6999 456.5 88.6499C441.56 82.5899 434.29 93.3597 413.3 91.4097C392.3 89.4597 389.7 87.0395 377.27 88.2495C364.84 89.4595 365.14 80.9496 370.79 75.2896C376.44 69.6296 399.32 70.1699 401.75 62.3599Z" fill="#EAEAEA"/>
<path d="M371.03 582.03H303.22C294.65 582.03 287.68 575.66 287.68 567.83V287.45C287.68 279.62 294.65 273.25 303.22 273.25H464.77C473.34 273.25 480.31 279.62 480.31 287.45V327.35C480.31 335.18 473.34 341.55 464.77 341.55H401.47C393.25 341.55 386.57 347.63 386.57 355.11V379.92C386.57 387.4 393.26 393.48 401.47 393.48H457.75C466.32 393.48 473.29 399.85 473.29 407.68V448.04C473.29 455.87 466.32 462.24 457.75 462.24H401.47C393.25 462.24 386.57 468.32 386.57 475.8V567.82C386.57 575.65 379.6 582.02 371.03 582.02V582.03ZM303.22 273.89C295 273.89 288.32 279.97 288.32 287.45V567.83C288.32 575.31 295.01 581.39 303.22 581.39H371.03C379.25 581.39 385.93 575.31 385.93 567.83V475.81C385.93 467.98 392.9 461.61 401.47 461.61H457.75C465.97 461.61 472.65 455.53 472.65 448.05V407.69C472.65 400.21 465.96 394.13 457.75 394.13H401.47C392.9 394.13 385.93 387.76 385.93 379.93V355.12C385.93 347.29 392.9 340.92 401.47 340.92H464.77C472.99 340.92 479.67 334.84 479.67 327.36V287.46C479.67 279.98 472.98 273.9 464.77 273.9H303.22V273.89Z" fill="#131F2D"/>
<path d="M711.42 582.03H643.08C633.68 582.03 625.85 575.59 624.89 567.04L620.77 530.69C620.66 529.73 619.76 529 618.69 529H587.98C586.9 529 585.99 529.76 585.89 530.72L582.36 568.03C581.61 576.01 574.43 582.03 565.66 582.03H502.59C496.81 582.03 491.45 579.65 487.88 575.49C484.72 571.81 483.36 567.23 484.06 562.6L525.72 287.26C526.93 279.28 534.49 273.25 543.32 273.25H664.27C673.97 273.25 682.32 279.86 683.69 288.64L726.96 565.67C727.57 569.57 726.44 573.42 723.79 576.52C720.79 580.02 716.29 582.03 711.43 582.03H711.42ZM587.97 528.36H618.68C620.08 528.36 621.25 529.33 621.39 530.61L625.51 566.96C626.44 575.18 633.99 581.39 643.07 581.39H711.41C716.08 581.39 720.41 579.46 723.29 576.1C725.82 573.14 726.89 569.47 726.31 565.76L683.04 288.73C681.72 280.26 673.64 273.88 664.25 273.88H543.3C534.79 273.88 527.49 279.67 526.33 287.35L484.67 562.69C484 567.14 485.3 571.54 488.34 575.07C491.79 579.08 496.98 581.39 502.57 581.39H565.64C574.08 581.39 580.98 575.62 581.71 567.97L585.24 530.66C585.36 529.35 586.53 528.36 587.96 528.36H587.97ZM610.29 455.39H595.32C594.53 455.39 593.78 455.07 593.26 454.52C592.79 454.02 592.56 453.39 592.6 452.73C593.47 437.95 595.26 415.13 596.99 393.06C598.44 374.56 599.93 355.44 600.86 341.44C600.95 340.12 602.14 339.08 603.58 339.08C605.02 339.08 606.2 340.1 606.3 341.41C607.91 361.79 610.39 405.99 612.03 435.24C612.4 441.9 612.74 447.87 613.02 452.74C613.06 453.39 612.82 454.03 612.36 454.52C611.84 455.07 611.09 455.38 610.3 455.38L610.29 455.39ZM603.57 339.72C602.46 339.72 601.55 340.5 601.48 341.49C600.55 355.49 599.06 374.62 597.61 393.11C595.88 415.18 594.1 438 593.23 452.77C593.2 453.25 593.38 453.72 593.72 454.08C594.12 454.5 594.7 454.75 595.32 454.75H610.29C610.91 454.75 611.49 454.51 611.89 454.09C612.24 453.72 612.41 453.26 612.38 452.78C612.1 447.91 611.77 441.94 611.39 435.28C609.75 406.03 607.27 361.84 605.66 341.47C605.58 340.49 604.67 339.72 603.57 339.72Z" fill="#131F2D"/>
<path d="M960.77 615.32C956.88 615.32 952.94 614.39 949.36 612.45L905.93 588.95C901.63 586.62 896.54 585.75 891.59 586.47C882.68 587.78 872.88 588.44 862.47 588.44C819.43 588.44 789.38 574.94 770.6 547.15C761.41 533.56 754.84 516.7 750.5 495.6C746.36 475.48 744.35 451.91 744.35 423.53C744.35 396.82 746.38 374.58 750.55 355.56C754.96 335.46 761.66 319.37 771.04 306.36C790.42 279.47 821.48 266.4 865.98 266.4C910.48 266.4 940.95 279.47 960.35 306.36C969.86 319.54 976.68 335.89 981.19 356.33C985.51 375.89 987.6 398.77 987.6 426.27C987.6 468.86 982.79 501.31 972.88 525.47C968.67 535.75 973.12 547.29 983.47 552.9L991.73 557.37C996.61 560.01 1000 564.45 1001.03 569.54C1002.02 574.44 1000.8 579.36 997.58 583.39L978.78 606.92C974.42 612.38 967.67 615.32 960.77 615.32ZM894.99 585.58C898.93 585.58 902.82 586.54 906.23 588.38L949.66 611.88C959.35 617.12 971.66 614.82 978.29 606.52L997.09 582.99C1000.19 579.11 1001.37 574.38 1000.41 569.66C999.41 564.75 996.14 560.47 991.43 557.92L983.17 553.45C972.53 547.68 967.95 535.81 972.3 525.22C982.17 501.14 986.97 468.77 986.97 426.26C986.97 398.81 984.88 375.98 980.57 356.46C976.08 336.11 969.3 319.84 959.83 306.72C940.55 280.01 909.85 267.02 865.97 267.02C822.09 267.02 790.8 280.01 771.55 306.72C762.23 319.66 755.56 335.67 751.17 355.69C747.01 374.66 744.98 396.85 744.98 423.52C744.98 451.85 746.99 475.38 751.11 495.46C755.43 516.48 761.97 533.26 771.11 546.78C789.77 574.37 819.65 587.79 862.46 587.79C872.84 587.79 882.61 587.13 891.49 585.83C892.65 585.66 893.82 585.58 894.99 585.58ZM865.98 522.59C852.35 522.59 850.62 511.58 850.62 424.44C850.62 337.3 854.37 332.23 865.98 332.23C879.9 332.23 881.34 340.85 881.34 424.44C881.34 512.5 879.76 522.59 865.98 522.59ZM865.98 332.86C854.85 332.86 851.26 339.96 851.26 424.44C851.26 465.7 851.69 492.31 853.89 506.23C855.99 519.53 859.61 521.96 865.98 521.96C879.19 521.96 880.7 511.93 880.7 424.44C880.7 336.95 879.32 332.86 865.98 332.86Z" fill="#131F2D"/>
<path d="M293.33 600.03H361.14C369.55 600.03 376.36 593.22 376.36 584.81V483.92C376.36 475.51 383.17 468.7 391.58 468.7H447.86C456.27 468.7 463.08 461.89 463.08 453.48V409.23C463.08 400.82 456.27 394.01 447.86 394.01H391.58C383.17 394.01 376.36 387.2 376.36 378.79V351.58C376.36 343.17 383.17 336.36 391.58 336.36H454.88C463.29 336.36 470.1 329.55 470.1 321.14V277.39C470.1 268.98 463.29 262.17 454.88 262.17H293.33C284.92 262.17 278.11 268.98 278.11 277.39V584.81C278.11 593.22 284.92 600.03 293.33 600.03Z" fill="#00A3FE"/>
<path d="M516.14 277.23L474.48 579.13C472.96 590.18 481.54 600.03 492.7 600.03H555.77C564.3 600.03 571.42 593.5 572.15 585L575.68 544.09C575.79 542.84 576.83 541.89 578.08 541.89H608.79C610.03 541.89 611.06 542.82 611.19 544.05L615.31 583.91C616.26 593.07 623.98 600.04 633.19 600.04H701.53C710.88 600.04 718.06 591.76 716.74 582.51L673.47 278.76C672.12 269.25 663.97 262.18 654.37 262.18H533.42C524.71 262.18 517.33 268.61 516.14 277.24V277.23ZM583.02 458.64C584.63 428.8 589.25 370.19 591.27 336.62C591.35 335.35 592.4 334.36 593.68 334.36C594.94 334.36 595.99 335.33 596.08 336.6C598.05 363.93 601.28 429.42 602.8 458.65C602.87 460.03 601.77 461.18 600.39 461.18H585.42C584.04 461.18 582.94 460.02 583.01 458.64H583.02Z" fill="#00A3FE"/>
<path d="M981.7 573.65L973.44 568.74C962.95 562.51 958.43 549.66 962.71 538.23C973.02 510.65 977.4 474.57 977.4 429.6C977.4 312.8 945.32 254.65 856.09 254.65C766.86 254.65 734.78 313.8 734.78 426.59C734.78 546.9 765.36 607.05 852.58 607.05C863.03 607.05 872.71 606.33 881.65 604.9C886.67 604.09 891.82 605.06 896.19 607.66L939.62 633.43C949.39 639.22 961.96 636.64 968.65 627.46L987.45 601.66C994.16 592.45 991.5 579.47 981.7 573.65ZM856.09 534.87C843.06 534.87 841.05 523.84 841.05 427.6C841.05 331.36 844.56 326.84 856.09 326.84C869.63 326.84 871.13 335.86 871.13 427.6C871.13 519.34 869.63 534.87 856.09 534.87Z" fill="#00A3FE"/>
<path d="M313.41 621.49C313.41 621.49 295.54 602.7 301.69 591.99C307.84 581.29 318.22 614.98 318.22 614.98C318.22 614.98 312.84 575.13 323.99 574.44C335.14 573.75 323.99 614.98 323.99 614.98C323.99 614.98 328.12 605.369 332.16 604.769C336.2 604.179 335.04 612.92 327.84 621.48H313.43L313.41 621.49Z" fill="#EAEAEA"/>
<path d="M314.67 621.95C314.62 621.9 309.51 616.49 305.32 609.66C299.61 600.35 298.25 592.96 301.28 587.7C302.41 585.74 303.76 584.83 305.31 585C308.45 585.35 311.97 590.23 316.09 599.91C317.32 602.79 318.4 605.67 319.26 608.06C318.27 597.56 317.14 576.7 322.79 569.81C323.98 568.36 325.43 567.57 327.1 567.46C328.72 567.36 330.07 567.941 331.09 569.191C336.2 575.451 331.66 598.14 329.16 608.76C331.01 605.67 333.63 602.261 336.31 601.861C337.56 601.681 338.57 602.14 339.15 603.18C341.27 606.99 337.1 615.861 332.01 621.901L330.99 621.04C337.5 613.3 339.24 606.071 337.98 603.821C337.68 603.271 337.2 603.07 336.5 603.17C333.05 603.68 329.01 611.42 327.75 614.35L326.5 613.91C326.52 613.82 328.98 604.671 330.62 594.691C332.76 581.631 332.57 573.1 330.05 570.01C329.31 569.1 328.37 568.69 327.18 568.76C325.88 568.84 324.78 569.45 323.82 570.62C316.68 579.32 321.21 613.641 321.26 613.981L319.97 614.26C317.63 606.68 310.42 586.871 305.17 586.281C304.18 586.171 303.29 586.841 302.44 588.321C295.79 599.901 315.44 620.781 315.64 620.991L314.68 621.91L314.67 621.95Z" fill="#131F2D"/>
<path d="M610.2 660.44C610.2 660.44 597.25 648.849 601.7 642.259C606.16 635.659 613.68 656.429 613.68 656.429C613.68 656.429 609.78 631.87 617.86 631.44C625.94 631.01 617.86 656.429 617.86 656.429C617.86 656.429 620.85 650.499 623.78 650.139C626.7 649.769 625.87 655.17 620.65 660.44H610.21H610.2Z" fill="#EAEAEA"/>
<path d="M611.17 660.77C610.56 660.22 596.25 647.28 601.46 639.57C602.29 638.34 603.28 637.79 604.4 637.93C606.61 638.2 609.21 641.31 612.13 647.17C613.06 649.03 613.87 650.88 614.5 652.39C613.8 646.15 612.94 633.591 616.71 628.941C617.63 627.801 618.78 627.19 620.13 627.12C621.44 627.05 622.48 627.51 623.23 628.49C626.53 632.77 623.31 646.371 621.54 652.731C622.88 650.791 624.83 648.57 626.8 648.32C627.78 648.2 628.53 648.56 628.92 649.34C629.89 651.3 628.36 655.97 623.62 660.76L622.99 660.14C627.66 655.42 628.81 651.14 628.12 649.74C627.91 649.31 627.51 649.13 626.91 649.21C624.38 649.53 621.45 654.3 620.54 656.11L619.72 655.78C619.74 655.73 621.46 650.29 622.64 644.28C624.19 636.42 624.15 631.15 622.52 629.05C621.94 628.3 621.17 627.97 620.17 628.02C619.07 628.08 618.16 628.57 617.4 629.51C612.66 635.36 615.82 655.64 615.85 655.85L614.99 656.07C613.31 651.44 608.12 639.31 604.28 638.83C603.51 638.74 602.82 639.15 602.19 640.09C597.41 647.17 611.61 660.01 611.75 660.14L611.16 660.8L611.17 660.77Z" fill="#131F2D"/>
<path d="M656.5 614.98C656.5 614.98 642.99 600.769 647.64 592.679C652.29 584.589 660.14 610.059 660.14 610.059C660.14 610.059 656.07 579.93 664.5 579.41C672.93 578.89 664.5 610.059 664.5 610.059C664.5 610.059 667.62 602.789 670.68 602.339C673.73 601.889 672.86 608.5 667.41 614.98H656.51H656.5Z" fill="#EAEAEA"/>
<path d="M657.46 615.331C657.46 615.331 653.56 611.2 650.39 606.04C646.08 599 645.05 593.421 647.33 589.441C648.18 587.961 649.21 587.271 650.38 587.401C652.75 587.661 655.42 591.35 658.53 598.67C659.46 600.85 660.28 603.021 660.92 604.831C660.17 596.891 659.32 581.121 663.59 575.911C664.49 574.811 665.59 574.21 666.85 574.14C668.09 574.06 669.09 574.501 669.86 575.451C673.72 580.181 670.29 597.341 668.4 605.371C669.8 603.041 671.78 600.451 673.81 600.151C674.76 600.011 675.52 600.36 675.95 601.14C677.56 604.02 674.4 610.73 670.56 615.3L669.79 614.651C674.72 608.801 676.02 603.33 675.08 601.63C674.85 601.22 674.49 601.06 673.96 601.14C671.35 601.52 668.3 607.37 667.34 609.6L666.39 609.27C666.41 609.2 668.27 602.291 669.51 594.741C671.13 584.871 670.98 578.411 669.08 576.081C668.52 575.391 667.81 575.08 666.91 575.14C665.93 575.2 665.1 575.66 664.37 576.55C658.97 583.13 662.4 609.07 662.43 609.34L661.45 609.55C659.68 603.82 654.23 588.84 650.26 588.39C649.52 588.3 648.84 588.81 648.19 589.93C643.16 598.68 658.02 614.47 658.17 614.63L657.44 615.321L657.46 615.331Z" fill="#131F2D"/>
<path d="M857.41 668.22C857.41 668.22 841.65 651.65 847.07 642.21C852.49 632.77 861.64 662.48 861.64 662.48C861.64 662.48 856.9 627.35 866.72 626.74C876.55 626.13 866.72 662.48 866.72 662.48C866.72 662.48 870.36 654 873.92 653.48C877.48 652.96 876.46 660.67 870.11 668.21H857.4L857.41 668.22Z" fill="#EAEAEA"/>
<path d="M858.53 668.621C858.53 668.621 853.98 663.81 850.29 657.79C845.26 649.58 844.06 643.07 846.73 638.43C847.72 636.7 848.91 635.9 850.28 636.05C853.04 636.36 856.15 640.661 859.79 649.191C860.88 651.741 861.84 654.301 862.6 656.411C862.32 653.431 862.03 649.501 861.92 645.371C861.62 633.711 862.89 626.071 865.7 622.661C866.75 621.381 868.03 620.68 869.5 620.59C870.93 620.49 872.11 621.011 873.01 622.121C877.51 627.641 873.51 647.64 871.31 657.01C872.94 654.29 875.25 651.28 877.61 650.93C878.71 650.77 879.6 651.18 880.11 652.09C881.98 655.45 878.3 663.27 873.82 668.6L872.92 667.85C878.66 661.03 880.19 654.65 879.08 652.67C878.81 652.19 878.4 652.01 877.77 652.1C874.72 652.55 871.17 659.37 870.05 661.96L868.95 661.58C868.97 661.5 871.14 653.44 872.59 644.63C874.48 633.12 874.31 625.591 872.09 622.871C871.43 622.071 870.61 621.71 869.56 621.77C868.41 621.84 867.45 622.381 866.6 623.411C860.3 631.081 864.3 661.34 864.34 661.64L863.2 661.89C861.14 655.2 854.78 637.74 850.15 637.22C849.28 637.12 848.49 637.71 847.74 639.02C841.88 649.23 859.2 667.641 859.38 667.821L858.53 668.63V668.621Z" fill="#131F2D"/>
<path d="M1139.07 623.559C1139.07 623.559 1123.31 606.99 1128.73 597.55C1134.15 588.11 1143.3 617.82 1143.3 617.82C1143.3 617.82 1138.56 582.69 1148.38 582.08C1158.21 581.47 1148.38 617.82 1148.38 617.82C1148.38 617.82 1152.02 609.34 1155.58 608.82C1159.14 608.3 1158.12 616.01 1151.77 623.55H1139.06L1139.07 623.559Z" fill="#EAEAEA"/>
<path d="M1140.19 623.96C1140.19 623.96 1135.64 619.15 1131.95 613.13C1126.92 604.92 1125.72 598.41 1128.39 593.77C1129.38 592.04 1130.58 591.24 1131.94 591.39C1134.7 591.7 1137.81 596 1141.45 604.54C1142.54 607.09 1143.5 609.64 1144.26 611.76C1143.98 608.78 1143.69 604.85 1143.58 600.72C1143.28 589.06 1144.55 581.42 1147.36 578.01C1148.41 576.73 1149.69 576.031 1151.16 575.941C1152.59 575.841 1153.77 576.36 1154.67 577.47C1159.17 582.99 1155.17 602.991 1152.97 612.361C1154.6 609.641 1156.91 606.631 1159.27 606.281C1160.37 606.121 1161.26 606.531 1161.77 607.441C1163.64 610.801 1159.96 618.621 1155.48 623.951L1154.58 623.201C1160.32 616.381 1161.85 610 1160.74 608.02C1160.47 607.54 1160.06 607.361 1159.43 607.451C1156.38 607.901 1152.83 614.72 1151.71 617.31L1150.61 616.93C1150.63 616.85 1152.8 608.791 1154.25 599.981C1156.14 588.471 1155.97 580.94 1153.75 578.22C1153.09 577.42 1152.27 577.061 1151.22 577.121C1150.08 577.191 1149.11 577.73 1148.26 578.76C1141.96 586.43 1145.96 616.691 1146 616.991L1144.86 617.241C1142.8 610.551 1136.44 593.091 1131.81 592.571C1130.94 592.471 1130.15 593.061 1129.4 594.371C1123.54 604.581 1140.86 622.99 1141.04 623.17L1140.19 623.981V623.96Z" fill="#131F2D"/>
</svg>
