<svg width="60" height="47" viewBox="0 0 60 47" fill="none" xmlns="http://www.w3.org/2000/svg">
<path d="M30.0616 42.3862C30.0611 42.3862 30.062 42.3862 30.0616 42.3862L29.9676 42.3861C26.1462 42.3776 22.4213 41.8434 18.8963 40.7988C15.3716 39.7541 12.2142 38.2485 9.51172 36.3238C3.99658 32.3958 0.973866 27.1725 1.00017 21.6162C1.013 18.8934 1.76287 16.2413 3.22867 13.7334C4.69434 11.2257 6.80835 8.97787 9.51185 7.05238C15.0009 3.14317 22.2988 0.990234 30.0614 0.990234C32.9376 0.990234 35.7618 1.28396 38.4554 1.86325C39.5177 2.09178 40.0903 2.94208 39.6805 3.67584C39.3143 4.33182 38.2791 4.67915 37.337 4.47669C35.002 3.97554 32.5541 3.72156 30.0614 3.72156C23.3217 3.72156 16.9818 5.59816 12.2094 9.00576C7.43711 12.4131 4.81824 16.9333 4.83501 21.7337C4.86958 31.5909 16.1574 39.6302 29.9975 39.6548L30.0616 39.6549C43.9714 39.654 55.2879 31.5942 55.2879 21.6882C55.2879 17.5857 53.305 13.5805 49.7045 10.4102C49.4472 10.1837 48.8523 10.2748 48.8523 10.6249V11.9785C48.8523 12.7314 47.9922 13.3441 46.9349 13.3441C45.8776 13.3441 45.0175 12.7315 45.0175 11.9785V6.58083C45.0175 5.6246 46.2007 5.21516 47.3507 5.21516H54.5137C55.571 5.21516 56.4311 5.82778 56.4311 6.58083C56.4311 7.33388 55.571 7.94649 54.5137 7.94649H52.8419C52.3865 8.02164 52.2635 8.20807 52.4728 8.50578C56.8574 12.2732 59.2179 17.0618 59.1197 21.9894C59.011 27.4407 55.9517 32.5581 50.5054 36.3985C45.0302 40.2596 37.7691 42.3862 30.0616 42.3862Z" fill="white"/>
<path d="M30.0658 45.9902H30.0569C24.3757 45.9902 19.7701 42.7086 19.7701 38.6606C19.7701 34.6126 24.3757 31.3311 30.0569 31.3311H30.0658C35.747 31.3311 40.3526 34.6126 40.3526 38.6606C40.3526 42.7086 35.747 45.9902 30.0658 45.9902Z" fill="white"/>
<path d="M30.0658 31.3311H30.0569C29.1813 31.3311 28.3315 31.4096 27.5199 31.5562C31.9741 32.3613 35.2696 35.2365 35.2696 38.6605C35.2696 42.0846 31.9741 44.9598 27.5199 45.7648C28.3492 45.9146 29.2014 45.9903 30.0569 45.99H30.0658C35.7471 45.99 40.3526 42.7084 40.3526 38.6604C40.3526 34.6126 35.7471 31.3311 30.0658 31.3311Z" fill="white"/>
<path d="M33.6256 23.7207H25.2319C25.2319 23.7207 29.676 17.9836 30.4094 17.3427C31.151 16.6947 31.8533 17.0989 31.9201 17.6705L31.8867 26.5305M23.1217 26.5305L16.3104 26.5155C16.3104 26.5155 16.8044 26.0561 21.0681 21.7172C21.7797 20.993 22.4287 20.1753 22.5552 19.2822C22.5552 17.9368 21.024 16.8462 19.135 16.8462C17.4729 16.8462 16.0877 17.6907 15.779 18.81M37.9573 23.2209C37.9573 21.3573 39.1299 20.1457 41.0525 20.1457C42.975 20.1457 44.3268 21.1758 44.3268 23.2209L44.3439 26.5228M37.9573 16.9037V26.5229M53.3159 5.21533H54.5137C55.571 5.21533 56.4312 5.82795 56.4312 6.581C56.4312 7.33404 55.571 7.94666 54.5137 7.94666H52.842C52.3865 8.02181 52.2635 8.20824 52.4728 8.50595C56.8574 12.2734 59.2179 17.0619 59.1197 21.9896C59.011 27.4409 55.9517 32.5582 50.5054 36.3987C47.3989 38.5894 43.7173 40.2218 39.7054 41.2241" stroke="#FF0000" stroke-width="1.05151" stroke-miterlimit="10" stroke-linecap="round" stroke-linejoin="round"/>
<path d="M40.3528 38.0908C49.1473 35.2806 55.2879 28.9853 55.2879 21.6882C55.2879 17.5857 53.3051 13.5805 49.7046 10.4102C49.4472 10.1837 48.8524 10.2748 48.8524 10.6249V11.9785C48.8524 12.7314 47.9922 13.3441 46.935 13.3441C45.8777 13.3441 45.0176 12.7315 45.0176 11.9785V6.58083C45.0176 5.6246 46.2008 5.21516 47.3508 5.21516H49.4142M20.4115 41.2133C19.9012 41.085 19.396 40.9468 18.8965 40.7987C15.3718 39.7541 12.2144 38.2485 9.51193 36.3238C3.99679 32.3958 0.97408 27.1725 1.00038 21.6162C1.01322 18.8934 1.76308 16.2413 3.22888 13.7334C4.69455 11.2257 6.80856 8.97787 9.51206 7.05238C15.001 3.14317 22.2989 0.990234 30.0615 0.990234C32.9377 0.990234 35.7619 1.28396 38.4555 1.86325C39.5178 2.09178 40.0904 2.94208 39.6806 3.67584C39.3144 4.33182 38.2792 4.67915 37.3371 4.47669C35.0021 3.97554 32.5541 3.72156 30.0615 3.72156C23.3218 3.72156 16.9819 5.59816 12.2095 9.00576C7.43719 12.4131 4.81832 16.9333 4.8351 21.7337C4.86051 28.9996 11.0005 35.2779 19.77 38.0864" stroke="black" stroke-width="1.05151" stroke-miterlimit="10" stroke-linecap="round" stroke-linejoin="round"/>
<path d="M25.0105 45.0469C26.5501 45.6666 28.2887 45.9916 30.0569 45.9902H30.0658C35.747 45.9902 40.3526 42.7086 40.3526 38.6606C40.3526 34.6126 35.747 31.3311 30.0658 31.3311H30.0569C24.3757 31.3311 19.7701 34.6126 19.7701 38.6606C19.7701 40.4438 20.6645 42.0776 22.1501 43.3483" stroke="black" stroke-width="1.05151" stroke-miterlimit="10" stroke-linecap="round" stroke-linejoin="round"/>
<path d="M33.8087 41.1231C33.1862 41.6054 32.1975 41.7838 31.3506 41.4927C29.0356 40.6973 27.2018 39.3913 26.0849 37.7424C25.6764 37.1392 25.9267 36.4351 26.6039 35.9917" stroke="#FF0000" stroke-width="1.05151" stroke-miterlimit="10" stroke-linecap="round" stroke-linejoin="round"/>
</svg>
