<svg width="75" height="75" viewBox="0 0 75 75" fill="none" xmlns="http://www.w3.org/2000/svg">
<path d="M37.5901 74.0996C17.1701 74.0996 0.560059 57.4903 0.560059 37.0703C0.560059 16.6503 17.1701 0.0400391 37.5901 0.0400391C58.0101 0.0400391 74.6201 16.6503 74.6201 37.0703C74.6201 57.4903 58.0101 74.0996 37.5901 74.0996ZM37.5901 3.86035C19.2801 3.86035 4.37988 18.7603 4.37988 37.0703C4.37988 55.3803 19.2801 70.2803 37.5901 70.2803C55.9001 70.2803 70.8 55.3803 70.8 37.0703C70.8 18.7603 55.9001 3.86035 37.5901 3.86035Z" fill="white"/>
<path d="M42.3501 55.2197L24.2 37.0703L42.3501 18.9199L45.05 21.6201L29.6001 37.0703L45.05 52.5195L42.3501 55.2197Z" fill="white"/>
</svg>
