<svg width="70" height="71" viewBox="0 0 70 71" fill="none" xmlns="http://www.w3.org/2000/svg">
<path d="M35 3.06018C39.31 3.06018 43.58 3.91009 47.55 5.59009C63.78 12.5601 71.39 31.2901 64.61 47.6001C57.78 64.0501 38.9 71.8401 22.45 65.0101C10.52 59.9601 2.77002 48.2801 2.77002 35.3301C2.77002 17.5201 17.19 3.07018 35 3.06018ZM35 0.330078C15.68 0.330078 0.0300293 15.9902 0.0300293 35.3002C0.0300293 54.6202 15.69 70.2701 35 70.2701C54.32 70.2701 69.97 54.6102 69.97 35.3002C69.97 15.9802 54.31 0.330078 35 0.330078Z" fill="white"/>
<path d="M28.9 48.65C28.9 49.39 29.5 50 30.25 50H52.78C53.52 50 54.13 49.4 54.13 48.65C54.13 41.69 48.48 36.05 41.52 36.04C34.56 36.04 28.92 41.69 28.91 48.65H28.9ZM31.69 47.3C32.29 42.9 35.76 39.43 40.16 38.83C45.58 38.08 50.59 41.88 51.33 47.3H31.69Z" fill="white"/>
<path d="M47.5999 26.7003C47.5999 23.3403 44.8699 20.6104 41.5099 20.6104C38.1499 20.6104 35.4199 23.3403 35.4199 26.7003C35.4199 30.0603 38.1499 32.7904 41.5099 32.7904C44.8699 32.7904 47.5999 30.0603 47.5999 26.7003ZM44.9 26.7003C44.9 28.5703 43.3799 30.0903 41.5099 30.0903C39.6399 30.0903 38.1199 28.5703 38.1199 26.7003C38.1199 24.8303 39.6399 23.3104 41.5099 23.3104C43.3799 23.3104 44.9 24.8303 44.9 26.7003Z" fill="white"/>
<path d="M17.2199 31.1402H26.8499L24.26 28.5502C23.73 28.0202 23.73 27.1702 24.26 26.6402C24.79 26.1102 25.6399 26.1102 26.1699 26.6402L31.0599 31.5302C31.5899 32.0602 31.5899 32.9101 31.0599 33.4401L26.13 38.3702C25.6 38.9002 24.7499 38.9002 24.2199 38.3702C23.6899 37.8402 23.6899 36.9901 24.2199 36.4601L26.8499 33.8301H17.2199C16.4699 33.8101 15.8899 33.1801 15.9099 32.4401C15.9299 31.7301 16.4999 31.1602 17.2199 31.1302V31.1402Z" fill="white"/>
</svg>
