<svg width="187" height="189" viewBox="0 0 187 189" fill="none" xmlns="http://www.w3.org/2000/svg">
<path d="M90.2701 61.5601C102.09 61.5601 111.7 51.9499 111.7 40.1299C111.7 28.3099 102.09 18.7002 90.2701 18.7002C78.4501 18.7002 68.8401 28.3099 68.8401 40.1299C68.8401 51.9499 78.4501 61.5601 90.2701 61.5601ZM90.2701 23.9102C99.2101 23.9102 106.49 31.1899 106.49 40.1299C106.49 49.0699 99.2101 56.3501 90.2701 56.3501C81.3301 56.3501 74.0502 49.0699 74.0502 40.1299C74.0502 31.1899 81.3301 23.9102 90.2701 23.9102ZM146.08 68.2002H157.3C158.74 68.2002 159.91 67.0298 159.91 65.5898V54.3701C159.91 52.9301 158.74 51.7598 157.3 51.7598H146.08C144.64 51.7598 143.47 52.9301 143.47 54.3701V65.5898C143.47 67.0298 144.64 68.2002 146.08 68.2002ZM148.69 56.98H154.7V62.9902H148.69V56.98ZM149.53 24.4902H162.98C164.42 24.4902 165.59 23.3199 165.59 21.8799V8.43018C165.59 6.99018 164.42 5.81982 162.98 5.81982H149.53C148.09 5.81982 146.92 6.99018 146.92 8.43018V21.8799C146.92 23.3199 148.09 24.4902 149.53 24.4902ZM152.14 11.04H160.38V19.2798H152.14V11.04ZM183.41 25.6699H166.05C164.61 25.6699 163.44 26.8398 163.44 28.2798V32.0098H128.65C128.33 31.7398 127.94 31.55 127.5 31.46L121.49 30.27L119.32 25.0298L122.74 19.9399C123.43 18.9099 123.3 17.5299 122.42 16.6499L113.78 8.00977C112.9 7.12977 111.52 6.98994 110.49 7.68994L105.4 11.1099L100.16 8.93994L98.9701 2.93018C98.7301 1.71018 97.6602 0.830078 96.4102 0.830078H84.1901C82.9501 0.830078 81.8701 1.71018 81.6301 2.93018L80.4401 8.93994L75.2001 11.1099L70.1101 7.68994C69.0801 6.99994 67.7001 7.12977 66.8201 8.00977L58.1802 16.6499C57.3002 17.5299 57.1701 18.9099 57.8601 19.9399L61.2802 25.0298L59.1101 30.27L53.1001 31.46C52.6601 31.55 52.2701 31.7398 51.9501 32.0098H9.9801C4.9901 32.0098 0.920166 36.0698 0.920166 41.0698V149.04C0.920166 154.03 4.9801 158.1 9.9801 158.1H68.5801V170.04H61.5602C54.3002 170.04 48.3901 175.95 48.3901 183.21V185.77C48.3901 187.21 49.5601 188.38 51.0001 188.38H129.65C131.09 188.38 132.26 187.21 132.26 185.77V183.21C132.26 175.95 126.35 170.04 119.09 170.04H112.07V158.1H170.67C175.66 158.1 179.73 154.04 179.73 149.04V48.25H183.46C184.9 48.25 186.07 47.0801 186.07 45.6401V28.2798C186.07 26.8398 184.9 25.6699 183.46 25.6699H183.41ZM119.4 114.43C120.52 118.1 123.93 120.78 127.97 120.78C132.91 120.78 136.92 116.76 136.92 111.83C136.92 106.9 132.9 102.88 127.97 102.88C123.94 102.88 120.52 105.56 119.4 109.23H106.68C105.24 109.23 104.07 110.4 104.07 111.84V135.86H98.3501V105.49L105.92 97.9199C107.18 98.5899 108.61 98.98 110.13 98.98C115.07 98.98 119.08 94.9598 119.08 90.0298C119.08 85.0998 115.06 81.0801 110.13 81.0801C105.2 81.0801 101.18 85.0998 101.18 90.0298C101.18 91.5498 101.56 92.9902 102.24 94.2402L93.9102 102.57C93.4202 103.06 93.1501 103.72 93.1501 104.41V135.86H87.4302V104.41C87.4302 103.72 87.1602 103.06 86.6702 102.57L78.3401 94.2402C79.0101 92.9802 79.4001 91.5498 79.4001 90.0298C79.4001 85.0898 75.3801 81.0801 70.4501 81.0801C65.5201 81.0801 61.5001 85.0998 61.5001 90.0298C61.5001 94.9598 65.5201 98.98 70.4501 98.98C71.9701 98.98 73.4102 98.5999 74.6602 97.9199L82.2301 105.49V135.86H76.5101V111.84C76.5101 110.4 75.3401 109.23 73.9001 109.23H61.1802C60.0602 105.56 56.6501 102.88 52.6101 102.88C47.6701 102.88 43.6602 106.9 43.6602 111.83C43.6602 116.76 47.6801 120.78 52.6101 120.78C56.6401 120.78 60.0602 118.1 61.1802 114.43H71.3002V135.85H17.1301V48.2402H51.9202C52.2402 48.5102 52.6301 48.7 53.0701 48.79L59.0801 49.98L61.2501 55.2202L57.8301 60.3101C57.1401 61.3401 57.2701 62.7201 58.1501 63.6001L66.7902 72.2402C67.6702 73.1202 69.0501 73.2501 70.0801 72.5601L75.1702 69.1401L80.4102 71.3101L81.6001 77.3198C81.8401 78.5398 82.9102 79.4199 84.1602 79.4199H96.3801C97.6201 79.4199 98.7001 78.5398 98.9401 77.3198L100.13 71.3101L105.37 69.1401L110.46 72.5601C111.49 73.2501 112.87 73.1202 113.75 72.2402L122.39 63.6001C123.27 62.7201 123.4 61.3401 122.71 60.3101L119.29 55.2202L121.46 49.98L127.47 48.79C127.91 48.7 128.3 48.5102 128.62 48.2402H163.41V135.84H109.25V114.42H119.37L119.4 114.43ZM124.22 111.82C124.22 109.76 125.9 108.08 127.96 108.08C130.02 108.08 131.7 109.76 131.7 111.82C131.7 113.88 130.02 115.56 127.96 115.56C125.9 115.56 124.22 113.88 124.22 111.82ZM106.39 90.0098C106.39 87.9498 108.07 86.27 110.13 86.27C112.19 86.27 113.87 87.9498 113.87 90.0098C113.87 92.0698 112.19 93.75 110.13 93.75C108.07 93.75 106.39 92.0698 106.39 90.0098ZM70.4401 93.75C68.3801 93.75 66.7001 92.0698 66.7001 90.0098C66.7001 87.9498 68.3801 86.27 70.4401 86.27C72.5001 86.27 74.1802 87.9498 74.1802 90.0098C74.1802 92.0698 72.5001 93.75 70.4401 93.75ZM56.3501 111.82C56.3501 113.88 54.6701 115.56 52.6101 115.56C50.5501 115.56 48.8701 113.88 48.8701 111.82C48.8701 109.76 50.5501 108.08 52.6101 108.08C54.6701 108.08 56.3501 109.76 56.3501 111.82ZM163.44 43.0298H129.6V37.21H163.44V43.0298ZM56.1802 36.1499L61.4601 35.1099C62.3101 34.9399 63.0301 34.3598 63.3601 33.5498L66.6001 25.73C66.9301 24.92 66.8401 24.0098 66.3601 23.2798L63.3601 18.8101L68.9701 13.1899L73.4401 16.1899C74.1601 16.6799 75.0801 16.7702 75.8901 16.4302L83.7101 13.1899C84.5101 12.8599 85.1001 12.14 85.2701 11.29L86.3102 6.00977H94.2501L95.2902 11.29C95.4602 12.14 96.0401 12.8599 96.8501 13.1899L104.66 16.4302C105.47 16.7602 106.38 16.6699 107.11 16.1899L111.58 13.1899L117.19 18.8101L114.19 23.2798C113.7 23.9998 113.61 24.92 113.95 25.73L117.19 33.5498C117.52 34.3498 118.24 34.9399 119.09 35.1099L124.37 36.1499V44.0898L119.09 45.1299C118.24 45.2999 117.52 45.8799 117.19 46.6899L113.95 54.5098C113.62 55.3198 113.71 56.23 114.19 56.96L117.19 61.4302L111.58 67.04L107.11 64.04C106.39 63.55 105.47 63.4598 104.66 63.7998L96.8501 67.04C96.0501 67.37 95.4602 68.0899 95.2902 68.9399L94.2501 74.2202H86.3102L85.2701 68.9399C85.1001 68.0899 84.5201 67.37 83.7101 67.04L75.8901 63.7998C75.0801 63.4698 74.1701 63.56 73.4401 64.04L68.9701 67.04L63.3601 61.4302L66.3601 56.96C66.8501 56.24 66.9401 55.3198 66.6001 54.5098L63.3601 46.6899C63.0301 45.8899 62.3101 45.2999 61.4601 45.1299L56.1802 44.0898V36.1499ZM127 183.16H53.5701C53.5901 178.79 57.1502 175.24 61.5302 175.24H119.05C123.42 175.24 126.99 178.79 127.01 183.16H127ZM106.81 170.03H73.7501V158.09H106.81V170.03ZM174.47 149.03C174.47 151.15 172.74 152.88 170.62 152.88H9.95007C7.83007 152.88 6.1001 151.15 6.1001 149.03V41.0601C6.1001 38.9401 7.83007 37.21 9.95007 37.21H50.9701V43.0298H14.5201C13.0801 43.0298 11.9102 44.2001 11.9102 45.6401V138.45C11.9102 139.89 13.0801 141.06 14.5201 141.06H166.05C167.49 141.06 168.66 139.89 168.66 138.45V48.2402H174.47V149.03ZM180.81 43.0298H168.66V30.8799H180.81V43.0298Z" fill="#0030E1"/>
</svg>
