<svg width="38" height="38" viewBox="0 0 38 38" fill="none" xmlns="http://www.w3.org/2000/svg">
<path d="M19.2179 0.383722C29.3734 0.383722 37.6016 8.61192 37.6016 18.7674C37.6016 28.923 29.3734 37.1512 19.2179 37.1512C9.06238 37.1512 0.834186 28.923 0.834186 18.7674C0.834186 8.61192 9.06238 0.383722 19.2179 0.383722ZM29.8923 20.843V16.6919C29.8923 16.2471 29.4476 15.8023 29.0028 15.8023H22.183V8.98256C22.183 8.53779 21.7383 8.09302 21.2935 8.09302H17.1423C16.6234 8.09302 16.2528 8.53779 16.2528 8.98256V15.8023H9.43302C8.91413 15.8023 8.54349 16.2471 8.54349 16.6919V20.843C8.54349 21.3619 8.91413 21.7326 9.43302 21.7326H16.2528V28.5523C16.2528 29.0712 16.6234 29.4419 17.1423 29.4419H21.2935C21.7383 29.4419 22.183 29.0712 22.183 28.5523V21.7326H29.0028C29.4476 21.7326 29.8923 21.3619 29.8923 20.843Z" fill="#00B838"/>
</svg>
