<svg width="43" height="44" viewBox="0 0 43 44" fill="none" xmlns="http://www.w3.org/2000/svg">
<mask id="mask0_53_102" style="mask-type:luminance" maskUnits="userSpaceOnUse" x="0" y="0" width="43" height="44">
<path d="M0.133362 0.78125H42.8V43.4479H0.133362V0.78125Z" fill="white"/>
</mask>
<g mask="url(#mask0_53_102)">
<path d="M21.4667 36.337L19.9378 34.8081C19.4396 34.3103 19.045 33.7187 18.7769 33.0675C18.5087 32.4163 18.3724 31.7183 18.3757 31.014C18.379 30.3098 18.5219 29.6132 18.7961 28.9645C19.0704 28.3158 19.4705 27.7279 19.9733 27.2348L21.4667 25.777C20.8764 25.7097 20.283 25.6741 19.6889 25.6704C14.9422 25.6704 5.46667 28.0526 5.46667 32.7815V36.337H21.4667ZM19.6889 22.1148C23.6178 22.1148 26.8 18.9326 26.8 15.0037C26.8 11.0748 23.6178 7.89258 19.6889 7.89258C15.76 7.89258 12.5778 11.0748 12.5778 15.0037C12.5778 18.9326 15.76 22.1148 19.6889 22.1148ZM28.8978 35.9459C28.2045 36.6392 27.0667 36.6392 26.3733 35.9459L22.6933 32.2304C22.3687 31.901 22.1867 31.4572 22.1867 30.9948C22.1867 30.5324 22.3687 30.0886 22.6933 29.7592L22.7111 29.7415C22.8738 29.5768 23.0676 29.446 23.2812 29.3568C23.4948 29.2675 23.7241 29.2216 23.9556 29.2216C24.1871 29.2216 24.4163 29.2675 24.6299 29.3568C24.8435 29.446 25.0373 29.5768 25.2 29.7415L27.6356 32.177L35.5111 24.2481C35.6756 24.0833 35.8709 23.9526 36.086 23.8634C36.3011 23.7742 36.5316 23.7282 36.7645 23.7282C36.9973 23.7282 37.2278 23.7742 37.4429 23.8634C37.658 23.9526 37.8533 24.0833 38.0178 24.2481L38.0356 24.2659C38.3602 24.5952 38.5422 25.0391 38.5422 25.5015C38.5422 25.9639 38.3602 26.4077 38.0356 26.737L28.8978 35.9459Z" fill="black"/>
</g>
</svg>
