<svg width="75" height="75" viewBox="0 0 75 75" fill="none" xmlns="http://www.w3.org/2000/svg">
<path d="M37.9399 74.0996C17.5199 74.0996 0.909912 57.4903 0.909912 37.0703C0.909912 16.6503 17.5199 0.0400391 37.9399 0.0400391C58.3599 0.0400391 74.97 16.6503 74.97 37.0703C74.97 57.4903 58.3599 74.0996 37.9399 74.0996ZM37.9399 3.86035C19.6299 3.86035 4.72998 18.7603 4.72998 37.0703C4.72998 55.3803 19.6299 70.2803 37.9399 70.2803C56.2499 70.2803 71.1499 55.3803 71.1499 37.0703C71.1499 18.7603 56.2499 3.86035 37.9399 3.86035Z" fill="white"/>
<path d="M33.1799 55.2197L30.48 52.5195L45.9299 37.0703L30.48 21.6201L33.1799 18.9199L51.3201 37.0703L33.1799 55.2197Z" fill="white"/>
</svg>
