<svg width="61" height="61" viewBox="0 0 61 61" fill="none" xmlns="http://www.w3.org/2000/svg">
<path d="M40.3099 35.6901C39.9299 35.3101 39.3198 35.3101 38.9398 35.6901L37.6898 36.9401L33.6898 32.9401C38.2198 27.6501 37.61 19.6901 32.32 15.1501C27.03 10.6201 19.0699 11.2301 14.5299 16.5201C9.99992 21.8101 10.6098 29.7701 15.8998 34.3101C20.6198 38.3601 27.6 38.3601 32.32 34.3101L36.32 38.3101L35.07 39.5601C34.69 39.9401 34.69 40.5501 35.07 40.9301L42.8099 48.6701C44.2599 50.1201 46.5999 50.1201 48.0499 48.6701C49.4999 47.2201 49.4999 44.8801 48.0499 43.4301L40.3099 35.6901ZM13.4999 24.7601C13.4999 18.8801 18.2698 14.1101 24.1498 14.1101C30.0298 14.1101 34.7999 18.8801 34.7999 24.7601C34.7999 30.6401 30.0298 35.4101 24.1498 35.4101C18.2698 35.4101 13.5099 30.6401 13.4999 24.7601ZM46.6898 47.3001C45.9998 47.9901 44.8798 47.9901 44.1898 47.3001L37.1298 40.2401L37.6998 39.6701L39.07 38.3001L39.6398 37.7301L46.6998 44.7901C47.3898 45.4801 47.3898 46.6001 46.6998 47.2901L46.6898 47.3001Z" fill="white"/>
<path d="M30.7499 0.970215C14.1799 0.970215 0.749878 14.4002 0.749878 30.9702C0.749878 47.5402 14.1799 60.9702 30.7499 60.9702C47.3199 60.9702 60.7499 47.5402 60.7499 30.9702C60.7299 14.4102 47.3099 0.990215 30.7499 0.970215ZM30.7499 59.0302C15.2499 59.0302 2.68982 46.4702 2.68982 30.9702C2.68982 15.4702 15.2499 2.91022 30.7499 2.91022C46.2499 2.91022 58.8099 15.4702 58.8099 30.9702C58.7899 46.4602 46.2399 59.0202 30.7499 59.0302Z" fill="white"/>
</svg>
