<svg width="61" height="61" viewBox="0 0 61 61" fill="none" xmlns="http://www.w3.org/2000/svg">
<path d="M51.9598 43.8902C49.7798 43.8902 47.71 44.7102 46.12 46.2102L45.6798 46.6302L45.3798 46.9102L45.0499 46.6702L44.5599 46.3102L35.86 39.9502L35.3798 39.6002L35.0599 39.3702L35.2198 39.0102L35.4598 38.4702C36.5298 36.1002 37.0699 33.5802 37.0699 30.9702C37.0699 28.3602 36.5298 25.8402 35.4598 23.4702L35.2198 22.9302L35.0599 22.5702L35.3798 22.3402L35.86 21.9902L44.5599 15.6302L45.0499 15.2702L45.3798 15.0302L45.6798 15.3102L46.12 15.7302C47.71 17.2302 49.7898 18.0502 51.9598 18.0502C56.6698 18.0502 60.4999 14.2202 60.4999 9.51021C60.4999 4.80021 56.6698 0.970215 51.9598 0.970215C47.2498 0.970215 43.4198 4.80021 43.4198 9.51021C43.4198 10.3902 43.56 11.2702 43.83 12.1102L43.9899 12.6102L44.1 12.9402L43.8199 13.1502L43.3898 13.4602L34.7499 19.7802L34.1798 20.1902L33.7999 20.4702L33.5099 20.1102L33.0699 19.5602C29.5699 15.1902 24.3599 12.6802 18.7799 12.6802C8.68991 12.6802 0.489868 20.8902 0.489868 30.9702C0.489868 41.0502 8.69991 49.2602 18.7799 49.2602C24.3599 49.2602 29.5599 46.7502 33.0699 42.3802L33.5099 41.8302L33.7999 41.4702L34.1798 41.7502L34.7499 42.1602L43.3898 48.4802L43.8199 48.7902L44.1 49.0002L43.9899 49.3302L43.83 49.8302C43.56 50.6702 43.4198 51.5402 43.4198 52.4302C43.4198 57.1402 47.2498 60.9702 51.9598 60.9702C56.6698 60.9702 60.4999 57.1402 60.4999 52.4302C60.4999 47.7202 56.6698 43.8902 51.9598 43.8902ZM51.9598 3.40021C55.3198 3.40021 58.0599 6.14021 58.0599 9.50021C58.0599 12.8602 55.3198 15.6002 51.9598 15.6002C48.5998 15.6002 45.86 12.8602 45.86 9.50021C45.86 6.14021 48.5998 3.40021 51.9598 3.40021ZM27.33 43.6302V44.3302L27.09 44.4702L26.7299 44.6802C24.3299 46.0702 21.5899 46.8102 18.7999 46.8102C16.0099 46.8102 13.27 46.0702 10.87 44.6802L10.5099 44.4702L10.2699 44.3302V43.1502C10.2699 41.9102 10.5299 41.0502 11.0599 40.5202C11.9399 39.6502 13.6898 39.4702 16.4098 39.4702C16.7798 39.4702 17.1499 39.4702 17.5099 39.4702C17.9399 39.4702 18.3699 39.4702 18.8099 39.4702C19.2499 39.4702 19.69 39.4702 20.11 39.4702C20.47 39.4702 20.8398 39.4702 21.2098 39.4702C23.9298 39.4702 25.6799 39.6402 26.5599 40.5202C27.0899 41.0502 27.35 41.9102 27.35 43.1502V43.6202L27.33 43.6302ZM31.37 40.6102L30.6 41.6102L30.09 42.2802L29.7699 41.5002L29.2899 40.3302C29.0399 39.7402 28.6999 39.2202 28.2799 38.8002C26.6499 37.1802 24.0299 37.0502 21.2699 37.0502C20.8899 37.0502 20.49 37.0502 20.1 37.0502C19.82 37.0502 19.5299 37.0502 19.2299 37.0502H18.84H18.3998C18.1098 37.0502 17.8099 37.0502 17.5299 37.0502C17.1399 37.0502 16.74 37.0502 16.36 37.0502C13.6 37.0502 10.98 37.1802 9.34998 38.8002C8.91998 39.2202 8.57997 39.7402 8.33997 40.3302L7.85999 41.5002L7.53992 42.2802L7.02991 41.6102L6.25989 40.6102C4.10989 37.8202 2.97986 34.4802 2.97986 30.9602C2.97986 22.2202 10.09 15.1102 18.83 15.1102C27.57 15.1102 34.6798 22.2202 34.6798 30.9602C34.6798 34.4802 33.5498 37.8102 31.3998 40.6102H31.37ZM51.9698 58.5302C48.6098 58.5302 45.87 55.7902 45.87 52.4302C45.87 49.0702 48.6098 46.3302 51.9698 46.3302C55.3298 46.3302 58.0699 49.0702 58.0699 52.4302C58.0699 55.7902 55.3298 58.5302 51.9698 58.5302Z" fill="white"/>
</svg>
