<svg width="60" height="61" viewBox="0 0 60 61" fill="none" xmlns="http://www.w3.org/2000/svg">
<path d="M29.9999 3.30995C33.6999 3.30995 37.3599 4.03995 40.7599 5.47995C54.6799 11.4599 61.2098 27.5199 55.3898 41.5099C49.5298 55.6199 33.3399 62.3 19.2299 56.44C8.99986 52.11 2.34998 42.09 2.34998 30.9799C2.34998 15.7 14.7199 3.30996 29.9999 3.29996M29.9999 0.959961C13.4299 0.959961 -0.00012207 14.39 -0.00012207 30.96C-0.00012207 47.53 13.4299 60.96 29.9999 60.96C46.5699 60.96 59.9999 47.53 59.9999 30.96C59.9999 14.39 46.5699 0.959961 29.9999 0.959961Z" fill="white"/>
<path d="M24.7699 42.4201C24.7699 43.0601 25.2898 43.5801 25.9298 43.5801H45.2499C45.8899 43.5801 46.4098 43.0601 46.4098 42.4201C46.4098 36.4501 41.56 31.6101 35.59 31.6001C29.62 31.6001 24.7799 36.4501 24.7699 42.4201ZM27.1598 41.2601C27.6798 37.4801 30.6498 34.5101 34.4298 33.9901C39.0798 33.3501 43.3699 36.6001 44.0099 41.2601H27.1598Z" fill="white"/>
<path d="M40.8199 23.5799C40.8199 20.6999 38.48 18.3599 35.6 18.3599C32.71 18.3599 30.3798 20.6999 30.3798 23.5799C30.3798 26.4699 32.72 28.7999 35.6 28.7999C38.48 28.7999 40.8199 26.4599 40.8199 23.5699V23.5799ZM38.5099 23.5799C38.5099 25.1899 37.21 26.4899 35.6 26.4899C33.99 26.4899 32.6898 25.1899 32.6898 23.5799C32.6898 21.9699 33.99 20.6699 35.6 20.6699C37.21 20.6699 38.5099 21.9699 38.5099 23.5799Z" fill="white"/>
<path d="M14.75 27.3899H23.01L20.79 25.1699C20.34 24.7199 20.34 23.9799 20.79 23.5299C21.24 23.0799 21.9799 23.0799 22.4299 23.5299L26.6299 27.7299C27.0799 28.1799 27.0899 28.9099 26.6299 29.3699L22.3999 33.5999C21.9499 34.0499 21.21 34.0499 20.76 33.5999C20.31 33.1499 20.31 32.4099 20.76 31.9599L23.01 29.7099H14.75C14.11 29.6899 13.6099 29.1599 13.6299 28.5199C13.6499 27.9099 14.14 27.4199 14.75 27.3999V27.3899Z" fill="white"/>
</svg>
