<svg width="45" height="48" viewBox="0 0 45 48" fill="none" xmlns="http://www.w3.org/2000/svg">
<path d="M35.7652 32.129C35.8303 32.2158 35.9076 32.2847 35.9927 32.3316C36.0778 32.3786 36.169 32.4028 36.2611 32.4028H39.5062C39.818 34.0035 40.9113 35.1889 42.2084 35.1889C43.7476 35.1889 45 33.5198 45 31.4679C45 29.4161 43.7477 27.747 42.2084 27.747C40.9112 27.747 39.818 28.9324 39.5062 30.5331H36.5516L34.8451 28.2585H35.3095C36.1907 28.2585 36.9076 27.303 36.9076 26.1283V22.9102C36.9076 21.7357 36.1908 20.78 35.3095 20.78H33.9527C33.8783 20.4133 33.793 20.0506 33.6969 19.693L36.458 16.0127H39.4126C39.7244 17.6134 40.8177 18.7989 42.1148 18.7989C43.654 18.7989 44.9064 17.1297 44.9064 15.0779C44.9064 13.0262 43.6541 11.357 42.1148 11.357C40.8176 11.357 39.7244 12.5424 39.4126 14.143H36.1675C35.9815 14.143 35.8031 14.2415 35.6716 14.4168L33.0928 17.8541C33.0242 17.6786 32.9528 17.505 32.8787 17.3335L33.8403 16.0518C34.4634 15.2212 34.4634 13.8699 33.8403 13.0395L32.1332 10.7641C31.8314 10.3616 31.43 10.1401 31.0031 10.1401C30.5762 10.1401 30.1749 10.3618 29.873 10.7641L28.9115 12.0457C28.7739 11.9402 28.6345 11.8387 28.4935 11.7414L30.352 9.26419H32.6817C32.8677 9.26418 33.046 9.1657 33.1775 8.99041L35.5314 5.85291H37.1953C37.5071 7.45364 38.6004 8.63896 39.8975 8.63896C41.4367 8.63896 42.6891 6.96982 42.6891 4.91806C42.6891 2.8663 41.4368 1.19703 39.8975 1.19703C38.6003 1.19703 37.5071 2.38247 37.1953 3.9832H35.241C35.0551 3.98322 34.8767 4.0817 34.7452 4.25698L32.3913 7.39448H30.0616C29.8756 7.3945 29.6972 7.49298 29.5657 7.66826L27.1109 10.9402C26.8525 10.818 26.5906 10.7092 26.3259 10.6139V8.80543C26.3259 7.63089 25.609 6.67518 24.7277 6.67518H22.3134C21.4322 6.67518 20.7152 7.63077 20.7152 8.80543V8.93231L16.3095 3.05995C16.2444 2.97313 16.1671 2.90427 16.082 2.85729C15.997 2.81032 15.9058 2.78615 15.8137 2.78617H13.7553C13.4435 1.18544 12.3502 0 11.0531 0C9.51392 0 8.26147 1.66915 8.26147 3.72102C8.26147 5.77278 9.51374 7.44193 11.0531 7.44193C12.3503 7.44193 13.4435 6.25649 13.7553 4.65588H15.5232L20.16 10.8363C19.4536 11.1444 18.7732 11.5497 18.1298 12.0457L17.1682 10.7642C17.0202 10.5657 16.844 10.4084 16.65 10.3013C16.456 10.1942 16.248 10.1394 16.038 10.1402C15.8281 10.1395 15.6201 10.1942 15.4262 10.3013C15.2322 10.4084 15.0561 10.5658 14.908 10.7642L13.2008 13.0397C12.5778 13.8702 12.5777 15.2215 13.2008 16.0521L14.0905 17.2379H12.824L10.4701 14.1004C10.405 14.0135 10.3277 13.9447 10.2426 13.8977C10.1575 13.8507 10.0663 13.8266 9.9742 13.8266H8.01986C7.70802 12.2258 6.61475 11.0405 5.31766 11.0405C3.77842 11.0405 2.52598 12.7097 2.52598 14.7614C2.52598 16.8132 3.77825 18.4825 5.31766 18.4825C6.61484 18.4825 7.70802 17.2971 8.01986 15.6963H9.68381L12.0377 18.8338C12.1028 18.9206 12.1801 18.9895 12.2652 19.0364C12.3503 19.0834 12.4415 19.1076 12.5336 19.1076H13.5113C13.3444 19.6529 13.2031 20.2115 13.0883 20.7801H11.7315C10.8503 20.7801 10.1334 21.7357 10.1334 22.9104V26.1285C10.1334 27.303 10.8502 28.2586 11.7315 28.2586H13.0883C13.1881 28.752 13.3078 29.238 13.4468 29.7143L12.3371 31.1933H10.0073C9.82134 31.1933 9.64298 31.2918 9.51145 31.4671L7.15756 34.6046H5.49388C5.18204 33.0039 4.08868 31.8185 2.7915 31.8185C1.25227 31.8185 0 33.4878 0 35.5394C0 37.5911 1.25227 39.2605 2.79159 39.2605C4.08877 39.2605 5.18195 38.075 5.49397 36.4743H7.44822C7.63421 36.4743 7.81258 36.3758 7.9441 36.2005L10.298 33.063H12.6277C12.8137 33.063 12.9921 32.9645 13.1236 32.7892L14.0814 31.5125C14.1001 31.5572 14.1179 31.6023 14.1369 31.6467L13.2009 32.8942C12.5779 33.7247 12.5779 35.0761 13.201 35.9066L14.9081 38.182C15.0562 38.3804 15.2323 38.5378 15.4263 38.6449C15.6203 38.752 15.8283 38.8067 16.0382 38.8059C16.4651 38.8059 16.8664 38.5843 17.1683 38.182L18.086 36.9587C18.326 37.1453 18.5714 37.3194 18.8216 37.4807L14.4406 43.32H12.6099C12.298 41.7193 11.2048 40.5339 9.90758 40.5339C8.36835 40.5339 7.1159 42.203 7.1159 44.2549C7.1159 46.3068 8.36817 47.9758 9.90758 47.9758C11.2048 47.9758 12.2979 46.7905 12.6098 45.1898H14.731C14.917 45.1897 15.0954 45.0913 15.2269 44.916L20.2384 38.2362C20.3963 38.3034 20.5548 38.3674 20.7153 38.425V40.1408C20.7153 41.3154 21.4323 42.271 22.3135 42.271H24.7278C25.609 42.271 26.326 41.3154 26.326 40.1408V38.4245C26.5352 38.3491 26.7427 38.2653 26.9481 38.1732L29.3219 41.3372C29.387 41.424 29.4643 41.4928 29.5494 41.5398C29.6345 41.5868 29.7256 41.611 29.8177 41.611H32.1475L34.5014 44.7483C34.5665 44.8352 34.6438 44.904 34.7289 44.951C34.8139 44.998 34.9051 45.0221 34.9972 45.0221H36.9515C37.2633 46.6228 38.3566 47.8082 39.6538 47.8082C41.193 47.8082 42.4454 46.139 42.4454 44.0873C42.4454 42.0355 41.1931 40.3662 39.6538 40.3662C38.3566 40.3662 37.2634 41.5516 36.9515 43.1524H35.2876L32.9337 40.015C32.8686 39.9282 32.7913 39.8594 32.7062 39.8124C32.6211 39.7654 32.53 39.7412 32.4379 39.7412H30.1081L28.349 37.3965C28.5545 37.2591 28.7567 37.113 28.9552 36.9584L29.8729 38.1815C30.0209 38.38 30.197 38.5373 30.391 38.6444C30.585 38.7515 30.793 38.8062 31.003 38.8055C31.4298 38.8055 31.8311 38.5838 32.133 38.1815L33.8402 35.906C34.4633 35.0755 34.4633 33.7241 33.8402 32.8936L32.9043 31.6461C33.2166 30.918 33.4802 30.1547 33.6918 29.3648L35.7652 32.129ZM42.2085 29.6166C42.9744 29.6166 43.5974 30.4471 43.5974 31.4679C43.5974 32.4887 42.9744 33.3193 42.2085 33.3193C41.4426 33.3193 40.8195 32.4889 40.8195 31.4679C40.8195 30.4469 41.4426 29.6166 42.2085 29.6166ZM42.115 13.227C42.8809 13.227 43.5039 14.0575 43.5039 15.0784C43.5039 16.0994 42.8809 16.9299 42.115 16.9299C41.3491 16.9299 40.726 16.0994 40.726 15.0784C40.726 14.0575 41.3491 13.227 42.115 13.227ZM39.8976 3.06709C40.6635 3.06709 41.2865 3.89757 41.2865 4.91853C41.2865 5.93949 40.6635 6.76984 39.8976 6.76984C39.1317 6.76984 38.5086 5.93937 38.5086 4.91853C38.5086 3.89768 39.1318 3.06709 39.8976 3.06709ZM11.0531 5.57269C10.2873 5.57269 9.66412 4.74222 9.66412 3.72137C9.66412 2.70053 10.2872 1.86994 11.0531 1.86994C11.819 1.86994 12.4422 2.70042 12.4422 3.72137C12.4422 4.74233 11.819 5.57269 11.0531 5.57269ZM5.31766 16.613C4.55178 16.613 3.92863 15.7825 3.92863 14.7616C3.92863 13.7407 4.55169 12.9102 5.31766 12.9102C6.08354 12.9102 6.70659 13.7407 6.70659 14.7616C6.70659 15.7825 6.08354 16.613 5.31766 16.613ZM2.79159 37.3909C2.02571 37.3909 1.40265 36.5604 1.40265 35.5394C1.40265 34.5186 2.02571 33.6881 2.79159 33.6881C3.55756 33.6881 4.18061 34.5186 4.18061 35.5394C4.18053 36.5604 3.55747 37.3909 2.79159 37.3909ZM9.90749 46.1062C9.14161 46.1062 8.51846 45.2757 8.51846 44.2549C8.51846 43.2341 9.14152 42.4035 9.90749 42.4035C10.6734 42.4035 11.2964 43.2339 11.2964 44.2549C11.2964 45.2759 10.6734 46.1062 9.90749 46.1062ZM39.6538 42.2364C40.4197 42.2364 41.0427 43.0669 41.0427 44.0878C41.0427 45.1088 40.4197 45.9392 39.6538 45.9392C38.8879 45.9392 38.2648 45.1087 38.2648 44.0878C38.2648 43.067 38.8879 42.2364 39.6538 42.2364ZM32.7145 27.1294C32.4792 28.6064 32.0438 30.0139 31.4296 31.2827C31.3428 31.4622 31.3048 31.676 31.3219 31.8883C31.3389 32.1007 31.41 32.2988 31.5233 32.4499L32.8484 34.2161C32.885 34.2651 32.9055 34.3313 32.9055 34.4004C32.9056 34.4695 32.885 34.5358 32.8485 34.5848L31.1413 36.8603C31.1233 36.8847 31.1018 36.904 31.078 36.9171C31.0543 36.9302 31.0288 36.9368 31.0031 36.9366C30.9662 36.9366 30.9122 36.9233 30.8649 36.8603L29.554 35.113C29.4398 34.9609 29.2898 34.8659 29.1292 34.8441C28.9687 34.8223 28.8074 34.8749 28.6725 34.9932C27.6938 35.8516 26.6191 36.451 25.4787 36.7744C25.3215 36.819 25.1806 36.9341 25.0795 37.1006C24.9784 37.267 24.9233 37.4746 24.9233 37.6888V40.141C24.9232 40.2101 24.9026 40.2763 24.8659 40.3252C24.8293 40.374 24.7796 40.4015 24.7277 40.4015H22.3134C22.2615 40.4014 22.2118 40.374 22.1752 40.3251C22.1385 40.2763 22.1179 40.21 22.1179 40.141V37.6888C22.1179 37.4746 22.0627 37.267 21.9616 37.1006C21.8605 36.9341 21.7197 36.819 21.5625 36.7744C20.422 36.4511 19.3475 35.8519 18.3686 34.9932C18.2338 34.8748 18.0725 34.822 17.9119 34.8439C17.7513 34.8657 17.6013 34.9608 17.4872 35.113L16.1762 36.8604C16.1582 36.8848 16.1367 36.9041 16.1129 36.9172C16.0892 36.9303 16.0637 36.937 16.038 36.9367C16.0124 36.9369 15.9869 36.9303 15.9631 36.9172C15.9394 36.9041 15.9178 36.8848 15.8998 36.8604L14.1927 34.585C14.1561 34.5361 14.1355 34.4698 14.1355 34.4007C14.1355 34.3316 14.1561 34.2653 14.1927 34.2164L15.5179 32.4501C15.6312 32.2991 15.7023 32.1009 15.7194 31.8886C15.7364 31.6762 15.6984 31.4625 15.6117 31.2829C14.9975 30.0141 14.5621 28.6067 14.3267 27.1296C14.2933 26.9202 14.2069 26.7324 14.082 26.5977C13.9572 26.4629 13.8014 26.3894 13.6407 26.3894H11.7316C11.6797 26.3893 11.6301 26.3618 11.5934 26.313C11.5568 26.2641 11.5362 26.1979 11.5361 26.1288V22.9107C11.5361 22.767 11.6237 22.6501 11.7316 22.6501H13.6407C13.8014 22.65 13.9572 22.5765 14.082 22.4418C14.2069 22.307 14.2933 22.1192 14.3267 21.9098C14.5661 20.4102 15.007 18.9953 15.6374 17.7046C15.7251 17.5249 15.7638 17.3106 15.7471 17.0974C15.7304 16.8842 15.6592 16.6851 15.5455 16.5336L14.1928 14.7305C14.1562 14.6816 14.1356 14.6153 14.1356 14.5462C14.1356 14.4771 14.1562 14.4109 14.1928 14.362L15.9 12.0864C15.918 12.0621 15.9395 12.0427 15.9632 12.0296C15.9869 12.0165 16.0124 12.0099 16.038 12.0102C16.075 12.0102 16.1289 12.0234 16.1764 12.0864L17.5292 13.8895C17.6429 14.0411 17.7923 14.1359 17.9522 14.1582C18.1122 14.1805 18.273 14.1288 18.4078 14.0119C19.376 13.1717 20.4375 12.5841 21.5627 12.265C21.7198 12.2204 21.8607 12.1053 21.9618 11.9388C22.0629 11.7724 22.1181 11.5648 22.1181 11.3506V8.80602C22.1181 8.66228 22.2058 8.54536 22.3135 8.54536H24.7279C24.8357 8.54536 24.9235 8.66228 24.9235 8.80602V11.3506C24.9235 11.5648 24.9786 11.7724 25.0797 11.9388C25.1808 12.1053 25.3217 12.2204 25.4788 12.265C26.604 12.5841 27.6655 13.1717 28.6337 14.0119C28.7685 14.1288 28.9293 14.1805 29.0892 14.1582C29.2492 14.1359 29.3985 14.0411 29.5122 13.8895L30.865 12.0863C30.8831 12.0619 30.9046 12.0426 30.9284 12.0295C30.9521 12.0164 30.9776 12.0098 31.0033 12.0101C31.0402 12.0101 31.0942 12.0233 31.1415 12.0863L32.8487 14.3618C32.8852 14.4107 32.9058 14.477 32.9058 14.5461C32.9058 14.6151 32.8852 14.6814 32.8487 14.7303L31.4958 16.5333C31.3821 16.6849 31.311 16.884 31.2942 17.0971C31.2775 17.3103 31.3163 17.5247 31.404 17.7043C32.0344 18.995 32.4753 20.4099 32.7146 21.9096C32.7481 22.119 32.8344 22.3068 32.9593 22.4415C33.0842 22.5763 33.24 22.6498 33.4006 22.6498H35.3098C35.4176 22.6498 35.5052 22.7667 35.5052 22.9105V26.1286C35.5052 26.1977 35.4846 26.2639 35.4479 26.3127C35.4113 26.3616 35.3616 26.3891 35.3098 26.3891H33.4006C33.2399 26.3891 33.0841 26.4626 32.9593 26.5974C32.8344 26.7321 32.748 26.9199 32.7145 27.1294Z" fill="black"/>
</svg>
