<svg width="38" height="38" viewBox="0 0 38 38" fill="none" xmlns="http://www.w3.org/2000/svg">
<path d="M35.8 22.6163C35.3049 22.6163 34.8301 22.813 34.4801 23.163C34.13 23.5131 33.9333 23.9879 33.9333 24.483V31.9496C33.9333 32.4447 33.7367 32.9195 33.3866 33.2696C33.0365 33.6196 32.5617 33.8163 32.0667 33.8163H5.93333C5.43826 33.8163 4.96346 33.6196 4.6134 33.2696C4.26333 32.9195 4.06666 32.4447 4.06666 31.9496V24.483C4.06666 23.9879 3.87 23.5131 3.51993 23.163C3.16986 22.813 2.69507 22.6163 2.19999 22.6163C1.70492 22.6163 1.23013 22.813 0.880062 23.163C0.529994 23.5131 0.333328 23.9879 0.333328 24.483V31.9496C0.333328 33.4349 0.923327 34.8592 1.97353 35.9094C3.02373 36.9596 4.44812 37.5496 5.93333 37.5496H32.0667C33.5519 37.5496 34.9763 36.9596 36.0265 35.9094C37.0767 34.8592 37.6667 33.4349 37.6667 31.9496V24.483C37.6667 23.9879 37.47 23.5131 37.1199 23.163C36.7699 22.813 36.2951 22.6163 35.8 22.6163ZM17.6747 25.8083C17.8522 25.9783 18.0615 26.1115 18.2907 26.2003C18.5141 26.2991 18.7557 26.3501 19 26.3501C19.2443 26.3501 19.4859 26.2991 19.7093 26.2003C19.9385 26.1115 20.1478 25.9783 20.3253 25.8083L27.792 18.3416C28.1435 17.9901 28.341 17.5134 28.341 17.0163C28.341 16.5192 28.1435 16.0425 27.792 15.691C27.4405 15.3395 26.9638 15.142 26.4667 15.142C25.9696 15.142 25.4928 15.3395 25.1413 15.691L20.8667 19.9843V2.08298C20.8667 1.5879 20.67 1.11311 20.3199 0.763043C19.9699 0.412975 19.4951 0.216309 19 0.216309C18.5049 0.216309 18.0301 0.412975 17.6801 0.763043C17.33 1.11311 17.1333 1.5879 17.1333 2.08298V19.9843L12.8587 15.691C12.6846 15.5169 12.478 15.3789 12.2506 15.2847C12.0232 15.1905 11.7795 15.142 11.5333 15.142C11.2872 15.142 11.0435 15.1905 10.8161 15.2847C10.5887 15.3789 10.382 15.5169 10.208 15.691C10.0339 15.865 9.89589 16.0716 9.8017 16.299C9.7075 16.5264 9.65902 16.7702 9.65902 17.0163C9.65902 17.2624 9.7075 17.5062 9.8017 17.7336C9.89589 17.961 10.0339 18.1676 10.208 18.3416L17.6747 25.8083Z" fill="black"/>
</svg>
