<svg width="45" height="45" viewBox="0 0 45 45" fill="none" xmlns="http://www.w3.org/2000/svg">
<path d="M22.4667 6.31103C22.8224 6.31103 23.1107 6.03064 23.1107 5.6846V1.46139C23.1107 1.11535 22.8224 0.834961 22.4667 0.834961C22.111 0.834961 21.8227 1.11535 21.8227 1.46139V5.6846C21.8227 6.03064 22.111 6.31103 22.4667 6.31103ZM10.4517 10.7853C10.5725 10.9028 10.7363 10.9688 10.9071 10.9688C11.0779 10.9688 11.2417 10.9028 11.3625 10.7853C11.4832 10.6678 11.5511 10.5085 11.5511 10.3423C11.5511 10.1762 11.4832 10.0169 11.3625 9.89937L8.29246 6.91298C8.17168 6.7955 8.00787 6.7295 7.83707 6.7295C7.66627 6.7295 7.50247 6.7955 7.38169 6.91298C7.26092 7.03046 7.19307 7.1898 7.19307 7.35595C7.19307 7.52209 7.26092 7.68144 7.38169 7.79892L10.4517 10.7853ZM6.11897 20.9603H1.77732C1.42158 20.9603 1.13333 21.2406 1.13333 21.5867C1.13333 21.9327 1.42158 22.2131 1.77732 22.2131H6.11888C6.47462 22.2131 6.76287 21.9327 6.76287 21.5867C6.76287 21.2406 6.47462 20.9603 6.11897 20.9603ZM10.4517 32.3881L7.38169 35.3744C7.26092 35.4919 7.19307 35.6513 7.19307 35.8174C7.19307 35.9836 7.26092 36.1429 7.38169 36.2604C7.50247 36.3779 7.66627 36.4439 7.83707 36.4439C8.00787 36.4439 8.17168 36.3779 8.29246 36.2604L11.3625 33.2741C11.4832 33.1566 11.5511 32.9972 11.5511 32.8311C11.5511 32.665 11.4832 32.5056 11.3625 32.3881C11.2417 32.2706 11.0779 32.2046 10.9071 32.2046C10.7363 32.2046 10.5725 32.2706 10.4517 32.3881ZM34.4816 32.3881C34.4218 32.33 34.3508 32.2838 34.2727 32.2523C34.1946 32.2209 34.1108 32.2046 34.0263 32.2046C33.9417 32.2046 33.8579 32.2209 33.7798 32.2523C33.7017 32.2838 33.6307 32.33 33.5709 32.3881C33.5111 32.4463 33.4636 32.5154 33.4313 32.5914C33.3989 32.6674 33.3823 32.7488 33.3823 32.8311C33.3823 32.9134 33.3989 32.9948 33.4313 33.0708C33.4636 33.1468 33.5111 33.2159 33.5709 33.2741L36.6409 36.2604C36.7617 36.3779 36.9255 36.4439 37.0963 36.4439C37.2671 36.4439 37.4309 36.3779 37.5516 36.2604C37.6724 36.1429 37.7403 35.9836 37.7403 35.8174C37.7403 35.6513 37.6724 35.4919 37.5516 35.3744L34.4816 32.3881ZM43.156 20.9603H38.8144C38.4587 20.9603 38.1705 21.2406 38.1705 21.5867C38.1705 21.9327 38.4587 22.2131 38.8144 22.2131H43.156C43.5118 22.2131 43.8 21.9327 43.8 21.5867C43.8 21.2406 43.5117 20.9603 43.156 20.9603ZM36.6409 6.91298L33.5709 9.89937C33.4501 10.0169 33.3823 10.1762 33.3823 10.3423C33.3823 10.5085 33.4501 10.6678 33.5709 10.7853C33.6917 10.9028 33.8555 10.9688 34.0263 10.9688C34.1971 10.9688 34.3609 10.9028 34.4816 10.7853L37.5516 7.79892C37.6724 7.68144 37.7403 7.52209 37.7403 7.35595C37.7403 7.1898 37.6724 7.03046 37.5516 6.91298C37.4309 6.7955 37.2671 6.7295 37.0963 6.7295C36.9255 6.7295 36.7617 6.7955 36.6409 6.91298ZM35.1886 20.3205C35.1886 13.3987 29.4816 7.76743 22.4667 7.76743C20.0094 7.76743 17.6245 8.46009 15.5697 9.7705C13.5706 11.0455 11.977 12.8392 10.9611 14.9576C10.8917 15.1077 10.8858 15.2785 10.9447 15.4328C11.0037 15.5872 11.1228 15.7128 11.2762 15.7824C11.4296 15.852 11.605 15.8601 11.7645 15.8049C11.924 15.7496 12.0547 15.6355 12.1284 15.4873C14.0121 11.5587 18.0702 9.02028 22.4667 9.02028C28.7714 9.02028 33.9006 14.0895 33.9006 20.3205C33.9006 23.28 32.7509 26.0781 30.6633 28.199C29.4601 29.4214 28.4359 30.5894 28.1724 32.2259H16.9294C16.5974 30.527 15.406 29.335 14.3354 28.2648C12.2057 26.1358 11.0328 23.3144 11.0328 20.3205C11.0328 19.5812 11.1055 18.8418 11.2489 18.1228C11.265 18.042 11.2645 17.959 11.2476 17.8784C11.2307 17.7978 11.1977 17.7212 11.1504 17.653C11.103 17.5848 11.0424 17.5264 10.9718 17.481C10.9013 17.4356 10.8222 17.4042 10.7392 17.3886C10.6562 17.3729 10.5708 17.3733 10.4879 17.3898C10.4051 17.4062 10.3263 17.4383 10.2563 17.4844C10.1862 17.5304 10.1261 17.5894 10.0794 17.6581C10.0328 17.7267 10.0005 17.8036 9.98442 17.8843C9.8249 18.6871 9.74468 19.5028 9.74485 20.3205C9.74485 23.6426 11.0473 26.7743 13.4124 29.1386C14.7707 30.4963 15.7322 31.5801 15.7322 33.1687C15.7322 33.1742 15.7323 33.1799 15.7324 33.1854L15.7694 36.8615C15.7694 38.0541 16.4234 39.1009 17.4008 39.6806V40.3695C17.4008 42.0966 18.8452 43.5016 20.6207 43.5016H24.5705C26.346 43.5016 27.7904 42.0966 27.7904 40.3695V39.6806C28.7678 39.1009 29.4218 38.0541 29.4218 36.8615C29.4218 36.8615 29.4173 32.7667 29.4087 32.7258C29.5309 31.274 30.4355 30.2421 31.5937 29.0654C33.9118 26.7101 35.1886 23.6044 35.1886 20.3205ZM26.5023 40.3695C26.5023 41.4057 25.6356 42.2488 24.5704 42.2488H20.6206C19.5554 42.2488 18.6887 41.4057 18.6887 40.3695V40.128C18.8431 40.1491 19.0006 40.1607 19.1609 40.1607H26.0301C26.1904 40.1607 26.3479 40.149 26.5023 40.128V40.3695ZM26.0301 38.9078H19.1609C18.0009 38.9078 17.0572 37.9899 17.0572 36.8615V36.8197H23.5829C23.9387 36.8197 24.2269 36.5393 24.2269 36.1933C24.2269 35.8473 23.9387 35.5669 23.5829 35.5669H17.0572V33.4788H28.1138L28.1338 35.5669H26.5882C26.2325 35.5669 25.9442 35.8473 25.9442 36.1933C25.9442 36.5393 26.2325 36.8197 26.5882 36.8197H28.1338V36.8615C28.1338 37.9899 27.19 38.9078 26.0301 38.9078Z" fill="black" stroke="black" stroke-width="1.06667"/>
<path d="M26.6535 20.4036C26.5509 20.535 26.5058 20.7004 26.5279 20.864C26.55 21.0275 26.6375 21.176 26.7715 21.2771C26.9054 21.3783 27.0749 21.424 27.2433 21.4043C27.4117 21.3846 27.5652 21.3011 27.6707 21.1719L28.9456 19.5749C29.2832 19.152 29.4313 18.6266 29.3626 18.0953C29.3295 17.8339 29.2435 17.5815 29.1094 17.3526C28.9754 17.1238 28.796 16.9231 28.5817 16.7621C28.147 16.4337 27.6065 16.2889 27.0606 16.3566C26.7919 16.3888 26.5324 16.4724 26.2972 16.6028C26.062 16.7332 25.8557 16.9077 25.6902 17.1161L21.5311 22.3267L19.144 19.7576C18.382 18.9377 17.0762 18.8737 16.2335 19.6147C16.0321 19.7907 15.8687 20.0039 15.7526 20.2418C15.6365 20.4797 15.5701 20.7377 15.5571 21.0007C15.5427 21.2637 15.5821 21.5268 15.673 21.7749C15.7638 22.023 15.9043 22.2511 16.0864 22.446L20.1221 26.7893C20.9345 27.7058 22.5397 27.6496 23.2786 26.6745L25.8275 23.4814C25.93 23.35 25.9751 23.1846 25.953 23.021C25.9309 22.8575 25.8434 22.709 25.7095 22.6078C25.5755 22.5067 25.406 22.461 25.2376 22.4807C25.0693 22.5004 24.9157 22.5839 24.8102 22.713L22.2613 25.9062C21.9847 26.2718 21.381 26.2931 21.0777 25.9492L17.0421 21.6059C16.7563 21.2984 16.781 20.8222 17.0973 20.5442C17.4132 20.2666 17.9029 20.2903 18.1887 20.5979L21.0909 23.7213C21.3439 24.0067 21.8467 23.9903 22.0773 23.6854L26.7077 17.8846C26.9556 17.5604 27.4696 17.4975 27.792 17.7519C28.1254 17.9931 28.19 18.4927 27.9285 18.8067L26.6535 20.4036Z" fill="black" stroke="black" stroke-width="1.06667"/>
</svg>
