<svg width="60" height="61" viewBox="0 0 60 61" fill="none" xmlns="http://www.w3.org/2000/svg">
<path d="M30 3.30995C33.7 3.30995 37.36 4.03995 40.76 5.47995C54.68 11.4599 61.2099 27.5199 55.3899 41.5099C49.5299 55.6199 33.34 62.3 19.23 56.44C8.99998 52.11 2.3501 42.0899 2.3501 30.9799C2.3501 15.7 14.72 3.30996 30 3.29996M30 0.959961C13.43 0.959961 0 14.39 0 30.96C0 47.53 13.43 60.96 30 60.96C46.57 60.96 60 47.53 60 30.96C60 14.39 46.57 0.959961 30 0.959961Z" fill="white"/>
<path d="M24.77 42.4201C24.77 43.0601 25.2899 43.5801 25.9299 43.5801H45.25C45.89 43.5801 46.4099 43.0601 46.4099 42.4201C46.4099 36.4501 41.5601 31.6101 35.5901 31.6001C29.6201 31.6001 24.78 36.4501 24.77 42.4201ZM27.1599 41.2601C27.6799 37.4801 30.6499 34.5101 34.4299 33.9901C39.0799 33.3501 43.37 36.6001 44.01 41.2601H27.1599Z" fill="white"/>
<path d="M40.8201 23.5799C40.8201 20.6999 38.4801 18.3599 35.6001 18.3599C32.7101 18.3599 30.3799 20.6999 30.3799 23.5799C30.3799 26.4699 32.7201 28.7999 35.6001 28.7999C38.4801 28.7999 40.8201 26.4599 40.8201 23.5699V23.5799ZM38.51 23.5799C38.51 25.1899 37.2101 26.4899 35.6001 26.4899C33.9901 26.4899 32.6899 25.1899 32.6899 23.5799C32.6899 21.9699 33.9901 20.6699 35.6001 20.6699C37.2101 20.6699 38.51 21.9699 38.51 23.5799Z" fill="white"/>
<path d="M14.7501 27.3899H23.0101L20.7901 25.1699C20.3401 24.7199 20.3401 23.9799 20.7901 23.5299C21.2401 23.0799 21.98 23.0799 22.43 23.5299L26.63 27.7299C27.08 28.1799 27.09 28.9099 26.63 29.3699L22.4 33.5999C21.95 34.0499 21.2101 34.0499 20.7601 33.5999C20.3101 33.1499 20.3101 32.4099 20.7601 31.9599L23.0101 29.7099H14.7501C14.1101 29.6899 13.61 29.1599 13.63 28.5199C13.65 27.9099 14.1401 27.4199 14.7501 27.3999V27.3899Z" fill="white"/>
</svg>
