<svg width="177" height="145" viewBox="0 0 177 145" fill="none" xmlns="http://www.w3.org/2000/svg">
<path d="M56.81 0C37.19 0 21.28 15.9098 21.28 35.5298C21.28 55.1498 37.19 71.0601 56.81 71.0601C76.43 71.0601 92.34 55.1498 92.34 35.5298C92.31 15.9198 76.42 0.02 56.81 0ZM56.81 63.71C41.25 63.71 28.63 51.0998 28.63 35.5298C28.63 19.9598 41.24 7.3501 56.81 7.3501C72.38 7.3501 84.99 19.9698 84.99 35.5298C84.98 51.0898 72.37 63.69 56.81 63.71Z" fill="#0030E1"/>
<path d="M160.98 24.4197C159.27 24.4197 157.58 24.75 156.01 25.41C153.17 20.54 148.98 16.5899 143.94 14.0399C143.76 13.9399 143.58 13.8496 143.39 13.7796C139.57 11.9696 135.4 11.0399 131.18 11.0599C115.37 11.0799 102.53 23.86 102.45 39.68V39.7498C102.45 53.6398 112.38 65.5398 126.05 68.0198C139.72 70.4998 153.2 62.8399 158.07 49.8299C159.04 50.0499 160.02 50.16 161.01 50.16C168.12 50.15 173.88 44.3798 173.87 37.2698C173.86 30.1598 168.09 24.4 160.98 24.41V24.4197ZM131.15 18.43C133.22 18.43 135.27 18.7399 137.26 19.3099C135.68 22.9499 133.84 26.0399 131.67 28.5399C131.56 28.6499 131.49 28.7599 131.38 28.8699C128.07 32.6599 124.06 35.1596 119.46 36.2996C116.37 37.0696 113.16 37.2296 110.01 36.7796C111.52 26.2596 120.53 18.44 131.16 18.43H131.15ZM131.15 61.1297C121.08 61.1097 112.39 54.0898 110.26 44.2498C111.32 44.3598 112.39 44.4097 113.46 44.3997C115.94 44.3997 118.41 44.1196 120.82 43.5496C125.6 42.4296 130.03 40.1197 133.69 36.8597C134.79 38.2897 136.02 39.6199 137.37 40.8299C141.56 44.6499 146.24 46.7499 151.16 47.0799C148.13 55.5199 140.12 61.1397 131.15 61.1297ZM152.52 39.7996C145.6 39.7296 140.9 34.3597 138.8 31.3397C140.79 28.6197 142.48 25.6797 143.84 22.5897C146.96 24.8997 149.4 28.0199 150.9 31.5999C150.98 31.9599 151.12 32.3097 151.31 32.6297C152.11 34.9397 152.52 37.3596 152.52 39.7996ZM160.98 42.8197C160.56 42.8197 160.14 42.7798 159.73 42.6698C159.83 41.6998 159.88 40.7296 159.88 39.7596C159.88 37.1996 159.53 34.65 158.85 32.18C159.53 31.9 160.25 31.7598 160.98 31.7698C164.03 31.7698 166.5 34.2399 166.5 37.2899C166.5 40.3399 164.03 42.8099 160.98 42.8099V42.8197Z" fill="#0030E1"/>
<path d="M131.15 79.49C116.73 79.49 103.6 86.1097 95.18 97.3997C84.77 87.6897 71.05 82.3199 56.81 82.3899C41.47 82.3899 27.2 88.3499 16.61 99.1599C5.90999 110.12 0.0200195 125.09 0.0200195 141.31C0.0200195 143.34 1.67001 144.98 3.70001 144.99H109.93C111.96 144.99 113.6 143.34 113.61 141.31C113.61 137.6 113.29 133.89 112.65 130.24H172.9C174.93 130.24 176.57 128.59 176.58 126.56C176.58 113.61 171.87 101.66 163.3 92.8997C154.85 84.2497 143.25 79.4 131.15 79.47V79.49ZM7.47998 137.64C8.28998 124.77 13.33 113.07 21.86 104.32C31.1 94.9996 43.68 89.7498 56.8 89.7498C69.92 89.7498 82.51 94.9896 91.74 104.32C100.27 113.07 105.31 124.77 106.12 137.64H7.46997H7.47998ZM110.91 122.89C108.72 115.59 105.11 108.78 100.28 102.88C106.72 93.7297 116.88 87.9 128.03 86.97C139.18 86.04 150.17 90.0998 158.03 98.0598C164.43 104.61 168.25 113.33 169.07 122.89H110.91Z" fill="#0030E1"/>
</svg>
