<svg width="53" height="53" viewBox="0 0 53 53" fill="none" xmlns="http://www.w3.org/2000/svg">
<path d="M51.7 25.63L27.16 1.08998C26.68 0.60998 25.9001 0.60998 25.4201 1.08998L0.88002 25.63C0.40002 26.11 0.40002 26.89 0.88002 27.37C1.11002 27.6 1.42001 27.73 1.75001 27.73H7.89003V46.07C7.89003 49.5 10.67 52.27 14.1 52.27H38.5C41.93 52.27 44.7 49.49 44.71 46.07V27.73H50.85C51.53 27.73 52.08 27.18 52.08 26.51C52.08 26.18 51.95 25.87 51.72 25.64L51.7 25.63ZM20.15 49.82V33.87C20.15 30.48 22.9001 27.73 26.2901 27.73C29.6801 27.73 32.4301 30.48 32.4301 33.87V49.82H20.16H20.15ZM43.47 25.28C42.79 25.28 42.24 25.83 42.24 26.51V46.08C42.24 48.15 40.56 49.83 38.49 49.83H34.88V33.88C34.88 29.14 31.0301 25.29 26.2901 25.29C21.5501 25.29 17.7 29.14 17.7 33.88V49.83H14.09C12.02 49.83 10.34 48.15 10.34 46.08V26.51C10.34 25.83 9.79 25.28 9.11 25.28H4.70998L26.2901 3.69998L47.87 25.28H43.47Z" fill="url(#paint0_linear_1_8628)"/>
<defs>
<linearGradient id="paint0_linear_1_8628" x1="-9.90837" y1="62.9578" x2="53.3437" y2="-7.37235" gradientUnits="userSpaceOnUse">
<stop stop-color="#7851FE"/>
<stop offset="0.13" stop-color="#6E5DFE"/>
<stop offset="0.37" stop-color="#557EFE"/>
<stop offset="0.68" stop-color="#2DB4FE"/>
<stop offset="1" stop-color="#01F0FE"/>
</linearGradient>
</defs>
</svg>
