<svg width="2560" height="2644" viewBox="0 0 2560 2644" fill="none" xmlns="http://www.w3.org/2000/svg">
<mask id="mask0_1_13177" style="mask-type:luminance" maskUnits="userSpaceOnUse" x="-7" y="0" width="2567" height="2644">
<path d="M-6.63 0.22998C-6.63 0.22998 529.12 275.18 1252.69 103C2000.69 -75 2560 217.28 2560 217.28V2644H-3.31L-6.63 0.22998Z" fill="white"/>
</mask>
<g mask="url(#mask0_1_13177)">
<g style="mix-blend-mode:darken">
<g opacity="0.03">
<path d="M1327.4 478.49C1340.01 470.94 1352.94 463.86 1366.22 457.26C1540.24 370.75 1761.44 363.29 1973.1 436.8C2149.03 497.91 2317.19 610.07 2487.2 779.69C2532.29 824.54 2577.02 872.35 2620.29 918.58C2777.19 1086.27 2939.43 1259.66 3156.43 1334.04C3214.39 1353.91 3275.14 1366.69 3333.89 1379.04C3424.55 1398.11 3518.3 1417.83 3600.01 1463.96C3792.39 1572.56 3884.51 1833.17 3809.72 2057.27C3743.47 2255.78 3562.35 2424.2 3325.28 2507.8C3297.8 2517.6 3269.12 2526.54 3241.39 2535.19C3149.5 2563.83 3054.46 2593.46 2986.18 2659.66C2924.95 2719.03 2890.15 2800.02 2856.49 2878.34C2839.69 2917.46 2822.31 2957.9 2801.82 2995.28C2676.02 3224.77 2408.78 3372.86 2120.94 3372.59C1859.51 3372.33 1589.83 3255.11 1381.03 3051.01C1319.99 2991.04 1264.25 2924.42 1210.34 2859.99C1153.43 2791.97 1094.57 2721.64 1029.57 2659.27C927.23 2561.05 764.81 2444 572.3 2444.17C552.75 2444.17 533.07 2445.05 514.03 2445.89C458.01 2448.36 405.08 2450.7 354.84 2432.98C282.04 2407.29 225 2336.56 205.98 2248.4C191.11 2179.44 197.43 2102.26 225.86 2005.54C298.02 1760.14 471.46 1547.91 701.93 1422.8C733.85 1405.49 767.52 1389.57 800.08 1374.19C842.14 1354.31 885.64 1333.74 925.54 1310.07C983.54 1275.25 1056.62 1218.24 1075.2 1140.42C1085.84 1095.89 1078.69 1049.63 1071.78 1004.9C1068.69 984.84 1065.49 964.1 1063.88 943.65C1049.98 766.31 1156.84 580.66 1327.39 478.49H1327.4ZM3489.98 2424.38C3642.21 2333.2 3755.08 2202.69 3804.19 2055.55C3878.14 1833.97 3787.16 1576.33 3597.06 1469.02C3516.12 1423.33 3426.97 1404.58 3332.58 1384.73C3273.66 1372.33 3212.72 1359.52 3154.43 1339.54C2936.07 1264.69 2773.34 1090.77 2615.97 922.59C2572.74 876.38 2528.04 828.61 2483.02 783.83C2313.64 614.83 2146.18 503.1 1971.08 442.28C1760.9 369.29 1541.37 376.63 1368.77 462.43C1177.9 557.38 1054.98 754.96 1069.73 943.11C1071.31 963.35 1074.5 983.99 1077.57 1003.94C1084.56 1049.21 1091.79 1096.03 1080.9 1141.67C1062.06 1220.61 989.17 1278.69 930.49 1313.84L928.48 1315.04C888.34 1338.86 844.71 1359.49 802.52 1379.43C770.03 1394.79 736.45 1410.67 704.67 1427.89C475.81 1552 303.2 1763.18 231.5 2007.08C203.34 2102.85 197.05 2179.11 211.72 2247.12C230.33 2333.37 285.96 2402.5 356.91 2427.54C406.07 2444.89 458.44 2442.58 513.88 2440.14C532.99 2439.29 552.74 2438.42 572.41 2438.41C766.87 2438.24 930.6 2556.16 1033.7 2655.1C1098.92 2717.68 1157.88 2788.14 1214.88 2856.28C1268.7 2920.61 1324.36 2987.12 1385.2 3046.9C1592.93 3249.95 1861.14 3366.57 2121.08 3366.83C2406.75 3367.1 2671.96 3220.23 2796.7 2992.62C2817.05 2955.49 2834.37 2915.17 2851.13 2876.19C2885.01 2797.34 2920.05 2715.8 2982.13 2655.6C3051.42 2588.38 3147.15 2558.55 3239.73 2529.7C3267.4 2521.08 3296.02 2512.15 3323.4 2502.39C3382.77 2481.45 3438.62 2455.16 3489.97 2424.4L3489.98 2424.38Z" fill="url(#paint0_linear_1_13177)"/>
</g>
<g opacity="0.06">
<path d="M1377.35 524.45C1391.51 515.97 1406.15 508.02 1421.21 500.65C1592.09 417.13 1807.59 410.09 2012.46 481.34C2184.11 541.06 2347.62 650.85 2512.33 817C2555.02 859.79 2597.45 905.16 2638.46 949.03C2791.16 1112.36 2949.06 1281.24 3158.3 1358.07C3212.86 1378.1 3269.12 1392.23 3323.53 1405.88C3413.27 1428.4 3498.03 1449.67 3575.25 1495.13C3759.07 1603.36 3845.98 1856.1 3773.12 2070.51C3708.14 2261.67 3531.78 2425.82 3301.37 2509.63C3275.36 2519.09 3248.28 2527.78 3222.09 2536.18C3132.28 2564.99 3039.38 2594.8 2973.34 2660.96C2914.71 2719.67 2879.61 2798.65 2845.67 2875.03C2827.71 2915.43 2809.14 2957.2 2787.32 2995.47C2659.99 3218.73 2396.53 3361.5 2116.16 3359.24C1858.84 3357.15 1594.51 3240.73 1390.94 3039.81C1331.49 2981.14 1277.07 2916.03 1224.44 2853.05C1166.05 2783.16 1105.65 2710.9 1038.43 2647.59C897.29 2514.63 736.92 2439.5 586.89 2436C573.67 2435.69 560.59 2435.59 547.7 2435.47C485.31 2434.94 426.39 2434.44 373.75 2411.76C306.5 2382.81 255.88 2311.11 241.64 2224.64C230.53 2157.22 238.87 2084.09 268.66 1987.51C347.03 1733.48 516.47 1525.68 733.73 1417.45C758.55 1405.07 783.78 1392.79 809.07 1380.48C861.19 1355.09 915.11 1328.84 965.36 1301.76C1054.41 1253.64 1108.2 1201.33 1124.72 1146.18C1137.1 1104.81 1131.37 1061.76 1125.82 1020.12C1123.42 1002.12 1120.93 983.5 1119.9 965.12C1110.33 795.08 1212.28 623.33 1377.36 524.45H1377.35ZM3457.65 2429.34C3607.68 2339.47 3719.17 2211.74 3767.75 2068.8C3839.8 1856.79 3753.94 1606.94 3572.29 1499.98C3495.77 1454.93 3411.39 1433.75 3322.06 1411.33C3267.5 1397.64 3211.09 1383.48 3156.25 1363.34C2945.77 1286.05 2787.41 1116.68 2634.27 952.89C2593.28 909.05 2550.89 863.7 2508.25 820.97C2344.14 655.44 2181.32 546.08 2010.49 486.64C1807.04 415.89 1593.15 422.83 1423.65 505.68C1235.11 597.91 1115.29 782.33 1125.56 964.69C1126.58 982.87 1129.05 1001.37 1131.43 1019.27C1137.05 1061.49 1142.88 1105.15 1130.14 1147.68C1113.17 1204.34 1058.74 1257.92 967.99 1306.67C917.63 1333.81 863.67 1360.09 811.49 1385.51C786.21 1397.81 761 1410.09 736.2 1422.45C520.52 1529.92 352 1736.51 274.08 1989.05C244.55 2084.76 236.29 2157.1 247.24 2223.64C261.19 2308.27 310.55 2378.36 376.08 2406.59C427.68 2428.82 486.04 2429.32 547.84 2429.84C560.77 2429.95 573.86 2430.06 587.11 2430.37C738.55 2433.89 900.23 2509.58 1042.37 2643.47C1109.83 2707.02 1170.33 2779.41 1228.84 2849.41C1281.38 2912.29 1335.71 2977.3 1394.97 3035.79C1597.53 3235.69 1860.43 3351.54 2116.28 3353.62C2394.59 3355.88 2656.06 3214.24 2782.38 2992.78C2804.06 2954.76 2822.57 2913.12 2840.47 2872.85C2874.63 2795.99 2909.95 2716.51 2969.33 2657.05C3036.4 2589.87 3129.96 2559.86 3220.43 2530.84C3246.57 2522.45 3273.59 2513.79 3299.5 2504.37C3355.73 2483.92 3408.75 2458.64 3457.65 2429.36V2429.34Z" fill="url(#paint1_linear_1_13177)"/>
</g>
<g opacity="0.1">
<path d="M1429.03 569.44C1444.23 560.33 1459.98 551.86 1476.21 544.07C1643.94 463.53 1853.74 456.9 2051.83 525.9C2218.02 583.81 2376.87 691.24 2537.46 854.31C2576.55 894 2615.51 935.77 2653.19 976.16C2802.73 1136.48 2957.37 1302.25 3160.19 1382.11C3210.86 1402.06 3262.14 1417.29 3311.72 1432.02C3396.88 1457.31 3477.31 1481.19 3550.51 1526.33C3728.6 1636.13 3808.57 1875.78 3736.53 2083.78C3672.67 2268.12 3501.06 2428.02 3277.46 2511.47C3252.59 2520.76 3226.72 2529.32 3201.71 2537.6C3114.39 2566.51 3024.1 2596.4 2960.49 2662.27C2904.55 2720.2 2869.3 2796.98 2835.21 2871.25C2816 2913.11 2796.13 2956.4 2772.81 2995.68C2644 3212.67 2384.36 3350.14 2111.36 3345.9C1858.75 3341.99 1599.77 3226.35 1400.83 3028.62C1343.17 2971.32 1290.2 2907.87 1238.97 2846.51C1178.94 2774.61 1116.86 2700.27 1047.24 2635.9C909.69 2508.75 751.38 2434.85 601.44 2427.84L597.1 2427.64C518.59 2423.98 450.79 2420.81 392.61 2390.56C330 2358.01 286.88 2287.12 277.26 2200.91C268.02 2117.99 290.66 2033.68 311.41 1969.52C393.15 1716.79 558.73 1513.75 765.43 1412.17C803.26 1393.61 841.82 1374.43 880.26 1355.29C921.64 1334.71 964.42 1313.41 1005.14 1293.49C1100.86 1246.65 1156.12 1200.37 1174.19 1151.97C1188.41 1113.88 1184.28 1075.83 1179.9 1035.54C1178.15 1019.53 1176.36 1002.99 1175.85 986.62C1170.97 826.21 1270.99 664.13 1429.01 569.47L1429.03 569.44ZM3425.68 2434.37C3573.21 2346 3683.18 2221.04 3731.31 2082.08C3802.55 1876.42 3723.54 1639.49 3547.53 1530.97C3474.94 1486.21 3394.84 1462.42 3310.04 1437.24C3260.34 1422.49 3208.95 1407.22 3158.06 1387.18C2954.1 1306.87 2799.05 1140.65 2649.1 979.9C2611.45 939.54 2572.51 897.79 2533.47 858.14C2373.47 695.67 2215.3 588.68 2049.91 531.04C1853.19 462.53 1644.93 469.05 1478.52 548.96C1295.44 636.96 1176.08 812.63 1181.37 986.33C1181.86 1002.5 1183.65 1018.93 1185.38 1034.83C1189.63 1073.98 1194.03 1114.46 1179.36 1153.74C1160.77 1203.57 1104.56 1250.87 1007.51 1298.36C966.81 1318.27 924.03 1339.56 882.66 1360.14C844.22 1379.26 805.63 1398.46 767.8 1417.04C562.36 1517.8 397.93 1719.79 316.65 1971.07C296.07 2034.74 273.61 2118.3 282.73 2200.2C292.15 2284.64 334.21 2353.99 395.23 2385.71C452.36 2415.4 519.6 2418.54 597.44 2422.18L601.79 2422.38C753.01 2429.47 912.55 2503.87 1051.03 2631.88C1120.91 2696.47 1183.1 2770.95 1243.24 2842.98C1294.38 2904.25 1347.28 2967.6 1404.75 3024.72C1602.71 3221.47 1860.32 3336.54 2111.52 3340.44C2382.54 3344.63 2640.25 3208.26 2768.06 2992.97C2791.23 2953.95 2811.03 2910.79 2830.18 2869.07C2864.47 2794.38 2899.91 2717.15 2956.52 2658.53C3021.08 2591.7 3112.06 2561.56 3200.02 2532.43C3224.98 2524.16 3250.8 2515.62 3275.57 2506.38C3328.82 2486.51 3379.12 2462.26 3425.66 2434.39L3425.68 2434.37Z" fill="url(#paint2_linear_1_13177)"/>
</g>
<g opacity="0.13">
<path d="M1478.51 615.56C1495.4 605.44 1512.97 596.06 1531.21 587.46C1695.78 509.91 1899.89 503.71 2091.2 570.43C2252.78 626.84 2406.98 731.9 2562.59 891.59C2598.52 928.46 2634.4 966.98 2669.1 1004.24C2815.21 1161.12 2966.3 1323.34 3162.08 1406.13C3207.9 1425.5 3253.33 1441.38 3297.27 1456.72C3378.77 1485.19 3455.76 1512.09 3525.76 1557.49C3694.95 1667.22 3769.83 1899.16 3699.93 2097C3637.19 2274.55 3470.32 2430.19 3253.54 2513.28C3229.82 2522.38 3205.21 2530.8 3181.39 2538.95C3096.54 2567.98 3008.82 2598.03 2947.64 2663.53C2894.44 2720.52 2859.23 2794.94 2825.17 2866.92C2804.58 2910.43 2783.28 2955.42 2758.31 2995.85C2628.13 3206.55 2372.31 3338.71 2106.56 3332.53C1858.67 3326.77 1605.05 3211.91 1410.74 3017.39C1354.81 2961.4 1303.24 2899.57 1253.37 2839.76C1191.78 2765.89 1128.1 2689.5 1056.1 2624.2C922.21 2502.79 765.94 2430.14 616.05 2419.66C532.42 2413.82 465.63 2403.02 411.53 2369.31C354.55 2333.82 317.69 2261.98 312.94 2177.14C308.55 2098.56 331.34 2018.96 354.21 1951.46C439.22 1700.58 600.58 1502.1 797.14 1406.85C827.66 1392.06 859.07 1376.15 889.45 1360.76C940.78 1334.75 993.88 1307.86 1044.95 1285.19C1115.1 1254.06 1198.74 1211.46 1223.73 1157.69C1239.84 1123.04 1237.08 1088.1 1234.13 1051.11C1233.02 1037.05 1231.86 1022.49 1231.87 1008.06C1231.85 855.31 1326.98 706.34 1478.5 615.58L1478.51 615.56ZM3393.57 2439.48C3538.67 2352.57 3647.19 2230.33 3694.89 2095.33C3764.01 1899.7 3690.02 1670.39 3522.78 1561.93C3453.31 1516.87 3376.62 1490.08 3295.42 1461.71C3251.4 1446.33 3205.88 1430.43 3159.91 1410.99C2963.1 1327.77 2811.63 1165.14 2665.15 1007.86C2630.46 970.62 2594.6 932.12 2558.72 895.3C2403.67 736.19 2250.14 631.56 2089.34 575.43C1899.34 509.15 1696.72 515.28 1533.43 592.23C1353.54 677.03 1237.21 840.23 1237.22 1007.94C1237.22 1022.16 1238.37 1036.61 1239.47 1050.58C1242.34 1086.61 1245.29 1123.89 1228.59 1159.8C1202.98 1214.89 1122.47 1256.52 1047.07 1289.97C996.13 1312.59 943.1 1339.44 891.83 1365.42C861.43 1380.82 829.99 1396.75 799.44 1411.56C604.24 1506.13 443.86 1703.52 359.29 1953.05C336.58 2020.06 313.95 2099.03 318.27 2176.73C322.94 2259.89 358.89 2330.2 414.44 2364.8C467.62 2397.92 533.69 2408.57 616.53 2414.35C767.61 2424.92 925.01 2498.04 1059.75 2620.25C1132.02 2685.79 1195.83 2762.32 1257.53 2836.33C1307.32 2896.05 1358.82 2957.8 1414.58 3013.62C1607.96 3207.19 1860.26 3321.49 2106.79 3327.23C2370.64 3333.35 2624.6 3202.21 2753.77 2993.13C2778.6 2952.95 2799.82 2908.1 2820.35 2864.73C2854.59 2792.39 2890 2717.58 2943.76 2659.97C3005.86 2593.44 3094.25 2563.19 3179.74 2533.94C3203.51 2525.81 3228.07 2517.4 3251.7 2508.35C3301.92 2489.09 3349.46 2465.92 3393.59 2439.48H3393.57Z" fill="url(#paint3_linear_1_13177)"/>
</g>
<g opacity="0.16">
<path d="M1530.03 660.53C1547.99 649.77 1566.73 639.85 1586.19 630.87C1747.59 556.29 1946 550.5 2130.56 614.96C2287.51 669.87 2437.05 772.55 2587.71 928.88C2620.11 962.5 2652.57 997.41 2683.96 1031.18C2827.01 1185.07 2974.93 1344.2 3163.95 1430.14C3202.85 1447.83 3240.68 1463.29 3277.26 1478.24C3357.13 1510.89 3432.57 1541.73 3501 1588.66C3661.17 1698.51 3730.95 1922.74 3663.31 2110.23C3600.81 2283.49 3442.73 2431.05 3229.61 2515.09C3207.08 2523.98 3183.72 2532.25 3161.14 2540.25C3078.73 2569.43 2993.49 2599.61 2934.77 2664.81C2884.41 2720.7 2849.42 2792.53 2815.57 2862C2793.46 2907.37 2770.6 2954.29 2743.77 2996.01C2612.31 3200.38 2360.3 3327.25 2101.73 3319.16C1858.64 3311.57 1610.38 3197.49 1420.6 3006.17C1366.33 2951.45 1316.13 2891.13 1267.58 2832.82C1204.49 2757.01 1139.26 2678.63 1064.9 2612.49C934.79 2496.73 780.56 2425.33 630.6 2411.45C541.09 2403.17 477.48 2383.01 430.41 2348.04C378.23 2309.25 348.42 2238.29 348.6 2153.35C348.74 2079.48 371.93 2003.99 396.97 1933.42C448.81 1787.31 573.74 1524.03 828.83 1401.5C859.06 1386.99 890.08 1371.01 920.07 1355.55C974.2 1327.67 1030.16 1298.83 1084.72 1276.88C1165.69 1244.31 1246.93 1208.72 1273.3 1163.38C1291.35 1132.33 1289.96 1100.51 1288.49 1066.81C1287.96 1054.62 1287.41 1042.01 1287.86 1029.48C1293.04 886.26 1386.17 746.69 1530.02 660.53H1530.03ZM3364.68 2443.2C3506.68 2358.15 3610.72 2240.9 3658.45 2108.58C3725.33 1923.19 3656.35 1701.49 3498 1592.88C3430.03 1546.26 3354.83 1515.52 3275.22 1482.97C3238.59 1468 3200.71 1452.51 3161.72 1434.79C2971.79 1348.43 2823.52 1188.93 2680.13 1034.67C2648.76 1000.93 2616.32 966.02 2583.95 932.43C2433.85 776.69 2284.95 674.41 2128.77 619.78C1945.47 555.74 1748.48 561.47 1588.3 635.47C1414.77 715.66 1298.79 870.38 1293.04 1029.55C1292.59 1041.88 1293.13 1054.38 1293.66 1066.48C1295.09 1099.42 1296.58 1133.49 1277.78 1165.85C1250.58 1212.65 1168.41 1248.69 1086.61 1281.6C1032.28 1303.45 976.42 1332.23 922.41 1360.06C892.38 1375.54 861.34 1391.54 831.05 1406.08C577.66 1527.53 453.41 1789.67 401.85 1935.01C376.96 2005.16 353.91 2080.15 353.77 2153.25C353.6 2236.58 382.69 2306.07 433.57 2343.9C479.87 2378.3 542.65 2398.14 631.19 2406.33C782.22 2420.31 937.5 2492.15 1068.41 2608.62C1143.05 2675.02 1208.4 2753.55 1271.61 2829.49C1320.08 2887.73 1370.22 2947.96 1424.33 3002.52C1613.21 3192.93 1860.22 3306.46 2102 3314.02C2358.8 3322.04 2608.98 3196.15 2739.44 2993.29C2766.1 2951.83 2788.89 2905.05 2810.93 2859.82C2844.93 2790.03 2880.09 2717.85 2930.94 2661.42C2990.6 2595.22 3076.44 2564.82 3159.47 2535.42C3182.02 2527.44 3205.33 2519.18 3227.77 2510.33C3276.46 2491.13 3322.27 2468.59 3364.68 2443.19V2443.2Z" fill="url(#paint4_linear_1_13177)"/>
</g>
<g opacity="0.19">
<path d="M1579.3 706.63C1598.97 694.85 1619.61 684.03 1641.19 674.27C1799.44 602.68 1992.16 597.31 2169.94 659.52C2322.3 712.92 2467.18 813.22 2612.84 966.18C2641.25 996.01 2669.79 1026.78 2697.38 1056.54C2837.88 1208.06 2983.16 1364.74 3165.83 1454.18C3192.12 1467.05 3217.51 1479.08 3242.07 1490.72C3329.61 1532.19 3405.21 1568.02 3476.24 1619.85C3629.71 1731.85 3692.99 1943.66 3626.7 2123.48C3565.4 2289.77 3411.92 2433.19 3205.68 2516.91C3184.36 2525.57 3162.3 2533.67 3140.96 2541.5C3060.98 2570.87 2978.27 2601.25 2921.91 2666.09C2874.47 2720.66 2839.91 2789.7 2806.49 2856.47C2782.73 2903.93 2758.16 2953.02 2729.26 2996.18C2596.63 3194.24 2348.42 3315.76 2096.92 3305.79C1858.65 3296.36 1615.74 3183.06 1430.49 2994.94C1377.79 2941.42 1328.9 2882.55 1281.61 2825.62C1217.1 2747.96 1150.39 2667.66 1073.75 2600.77C947.51 2490.64 795.32 2420.49 645.21 2403.26C560.54 2393.53 496.47 2368.5 449.34 2326.75C385.53 2270.23 381.18 2178.94 384.27 2129.56C388.76 2057.76 414.15 1984.38 439.76 1915.38C532.42 1665.81 682.04 1481.36 860.57 1396.18C890.99 1381.67 922.09 1365.37 952.19 1349.63C1008.6 1320.09 1066.93 1289.55 1124.52 1268.59L1134.85 1264.83C1217.47 1234.81 1295.51 1206.49 1322.89 1169.08C1342.9 1141.79 1342.94 1113.08 1342.98 1082.68C1342.99 1072.32 1343.01 1061.6 1343.87 1050.91C1354.73 915.49 1443.12 788.19 1579.29 706.61L1579.3 706.63ZM3332.08 2448.64C3471.92 2364.88 3574.7 2250.23 3622.03 2121.86C3687.58 1944.05 3625.01 1734.6 3473.25 1623.86C3402.59 1572.29 3327.18 1536.57 3239.86 1495.2C3215.28 1483.56 3189.87 1471.52 3163.56 1458.63C2980.07 1368.79 2834.48 1211.78 2693.68 1059.93C2666.1 1030.18 2637.57 999.42 2609.19 969.62C2464.06 817.23 2319.82 717.33 2168.21 664.2C1991.64 602.41 1800.28 607.72 1643.22 678.78C1473.96 755.3 1361.17 898.08 1348.87 1051.23C1348.02 1061.73 1348.01 1072.35 1348 1082.62C1347.96 1112.48 1347.92 1143.35 1326.95 1171.96C1298.58 1210.62 1219.89 1239.2 1136.52 1269.49L1126.17 1273.24C1068.92 1294.08 1010.74 1324.54 954.48 1354C924.36 1369.78 893.2 1386.09 862.7 1400.64C685.11 1485.36 536.67 1668.71 444.47 1917.01C418.99 1985.68 393.73 2058.66 389.29 2129.8C386.25 2178.3 390.46 2267.88 452.74 2323.04C499.08 2364.11 562.26 2388.74 645.88 2398.35C796.99 2415.7 950.14 2486.26 1077.11 2597.03C1154.07 2664.17 1220.89 2744.64 1285.52 2822.44C1332.75 2879.3 1381.57 2938.09 1434.13 2991.46C1618.52 3178.69 1860.21 3291.47 2097.24 3300.85C2347.04 3310.74 2593.49 3190.09 2725.14 2993.49C2753.86 2950.6 2778.36 2901.66 2802.05 2854.34C2835.61 2787.29 2870.32 2717.97 2918.17 2662.9C2975.37 2597.09 3058.72 2566.47 3139.32 2536.87C3160.61 2529.05 3182.64 2520.97 3203.88 2512.34C3249.33 2493.88 3292.23 2472.51 3332.08 2448.64Z" fill="url(#paint5_linear_1_13177)"/>
</g>
<g opacity="0.23">
<path d="M1631.03 751.42C1651.71 739.03 1673.46 727.73 1696.2 717.69C1851.27 649.07 2038.29 644.11 2209.31 704.08C2357.08 755.96 2497.29 853.9 2637.97 1003.49C2661.67 1028.68 2685.54 1054.51 2708.63 1079.5C2847.31 1229.57 2990.71 1384.75 3167.71 1478.21C3277.27 1536.07 3367.74 1585.54 3451.51 1651.04C3597.81 1765.46 3654.81 1965.17 3590.11 2136.72C3530.03 2296.04 3381.23 2435.31 3181.77 2518.73C3161.69 2527.14 3140.94 2535.05 3120.88 2542.7C3043.3 2572.3 2963.08 2602.88 2909.07 2667.38C2864.65 2720.42 2830.77 2786.42 2798.01 2850.24C2772.44 2900.07 2745.98 2951.6 2714.76 2996.36C2581.07 3188.04 2336.69 3304.25 2092.13 3292.45C1858.72 3281.18 1621.18 3168.66 1440.4 2983.75C1389.21 2931.38 1341.58 2873.9 1295.51 2818.3C1229.64 2738.81 1161.53 2656.63 1082.58 2589.09C960.36 2484.56 810.22 2415.66 659.8 2395.09C578.43 2383.97 514 2353.82 468.28 2305.49C414.71 2248.85 412.43 2165.65 419.96 2105.84C428.11 2040.96 451.05 1978.51 482.54 1897.37C550.25 1723 676.2 1493.71 892.26 1390.89C922.98 1376.29 954.31 1359.65 984.61 1343.55C1043.18 1312.42 1103.76 1280.23 1164.28 1260.35C1180.18 1255.13 1195.9 1250.14 1211.19 1245.3C1283.9 1222.25 1346.68 1202.3 1372.52 1174.84C1394.5 1151.44 1396.03 1125.8 1397.64 1098.66C1398.15 1090.09 1398.68 1081.24 1399.88 1072.37C1416.88 946.16 1503.34 827.92 1631.02 751.44L1631.03 751.42ZM3299.23 2454.25C3437.04 2371.7 3538.66 2259.57 3585.59 2135.12C3649.57 1965.49 3593.19 1767.98 3448.48 1654.82C3365.02 1589.56 3274.73 1540.19 3165.39 1482.45C2987.68 1388.6 2844 1233.12 2705.05 1082.76C2681.97 1057.78 2658.1 1031.95 2634.42 1006.77C2494.27 857.75 2354.67 760.21 2207.63 708.58C2037.76 649.03 1852.04 653.93 1698.1 722.05C1536.65 793.52 1424.2 927.92 1404.68 1072.89C1403.51 1081.59 1402.99 1090.36 1402.48 1098.84C1400.81 1126.88 1399.24 1153.36 1376.05 1178.04C1349.35 1206.5 1285.98 1226.56 1212.61 1249.84C1197.34 1254.69 1181.63 1259.66 1165.75 1264.88C1105.63 1284.63 1045.25 1316.71 986.85 1347.74C956.5 1363.87 925.12 1380.55 894.3 1395.2C679.66 1497.11 554.44 1725.47 487.04 1899.02C455.68 1979.84 432.85 2042.01 424.76 2106.34C414.3 2189.49 431.02 2259.05 471.83 2302.19C516.8 2349.71 580.29 2379.37 660.56 2390.34C811.88 2411.04 962.88 2480.32 1085.77 2585.45C1165.04 2653.24 1233.27 2735.59 1299.27 2815.23C1345.28 2870.75 1392.85 2928.16 1443.91 2980.39C1623.86 3164.46 1860.24 3276.46 2092.46 3287.67C2335.35 3299.41 2578.09 3184.02 2710.81 2993.69C2741.84 2949.2 2768.21 2897.81 2793.72 2848.13C2826.6 2784.08 2860.61 2717.84 2905.38 2664.38C2960.22 2598.87 3041.05 2568.07 3119.23 2538.26C3139.25 2530.62 3159.96 2522.72 3179.97 2514.35C3222.12 2496.71 3262.01 2476.56 3299.24 2454.26L3299.23 2454.25Z" fill="url(#paint6_linear_1_13177)"/>
</g>
<g opacity="0.26">
<path d="M1667.88 803.65C1693.79 788.13 1721.63 773.85 1751.19 761.09C1903.1 695.46 2084.42 690.92 2248.68 748.62C2391.89 799.02 2527.46 894.59 2663.11 1040.78C2680.91 1059.96 2698.62 1079.23 2716.31 1098.47C2854.35 1248.6 2997.09 1403.84 3169.59 1502.25C3266.16 1557.34 3340.67 1609.49 3426.76 1682.24C3563.22 1797.56 3615.34 1989.89 3553.5 2149.97C3494.64 2302.3 3350.44 2437.37 3157.84 2520.57C3139.02 2528.7 3119.63 2536.4 3100.87 2543.83C3022.2 2575.04 2947.88 2604.54 2896.19 2668.68C2854.89 2719.91 2821.98 2782.59 2790.15 2843.19C2762.58 2895.69 2734.07 2949.98 2700.25 2996.53C2633.66 3088.2 2541.11 3163.07 2432.62 3213.04C2324.21 3262.99 2204.81 3285.83 2087.33 3279.09C1858.8 3265.97 1626.61 3154.24 1450.29 2972.54C1400.56 2921.28 1354.15 2865.13 1309.27 2810.82C1242.08 2729.54 1172.62 2645.5 1091.4 2577.39C973.4 2478.46 825.29 2410.81 674.4 2386.9C595.07 2374.34 530.35 2338.83 487.24 2284.21C440.46 2224.94 444.23 2141.58 455.64 2082.08C467.09 2022.44 491.05 1963.57 518.77 1895.4L525.31 1879.34C626.86 1629.16 760.96 1462.94 923.97 1385.59C954.9 1370.87 986.37 1353.92 1016.8 1337.52C1077.62 1304.75 1140.5 1270.85 1204.06 1252.08C1297.05 1224.6 1380.88 1197.06 1422.81 1180.2C1446.23 1170.79 1447.94 1150.01 1449.73 1128.01C1450.68 1116.43 1451.66 1104.47 1455.86 1093.76C1458.02 989.06 1538.75 881 1667.87 803.67L1667.88 803.65ZM3266.06 2460.1C3402.01 2378.67 3502.58 2268.96 3549.16 2148.37C3610.3 1990.08 3558.71 1799.86 3423.7 1685.76C3337.84 1613.2 3263.53 1561.19 3167.21 1506.24C2994.09 1407.49 2851.11 1251.99 2712.83 1101.6C2695.14 1082.36 2677.43 1063.1 2659.63 1043.92C2524.5 898.29 2389.54 803.11 2247.03 752.96C2083.88 695.64 1903.8 700.14 1752.98 765.32C1577.59 841.02 1462.81 970.15 1460.51 1094.16L1460.34 1094.98C1456.27 1105.15 1455.31 1116.91 1454.37 1128.29C1452.53 1150.74 1450.58 1174.01 1424.49 1184.47C1381.78 1201.64 1299.84 1228.56 1205.3 1256.49C1142.24 1275.13 1079.57 1308.9 1018.96 1341.56C988.48 1357.99 956.97 1374.97 925.92 1389.73C764.19 1466.66 630.74 1631.92 529.62 1881L523.09 1897.06C495.44 1964.99 471.57 2023.67 460.22 2082.85C448.99 2141.42 445.19 2223.39 490.93 2281.32C533.31 2335.03 597.05 2369.96 675.2 2382.34C826.93 2406.37 975.81 2474.38 1094.45 2573.83C1175.99 2642.2 1245.58 2726.42 1312.89 2807.85C1357.71 2862.09 1404.07 2918.17 1453.68 2969.3C1629.21 3150.2 1860.29 3261.43 2087.66 3274.48C2323.82 3288.02 2562.79 3177.88 2696.47 2993.88C2730.09 2947.6 2758.52 2893.47 2786.02 2841.11C2817.95 2780.3 2850.98 2717.42 2892.56 2665.83C2945.07 2600.71 3023.43 2569.62 3099.2 2539.54C3117.92 2532.11 3137.29 2524.43 3156.03 2516.33C3194.77 2499.6 3231.55 2480.75 3266.04 2460.1H3266.06Z" fill="url(#paint7_linear_1_13177)"/>
</g>
<g opacity="0.29">
<path d="M1714.06 850.97C1742.45 833.97 1773.26 818.37 1806.18 804.49C1954.91 741.83 2130.53 737.71 2288.03 793.16C2426.7 842.07 2557.61 935.26 2688.22 1078.06L2717.94 1110.61C2857.3 1263.36 3001.4 1421.32 3171.46 1526.27C3260.53 1581.24 3318.34 1635.31 3374.26 1687.6C3383.45 1696.19 3392.65 1704.79 3402 1713.42C3508.83 1811.95 3585.79 1989.23 3516.88 2163.19C3459.31 2308.52 3319.72 2439.45 3133.91 2522.36C3116.41 2530.17 3098.41 2537.62 3081 2544.82C3004.77 2576.34 2932.77 2606.14 2883.32 2669.95C2845.27 2719.07 2813.62 2778.1 2783.01 2835.21C2753.25 2890.73 2722.48 2948.14 2685.73 2996.69C2548.22 3178.33 2317.08 3281.41 2082.51 3265.72C1858.94 3250.76 1632.1 3139.82 1460.18 2961.31C1411.85 2911.13 1366.63 2856.24 1322.9 2803.17C1254.47 2720.12 1183.71 2634.26 1100.22 2565.67C986.62 2472.35 840.58 2405.95 688.99 2378.71C588.7 2360.67 534.24 2305.78 506.21 2262.92C473.86 2213.42 468.86 2144.58 491.34 2058.32C504.17 2009.06 525.19 1960.55 549.54 1904.39C555.6 1890.42 561.82 1876.08 568.09 1861.3C675.58 1607.89 798.77 1455.03 955.65 1380.26C986.81 1365.41 1018.43 1348.14 1049 1331.45C1112.04 1297.03 1177.23 1261.43 1243.79 1243.79C1285.72 1232.69 1325.79 1223.45 1361.16 1215.31C1409.64 1204.13 1447.98 1195.29 1471.88 1186.29C1490.24 1170.46 1495.45 1155.86 1500.97 1140.42C1503.87 1132.3 1506.87 1123.92 1511.87 1115.09C1516.2 1021.37 1592.84 923.57 1714.05 850.96L1714.06 850.97ZM3232.5 2466.22C3366.79 2385.78 3466.47 2278.38 3512.72 2161.64C3580.85 1989.62 3504.66 1814.23 3398.92 1716.71C3389.56 1708.08 3380.35 1699.46 3371.15 1690.87C3315.4 1638.73 3257.74 1584.82 3169.04 1530.07C2998.47 1424.78 2854.15 1266.61 2714.59 1113.63L2684.87 1081.09C2554.75 938.83 2424.43 846.02 2286.46 797.35C2130.01 742.26 1955.57 746.35 1807.87 808.58C1635.7 881.09 1521.29 1001.67 1516.34 1115.75L1516.04 1116.76C1511.08 1125.41 1508.1 1133.76 1505.21 1141.83C1499.45 1157.95 1494.01 1173.17 1474.48 1189.88L1474.17 1190.14L1473.8 1190.29C1449.63 1199.46 1411.01 1208.37 1362.11 1219.63C1326.78 1227.78 1286.74 1237 1244.88 1248.09C1178.86 1265.59 1113.92 1301.04 1051.11 1335.33C1020.48 1352.05 988.82 1369.35 957.55 1384.25C801.64 1458.59 679.26 1610.63 572.22 1862.95C565.96 1877.74 559.73 1892.08 553.67 1906.07C529.4 1962.07 508.43 2010.42 495.69 2059.35C473.53 2144.36 478.35 2212.01 510 2260.43C537.56 2302.58 591.13 2356.56 689.88 2374.32C842.2 2401.69 988.97 2468.42 1103.13 2562.22C1186.95 2631.07 1257.84 2717.11 1326.4 2800.32C1370.08 2853.33 1415.25 2908.14 1463.47 2958.2C1634.63 3135.93 1860.41 3246.4 2082.9 3261.28C2315.95 3276.86 2545.57 3174.46 2682.17 2994.05C2718.71 2945.79 2749.39 2888.53 2779.07 2833.17C2809.76 2775.9 2841.5 2716.69 2879.79 2667.28C2929.98 2602.48 3005.92 2571.09 3079.35 2540.71C3096.73 2533.53 3114.69 2526.09 3132.14 2518.31C3167.34 2502.6 3200.9 2485.14 3232.51 2466.21L3232.5 2466.22Z" fill="url(#paint8_linear_1_13177)"/>
</g>
<g opacity="0.32">
<path d="M1756.13 900.11C1787.9 881.08 1823.05 863.53 1861.18 847.91C2006.72 788.24 2176.66 784.52 2327.41 837.7C2461.56 885.13 2587.81 975.96 2713.36 1115.37C2746.88 1152.59 2779.8 1192.11 2811.63 1230.32C2917.85 1357.83 3027.68 1489.67 3172.98 1550.13L3173.66 1550.59C3206.73 1583.7 3238.97 1610.14 3267.42 1633.47C3311.52 1669.63 3349.62 1700.88 3377.31 1744.6C3500.49 1825.99 3545.74 2015.57 3480.29 2176.44C3424.06 2314.72 3289.08 2441.46 3109.99 2524.2C3093.86 2531.65 3077.3 2538.8 3061.3 2545.71C2987.45 2577.61 2917.69 2607.75 2870.47 2671.24C2835.81 2717.85 2805.78 2772.9 2776.73 2826.14C2744.57 2885.1 2711.31 2946.07 2671.23 2996.85C2533.03 3171.94 2305.62 3269.87 2077.72 3252.36C1859.12 3235.57 1637.65 3125.41 1470.1 2950.09C1423.11 2900.93 1379.02 2847.26 1336.4 2795.36C1266.78 2710.59 1194.79 2622.94 1109.06 2553.96C1000.15 2466.33 856.16 2401.17 703.61 2370.51C602.28 2350.14 550.68 2289.19 525.23 2241.63C497.4 2189.63 497.99 2121.9 527.04 2034.59C540.26 1994.89 559.42 1954.1 579.72 1910.92C589.87 1889.34 600.35 1867.02 610.87 1843.27C693.42 1657.01 823.48 1495.13 987 1375.15C1077.22 1309.01 1182.5 1259.42 1283.55 1235.55C1352.51 1219.24 1417.4 1209.06 1464.78 1201.62C1487.49 1198.06 1507.12 1194.97 1521.61 1192.11C1541.21 1179.41 1547.81 1168.08 1554.79 1156.09C1558.44 1149.84 1562.2 1143.38 1567.91 1136.43C1574.28 1052.89 1643.91 967.31 1756.13 900.1V900.11ZM3170.85 1553.92C3024.78 1492.99 2914.72 1360.86 2808.27 1233.08C2776.46 1194.89 2743.57 1155.41 2710.11 1118.26C2585.04 979.39 2459.36 888.93 2325.89 841.74C2176.13 788.9 2007.33 792.59 1862.76 851.85C1691.17 922.22 1579.79 1031.61 1572.16 1137.37L1572.11 1138.06L1571.67 1138.6C1565.94 1145.46 1562.17 1151.94 1558.52 1158.2C1551.22 1170.73 1544.33 1182.57 1523.56 1195.92L1523.21 1196.15L1522.79 1196.23C1508.18 1199.15 1488.34 1202.26 1465.38 1205.87C1418.07 1213.3 1353.28 1223.47 1284.48 1239.72C1185.43 1263.12 1077.92 1313.73 989.54 1378.6C826.63 1498.12 697.06 1659.39 614.81 1844.97C604.27 1868.74 593.77 1891.08 583.62 1912.68C563.38 1955.75 544.26 1996.42 531.14 2035.88C502.47 2122.02 501.78 2188.66 529.04 2239.6C554.05 2286.35 604.82 2346.29 704.53 2366.34C857.73 2397.14 1002.38 2462.59 1111.82 2550.63C1197.87 2619.89 1270 2707.71 1339.76 2792.64C1382.34 2844.48 1426.36 2898.09 1473.24 2947.14C1640.09 3121.71 1860.57 3231.4 2078.12 3248.1C2304.58 3265.49 2530.54 3168.22 2667.83 2994.26C2707.68 2943.77 2740.85 2882.97 2772.93 2824.17C2802.05 2770.8 2832.16 2715.61 2867 2668.76C2914.92 2604.31 2985.21 2573.95 3059.63 2541.81C3075.61 2534.9 3092.14 2527.77 3108.22 2520.33C3286.3 2438.07 3420.45 2312.16 3476.28 2174.91C3541.05 2015.67 3496.34 1828.12 3374.49 1747.93L3373.87 1747.3C3346.52 1703.94 3308.57 1672.82 3264.63 1636.79C3236.19 1613.46 3203.96 1587.04 3170.86 1553.92H3170.85Z" fill="url(#paint9_linear_1_13177)"/>
</g>
<g opacity="0.35">
<path d="M1091.21 1321.1C1165.84 1276.4 1247.18 1243.27 1323.29 1227.3C1435.79 1203.71 1537.39 1199.4 1571.32 1198C1592.53 1188.27 1600.27 1180.48 1609.18 1171.44C1613.42 1167.14 1617.81 1162.69 1623.95 1157.75C1634.85 1060.81 1746.7 958.8 1916.16 891.32C2058.52 834.63 2222.76 831.33 2366.77 882.25C2496.44 928.23 2618.03 1016.69 2738.48 1152.67C2770.7 1189.04 2802.28 1227.61 2832.83 1264.92C2933.48 1387.82 3037.56 1514.91 3174.81 1574.14L3175.53 1574.66C3203.39 1606.39 3230.07 1632.56 3253.62 1655.65C3294.38 1695.61 3329.59 1730.14 3352.57 1775.81C3467.89 1854.44 3507.92 2036.1 3443.67 2189.68C3368.55 2369.28 3187.4 2477.53 3086.05 2526.02C3071.34 2533.07 3056.27 2539.88 3041.7 2546.46C2970.17 2578.77 2902.63 2609.31 2857.57 2672.54C2826.45 2716.19 2798.43 2766.84 2771.34 2815.81C2736.54 2878.69 2700.56 2943.73 2656.7 2997.02C2517.98 3165.57 2294.27 3258.3 2072.9 3239C1859.33 3220.38 1643.21 3111 1479.98 2938.88C1434.29 2890.72 1391.33 2838.23 1349.78 2787.46C1279.02 2700.99 1205.84 2611.57 1117.87 2542.26C984.7 2437.32 827.03 2386.49 718.21 2362.34C609.64 2338.22 562.62 2263.05 544.24 2220.39C520.77 2165.84 526.65 2099.27 562.75 2010.88C575.59 1979.44 592.23 1947.3 609.82 1913.27C624.15 1885.58 638.96 1856.96 653.62 1825.28C737.43 1644.21 863.67 1486.73 1018.68 1369.88C1041.79 1352.45 1066.11 1336.12 1091.19 1321.1H1091.21ZM1588.26 1193.81C1583.92 1196.41 1578.8 1199.09 1572.62 1201.9L1571.83 1202.08C1538.41 1203.47 1436.7 1207.7 1324.09 1231.31C1222.98 1252.53 1112.58 1304.21 1021.18 1373.13C866.73 1489.56 740.94 1646.48 657.43 1826.93C642.73 1858.7 627.89 1887.37 613.55 1915.1C595.98 1949.04 579.4 1981.1 566.62 2012.38C530.97 2099.67 525.08 2165.25 548.1 2218.71C566.16 2260.68 612.41 2334.61 719.22 2358.33C828.46 2382.58 986.75 2433.63 1120.53 2539.03C1208.85 2608.61 1282.16 2698.2 1353.07 2784.84C1394.57 2835.55 1437.48 2887.99 1483.06 2936.05C1645.63 3107.45 1860.79 3216.38 2073.38 3234.92C2293.39 3254.09 2515.68 3161.95 2653.55 2994.46C2697.17 2941.47 2733.05 2876.61 2767.76 2813.89C2794.91 2764.81 2822.99 2714.06 2854.24 2670.21C2899.97 2606.05 2968.03 2575.29 3040.08 2542.73C3054.62 2536.15 3069.67 2529.36 3084.34 2522.33C3185.06 2474.07 3365.28 2366.48 3439.87 2188.17C3503.49 2036.11 3463.91 1856.35 3349.78 1778.93L3349.35 1778.64L3349.12 1778.17C3326.44 1732.86 3293.02 1700.09 3250.71 1658.61C3227.2 1635.56 3200.55 1609.44 3172.71 1577.74C3034.76 1518.04 2930.47 1390.69 2829.62 1267.55C2799.1 1230.28 2767.54 1191.74 2735.37 1155.42C2615.39 1019.96 2494.36 931.87 2365.35 886.13C2222.26 835.53 2059.1 838.81 1917.69 895.13C1749.15 962.22 1638.2 1063.31 1628.02 1158.97L1627.93 1159.84L1627.24 1160.39C1620.93 1165.38 1616.48 1169.9 1612.17 1174.28C1605.76 1180.78 1599.61 1187.03 1588.3 1193.8L1588.26 1193.81Z" fill="url(#paint10_linear_1_13177)"/>
</g>
<g opacity="0.39">
<path d="M1129.14 1310.84C1204.72 1265.57 1286.53 1233.18 1363.02 1219.04C1467.98 1199.65 1565.02 1198.5 1621 1203.92C1645.49 1196.95 1654.49 1192.2 1665.88 1186.19C1669.9 1184.07 1674.43 1181.69 1680.02 1179.01C1693.73 1091.08 1802.44 999.8 1971.15 934.72C2110.31 881.01 2268.85 878.13 2406.13 926.78C2531.33 971.3 2648.26 1057.38 2763.6 1189.96C2794.53 1225.51 2824.8 1263.17 2854.07 1299.58C2953.52 1423.3 3047.45 1540.15 3176.66 1598.14L3177.41 1598.73C3199.1 1627.06 3219.68 1651.42 3237.83 1672.92C3277.95 1720.43 3309.67 1758 3327.86 1807.02C3435.3 1882.89 3470.11 2056.63 3407.08 2202.92C3333.92 2372.73 3159.59 2479.37 3062.15 2527.83C3048.92 2534.41 3035.41 2540.82 3022.35 2547C2953.1 2579.83 2887.7 2610.83 2844.72 2673.83C2817.35 2713.96 2791.8 2759.69 2767.09 2803.89C2729.4 2871.32 2690.42 2941.05 2642.22 2997.17C2503.09 3159.16 2283.12 3246.71 2068.11 3225.64C1859.62 3205.2 1648.86 3096.6 1489.89 2927.67C1445.44 2880.44 1403.55 2829.05 1363.03 2779.36C1291.18 2691.23 1216.88 2600.1 1126.72 2530.54C1025.35 2452.37 892.83 2393.02 732.84 2354.14C651.7 2334.42 589.9 2277.92 563.32 2199.12C538.31 2125 571.41 2042.65 598.48 1987.17C610.55 1962.43 625.04 1937.27 640.39 1910.65C658.85 1878.61 677.94 1845.47 696.41 1807.26C781.67 1630.91 904.07 1477.83 1050.39 1364.57C1075.46 1345.17 1101.89 1327.18 1129.13 1310.85L1129.14 1310.84ZM1683.65 1181.64L1682.67 1182.11C1676.7 1184.93 1672.14 1187.34 1667.71 1189.67C1656.05 1195.82 1646.84 1200.67 1621.66 1207.8L1620.92 1207.86C1565.27 1202.44 1468.48 1203.55 1363.68 1222.92C1260.26 1242.03 1146.97 1294.81 1052.81 1367.64C906.99 1480.53 784.99 1633.11 700.01 1808.89C681.47 1847.25 662.34 1880.44 643.83 1912.54C628.52 1939.11 614.06 1964.2 602.05 1988.82C575.28 2043.68 542.54 2125.04 567.09 2197.8C579.47 2234.48 620.5 2322.75 733.87 2350.3C894.39 2389.32 1027.4 2448.91 1129.2 2527.41C1219.74 2597.23 1294.17 2688.53 1366.15 2776.84C1406.62 2826.48 1448.47 2877.82 1492.83 2924.95C1651.17 3093.19 1861.02 3201.36 2068.59 3221.71C2282.28 3242.65 2500.91 3155.63 2639.21 2994.64C2687.15 2938.82 2726.03 2869.28 2763.62 2802.03C2788.37 2757.74 2813.98 2711.95 2841.45 2671.66C2885.04 2607.74 2950.94 2576.53 3020.7 2543.45C3033.74 2537.27 3047.23 2530.88 3060.43 2524.32C3157.34 2476.12 3330.78 2370.06 3403.44 2201.44C3465.86 2056.56 3431.43 1884.58 3325.03 1809.91L3324.54 1809.57L3324.33 1809C3306.42 1760.34 3274.8 1722.89 3234.77 1675.49C3216.67 1654.06 3196.17 1629.78 3174.53 1601.55C3044.69 1543.1 2946.21 1420.57 2850.96 1302.08C2821.71 1265.69 2791.47 1228.07 2760.59 1192.57C2645.69 1060.51 2529.3 974.8 2404.75 930.51C2268.35 882.16 2110.82 885.03 1972.55 938.39C1804.53 1003.25 1696.6 1093.76 1683.81 1180.58L1683.66 1181.64H1683.65Z" fill="url(#paint11_linear_1_13177)"/>
</g>
<g opacity="0.42">
<path d="M1166.55 1300.84C1243.04 1255.03 1325.55 1223.26 1402.75 1210.81C1491.88 1196.41 1571.89 1202.63 1630.3 1207.19C1645.74 1208.39 1659.07 1209.43 1670.63 1209.93C1696.86 1211.07 1707.31 1208.11 1720.53 1204.37C1725.23 1203.04 1730.09 1201.67 1736.12 1200.31C1752.58 1121.71 1858.17 1040.8 2026.13 978.13C2162.12 927.43 2314.97 924.95 2445.49 971.34C2566.27 1014.42 2678.54 1098.14 2788.72 1227.27C2818.4 1262.06 2847.38 1298.85 2875.41 1334.44C2968.99 1453.24 3057.37 1565.46 3178.49 1622.17L3178.97 1622.39L3179.26 1622.82C3193.63 1644.53 3207.37 1664.34 3219.5 1681.82C3260.53 1740.97 3290.21 1783.76 3303.13 1838.24C3402.66 1911.36 3432.26 2077.18 3370.47 2216.16C3299.36 2376.1 3131.81 2481.23 3038.22 2529.66C3026.57 2535.69 3014.87 2541.51 3003.23 2547.31C2936.13 2580.7 2872.8 2612.24 2831.85 2675.13C2808.45 2711.07 2786.87 2749.46 2764.03 2790.12C2723.16 2862.83 2680.92 2938.01 2627.71 2997.34C2488.31 3152.76 2272.07 3235.12 2063.33 3212.28C1859.93 3190.03 1654.53 3082.21 1499.79 2916.47C1456.56 2870.17 1415.72 2819.86 1376.22 2771.22C1303.32 2681.43 1227.94 2588.58 1135.54 2518.85C1038.96 2445.96 912.02 2389.4 747.47 2345.96C629.08 2314.71 592.6 2218.01 582.4 2177.88C563.09 2101.92 599.95 2023.4 634.21 1963.48C645.44 1943.84 658.27 1923.97 671.86 1902.93C693.22 1869.86 717.43 1832.37 739.22 1789.23C826.1 1617.12 944.66 1468.44 1082.1 1359.26C1108.94 1337.93 1137.31 1318.36 1166.56 1300.83L1166.55 1300.84ZM1739.37 1203.45L1738.12 1203.71C1731.63 1205.12 1726.49 1206.57 1721.53 1207.99C1707.97 1211.83 1697.26 1214.87 1670.41 1213.69C1658.79 1213.2 1645.42 1212.15 1629.95 1210.94C1571.73 1206.41 1491.98 1200.2 1403.3 1214.52C1297.23 1231.65 1181.04 1285.46 1084.44 1362.2C947.45 1471.02 829.24 1619.26 742.61 1790.87C720.73 1834.21 696.47 1871.78 675.06 1904.92C661.5 1925.92 648.7 1945.74 637.52 1965.29C603.61 2024.6 567.12 2102.23 586.09 2176.91C596.12 2216.4 632.03 2311.56 748.51 2342.31C913.54 2385.88 1040.91 2442.64 1137.89 2515.83C1230.64 2585.83 1306.16 2678.85 1379.21 2768.82C1418.67 2817.41 1459.47 2867.66 1502.62 2913.88C1656.75 3078.97 1861.3 3186.37 2063.82 3208.53C2271.35 3231.23 2486.34 3149.37 2624.89 2994.86C2677.82 2935.85 2719.96 2860.85 2760.72 2788.33C2783.6 2747.62 2805.2 2709.17 2828.68 2673.12C2870.2 2609.35 2934 2577.56 3001.59 2543.94C3013.21 2538.15 3024.89 2532.34 3036.52 2526.31C3129.64 2478.12 3296.38 2373.56 3367.01 2214.69C3428.22 2077 3398.93 1912.81 3300.31 1840.88L3299.76 1840.47L3299.6 1839.81C3286.93 1785.7 3257.34 1743.03 3216.37 1683.98C3204.32 1666.6 3190.66 1646.91 3176.38 1625.34C3054.7 1568.19 2966.17 1455.78 2872.43 1336.77C2844.42 1301.22 2815.46 1264.45 2785.83 1229.72C2676.07 1101.09 2564.32 1017.73 2444.18 974.88C2314.49 928.79 2162.6 931.25 2027.46 981.66C1859.86 1044.14 1754.98 1124.55 1739.63 1202.2L1739.39 1203.45H1739.37Z" fill="url(#paint12_linear_1_13177)"/>
</g>
<g opacity="0.45">
<path d="M1203.54 1291.02C1280.96 1244.65 1364.3 1213.45 1442.46 1202.56C1550.9 1187.43 1645.21 1203.32 1707.62 1213.83L1720.23 1215.94C1756.44 1221.93 1766.76 1221.84 1791.72 1221.64H1792.27C1811.31 1152.69 1913.81 1081.68 2081.14 1021.54C2213.91 973.81 2361.06 971.76 2484.87 1015.89C2601.24 1057.52 2708.86 1138.86 2813.86 1264.56C2842.31 1298.61 2870.02 1334.59 2896.82 1369.39C2984.51 1483.24 3067.35 1590.77 3180.35 1646.18L3180.84 1646.42L3181.11 1646.9C3186.81 1656.98 3192.3 1666.59 3197.57 1675.83C3242.37 1754.38 3272.03 1806.37 3278.41 1869.46C3323.18 1903.84 3353.44 1959.58 3363.67 2026.52C3373.88 2093.32 3363.3 2165.38 3333.87 2229.4C3268.4 2371.84 3123.94 2472.23 3014.3 2531.48C3004.33 2536.86 2994.34 2542.1 2984.41 2547.3C2919.42 2581.38 2858.01 2613.56 2818.98 2676.42C2799.83 2707.27 2781.67 2739.62 2762.44 2773.86C2718.12 2852.81 2672.28 2934.44 2613.2 2997.48C2473.74 3146.33 2261.18 3223.52 2058.53 3198.91C1860.29 3174.85 1660.26 3067.82 1509.69 2905.25C1467.62 2859.83 1427.81 2810.56 1389.29 2762.92C1315.39 2671.49 1238.98 2576.96 1144.37 2507.12C1026.16 2419.89 877.98 2370.8 762.09 2337.77C636.77 2302.05 607.47 2190.13 601.47 2156.67C587.32 2077.68 630.62 1999.28 669.91 1939.8C680.37 1924 691.92 1908.07 704.17 1891.21C729.09 1856.88 757.33 1817.97 781.98 1771.23C870.81 1602.8 985.55 1458.51 1113.8 1353.96C1142.27 1330.76 1172.44 1309.65 1203.55 1291.02H1203.54ZM1795.06 1225.21L1791.69 1225.24C1766.51 1225.46 1756.09 1225.53 1719.57 1219.49L1706.95 1217.37C1644.77 1206.9 1550.79 1191.08 1442.91 1206.12C1333.99 1221.33 1214.91 1276.21 1116.07 1356.73C988.21 1460.97 873.78 1604.86 785.21 1772.85C760.44 1819.84 732.11 1858.85 707.12 1893.29C694.9 1910.12 683.36 1926 672.96 1941.75C634.04 2000.66 591.13 2078.25 605.06 2155.99C610.97 2188.93 639.81 2299.15 763.15 2334.32C879.33 2367.42 1027.91 2416.66 1146.57 2504.23C1241.56 2574.33 1318.11 2669.05 1392.15 2760.64C1430.62 2808.24 1470.4 2857.46 1512.39 2902.79C1662.38 3064.76 1861.64 3171.38 2059.02 3195.34C2260.52 3219.8 2471.86 3143.07 2610.55 2995.05C2669.32 2932.33 2715.04 2850.9 2759.27 2772.15C2778.51 2737.87 2796.7 2705.49 2815.88 2674.57C2855.42 2610.86 2917.27 2578.44 2982.74 2544.12C2992.66 2538.92 3002.63 2533.69 3012.59 2528.32C3121.66 2469.41 3265.51 2369.48 3330.54 2227.96C3390.53 2097.45 3366.37 1941.04 3275.54 1871.87L3274.93 1871.41L3274.85 1870.65C3268.7 1807.96 3239.14 1756.12 3194.38 1677.65C3189.2 1668.56 3183.79 1659.09 3178.19 1649.18C3064.69 1593.33 2981.73 1485.63 2893.9 1371.61C2867.13 1336.84 2839.43 1300.9 2811.03 1266.89C2706.44 1141.69 2599.32 1060.7 2483.57 1019.28C2360.55 975.43 2214.29 977.48 2082.32 1024.93C1915.03 1085.04 1813.15 1155.69 1795.41 1223.84L1795.05 1225.21H1795.06Z" fill="url(#paint13_linear_1_13177)"/>
</g>
<g opacity="0.48">
<path d="M1240.15 1281.36C1318.5 1234.43 1402.82 1203.74 1482.18 1194.32C1599.99 1180.32 1702.73 1203.4 1769.76 1221.95C1782.63 1225.52 1792.54 1228.52 1801.29 1231.17C1817.86 1236.19 1829.93 1239.85 1848.42 1243.01C1875.35 1168.71 2019.5 1105.2 2136.13 1064.94C2265.7 1020.19 2407.16 1018.55 2524.24 1060.43C2634.69 1100.06 2740.58 1181.29 2838.99 1301.84C2866.24 1335.23 2892.72 1370.46 2918.33 1404.53C3000.1 1513.34 3077.34 1616.11 3182.2 1670.17L3182.7 1670.43L3182.94 1670.94C3228.47 1766.62 3256.3 1829.04 3253.68 1900.66C3338.71 1969.36 3357.47 2116.16 3297.26 2242.61C3234.01 2375.43 3095.56 2473.98 2990.37 2533.26C2982.22 2537.86 2974.08 2542.37 2965.98 2546.85C2902.88 2581.74 2843.26 2614.71 2806.1 2677.69C2791.59 2702.29 2777.51 2727.59 2762.6 2754.38C2714.5 2840.83 2664.75 2930.22 2598.71 2997.61C2530.75 3066.96 2445.11 3121.07 2351.04 3154.1C2254.96 3187.85 2152.15 3198.72 2053.73 3185.53C1860.71 3159.68 1666.02 3053.43 1519.58 2894.02C1478.67 2849.47 1439.85 2801.21 1402.31 2754.55C1327.45 2661.49 1250.05 2565.25 1153.19 2495.39C1040.86 2414.34 899.97 2367.29 776.73 2329.55C674.02 2298.11 628.72 2208.67 620.57 2135.44C611.39 2053 661.22 1974.92 705.65 1916.12C715.51 1903.06 726.2 1889.96 737.51 1876.1C765.73 1841.51 797.71 1802.31 824.76 1753.18C917.18 1585.42 1025.08 1449.3 1145.48 1348.62C1175.44 1323.58 1207.28 1301.02 1240.16 1281.33L1240.15 1281.36ZM1850.72 1246.91L1849.24 1246.66C1829.7 1243.41 1817.33 1239.65 1800.21 1234.46C1791.49 1231.82 1781.59 1228.82 1768.77 1225.28C1702.02 1206.78 1599.73 1183.82 1482.53 1197.73C1370.53 1211.04 1248.46 1266.97 1147.69 1351.28C1027.62 1451.67 919.99 1587.45 827.79 1754.84C800.57 1804.25 768.49 1843.58 740.18 1878.28C728.88 1892.12 718.23 1905.2 708.4 1918.2C664.37 1976.5 614.97 2053.83 624.02 2135.07C632.04 2207.24 676.65 2295.38 777.79 2326.33C901.3 2364.14 1042.5 2411.31 1155.25 2492.66C1252.47 2562.8 1330.02 2659.21 1405.02 2752.45C1442.52 2799.07 1481.31 2847.27 1522.16 2891.74C1668.07 3050.58 1862.01 3156.44 2054.25 3182.18C2249.9 3208.39 2457.57 3136.8 2596.23 2995.3C2661.94 2928.25 2711.57 2839.07 2759.57 2752.82C2774.48 2726.01 2788.57 2700.7 2803.12 2676.06C2840.76 2612.25 2900.79 2579.04 2964.33 2543.91C2972.42 2539.44 2980.56 2534.93 2988.7 2530.35C3093.29 2471.31 3231.27 2373.26 3294.14 2241.25C3353.84 2115.87 3335.22 1970.39 3250.82 1902.88L3250.16 1902.35L3250.19 1901.5C3253.03 1830.44 3225.4 1768.33 3180.06 1673.02C3074.76 1618.53 2997.42 1515.62 2915.54 1406.66C2889.95 1372.62 2863.5 1337.42 2836.28 1304.08C2738.26 1184.01 2632.87 1103.13 2523.01 1063.71C2406.66 1022.09 2266.05 1023.74 2137.22 1068.22C1970 1125.95 1871.1 1187.29 1851.21 1245.52L1850.73 1246.94L1850.72 1246.91Z" fill="url(#paint14_linear_1_13177)"/>
</g>
<g opacity="0.52">
<path d="M1276.54 1271.76C1355.8 1224.29 1441.2 1194.07 1521.89 1186.07C1644.38 1173.92 1751.2 1202.15 1819.26 1227.99C1837.91 1235.07 1851.41 1241.54 1863.31 1247.24C1876.84 1253.73 1888.58 1259.35 1904.6 1264.51C1927.98 1215.41 2021.74 1164.32 2191.12 1108.35C2319.33 1065.99 2451.62 1064.8 2563.61 1104.98C2669.79 1143.24 2770.9 1222.03 2864.11 1339.16C2890.22 1371.96 2915.48 1406.51 2939.93 1439.93C3015.75 1543.61 3087.36 1641.54 3184.05 1694.21L3184.56 1694.49L3184.77 1695.04C3223.19 1793.09 3241.64 1860.01 3228.95 1931.94C3305.84 1997.84 3319.52 2136.89 3260.66 2255.89C3212.61 2353.05 3116.01 2445.57 2973.49 2530.93C2971.15 2532.33 2968.8 2533.73 2966.44 2535.13C2960.31 2538.75 2954.19 2542.32 2948.11 2545.88C2886.63 2581.77 2828.64 2615.68 2793.22 2679.04C2783.83 2695.84 2774.59 2712.76 2764.81 2730.68C2712.62 2826.31 2658.65 2925.21 2584.19 2997.8C2516.3 3063.99 2431.71 3115.16 2339.55 3145.82C2245.24 3177.19 2144.73 3186.32 2048.92 3172.22C1861.14 3144.58 1671.8 3039.12 1529.47 2882.85C1489.66 2839.15 1451.81 2791.87 1415.22 2746.15C1339.43 2651.47 1261.08 2553.56 1162 2483.72C1053.52 2407.25 917.63 2362.76 797.73 2323.52L791.33 2321.43C685.22 2286.67 643.31 2188.14 639.65 2114.32C635.39 2027.93 691.75 1950.41 741.34 1892.52C750.82 1881.45 760.96 1870.38 771.69 1858.67C802.95 1824.53 838.39 1785.84 867.51 1735.23C964.09 1567.41 1065.39 1439.23 1177.18 1343.36C1208.5 1316.49 1241.93 1292.49 1276.52 1271.77L1276.54 1271.76ZM1906.37 1268.51L1904.96 1268.07C1888 1262.73 1875.87 1256.91 1861.84 1250.19C1850 1244.51 1836.56 1238.07 1818.04 1231.04C1750.32 1205.34 1644.01 1177.23 1522.17 1189.32C1406.93 1200.77 1281.96 1257.8 1179.34 1345.82C1067.85 1441.44 966.79 1569.33 870.4 1736.8C841.1 1787.74 805.52 1826.58 774.15 1860.84C763.44 1872.53 753.32 1883.57 743.86 1894.61C694.68 1952.02 638.76 2028.87 642.99 2114.1C646.59 2186.9 687.89 2284.08 792.45 2318.32L798.85 2320.41C918.96 2359.73 1055.09 2404.3 1163.97 2481.06C1263.42 2551.16 1341.92 2649.24 1417.85 2744.1C1454.42 2789.78 1492.22 2837.01 1531.96 2880.65C1673.81 3036.36 1862.44 3141.46 2049.49 3168.98C2242.35 3197.36 2441.42 3132.52 2581.92 2995.49C2656.03 2923.25 2709.87 2824.58 2761.94 2729.17C2771.72 2711.24 2780.96 2694.31 2790.37 2677.5C2826.26 2613.35 2884.65 2579.21 2946.5 2543.08C2952.58 2539.52 2958.68 2535.96 2964.81 2532.33C2967.17 2530.94 2969.51 2529.54 2971.85 2528.14C3113.8 2443.11 3209.96 2351.08 3257.72 2254.49C3316.12 2136.42 3302.53 1998.57 3226.1 1933.84L3225.4 1933.24L3225.56 1932.33C3238.41 1860.95 3220.15 1794.44 3181.92 1696.8C3084.86 1643.73 3013.16 1545.68 2937.26 1441.88C2912.84 1408.49 2887.59 1373.96 2861.53 1341.21C2768.69 1224.55 2668.07 1146.11 2562.46 1108.06C2451.16 1068.13 2319.65 1069.34 2192.14 1111.47C2022.14 1167.62 1928.89 1218.54 1907 1267.17L1906.39 1268.52L1906.37 1268.51Z" fill="url(#paint15_linear_1_13177)"/>
</g>
<g opacity="0.55">
<path d="M1312.58 1262.27C1392.76 1214.24 1479.36 1184.47 1561.6 1177.82C1701.78 1166.5 1814.19 1208.17 1868.71 1234.01C1889.57 1243.9 1904.27 1253.23 1918.49 1262.25C1931.89 1270.74 1944.56 1278.78 1960.78 1286.07C1991.86 1237.26 2116.17 1192.67 2246.1 1151.77C2371.05 1112.43 2497.79 1111.64 2602.97 1149.52C2704.92 1186.4 2801.23 1262.75 2889.23 1376.45C2914.23 1408.75 2938.32 1442.72 2961.63 1475.57C3031.45 1574.02 3097.41 1667.01 3185.89 1718.22L3186.4 1718.51L3186.57 1719.07C3221 1829 3225.8 1895.3 3204.18 1963.15C3272.92 2026.23 3281.5 2157.52 3224.04 2269.11C3176.69 2361.05 3084.6 2448.66 2942.5 2536.93L2930.93 2544.1C2870.89 2581.22 2814.18 2616.28 2780.33 2680.32L2769.65 2700.58C2715.77 2802.89 2654.69 2918.84 2569.69 2997.94C2428.82 3129.04 2232.35 3189.17 2044.13 3158.85C1858.97 3129.02 1679.71 3027.03 1539.37 2871.64C1500.61 2828.73 1463.7 2782.38 1428.02 2737.56C1351.36 2641.3 1272.1 2541.75 1170.82 2472.02C1074.15 2405.47 959.32 2366.01 848.27 2327.85C834.03 2322.96 819.91 2318.1 805.97 2313.25C696.46 2275.02 658.24 2170.8 658.78 2093.15C659.41 2002.36 722.33 1925.62 777.07 1868.9C786.38 1859.25 796.25 1849.64 806.7 1839.46C840.77 1806.26 879.38 1768.64 910.3 1717.24C974.22 1611 1074.71 1456.11 1208.89 1338.07C1241.48 1309.39 1276.39 1283.97 1312.58 1262.29V1262.27ZM1962 1290.03L1960.72 1289.46C1943.69 1281.93 1930.61 1273.63 1916.77 1264.85C1902.63 1255.89 1888 1246.61 1867.32 1236.81C1813.07 1211.1 1701.25 1169.65 1561.79 1180.92C1443.08 1190.5 1315.19 1248.63 1210.93 1340.34C1077.08 1458.11 976.78 1612.72 912.98 1718.77C881.84 1770.52 843.06 1808.3 808.85 1841.64C798.43 1851.79 788.59 1861.39 779.29 1871.01C724.96 1927.3 662.51 2003.41 661.91 2093.11C661.37 2169.74 699.06 2272.61 807.05 2310.31C820.98 2315.17 835.09 2320.02 849.33 2324.92C960.57 2363.15 1075.61 2402.68 1172.62 2469.46C1274.28 2539.45 1353.69 2639.18 1430.47 2735.62C1466.14 2780.4 1503.01 2826.71 1541.7 2869.56C1681.58 3024.43 1860.21 3126.08 2044.66 3155.8C2231.91 3185.97 2427.35 3126.13 2567.55 2995.71C2652.15 2916.99 2713.1 2801.28 2766.86 2699.2L2777.54 2678.94C2811.79 2614.13 2868.87 2578.85 2929.29 2541.48L2940.85 2534.32C3082.45 2446.37 3174.16 2359.17 3221.23 2267.76C3278.28 2156.98 3269.7 2026.74 3201.3 1964.81L3200.57 1964.15L3200.87 1963.21C3222.57 1895.82 3217.93 1830.03 3183.73 1720.61C3094.93 1669.01 3028.91 1575.93 2959.02 1477.38C2935.74 1444.55 2911.66 1410.61 2886.71 1378.37C2799.06 1265.13 2703.21 1189.11 2601.82 1152.44C2497.28 1114.79 2371.26 1115.6 2246.97 1154.72C2116.58 1195.75 1991.93 1240.44 1962.69 1288.83L1961.97 1290.04L1962 1290.03Z" fill="url(#paint16_linear_1_13177)"/>
</g>
<g opacity="0.58">
<path d="M1348.48 1252.81C1429.57 1204.24 1517.4 1174.88 1601.3 1169.58C1756.42 1159.78 1874.56 1215.59 1918.14 1240.03C1940.44 1252.54 1956.58 1264.92 1972.19 1276.9C1986.47 1287.85 1999.96 1298.2 2016.98 1307.72C2049.82 1270.1 2166.35 1235.37 2301.1 1195.18C2422.77 1158.88 2543.97 1158.49 2642.35 1194.06C2740.11 1229.57 2831.63 1303.48 2914.37 1413.74C2938.3 1445.64 2961.26 1479.13 2983.46 1511.53C3047.25 1604.63 3107.51 1692.56 3187.75 1742.24L3188.26 1742.55L3188.39 1743.12C3214.34 1851.57 3211.76 1924.47 3179.43 1994.38C3239.96 2054.64 3243.48 2178.18 3187.45 2282.35C3128.34 2392.26 3012.72 2477.1 2918.6 2538.74L2914.82 2541.21C2855.73 2579.89 2799.91 2616.43 2767.46 2681.62C2709.67 2797.74 2645.68 2917.82 2555.21 2998.07C2414.95 3122.52 2222.08 3177.6 2039.35 3145.48C1859.61 3113.88 1685.57 3012.64 1549.29 2860.42C1511.59 2818.3 1475.61 2772.87 1440.82 2728.93C1363.32 2631.06 1283.18 2529.85 1179.65 2460.29C1092.4 2401.66 989.65 2365.28 890.28 2330.09C866.15 2321.55 843.37 2313.47 820.62 2305.04C714.9 2265.84 672.76 2159.75 677.9 2072C683.57 1975.23 757.59 1896.26 812.78 1845.28C822.09 1836.67 831.9 1828.12 842.27 1819.08C878.96 1787.13 920.55 1750.92 953.09 1699.22C1033.97 1570.66 1124.78 1437.28 1240.6 1332.74C1274.38 1302.26 1310.69 1275.45 1348.48 1252.82V1252.81ZM2017.63 1311.47L2016.55 1310.87C1998.84 1301.08 1985 1290.47 1970.35 1279.23C1954.82 1267.32 1938.76 1255 1916.65 1242.59C1873.29 1218.27 1755.76 1162.75 1601.43 1172.5C1479.11 1180.25 1348.32 1239.43 1242.58 1334.89C1127.03 1439.18 1036.36 1572.35 955.59 1700.72C922.82 1752.8 881.06 1789.17 844.22 1821.26C833.86 1830.27 824.07 1838.79 814.78 1847.39C759.99 1898.02 686.47 1976.4 680.87 2072.1C675.79 2158.8 717.38 2263.59 821.72 2302.28C844.45 2310.7 867.22 2318.77 891.34 2327.31C990.88 2362.56 1093.8 2399.01 1181.36 2457.83C1285.26 2527.65 1365.54 2629.03 1443.17 2727.08C1477.93 2770.99 1513.88 2816.38 1551.52 2858.44C1687.38 3010.18 1860.83 3111.09 2039.92 3142.58C2221.77 3174.55 2413.72 3119.71 2553.26 2995.89C2643.32 2916.01 2707.16 2796.21 2764.82 2680.36C2797.63 2614.44 2853.78 2577.69 2913.22 2538.77L2917 2536.29C3010.83 2474.85 3126.06 2390.31 3184.85 2281C3240.5 2177.52 3236.95 2054.89 3176.6 1995.76L3175.87 1995.04L3176.31 1994.11C3208.68 1924.69 3211.39 1852.32 3185.63 1744.41C3105.13 1694.36 3044.83 1606.36 2981 1513.2C2958.82 1480.83 2935.88 1447.36 2911.98 1415.52C2829.58 1305.71 2738.51 1232.13 2641.29 1196.82C2543.49 1161.45 2422.96 1161.87 2301.9 1197.97C2166.48 1238.37 2049.56 1273.3 2018.43 1310.5L2017.64 1311.46L2017.63 1311.47Z" fill="url(#paint17_linear_1_13177)"/>
</g>
<g opacity="0.61">
<path d="M1384.12 1243.42C1466.13 1194.3 1555.29 1165.35 1640.99 1161.34C1804.56 1153.7 1923.86 1218.04 1967.55 1246.05C1991.02 1261.09 2008.46 1276.47 2025.31 1291.34C2040.62 1304.84 2055.08 1317.59 2073.15 1329.43C2100.28 1308.09 2171.44 1288.84 2269.51 1262.31C2297.15 1254.85 2325.72 1247.11 2356.09 1238.59C2439.85 1215.07 2564.34 1195.98 2681.71 1238.61C2775.32 1272.78 2862.05 1344.25 2939.49 1451.05C2962.44 1482.69 2984.29 1515.86 3005.43 1547.94C3063.14 1635.52 3117.64 1718.24 3189.59 1766.27L3190.08 1766.59L3190.18 1767.16C3208.79 1876.7 3198.15 1954.08 3154.63 2025.61C3206.94 2083.05 3205.38 2198.84 3150.85 2295.59C3096.03 2392.87 2995.33 2470.82 2894.67 2540.57C2841.16 2577.64 2785.82 2615.99 2754.59 2682.93C2706.31 2786.41 2638.37 2915.76 2540.72 2998.21C2401.26 3116.01 2212.01 3166.07 2034.56 3132.11C1860.29 3098.76 1691.47 2998.29 1559.19 2849.2C1522.51 2807.86 1487.44 2763.3 1453.53 2720.23C1375.23 2620.75 1294.25 2517.9 1188.47 2448.56C1108.86 2396.39 1015.88 2362.89 925.97 2330.48C894.42 2319.12 864.63 2308.38 835.27 2296.85C785.56 2277.32 746.42 2241.1 722.06 2192.11C700.79 2149.35 691.9 2099.18 697.03 2050.85C705.29 1973.13 753.4 1900.31 848.48 1821.66C857.95 1813.82 867.87 1806.1 878.36 1797.92C917.49 1767.42 961.84 1732.87 995.86 1681.21C1073.15 1563.83 1160.75 1430.79 1272.33 1327.42C1307.15 1295.14 1344.83 1266.96 1384.13 1243.42H1384.12ZM2073.29 1332.85L2072.44 1332.3C2053.82 1320.21 2039.06 1307.2 2023.44 1293.42C2006.65 1278.62 1989.29 1263.31 1966 1248.38C1922.53 1220.51 1803.85 1156.51 1641.09 1164.12C1514.97 1170.01 1381.25 1230.27 1274.21 1329.43C1162.9 1432.56 1075.41 1565.45 998.21 1682.7C963.92 1734.75 919.38 1769.46 880.08 1800.08C869.6 1808.25 859.7 1815.96 850.25 1823.78C755.79 1901.94 707.99 1974.17 699.82 2051.11C690.52 2138.73 729.27 2252.21 836.35 2294.3C865.67 2305.82 895.45 2316.55 926.97 2327.91C1017.04 2360.37 1110.18 2393.92 1190.05 2446.28C1296.2 2515.85 1377.31 2618.88 1455.75 2718.53C1489.64 2761.58 1524.69 2806.09 1561.32 2847.38C1693.2 2996.02 1861.48 3096.18 2035.15 3129.42C2211.74 3163.21 2400.05 3113.4 2538.94 2996.14C2636.16 2914.04 2703.91 2785.04 2752.07 2681.82C2783.63 2614.18 2839.29 2575.62 2893.11 2538.32C2993.49 2468.77 3093.89 2391.07 3148.44 2294.29C3202.65 2198.11 3204.13 2083.09 3151.88 2026.75L3151.18 2025.99L3151.73 2025.1C3195.25 1954.07 3205.97 1877.22 3187.55 1768.24C3115.39 1719.86 3060.85 1637.09 3003.12 1549.47C2982 1517.42 2960.16 1484.27 2937.25 1452.68C2860.13 1346.33 2773.83 1275.18 2680.74 1241.21C2564.06 1198.84 2440.2 1217.84 2356.83 1241.25C2326.46 1249.78 2297.87 1257.51 2270.23 1264.98C2175.23 1290.67 2100.26 1311.02 2074.12 1332.19L2073.32 1332.85H2073.29Z" fill="url(#paint18_linear_1_13177)"/>
</g>
<g opacity="0.65">
<path d="M1419.58 1234.04C1502.49 1184.38 1593.06 1155.82 1680.69 1153.11C1851.9 1147.81 1972.86 1220.54 2016.92 1252.05C2041.45 1269.59 2060.09 1287.9 2078.14 1305.61C2094.55 1321.72 2110.07 1336.95 2129.29 1351.15C2150.11 1341.17 2192.31 1332.05 2250.45 1319.48C2295.26 1309.79 2351.02 1297.74 2411.08 1281.99C2492.54 1260.63 2612.44 1243.49 2721.09 1283.15C2810.6 1315.98 2892.54 1385.02 2964.63 1488.34C2986.64 1519.89 3007.44 1552.91 3027.55 1584.84C3079.1 1666.7 3127.8 1744.02 3191.44 1790.27L3191.9 1790.6L3191.96 1791.16C3203.6 1902.63 3184.43 1984.62 3129.81 2056.81C3173.83 2111.4 3167.22 2219.47 3114.25 2308.82C3057.15 2405.15 2949.41 2484.46 2870.74 2542.38C2816.56 2582.27 2769.45 2620.48 2741.7 2684.24C2678.17 2830.23 2607.69 2932.97 2526.23 2998.35C2387.67 3109.59 2202.08 3154.58 2029.77 3118.76C1861.06 3083.71 1697.46 2983.99 1569.09 2838.01C1533.39 2797.4 1499.2 2753.7 1466.14 2711.43C1387.06 2610.37 1305.31 2505.87 1197.3 2436.86C1124.17 2390.13 1039.4 2359.33 957.42 2329.54C919.89 2315.9 884.45 2303.02 849.93 2288.67C738.28 2242.28 702.33 2121.93 716.16 2029.74C731.46 1927.85 797.46 1836.86 884.43 1797.93C941.62 1772.23 996.41 1724.45 1038.64 1663.21C1048.14 1649.44 1057.67 1635.5 1067.28 1621.46C1138.57 1517.21 1212.3 1409.41 1304.03 1322.1C1339.85 1288.02 1378.8 1258.47 1419.59 1234.03L1419.58 1234.04ZM3189.4 1792.05C3125.6 1745.47 3076.88 1668.13 3025.31 1586.25C3005.22 1554.35 2984.44 1521.35 2962.46 1489.85C2890.68 1386.97 2809.15 1318.24 2720.14 1285.59C2612.13 1246.18 2492.79 1263.25 2411.71 1284.5C2351.59 1300.27 2295.8 1312.33 2250.97 1322.02C2192.33 1334.69 2149.97 1343.85 2129.7 1353.82L2128.98 1354.17L2128.34 1353.7C2108.68 1339.26 2092.94 1323.81 2076.28 1307.46C2058.32 1289.82 2039.74 1271.58 2015.37 1254.15C1971.52 1222.79 1851.14 1150.4 1680.73 1155.68C1550.63 1159.71 1414 1221.01 1305.82 1323.95C1214.29 1411.06 1140.64 1518.74 1069.43 1622.88C1059.82 1636.93 1050.29 1650.87 1040.79 1664.63C998.26 1726.26 943.08 1774.45 885.46 1800.26C799.36 1838.91 733.92 1929.02 718.73 2030.05C705.04 2121.28 740.58 2240.38 850.96 2286.25C885.41 2300.57 920.84 2313.44 958.34 2327.07C1040.45 2356.92 1125.35 2387.76 1198.73 2434.64C1307.1 2503.89 1389 2608.56 1468.2 2709.79C1501.24 2752.02 1535.42 2795.7 1571.08 2836.25C1699.07 2981.83 1862.17 3081.25 2030.34 3116.19C2201.89 3151.84 2386.68 3107.03 2524.58 2996.32C2605.69 2931.22 2675.92 2828.8 2739.28 2683.23C2767.3 2618.85 2814.69 2580.4 2869.19 2540.29C2947.67 2482.51 3055.15 2403.38 3111.98 2307.52C3164.68 2218.63 3171.18 2111.22 3127.12 2057.67L3126.47 2056.89L3127.1 2056.07C3181.67 1984.37 3200.89 1902.91 3189.41 1792.02L3189.4 1792.05Z" fill="url(#paint19_linear_1_13177)"/>
</g>
<g opacity="0.68">
<path d="M1453.4 1226.06C1537.94 1175.42 1631.56 1146.29 1720.37 1144.86C1845.9 1142.85 1971.98 1184.1 2066.29 1258.04C2091.8 1278.05 2111.6 1299.23 2130.75 1319.71C2148.32 1338.5 2164.92 1356.27 2185.37 1372.9C2198.12 1370.2 2217.92 1367.65 2242.88 1364.44C2295.64 1357.65 2375.36 1347.4 2466.05 1325.41C2581.16 1297.49 2680.21 1298.26 2760.44 1327.7C2845.93 1359.24 2923.08 1425.83 2989.74 1525.63C3010.91 1557.33 3030.7 1590.43 3049.83 1622.45C3095.17 1698.33 3137.99 1770 3193.28 1814.3L3193.7 1814.63L3193.73 1815.17C3198.6 1929.14 3170.37 2015.88 3104.94 2088.01C3141.22 2140.54 3129.82 2238.73 3077.64 2322.05C3026.76 2403.28 2939.77 2471.39 2863.02 2531.48C2857.55 2535.76 2852.14 2540 2846.81 2544.19C2791.69 2587.51 2752.72 2626.27 2728.81 2685.55C2689.6 2782.75 2620.1 2915.94 2511.74 2998.48C2374.29 3103.07 2192.36 3143.09 2024.98 3105.4C1861.86 3068.65 1703.47 2969.71 1579.01 2826.79C1544.26 2786.91 1510.94 2744.03 1478.71 2702.56C1398.91 2599.91 1316.39 2493.76 1206.11 2425.14C1138.49 2383.06 1060.68 2354.74 985.43 2327.34C943.07 2311.93 903.07 2297.36 864.57 2280.48C813.18 2257.94 774 2217.41 751.27 2163.27C731.1 2115.24 725.43 2060.31 735.28 2008.62C755.14 1904.66 827.69 1812.77 920.08 1774.35C982.63 1748.41 1039.95 1702.52 1081.42 1645.2C1099.09 1620.77 1117.09 1595.01 1134.5 1570.11C1195.86 1482.32 1259.31 1391.54 1335.75 1316.78C1371.58 1281.73 1411.38 1251.22 1453.42 1226.04L1453.4 1226.06ZM3191.29 1815.87C3135.87 1771.28 3093.04 1699.6 3047.7 1623.72C3028.59 1591.73 3008.83 1558.65 2987.68 1527C2921.3 1427.62 2844.54 1361.33 2759.54 1329.98C2679.78 1300.71 2581.21 1299.97 2466.59 1327.77C2375.76 1349.79 2295.95 1360.06 2243.14 1366.85C2217.86 1370.11 2197.89 1372.67 2185.26 1375.4L2184.68 1375.53L2184.23 1375.16C2163.45 1358.32 2146.68 1340.38 2128.92 1321.38C2109.84 1300.97 2090.1 1279.85 2064.74 1259.96C1970.85 1186.35 1845.33 1145.27 1720.36 1147.28C1588.02 1149.41 1444.86 1213.41 1337.43 1318.5C1261.15 1393.1 1197.76 1483.78 1136.47 1571.47C1119.06 1596.39 1101.06 1622.14 1083.37 1646.6C1041.64 1704.29 983.97 1750.39 920.96 1776.6C829.23 1814.54 757.35 1905.86 737.67 2009.03C719.03 2106.77 756.97 2230.63 865.57 2278.26C903.99 2295.11 943.96 2309.66 986.28 2325.06C1061.64 2352.5 1139.58 2380.86 1207.41 2423.07C1318.05 2491.92 1400.69 2598.24 1480.62 2701.06C1512.83 2742.49 1546.13 2785.34 1580.83 2825.18C1704.97 2967.71 1862.91 3066.39 2025.53 3103.02C2192.2 3140.56 2373.38 3100.79 2510.23 2996.56C2618.15 2914.37 2687.4 2781.59 2726.5 2684.68C2750.62 2624.89 2789.83 2585.87 2845.27 2542.3C2850.61 2538.11 2856.02 2533.87 2861.49 2529.59C2938.08 2469.62 3024.88 2401.66 3075.53 2320.81C3127.48 2237.86 3138.76 2140.22 3102.34 2088.65L3101.78 2087.86L3102.45 2087.13C3167.78 2015.48 3196.02 1929.27 3191.28 1815.86L3191.29 1815.87Z" fill="url(#paint20_linear_1_13177)"/>
</g>
<g opacity="0.71">
<path d="M1488.55 1216.7C1573.98 1165.53 1669.1 1136.79 1760.06 1136.62C1890.27 1136.39 2019.87 1182.83 2115.64 1264.05C2142.1 1286.48 2163.02 1310.49 2183.25 1333.71C2201.99 1355.21 2219.7 1375.54 2241.4 1394.64C2282.25 1395.57 2389.64 1397.92 2521.04 1368.83C2634.37 1343.73 2725.56 1344.85 2799.81 1372.25C2881.31 1402.5 2953.67 1466.66 3014.86 1562.94C3035.3 1595.1 3054.1 1628.6 3072.29 1660.99C3111.32 1730.54 3148.2 1796.24 3195.13 1838.34L3195.5 1838.68V1839.18C3193.65 1956.06 3155.88 2047.66 3080.04 2119.21C3107.78 2168.81 3091.46 2259.46 3041.02 2335.29C2996.01 2402.94 2923.41 2462.84 2859.35 2515.69C2846.62 2526.19 2834.6 2536.11 2822.86 2546.01C2781.52 2580.88 2739.95 2622.08 2715.91 2686.86C2686.75 2765.42 2619.56 2910.38 2497.23 2998.61C2361.1 3096.76 2182.83 3131.67 2020.2 3092.03C1862.74 3053.65 1709.57 2955.48 1588.89 2815.58C1555.11 2776.41 1522.64 2734.37 1491.25 2693.7C1410.74 2589.43 1327.49 2481.61 1214.91 2413.42C1152.12 2375.39 1080.33 2349.37 1010.91 2324.2C966.61 2308.14 920.82 2291.55 879.2 2272.31C766.44 2220.18 731.06 2089.59 754.39 1987.52C778.59 1881.61 857.62 1788.75 955.71 1750.81C1003.86 1732.22 1072.17 1695.67 1124.17 1627.21C1148.22 1595.55 1172.33 1561.42 1195.64 1528.42C1248.51 1453.57 1303.16 1376.17 1367.44 1311.49C1404.07 1274.62 1445.06 1242.75 1488.55 1216.7ZM3193.21 1839.68C3146.19 1797.32 3109.32 1731.64 3070.29 1662.1C3052.12 1629.73 3033.33 1596.26 3012.93 1564.15C2952 1468.29 2880.02 1404.44 2798.99 1374.36C2725.16 1347.11 2634.4 1346.02 2521.5 1371.02C2389.39 1400.27 2281.51 1397.8 2240.9 1396.87H2240.48L2240.17 1396.6C2218.22 1377.32 2200.39 1356.86 2181.51 1335.19C2161.34 1312.04 2140.47 1288.1 2114.13 1265.76C2018.77 1184.89 1889.69 1138.64 1760.02 1138.88C1623.36 1139.11 1477.2 1204.26 1369.04 1313.04C1304.9 1377.59 1250.3 1454.91 1197.49 1529.68C1174.16 1562.71 1150.05 1596.85 1125.99 1628.54C1073.64 1697.45 1004.94 1734.2 956.51 1752.91C859.18 1790.51 780.67 1882.79 756.62 1987.97C733.48 2089.16 768.5 2218.61 880.2 2270.24C921.73 2289.43 965.44 2305.29 1011.73 2322.06C1081.25 2347.26 1153.14 2373.32 1216.14 2411.47C1329.06 2479.87 1412.43 2587.87 1493.07 2692.3C1524.45 2732.94 1556.9 2774.96 1590.64 2814.08C1711.01 2953.63 1863.77 3051.56 2020.78 3089.82C2182.77 3129.32 2360.41 3094.52 2495.92 2996.78C2617.75 2908.91 2684.7 2764.41 2713.78 2686.1C2738.01 2620.83 2779.83 2579.37 2821.41 2544.29C2833.16 2534.38 2845.19 2524.45 2857.91 2513.95C2921.85 2461.2 2994.32 2401.42 3039.13 2334.05C3089.39 2258.5 3105.57 2168.29 3077.63 2119.56L3077.19 2118.79L3077.85 2118.17C3153.54 2047.1 3191.28 1955.98 3193.22 1839.66L3193.21 1839.68Z" fill="url(#paint21_linear_1_13177)"/>
</g>
<g opacity="0.74">
<path d="M1523.54 1207.31C1609.81 1155.63 1706.48 1127.28 1799.74 1128.37C1934.41 1129.96 2067.54 1181.59 2164.99 1270.02C2192.38 1294.88 2214.38 1321.66 2235.67 1347.55C2255.6 1371.81 2274.43 1394.72 2297.4 1416.34C2352.56 1429.07 2458.5 1435.61 2576.04 1412.24C2652.13 1397.11 2750.81 1383.96 2839.2 1416.79C2915.71 1445.38 2985.14 1508.81 3040 1600.23C3059.82 1633.27 3077.66 1667.57 3094.93 1700.75C3127.58 1763.53 3158.43 1822.82 3196.99 1862.38L3197.31 1862.7L3197.28 1863.16C3188.76 1983.18 3140.94 2079.81 3055.14 2150.38C3074.58 2197.74 3053.81 2279.05 3004.42 2348.53C2965 2404 2907.65 2453.38 2852.19 2501.13C2833.4 2517.32 2815.64 2532.61 2798.93 2547.83C2749.85 2592.56 2721.17 2634.54 2703.03 2688.19C2658.18 2820.71 2577.9 2933.91 2482.76 2998.74C2348.27 3090.46 2173.52 3120.32 2015.41 3078.67C1863.67 3038.69 1715.71 2941.27 1598.8 2804.38C1565.96 2765.93 1534.35 2724.69 1503.78 2684.8C1422.59 2578.89 1338.62 2469.37 1223.74 2401.7C1165.18 2367.21 1098.69 2343.31 1034.37 2320.2C986.96 2303.16 937.91 2285.54 893.89 2264.12C840.89 2238.34 801.72 2193.43 780.6 2134.27C761.84 2081.73 759.27 2020.55 773.54 1966.43C801.96 1858.66 887.43 1764.81 991.38 1727.27C1068.26 1699.5 1125.69 1660.9 1166.97 1609.22C1196 1572.86 1224.43 1532.68 1251.92 1493.82C1297.54 1429.32 1344.72 1362.63 1399.19 1306.18C1436.52 1267.48 1478.64 1234.24 1523.57 1207.32L1523.54 1207.31ZM3195.13 1863.51C3156.5 1823.74 3125.67 1764.47 3093.03 1701.73C3075.79 1668.58 3057.96 1634.3 3038.16 1601.32C2983.54 1510.3 2914.47 1447.17 2838.4 1418.75C2750.5 1386.11 2652.21 1399.22 2576.4 1414.29C2458.34 1437.76 2351.88 1431.13 2296.6 1418.32L2296.33 1418.25L2296.13 1418.06C2272.98 1396.3 2253.17 1372.2 2234.02 1348.89C2212.78 1323.05 2190.83 1296.33 2163.56 1271.58C2066.48 1183.48 1933.86 1132.05 1799.69 1130.47C1658.43 1128.8 1509.29 1195 1400.68 1307.6C1346.33 1363.93 1299.2 1430.56 1253.63 1494.99C1226.12 1533.89 1197.68 1574.09 1168.59 1610.51C1127.05 1662.48 1069.31 1701.34 992.03 1729.23C888.8 1766.57 803.8 1859.84 775.55 1966.94C748.66 2068.89 781.32 2207.03 894.82 2262.24C938.75 2283.61 987.74 2301.21 1035.1 2318.23C1099.51 2341.37 1166.1 2365.31 1224.81 2399.9C1340.04 2467.77 1424.13 2577.45 1505.44 2683.51C1536.01 2723.37 1567.61 2764.59 1600.41 2803C1717.04 2939.59 1864.63 3036.77 2015.98 3076.64C2173.47 3118.13 2347.42 3088.39 2481.56 2997.02C2576.31 2932.43 2656.3 2819.64 2701 2687.54C2719.27 2633.53 2748.13 2591.29 2797.5 2546.29C2814.23 2531.04 2832 2515.74 2850.8 2499.54C2906.16 2451.88 2963.41 2402.58 3002.68 2347.32C3051.91 2278.05 3072.55 2197.1 3052.87 2150.47L3052.57 2149.76L3053.18 2149.26C3138.78 2079.12 3186.53 1982.98 3195.12 1863.49L3195.13 1863.51Z" fill="url(#paint22_linear_1_13177)"/>
</g>
<g opacity="0.77">
<path d="M1558.34 1197.91C1645.44 1145.72 1743.72 1117.79 1839.42 1120.15C1978.38 1123.58 2115.03 1180.39 2214.32 1276.01C2242.62 1303.26 2265.68 1332.77 2287.99 1361.31C2308.2 1387.15 2329.09 1413.89 2353.34 1438.04C2405.11 1459.52 2508.81 1476.99 2631 1455.67C2713.3 1441.31 2800.25 1432.05 2878.55 1461.35C2970.42 1495.94 3030.71 1576.25 3065.11 1637.54C3084.46 1672.02 3101.32 1707.69 3117.62 1742.18C3143.81 1797.58 3168.54 1849.9 3198.81 1886.42L3199.07 1886.74L3199.02 1887.14C3183.8 2010.43 3125.43 2112.22 3030.18 2181.55C3040.75 2225.85 3015.17 2299.81 2967.79 2361.78C2933.81 2406.22 2887.31 2447.6 2842.32 2487.63C2818.21 2509.08 2795.44 2529.35 2774.96 2549.67C2733.08 2591.24 2706.91 2634.38 2690.09 2689.53C2650.48 2819.45 2567.54 2935.1 2468.24 2998.89C2463.63 3001.85 2458.96 3004.75 2454.26 3007.56C2323.51 3085.87 2158.97 3107.56 2010.6 3065.34C1935.11 3043.87 1861.24 3008.4 1791.06 2959.92C1724.94 2914.26 1663.58 2858.17 1608.67 2793.2C1576.74 2755.45 1545.96 2714.99 1516.18 2675.86C1434.34 2568.31 1349.72 2457.1 1232.52 2390.01C1177.75 2358.67 1115.93 2336.74 1056.14 2315.54C1006.12 2297.8 954.4 2279.45 908.49 2255.98C791.19 2195.98 761.24 2051.18 792.61 1945.38C828.95 1822.89 940 1746.38 1026.83 1703.81C1038.89 1697.89 1051.29 1692.32 1064.42 1686.43C1115.92 1663.28 1169.16 1639.4 1209.68 1591.27C1242.71 1552.02 1274.09 1507.41 1304.42 1464.27C1343.79 1408.31 1384.51 1350.43 1430.83 1300.89C1468.75 1260.33 1511.96 1225.69 1558.3 1197.93L1558.34 1197.91ZM3197.05 1887.34C3166.74 1850.65 3142.03 1798.36 3115.86 1743.02C3099.57 1708.55 3082.72 1672.92 3063.4 1638.49C3029.16 1577.48 2969.17 1497.53 2877.82 1463.14C2799.96 1434.01 2713.32 1443.24 2631.29 1457.56C2508.55 1478.98 2404.33 1461.35 2352.37 1439.74L2352.07 1439.53C2327.68 1415.26 2306.71 1388.44 2286.43 1362.49C2264.16 1334.01 2241.14 1304.55 2212.94 1277.4C2113.98 1182.09 1977.81 1125.49 1839.32 1122.08C1693.25 1118.46 1541.11 1185.79 1432.26 1302.15C1386.04 1351.6 1345.36 1409.42 1306.04 1465.33C1275.66 1508.5 1244.28 1553.14 1211.18 1592.46C1170.36 1640.95 1114.48 1666.02 1065.23 1688.16C1052.11 1694.04 1039.72 1699.61 1027.69 1705.51C941.17 1747.98 830.61 1824.09 794.49 1945.89C763.33 2050.95 793.02 2194.72 909.43 2254.25C955.23 2277.67 1006.88 2296 1056.84 2313.72C1116.71 2334.95 1178.61 2356.91 1233.52 2388.33C1351.06 2455.61 1435.8 2566.97 1517.75 2674.68C1547.51 2713.79 1578.29 2754.22 1610.17 2791.95C1723.19 2925.64 1865.6 3022.07 2011.19 3063.49C2164.35 3107.06 2334.91 3082.23 2467.22 2997.28C2566.15 2933.74 2648.77 2818.5 2688.25 2689C2705.17 2633.52 2731.49 2590.13 2773.62 2548.32C2794.14 2527.95 2816.93 2507.67 2841.06 2486.21C2885.97 2446.24 2932.4 2404.92 2966.27 2360.63C3021.44 2288.48 3037.02 2217.15 3028.16 2181.41L3028.01 2180.78L3028.54 2180.39C3123.54 2111.46 3181.8 2010.13 3197.06 1887.34H3197.05Z" fill="url(#paint23_linear_1_13177)"/>
</g>
<g opacity="0.81">
<path d="M1592.43 1189.22C1611.78 1177.63 1631.8 1167.17 1652.33 1157.99C1725.84 1125.06 1804.25 1109.13 1879.09 1111.9C2022.2 1117.2 2162.37 1179.21 2263.65 1281.98C2288.27 1306.97 2307.82 1335.29 2326.73 1362.69C2351.66 1398.83 2375.22 1432.96 2409.24 1459.7C2452.07 1493.36 2554.25 1518.59 2685.99 1499.08C2763.71 1487.56 2845.64 1478.6 2917.93 1505.88C3005.14 1538.99 3059.77 1616.03 3090.24 1674.82C3109.3 1711.59 3125.07 1749.42 3140.31 1786C3159.97 1833.16 3178.53 1877.7 3200.66 1910.46L3200.86 1910.75L3200.79 1911.09C3178.56 2039.53 3110.95 2143.81 3005.25 2212.69C3006.58 2247.55 2984.25 2311.06 2931.2 2375C2902.75 2409.29 2866.13 2442.58 2830.73 2474.78C2801.73 2501.15 2774.34 2526.06 2751.04 2551.48C2715.12 2590.68 2693.05 2632.36 2677.23 2690.84C2642.14 2820.52 2558.62 2935.72 2453.79 2999L2452.31 2999.88C2321.56 3078.2 2154.81 3097.68 2005.86 3051.96C1863.76 3008.34 1729.85 2914.98 1618.6 2781.97C1587.6 2744.91 1557.65 2705.23 1528.67 2666.87C1446.2 2557.65 1360.93 2444.7 1241.35 2378.26C1189.99 2349.73 1132.36 2329.63 1076.61 2310.19C1024.45 2292 970.52 2273.19 923.19 2247.77C854.36 2210.8 823.66 2149.79 810.03 2105.12C792.41 2047.38 793.04 1981.48 811.76 1924.29C844.58 1824.03 933.61 1737.31 1062.51 1680.23C1075.34 1674.54 1088.5 1669.26 1102.42 1663.68C1155.64 1642.35 1210.66 1620.29 1252.49 1573.25C1288.7 1532.5 1321.88 1484.78 1353.97 1438.62C1387.93 1389.77 1423.06 1339.24 1462.6 1295.53C1499.96 1254.23 1544.11 1218.18 1592.45 1189.22H1592.43ZM3198.98 1911.16C3176.84 1878.29 3158.29 1833.79 3138.66 1786.69C3123.43 1750.14 3107.67 1712.35 3088.65 1675.64C3058.32 1617.1 3003.97 1540.42 2917.26 1507.51C2845.38 1480.39 2763.71 1489.32 2686.21 1500.8C2553.96 1520.4 2451.24 1494.97 2408.12 1461.07C2373.89 1434.17 2350.27 1399.93 2325.25 1363.69C2306.39 1336.35 2286.88 1308.08 2262.37 1283.2C2161.39 1180.73 2021.67 1118.93 1879 1113.64C1730.08 1108.13 1571.02 1178.26 1463.9 1296.68C1424.44 1340.3 1389.34 1390.78 1355.42 1439.59C1323.3 1485.8 1290.09 1533.55 1253.8 1574.4C1211.7 1621.76 1156.47 1643.88 1103.07 1665.31C1089.16 1670.88 1076.02 1676.15 1063.22 1681.82C934.81 1738.78 846.11 1825.01 813.44 1924.81C778.09 2032.84 804.84 2182.2 924.06 2246.22C971.27 2271.59 1025.13 2290.37 1077.23 2308.54C1133.04 2328 1190.74 2348.13 1242.23 2376.73C1362.13 2443.34 1447.52 2556.43 1530.09 2665.8C1559.06 2704.15 1588.99 2743.8 1619.96 2780.84C1730.99 2913.59 1864.62 3006.76 2006.39 3050.28C2154.86 3095.85 2321.08 3076.44 2451.4 2998.39C2451.9 2998.09 2452.38 2997.79 2452.88 2997.5C2557.31 2934.45 2640.54 2819.65 2675.5 2690.4C2691.4 2631.62 2713.6 2589.72 2749.73 2550.3C2773.09 2524.82 2800.51 2499.88 2829.53 2473.48C2864.89 2441.33 2901.46 2408.08 2929.83 2373.88C2982.84 2310 3005 2246.68 3003.45 2212.27L3003.43 2211.77L3003.86 2211.49C3109.27 2142.97 3176.74 2039.11 3198.98 1911.16Z" fill="url(#paint24_linear_1_13177)"/>
</g>
<g opacity="0.84">
<path d="M1626.07 1180.48C1715.54 1126.89 1818.8 1098.78 1918.77 1103.67C2065.94 1110.87 2209.62 1178.03 2312.98 1287.96C2339.09 1315.72 2360.27 1346.84 2380.75 1376.93C2406.72 1415.09 2431.26 1451.14 2465.13 1481.34C2511.44 1522.64 2614.69 1557.56 2740.95 1542.49L2744.28 1542.09C2812.47 1533.94 2889.75 1524.7 2957.28 1550.42C3021.78 1575.13 3077.91 1632.55 3115.34 1712.11C3134.29 1752.39 3148.63 1793.48 3162.51 1833.22C3175.68 1870.97 3188.13 1906.62 3202.48 1934.5L3202.61 1934.75L3202.55 1935.02C3173.76 2065.65 3096 2174.5 2983.4 2241.94C2982.37 2242.56 2981.34 2243.17 2980.3 2243.78C2974.41 2273.49 2948.48 2328.97 2894.59 2388.2C2871.98 2413.04 2844.66 2438.05 2818.24 2462.25C2785.89 2491.88 2752.43 2522.51 2727.08 2553.28C2690.07 2598.2 2675.04 2646.57 2664.31 2692.15C2635.01 2816.65 2552.5 2931.44 2447.84 2994.13C2445 2995.83 2442.16 2997.49 2439.29 2999.11C2310.39 3071.99 2146.56 3086.75 2001.06 3038.59C1865.02 2993.56 1736.18 2900.95 1628.49 2770.76C1598.39 2734.38 1569.26 2695.47 1541.08 2657.84C1458 2546.93 1372.11 2432.22 1250.15 2366.52C1201.86 2340.51 1147.97 2322.1 1095.86 2304.3C1041.95 2285.88 986.21 2266.84 937.84 2239.57C883.45 2208.92 843.32 2155.96 824.8 2090.46C807.74 2030.14 809.96 1961.89 830.87 1903.2C850.53 1847.99 885.97 1797.69 936.17 1753.68C980.44 1714.9 1036.43 1681.36 1098.15 1656.65C1111.81 1651.18 1125.77 1646.19 1140.54 1640.92C1195.42 1621.32 1252.14 1601.03 1295.23 1555.25C1333.99 1514.07 1368.03 1464.24 1400.96 1416.05C1430.22 1373.19 1460.5 1328.9 1494.3 1290.19C1532.2 1246.8 1577.08 1209.8 1626.07 1180.45V1180.48ZM3200.92 1934.99C3186.57 1907.06 3174.15 1871.45 3160.99 1833.77C3147.13 1794.06 3132.8 1753.01 3113.88 1712.81C3076.63 1633.62 3020.79 1576.48 2956.68 1551.91C2889.52 1526.33 2812.44 1535.54 2744.44 1543.67L2741.11 1544.07C2614.35 1559.21 2510.62 1524.07 2464.04 1482.53C2430.03 1452.2 2404.3 1414.39 2379.41 1377.84C2358.96 1347.79 2337.81 1316.72 2311.79 1289.05C2208.71 1179.43 2065.41 1112.43 1918.65 1105.26C1764.43 1097.72 1602.3 1169.03 1495.49 1291.25C1461.75 1329.88 1431.51 1374.16 1402.26 1416.96C1369.3 1465.21 1335.22 1515.1 1296.38 1556.35C1253.01 1602.42 1196.1 1622.78 1141.05 1642.45C1126.29 1647.72 1112.36 1652.71 1098.71 1658.17C1020.83 1689.29 882.61 1762.64 832.36 1903.73C792.88 2014.59 816.71 2169.49 938.64 2238.22C986.88 2265.42 1042.56 2284.44 1096.4 2302.83C1148.57 2320.65 1202.51 2339.07 1250.92 2365.15C1373.18 2431.02 1459.19 2545.85 1542.36 2656.91C1570.53 2694.52 1599.65 2733.42 1629.73 2769.76C1737.23 2899.72 1865.82 2992.17 2001.58 3037.11C2146.65 3085.13 2309.99 3070.41 2438.52 2997.75C2441.37 2996.14 2444.2 2994.49 2447.02 2992.8C2551.32 2930.33 2633.54 2815.94 2662.74 2691.84C2673.52 2646.07 2688.62 2597.5 2725.84 2552.31C2751.26 2521.45 2784.76 2490.78 2817.16 2461.12C2843.55 2436.95 2870.85 2411.96 2893.4 2387.18C2947.29 2327.95 2973.09 2272.59 2978.8 2243.17L2978.87 2242.81L2979.19 2242.63C2980.33 2241.97 2981.47 2241.28 2982.6 2240.61C3094.74 2173.44 3172.19 2065.09 3200.94 1935.01L3200.92 1934.99Z" fill="url(#paint25_linear_1_13177)"/>
</g>
<g opacity="0.87">
<path d="M1660.32 1170.92C1750.52 1116.89 1855.58 1089.24 1958.44 1095.43C2109.55 1104.5 2256.75 1176.86 2362.29 1293.92C2389.94 1324.58 2412.8 1358.68 2434.91 1391.65C2460.64 1430.02 2487.25 1469.7 2521 1502.96C2567.02 1548.33 2666.65 1597.27 2795.92 1585.9C2801.79 1585.39 2807.71 1584.84 2813.68 1584.29C2875.23 1578.6 2938.88 1572.72 2996.64 1594.96C3079.01 1626.87 3122.1 1705.42 3140.44 1749.4C3159.51 1795.1 3172.15 1843.15 3183.32 1885.54C3190.33 1912.17 3196.95 1937.33 3204.29 1958.55L3204.36 1958.75L3204.31 1958.96C3167.9 2096.11 3079.46 2208.28 2955.36 2274.87C2937.93 2311.04 2901.54 2358.33 2857.97 2401.43C2841.95 2417.28 2824.57 2432.96 2806.16 2449.57C2768.69 2483.37 2729.93 2518.34 2703.11 2555.1C2672.37 2597.27 2661.49 2642.72 2651.39 2693.49C2627.28 2814.61 2548.59 2925.76 2443.8 2988.53C2437.56 2992.27 2431.23 2995.84 2424.81 2999.22C2361.94 3032.38 2289.38 3052.2 2214.96 3056.54C2141.31 3060.83 2065.68 3050.01 1996.27 3025.24C1866.38 2978.9 1742.63 2887.03 1638.37 2759.56C1609.2 2723.88 1580.88 2685.76 1553.51 2648.88C1469.85 2536.21 1383.33 2419.71 1258.93 2354.81C1213.41 2331.07 1162.91 2314.24 1114.08 2297.96C1058.78 2279.52 1001.58 2260.44 952.48 2231.42C897.46 2198.88 857.37 2143.62 839.6 2075.8C823.13 2012.91 826.9 1942.34 849.95 1882.17C891.43 1773.97 994.88 1683.22 1133.76 1633.13C1148.32 1627.89 1163.09 1623.19 1178.74 1618.22C1235.14 1600.32 1293.42 1581.77 1337.98 1537.29C1378.75 1496.52 1412.89 1445.38 1445.9 1395.93C1471.06 1358.24 1497.08 1319.26 1525.98 1284.9C1564.12 1239.55 1609.89 1201.11 1660.29 1170.92H1660.32ZM3202.87 1958.83C3195.55 1937.61 3188.93 1912.5 3181.94 1885.93C3170.79 1843.58 3158.15 1795.58 3139.13 1749.97C3120.86 1706.19 3077.99 1628.01 2996.11 1596.29C2938.66 1574.17 2875.18 1580.03 2813.79 1585.7C2807.82 1586.25 2801.89 1586.8 2796.02 1587.31C2740.02 1592.23 2683.56 1585.97 2632.74 1569.2C2587.57 1554.28 2547.52 1531.12 2519.98 1503.97C2486.14 1470.61 2459.48 1430.87 2433.71 1392.44C2411.62 1359.51 2388.79 1325.46 2361.21 1294.86C2255.92 1178.08 2109.07 1105.89 1958.32 1096.83C1798.44 1087.22 1633.22 1159.61 1527.1 1285.78C1498.25 1320.08 1472.25 1359.03 1447.11 1396.68C1414.06 1446.19 1379.87 1497.39 1338.99 1538.26C1294.26 1583.02 1235.74 1601.59 1179.18 1619.56C1163.54 1624.52 1148.76 1629.21 1134.24 1634.45C995.81 1684.37 892.62 1774.83 851.31 1882.63C807.2 1997.76 833.26 2159.24 953.25 2230.19C1002.22 2259.14 1059.34 2278.19 1114.58 2296.61C1163.47 2312.91 1214.02 2329.76 1259.62 2353.56C1384.3 2418.6 1470.92 2535.24 1554.67 2648.04C1582.04 2684.89 1610.34 2723 1639.51 2758.66C1743.59 2885.93 1867.14 2977.65 1996.78 3023.91C2138.06 3074.32 2297.82 3064.62 2424.16 2997.98C2430.55 2994.6 2436.88 2991.04 2443.09 2987.32C2547.53 2924.76 2625.96 2813.98 2649.99 2693.24C2660.13 2642.3 2671.04 2596.69 2701.96 2554.29C2728.87 2517.39 2767.68 2482.39 2805.21 2448.52C2823.6 2431.93 2840.97 2416.27 2856.97 2400.43C2900.51 2357.35 2936.85 2310.11 2954.17 2274.06L2954.27 2273.85L2954.48 2273.74C3078.4 2207.39 3166.52 2095.57 3202.87 1958.82V1958.83Z" fill="url(#paint26_linear_1_13177)"/>
</g>
<g opacity="0.9">
<path d="M1693.78 1162.06C1713.49 1150.25 1734.06 1139.65 1755.36 1130.35C1833.22 1096.37 1917.16 1081.44 1998.1 1087.18C2077.66 1092.83 2155.4 1115.55 2229.19 1154.74C2297.69 1191.11 2360.76 1241.29 2411.61 1299.88C2440.84 1333.56 2465.43 1370.79 2489.2 1406.8C2515.75 1447.01 2543.21 1488.59 2576.87 1524.59C2628.25 1579.52 2727.21 1635.89 2850.89 1629.33C2860.2 1628.84 2869.87 1628.18 2879.21 1627.55C2932.04 1623.97 2986.67 1620.27 3036.01 1639.51C3092.9 1661.82 3140.12 1715.46 3165.56 1786.69C3184.93 1840.91 3193.5 1898.95 3200.39 1945.58C3202.32 1958.7 3204.16 1971.1 3206.09 1982.6L3206.07 1982.89C3184.1 2054.15 3148.33 2118.81 3099.77 2175.08C3052.42 2229.94 2995.45 2273.96 2930.45 2305.93C2904.66 2337.02 2865.92 2375.63 2821.36 2414.65C2813.47 2421.56 2805.42 2428.45 2796.91 2435.75C2754.85 2471.78 2707.19 2512.63 2679.15 2556.93C2654.2 2596.36 2647.34 2639.33 2640.09 2684.81C2639.56 2688.13 2639.03 2691.47 2638.49 2694.83C2617.94 2821.96 2528.41 2941.47 2410.34 2999.34C2348.21 3029.78 2276.75 3046.84 2203.69 3048.68C2132.13 3050.48 2058.76 3037.76 1991.49 3011.89C1926.77 2986.99 1863.56 2950.46 1803.61 2903.3C1748.74 2860.12 1696.48 2808 1648.28 2748.37C1620.01 2713.38 1592.51 2676.04 1565.94 2639.92C1481.7 2525.46 1394.61 2407.12 1267.73 2343.1C1224.78 2321.42 1177.38 2306.05 1131.54 2291.2C1075.1 2272.9 1016.73 2253.97 967.16 2223.25C911.54 2188.78 871.51 2131.19 854.47 2061.09C838.57 1995.63 843.89 1922.74 869.08 1861.11C915.22 1748.23 1024.71 1656.57 1169.41 1609.61C1184.91 1604.58 1201.3 1599.95 1217.15 1595.5C1275 1579.19 1334.83 1562.42 1380.75 1519.31C1423.13 1479.59 1456.71 1427.81 1489.2 1377.76C1510.76 1344.53 1533.05 1310.18 1557.73 1279.58C1595.04 1233.36 1641.33 1193.47 1693.77 1162.06H1693.78ZM3204.83 1982.69C3202.9 1971.21 3201.08 1958.86 3199.15 1945.78C3191.91 1896.78 3183.71 1841.23 3164.38 1787.13C3139.06 1716.23 3092.1 1662.85 3035.54 1640.68C2986.46 1621.54 2931.98 1625.23 2879.28 1628.8C2869.93 1629.43 2860.26 1630.09 2850.94 1630.58C2726.83 1637.16 2627.51 1580.59 2575.94 1525.45C2542.2 1489.37 2514.72 1447.75 2488.13 1407.5C2464.38 1371.53 2439.81 1334.32 2410.64 1300.71C2303.08 1176.79 2152.68 1099.43 1997.99 1088.44C1832.07 1076.66 1663.78 1150.21 1558.72 1280.37C1534.08 1310.89 1511.8 1345.22 1490.26 1378.42C1457.73 1428.55 1424.1 1480.38 1381.61 1520.23C1335.51 1563.41 1275.49 1580.36 1217.47 1596.69C1201.63 1601.15 1185.25 1605.77 1169.77 1610.79C1025.42 1657.63 916.26 1749.03 870.25 1861.57C822.13 1979.3 845.49 2146.37 967.85 2222.19C1017.29 2252.84 1075.58 2271.74 1131.96 2290.01C1177.84 2304.88 1225.28 2320.27 1268.34 2341.98C1395.46 2406.13 1482.65 2524.6 1566.97 2639.17C1593.54 2675.28 1621.02 2712.62 1649.27 2747.58C1750.04 2872.25 1868.54 2963.25 1991.97 3010.73C2129.59 3063.67 2285.79 3058.99 2409.8 2998.24C2527.47 2940.56 2616.76 2821.42 2637.24 2694.67C2637.79 2691.31 2638.32 2687.97 2638.84 2684.66C2646.12 2639.04 2652.98 2595.96 2678.07 2556.3C2706.21 2511.83 2753.96 2470.92 2796.08 2434.83C2804.6 2427.54 2812.63 2420.65 2820.53 2413.73C2865.08 2374.71 2903.81 2336.11 2929.56 2305.05L2929.65 2304.95L2929.78 2304.89C3061.38 2240.26 3161.58 2122.8 3204.82 1982.7L3204.83 1982.69Z" fill="url(#paint27_linear_1_13177)"/>
</g>
<g opacity="0.94">
<path d="M1727.04 1152.97C1746.95 1141.05 1767.8 1130.35 1789.46 1120.99C1868.8 1086.73 1954.66 1072.19 2037.78 1078.96C2119.14 1085.58 2198.62 1110.03 2273.99 1151.65C2344.22 1190.42 2408.86 1243.74 2460.93 1305.84C2491.77 1342.63 2518.11 1383.13 2543.58 1422.31C2570.89 1464.3 2599.12 1507.72 2632.74 1546.21C2703.23 1626.85 2805.33 1674.16 2905.87 1672.75C2917.64 1672.59 2929.89 1672.04 2941.74 1671.52C2986.82 1669.52 3033.44 1667.46 3075.38 1684.06C3103.5 1695.24 3128.25 1714.33 3148.94 1740.84C3167.33 1764.39 3181.76 1793.14 3190.68 1824C3210.29 1891.88 3216.56 1958.49 3207.86 2006.75C3195.34 2076.23 3158.42 2139.47 3094.96 2200.08C3037.75 2254.73 2967.21 2299.4 2905.58 2336.99C2882.77 2350.9 2858.19 2370.34 2829.72 2392.85C2815.43 2404.14 2800.67 2415.83 2784.75 2427.88C2736.24 2464.66 2682.23 2508.13 2655.18 2558.77C2636.46 2593.85 2632.57 2630.97 2628.45 2670.28C2627.57 2678.73 2626.65 2687.46 2625.59 2696.18C2617.84 2759.32 2591.69 2821.52 2549.98 2876.04C2508.91 2929.73 2455.64 2972.4 2395.87 2999.46C2333.63 3027.65 2265.19 3041.57 2192.42 3040.86C2123.01 3040.18 2051.89 3025.54 1986.74 2998.53C1867.82 2949.23 1757.28 2861.29 1658.2 2737.16C1630.83 2702.87 1604.17 2666.31 1578.39 2630.94C1493.6 2514.66 1405.93 2394.42 1276.55 2331.37C1235.91 2311.56 1191.32 2297.55 1148.19 2284.02C1090.9 2266.03 1031.67 2247.42 981.85 2215.08C925.66 2178.6 885.74 2118.67 869.4 2046.34C854.06 1978.33 860.91 1903.14 888.21 1840.07C914.58 1779.13 957.85 1725.24 1016.82 1679.91C1070.27 1638.81 1135.35 1606.37 1205.04 1586.06C1221.49 1581.26 1238.8 1576.97 1255.53 1572.79C1314.82 1558.05 1376.07 1542.85 1423.52 1501.34C1467.15 1463.18 1499.62 1411.36 1531.01 1361.24C1549.4 1331.9 1568.41 1301.54 1589.47 1274.26C1626.43 1226.35 1673.27 1185.18 1727.05 1152.96L1727.04 1152.97ZM2435.27 2977.6C2537.96 2916.09 2610.56 2809.68 2624.5 2696.07C2625.57 2687.36 2626.49 2678.63 2627.37 2670.19C2631.5 2630.78 2635.4 2593.55 2654.23 2558.28C2681.38 2507.44 2735.51 2463.87 2784.11 2427.02C2800.01 2414.97 2814.77 2403.29 2829.05 2392C2857.55 2369.46 2882.16 2350 2905.02 2336.06C3042.82 2252.02 3179.63 2157.36 3206.78 2006.56C3215.45 1958.46 3209.2 1892.03 3189.62 1824.3C3170.47 1758.04 3127.6 1705.99 3074.95 1685.07C3033.22 1668.55 2986.72 1670.61 2941.75 1672.6C2929.89 1673.13 2917.63 1673.67 2905.85 1673.83C2851.63 1674.59 2798.55 1662.14 2748.09 1636.84C2704.31 1614.9 2664.14 1583.8 2631.9 1546.91C2598.22 1508.38 2569.97 1464.92 2542.65 1422.9C2517.2 1383.75 2490.87 1343.26 2460.07 1306.54C2350.19 1175.49 2196.22 1092.92 2037.65 1080.03C1867.91 1066.23 1692.31 1142.72 1590.32 1274.9C1569.3 1302.14 1550.3 1332.47 1531.92 1361.8C1500.49 1411.99 1467.98 1463.88 1424.22 1502.16C1376.63 1543.75 1315.2 1559.08 1255.76 1573.84C1239.04 1578.01 1221.75 1582.3 1205.31 1587.09C1055.18 1630.84 939.94 1723.23 889.18 1840.46C837.19 1960.63 857.85 2133.27 982.44 2214.16C1032.14 2246.43 1091.31 2265.01 1148.54 2282.98C1191.69 2296.53 1236.32 2310.55 1277.04 2330.39C1406.64 2393.55 1494.39 2513.91 1579.26 2630.29C1605.04 2665.64 1631.69 2702.2 1659.05 2736.46C1758.02 2860.45 1868.41 2948.28 1987.15 2997.51C2121.29 3053.12 2273.92 3053.47 2395.42 2998.45C2409.12 2992.25 2422.43 2985.26 2435.25 2977.57L2435.27 2977.6Z" fill="url(#paint28_linear_1_13177)"/>
</g>
<g opacity="0.97">
<path d="M1760.01 1143.82C1780.14 1131.76 1801.3 1120.97 1823.38 1111.54C1904.23 1077.04 1992.07 1062.92 2077.44 1070.7C2160.61 1078.3 2241.8 1104.49 2318.76 1148.54C2390.72 1189.73 2456.93 1246.18 2510.24 1311.79C2542.72 1351.77 2570.83 1395.66 2598.01 1438.12C2626.01 1481.83 2654.95 1527.04 2688.6 1567.81C2732.9 1621.49 2827.18 1712.13 2960.83 1716.17C2974.28 1716.58 2988.28 1716.28 3001.81 1715.99C3039.94 1715.18 3079.37 1714.34 3114.75 1728.6C3140.35 1738.94 3163.35 1757.49 3181.29 1782.23C3197.75 1804.95 3209.69 1832.28 3215.79 1861.27C3227.52 1916.92 3225.28 1978.67 3209.62 2030.7C3187.75 2103.41 3144.78 2170.98 3081.89 2231.53C3027.6 2283.81 2959.91 2329.72 2880.74 2368C2830.38 2392.35 2788.23 2415.58 2748.16 2441.09C2688.44 2479.09 2649.09 2519.3 2631.21 2560.61C2617.32 2592.71 2616.01 2626.05 2614.62 2661.35C2614.15 2673.18 2613.67 2685.42 2612.67 2697.54C2607.42 2761.1 2582.01 2823.73 2539.19 2878.66C2497.47 2932.19 2442.88 2974 2381.41 2999.57C2319.94 3025.13 2252.56 3036.4 2181.13 3033.08C2113.92 3029.95 2045.06 3013.38 1981.96 2985.18C1869.68 2934.97 1764.08 2847.76 1668.1 2725.97C1641.66 2692.4 1615.83 2656.64 1590.87 2622.05C1505.53 2503.87 1417.3 2381.66 1285.36 2319.65C1246.85 2301.56 1204.85 2288.84 1164.24 2276.53C1106.31 2258.98 1046.4 2240.84 996.52 2206.92C939.8 2168.34 899.97 2106.05 884.32 2031.52C876.93 1996.31 875.15 1959.97 879.04 1923.51C882.96 1886.67 892.49 1851.51 907.33 1819.01C935.87 1756.15 981.76 1701.05 1043.71 1655.26C1100.24 1613.48 1168.31 1581.43 1240.67 1562.54C1258.14 1557.97 1276.39 1553.98 1294.05 1550.11C1354.66 1536.83 1417.42 1523.14 1466.28 1483.38C1510.89 1447.17 1541.75 1395.79 1571.59 1346.11C1587.18 1320.16 1603.3 1293.33 1621.21 1268.94C1657.64 1219.33 1704.91 1176.85 1760.03 1143.83L1760.01 1143.82ZM2950.78 2329.25C3083.67 2249.65 3174.14 2145.46 3208.74 2030.45C3224.34 1978.57 3226.58 1916.98 3214.88 1861.48C3201.89 1799.84 3163.38 1749.25 3114.38 1729.46C3079.18 1715.28 3039.85 1716.11 3001.81 1716.92C2988.26 1717.21 2974.25 1717.5 2960.78 1717.1C2907.87 1715.51 2855.75 1699.85 2805.87 1670.56C2763.11 1645.45 2722.31 1610.13 2687.88 1568.42C2654.2 1527.61 2625.24 1482.39 2597.23 1438.65C2570.06 1396.22 2541.96 1352.34 2509.52 1312.41C2397.26 1174.23 2239.73 1086.48 2077.34 1071.65C1900.77 1055.53 1722.03 1133.19 1621.93 1269.49C1604.05 1293.83 1587.94 1320.66 1572.37 1346.6C1542.48 1396.34 1511.59 1447.78 1466.85 1484.12C1417.68 1523.98 1354.93 1537.73 1294.22 1551.03C1276.57 1554.89 1258.32 1558.88 1240.88 1563.44C1087.08 1603.63 962.7 1699.31 908.16 1819.4C844.37 1959 883.42 2128.89 997.05 2206.18C1046.82 2240.04 1106.65 2258.16 1164.52 2275.68C1205.17 2288 1247.21 2300.73 1285.77 2318.85C1417.92 2380.95 1506.23 2503.25 1591.62 2621.53C1616.59 2656.11 1642.4 2691.87 1668.84 2725.41C1764.72 2847.1 1870.21 2934.22 1982.36 2984.37C2115.07 3043.69 2260.39 3048.93 2381.06 2998.76C2508.53 2945.76 2601.25 2824.68 2611.75 2697.5C2612.75 2685.4 2613.23 2673.17 2613.69 2661.34C2615.08 2625.96 2616.4 2592.54 2630.36 2560.28C2648.31 2518.79 2687.77 2478.44 2747.66 2440.34C2787.79 2414.82 2829.95 2391.57 2880.34 2367.21C2904.96 2355.3 2928.48 2342.63 2950.78 2329.27V2329.25Z" fill="url(#paint29_linear_1_13177)"/>
</g>
<path d="M1792.69 1134.6C1813.06 1122.4 1834.58 1111.5 1857.12 1102.01C1897.8 1084.87 1940.77 1072.77 1984.85 1066.05C2029.11 1059.29 2073.61 1058.09 2117.1 1062.47C2202.07 1071.04 2284.98 1098.96 2363.55 1145.46C2437.22 1189.06 2505 1248.64 2559.55 1317.76C2593.7 1361.02 2623.62 1408.44 2652.56 1454.29C2681.18 1499.66 2710.78 1546.56 2744.45 1589.42C2801.2 1661.64 2894.34 1749.79 3015.79 1759.6C3030.3 1760.77 3045.3 1760.81 3059.81 1760.84C3091.66 1760.92 3124.61 1760.99 3154.12 1773.14C3177.62 1782.81 3198.23 1800.27 3213.71 1823.63C3228.25 1845.56 3237.66 1871.46 3240.9 1898.54C3246.36 1944.1 3236.71 1995.15 3211.39 2054.62C3178.97 2130.77 3129.42 2202.42 3068.1 2261.83C3006.77 2321.24 2933.41 2368.67 2855.92 2399C2838.85 2405.68 2821.2 2411.73 2804.14 2417.58C2773.19 2428.19 2741.19 2439.17 2711.57 2454.27C2658.26 2481.42 2621.23 2519.86 2607.24 2562.44C2597.42 2592.31 2598.44 2624.37 2599.43 2655.37C2599.89 2669.67 2600.36 2684.45 2599.77 2698.87C2597.16 2762.83 2572.53 2825.9 2528.54 2881.27C2486.66 2933.98 2429.28 2976.01 2366.95 2999.66C2306.24 3022.68 2239.92 3031.31 2169.81 3025.32C2104.88 3019.77 2038.27 3001.27 1977.19 2971.81C1920.77 2944.59 1865.56 2907.24 1813.12 2860.8C1767.16 2820.11 1721.7 2770.96 1678 2714.74C1652.49 2681.92 1627.52 2646.99 1603.37 2613.2C1517.49 2493.04 1428.7 2368.78 1294.13 2307.91C1257.59 2291.38 1217.95 2279.84 1179.62 2268.69C1121.28 2251.73 1060.97 2234.18 1011.18 2198.71C954.03 2158 914.32 2093.36 899.38 2016.69C892.28 1980.29 890.98 1942.86 895.52 1905.42C900.12 1867.45 910.52 1831.29 926.4 1797.95C942.05 1765.15 962.67 1733.98 987.68 1705.35C1011.53 1678.05 1039.45 1652.91 1070.69 1630.64C1130.26 1588.14 1201.37 1556.45 1276.27 1538.98C1294.75 1534.67 1313.94 1530.98 1332.49 1527.42C1387.01 1516.95 1443.16 1506.17 1490.3 1477.93C1496.71 1474.09 1502.95 1469.92 1509.01 1465.4C1554.36 1431.45 1583.14 1381.03 1610.97 1332.29C1624.1 1309.27 1637.7 1285.47 1652.89 1263.6C1688.58 1212.23 1736.19 1168.42 1792.67 1134.59L1792.69 1134.6ZM2947.92 2352.9C3063.59 2283.61 3158.44 2177.06 3210.68 2054.35C3235.95 1995 3245.58 1944.07 3240.14 1898.65C3233.3 1841.6 3199.41 1792.61 3153.81 1773.84C3124.43 1761.74 3091.56 1761.67 3059.78 1761.59C3045.26 1761.55 3030.24 1761.52 3015.71 1760.34C2964.15 1756.18 2913.01 1737.25 2863.72 1704.09C2821.33 1675.57 2780.99 1637.15 2743.85 1589.87C2710.15 1546.99 2680.54 1500.07 2651.91 1454.69C2622.98 1408.84 2593.08 1361.45 2558.95 1318.21C2444.27 1172.91 2283.19 1079.97 2117.01 1063.21C1935.92 1044.92 1749.67 1125.63 1653.53 1264.02C1638.35 1285.87 1624.77 1309.64 1611.64 1332.65C1583.77 1381.48 1554.94 1431.95 1509.47 1466C1503.39 1470.55 1497.13 1474.73 1490.68 1478.59C1443.43 1506.89 1387.21 1517.68 1332.63 1528.17C1314.08 1531.74 1294.9 1535.42 1276.43 1539.72C1117.2 1576.86 986.6 1673.52 927.09 1798.29C859.3 1940.45 896.43 2116.09 1011.63 2198.13C1061.32 2233.52 1121.58 2251.05 1179.84 2268C1218.19 2279.16 1257.86 2290.69 1294.46 2307.24C1354.89 2334.58 1411.37 2377.1 1467.14 2437.23C1516.8 2490.77 1561.12 2552.79 1603.99 2612.77C1628.13 2646.56 1653.1 2681.48 1678.59 2714.29C1772.87 2835.57 1870.65 2919.59 1977.53 2971.15C2106.92 3033.55 2248.75 3043.69 2366.68 2998.98C2387.34 2991.15 2407.11 2981.5 2425.77 2970.32C2526.07 2910.24 2594.65 2805.76 2599 2698.87C2599.59 2684.48 2599.12 2669.7 2598.66 2655.42C2597.67 2624.35 2596.64 2592.23 2606.5 2562.23C2614.04 2539.32 2627.87 2517.85 2647.62 2498.42C2664.94 2481.37 2686.32 2466.31 2711.21 2453.61C2740.87 2438.48 2772.9 2427.5 2803.88 2416.88C2820.94 2411.03 2838.59 2404.98 2855.64 2398.31C2887.5 2385.84 2918.39 2370.58 2947.91 2352.9H2947.92Z" fill="url(#paint30_linear_1_13177)"/>
</g>
<path d="M1498.69 5564C2468.23 5564 3254.19 4778.04 3254.19 3808.5C3254.19 2838.96 2468.23 2053 1498.69 2053C529.154 2053 -256.81 2838.96 -256.81 3808.5C-256.81 4778.04 529.154 5564 1498.69 5564Z" stroke="#0059E7" stroke-width="3" stroke-miterlimit="10"/>
<path d="M1760.5 5562C2730.04 5562 3516 4776.04 3516 3806.5C3516 2836.96 2730.04 2051 1760.5 2051C790.964 2051 5 2836.96 5 3806.5C5 4776.04 790.964 5562 1760.5 5562Z" stroke="#0059E7" stroke-width="6" stroke-miterlimit="10"/>
<path d="M2013.5 5528.01C2983.04 5528.01 3769 4742.05 3769 3772.51C3769 2802.97 2983.04 2017.01 2013.5 2017.01C1043.96 2017.01 258 2802.97 258 3772.51C258 4742.05 1043.96 5528.01 2013.5 5528.01Z" stroke="#0059E7" stroke-width="3" stroke-miterlimit="10"/>
<g opacity="0.28">
<path d="M-892.61 981.27C76.9258 981.27 862.89 195.306 862.89 -774.23C862.89 -1743.77 76.9258 -2529.73 -892.61 -2529.73C-1862.15 -2529.73 -2648.11 -1743.77 -2648.11 -774.23C-2648.11 195.306 -1862.15 981.27 -892.61 981.27Z" stroke="#0059E7" stroke-width="3" stroke-miterlimit="10"/>
<path d="M-1076.32 1167.81C-106.784 1167.81 679.18 381.846 679.18 -587.69C679.18 -1557.23 -106.784 -2343.19 -1076.32 -2343.19C-2045.86 -2343.19 -2831.82 -1557.23 -2831.82 -587.69C-2831.82 381.846 -2045.86 1167.81 -1076.32 1167.81Z" stroke="#0059E7" stroke-width="6" stroke-miterlimit="10"/>
<path d="M-1231.19 1370.74C-261.654 1370.74 524.31 584.776 524.31 -384.76C524.31 -1354.3 -261.654 -2140.26 -1231.19 -2140.26C-2200.73 -2140.26 -2986.69 -1354.3 -2986.69 -384.76C-2986.69 584.776 -2200.73 1370.74 -1231.19 1370.74Z" stroke="#0059E7" stroke-width="3" stroke-miterlimit="10"/>
</g>
</g>
<defs>
<linearGradient id="paint0_linear_1_13177" x1="3340.11" y1="904.234" x2="512.935" y2="2718.55" gradientUnits="userSpaceOnUse">
<stop stop-color="#F7FBFF"/>
<stop offset="1" stop-color="#F4FFFC"/>
</linearGradient>
<linearGradient id="paint1_linear_1_13177" x1="3328.5" y1="1027.71" x2="687.134" y2="2851.23" gradientUnits="userSpaceOnUse">
<stop stop-color="#F0F8FF"/>
<stop offset="1" stop-color="#ECFFFB"/>
</linearGradient>
<linearGradient id="paint2_linear_1_13177" x1="3268.81" y1="1012.86" x2="795.878" y2="2858.81" gradientUnits="userSpaceOnUse">
<stop stop-color="#E8F4FF"/>
<stop offset="1" stop-color="#E2FFF9"/>
</linearGradient>
<linearGradient id="paint3_linear_1_13177" x1="3212.14" y1="1022.35" x2="922.577" y2="2881.04" gradientUnits="userSpaceOnUse">
<stop stop-color="#E0F1FE"/>
<stop offset="1" stop-color="#DAFFF7"/>
</linearGradient>
<linearGradient id="paint4_linear_1_13177" x1="3052.76" y1="934.171" x2="960.334" y2="2793.22" gradientUnits="userSpaceOnUse">
<stop stop-color="#DAEEFF"/>
<stop offset="0.15" stop-color="#D8F1FD"/>
<stop offset="1" stop-color="#CFFFF6"/>
</linearGradient>
<linearGradient id="paint5_linear_1_13177" x1="3012.57" y1="1018.91" x2="1131.85" y2="2862.58" gradientUnits="userSpaceOnUse">
<stop stop-color="#D2ECFF"/>
<stop offset="0.22" stop-color="#CEF1FC"/>
<stop offset="1" stop-color="#C6FFF4"/>
</linearGradient>
<linearGradient id="paint6_linear_1_13177" x1="2894.34" y1="945.791" x2="1216.26" y2="2778.38" gradientUnits="userSpaceOnUse">
<stop stop-color="#CBE9FF"/>
<stop offset="0.31" stop-color="#C5F1FA"/>
<stop offset="1" stop-color="#BBFFF2"/>
</linearGradient>
<linearGradient id="paint7_linear_1_13177" x1="2949.63" y1="991.158" x2="1458.1" y2="2826.49" gradientUnits="userSpaceOnUse">
<stop stop-color="#C3E5FF"/>
<stop offset="0.4" stop-color="#BAF1F8"/>
<stop offset="1" stop-color="#B0FFF1"/>
</linearGradient>
<linearGradient id="paint8_linear_1_13177" x1="2649.53" y1="735.649" x2="1305.22" y2="2627.27" gradientUnits="userSpaceOnUse">
<stop stop-color="#BBE2FF"/>
<stop offset="0.45" stop-color="#B0F1F6"/>
<stop offset="1" stop-color="#A6FFEF"/>
</linearGradient>
<linearGradient id="paint9_linear_1_13177" x1="2625.85" y1="761.297" x2="1419.92" y2="2739.25" gradientUnits="userSpaceOnUse">
<stop stop-color="#B4DFFF"/>
<stop offset="0.5" stop-color="#A4F1F5"/>
<stop offset="1" stop-color="#99FFEE"/>
</linearGradient>
<linearGradient id="paint10_linear_1_13177" x1="2611.06" y1="863.15" x2="1570.24" y2="2905" gradientUnits="userSpaceOnUse">
<stop stop-color="#ACDCFF"/>
<stop offset="0.53" stop-color="#99F1F3"/>
<stop offset="1" stop-color="#8EFFEC"/>
</linearGradient>
<linearGradient id="paint11_linear_1_13177" x1="2526.55" y1="857.581" x2="1660.19" y2="2965.77" gradientUnits="userSpaceOnUse">
<stop stop-color="#A4D9FF"/>
<stop offset="0.56" stop-color="#8DF1F1"/>
<stop offset="1" stop-color="#80FFEA"/>
</linearGradient>
<linearGradient id="paint12_linear_1_13177" x1="2376.91" y1="761.176" x2="1696.92" y2="2933.67" gradientUnits="userSpaceOnUse">
<stop stop-color="#9CD5FF"/>
<stop offset="0.6" stop-color="#7FF1F0"/>
<stop offset="1" stop-color="#72FFE9"/>
</linearGradient>
<linearGradient id="paint13_linear_1_13177" x1="2252.96" y1="781.394" x2="1779.75" y2="2971.93" gradientUnits="userSpaceOnUse">
<stop stop-color="#94D2FF"/>
<stop offset="0.64" stop-color="#70F2ED"/>
<stop offset="1" stop-color="#63FFE7"/>
</linearGradient>
<linearGradient id="paint14_linear_1_13177" x1="2168.62" y1="921.432" x2="1909.73" y2="3076.53" gradientUnits="userSpaceOnUse">
<stop stop-color="#8BCFFF"/>
<stop offset="0.14" stop-color="#80D7FA"/>
<stop offset="0.7" stop-color="#5BF3EA"/>
<stop offset="1" stop-color="#4EFFE5"/>
</linearGradient>
<linearGradient id="paint15_linear_1_13177" x1="2048.78" y1="992.385" x2="1995.57" y2="3094.2" gradientUnits="userSpaceOnUse">
<stop stop-color="#83CCFF"/>
<stop offset="0.29" stop-color="#68DDF5"/>
<stop offset="0.75" stop-color="#43F5E8"/>
<stop offset="1" stop-color="#36FFE4"/>
</linearGradient>
<linearGradient id="paint16_linear_1_13177" x1="1981.67" y1="1158.94" x2="2119.86" y2="3170.52" gradientUnits="userSpaceOnUse">
<stop stop-color="#7BC9FF"/>
<stop offset="0.09" stop-color="#6ECEFB"/>
<stop offset="0.52" stop-color="#32E8ED"/>
<stop offset="0.83" stop-color="#0EF8E5"/>
<stop offset="1" stop-color="#00FFE2"/>
</linearGradient>
<linearGradient id="paint17_linear_1_13177" x1="1878.57" y1="1139.33" x2="2205.6" y2="3160.72" gradientUnits="userSpaceOnUse">
<stop stop-color="#72C6FF"/>
<stop offset="0.03" stop-color="#6EC7FD"/>
<stop offset="0.49" stop-color="#32E5ED"/>
<stop offset="0.82" stop-color="#0EF7E2"/>
<stop offset="1" stop-color="#00FFDF"/>
</linearGradient>
<linearGradient id="paint18_linear_1_13177" x1="1711.06" y1="1059.72" x2="2223.7" y2="3079.73" gradientUnits="userSpaceOnUse">
<stop stop-color="#68C2FF"/>
<stop offset="0.44" stop-color="#32E1EE"/>
<stop offset="0.81" stop-color="#0DF6E2"/>
<stop offset="1" stop-color="#00FFDE"/>
</linearGradient>
<linearGradient id="paint19_linear_1_13177" x1="1635.07" y1="1056.55" x2="2317.68" y2="3034.49" gradientUnits="userSpaceOnUse">
<stop stop-color="#5EBFFF"/>
<stop offset="0.4" stop-color="#32DCEE"/>
<stop offset="0.79" stop-color="#0DF5E1"/>
<stop offset="1" stop-color="#00FFDC"/>
</linearGradient>
<linearGradient id="paint20_linear_1_13177" x1="1594.08" y1="1118.96" x2="2422.94" y2="3022.47" gradientUnits="userSpaceOnUse">
<stop stop-color="#54BCFF"/>
<stop offset="0.34" stop-color="#32D6F0"/>
<stop offset="0.77" stop-color="#0DF3E0"/>
<stop offset="1" stop-color="#00FFDA"/>
</linearGradient>
<linearGradient id="paint21_linear_1_13177" x1="1576.72" y1="1230.37" x2="2525.2" y2="3037.73" gradientUnits="userSpaceOnUse">
<stop stop-color="#48B9FF"/>
<stop offset="0.25" stop-color="#32CDF3"/>
<stop offset="0.74" stop-color="#0DF1E0"/>
<stop offset="1" stop-color="#00FFD9"/>
</linearGradient>
<linearGradient id="paint22_linear_1_13177" x1="1528.74" y1="1250.28" x2="2585.11" y2="2972.78" gradientUnits="userSpaceOnUse">
<stop stop-color="#3BB6FF"/>
<stop offset="0.26" stop-color="#28CCF2"/>
<stop offset="0.74" stop-color="#0BF1DE"/>
<stop offset="1" stop-color="#00FFD7"/>
</linearGradient>
<linearGradient id="paint23_linear_1_13177" x1="1517.4" y1="1296.71" x2="2657.34" y2="2922.91" gradientUnits="userSpaceOnUse">
<stop stop-color="#29B2FF"/>
<stop offset="0.29" stop-color="#1ACCF0"/>
<stop offset="0.75" stop-color="#07F1DD"/>
<stop offset="1" stop-color="#00FFD6"/>
</linearGradient>
<linearGradient id="paint24_linear_1_13177" x1="1455.73" y1="1276.57" x2="2672.24" y2="2820.81" gradientUnits="userSpaceOnUse">
<stop stop-color="#0EB0FF"/>
<stop offset="0.31" stop-color="#08CCEF"/>
<stop offset="0.76" stop-color="#02F1DB"/>
<stop offset="1" stop-color="#00FFD4"/>
</linearGradient>
<linearGradient id="paint25_linear_1_13177" x1="1415.17" y1="1277.13" x2="2693.38" y2="2739.79" gradientUnits="userSpaceOnUse">
<stop stop-color="#00ADFF"/>
<stop offset="0.33" stop-color="#00CCED"/>
<stop offset="0.77" stop-color="#00F1D9"/>
<stop offset="1" stop-color="#00FFD2"/>
</linearGradient>
<linearGradient id="paint26_linear_1_13177" x1="1427.48" y1="1333.99" x2="2764.96" y2="2728.7" gradientUnits="userSpaceOnUse">
<stop stop-color="#00AAFF"/>
<stop offset="0.35" stop-color="#00CCEC"/>
<stop offset="0.77" stop-color="#00F1D8"/>
<stop offset="1" stop-color="#00FFD1"/>
</linearGradient>
<linearGradient id="paint27_linear_1_13177" x1="1384.88" y1="1333.26" x2="2783.49" y2="2674.01" gradientUnits="userSpaceOnUse">
<stop stop-color="#00A7FF"/>
<stop offset="0.37" stop-color="#00CCEA"/>
<stop offset="0.78" stop-color="#00F1D6"/>
<stop offset="1" stop-color="#00FFCF"/>
</linearGradient>
<linearGradient id="paint28_linear_1_13177" x1="1293.39" y1="1294.61" x2="2756.8" y2="2593.42" gradientUnits="userSpaceOnUse">
<stop stop-color="#00A2FF"/>
<stop offset="0.39" stop-color="#00CCE8"/>
<stop offset="0.79" stop-color="#00F1D4"/>
<stop offset="1" stop-color="#00FFCD"/>
</linearGradient>
<linearGradient id="paint29_linear_1_13177" x1="1272.9" y1="1324.83" x2="2773.94" y2="2565.71" gradientUnits="userSpaceOnUse">
<stop stop-color="#009FFF"/>
<stop offset="0.41" stop-color="#00CCE7"/>
<stop offset="0.79" stop-color="#00F1D3"/>
<stop offset="1" stop-color="#00FFCC"/>
</linearGradient>
<linearGradient id="paint30_linear_1_13177" x1="1262.56" y1="1357.5" x2="2824.2" y2="2566.65" gradientUnits="userSpaceOnUse">
<stop stop-color="#009CFF"/>
<stop offset="0.42" stop-color="#00CCE5"/>
<stop offset="0.8" stop-color="#00F0D1"/>
<stop offset="1" stop-color="#00FFCA"/>
</linearGradient>
</defs>
</svg>
